<?xml version="1.0" encoding="UTF-8"?>
<!-- Generator: Adobe Illustrator 16.0.4, SVG Export Plug-In . SVG Version: 6.00 Build 0)  -->
<!DOCTYPE svg PUBLIC "-//W3C//DTD SVG 1.1//EN" "http://www.w3.org/Graphics/SVG/1.1/DTD/svg11.dtd">
<svg version="1.1" id="Layer_1" xmlns="http://www.w3.org/2000/svg" xmlns:xlink="http://www.w3.org/1999/xlink" x="0px" y="0px" width="145px" height="145px" viewBox="0 0 145 145" enable-background="new 0 0 145 145" xml:space="preserve">
<polygon fill="#FF5C00" points="48.113,45.892 66.37,84.885 72.13,72.583 59.684,45.892 "/>
<polygon fill="#FF5C00" points="100.369,45.892 84.627,45.892 63.903,45.892 75.902,71.625 82.111,84.885 "/>
<rect x="7.675" y="45.892" fill="#FF0000" width="36.419" height="10.194"/>
<rect x="7.675" y="59.804" fill="#FF0000" width="36.419" height="22.183"/>
<g>
	<defs>
		<rect id="SVGID_1_" x="-2.518" y="35.699" width="150.518" height="71.534"/>
	</defs>
	<clipPath id="SVGID_2_">
		<use xlink:href="#SVGID_1_" overflow="visible"/>
	</clipPath>
	<path clip-path="url(#SVGID_2_)" fill="#FFB100" d="M137.513,65.959c-0.942,10.018-9.374,17.858-19.635,17.858   c-10.892,0-19.72-8.834-19.72-19.73c0-10.897,8.828-19.731,19.72-19.731c10.233,0,18.647,7.799,19.627,17.78h-19.618   c-1.056,0-1.912,0.855-1.912,1.912c0,1.055,0.856,1.912,1.912,1.912H137.513z"/>
	<rect x="7.817" y="89.555" clip-path="url(#SVGID_2_)" fill="#666666" width="1.315" height="7.483"/>
	<polygon clip-path="url(#SVGID_2_)" fill="#666666" points="15.728,89.491 20.453,94.12 20.453,89.555 21.768,89.555    21.768,97.071 21.693,97.104 16.968,92.506 16.968,97.038 15.653,97.038 15.653,89.523  "/>
	<path clip-path="url(#SVGID_2_)" fill="#666666" d="M27.433,97.038v-7.483h2.619c2.854,0,3.699,2.171,3.699,3.73   c0,1.604-0.845,3.753-3.699,3.753H27.433z M30.051,95.862c2.063,0,2.373-1.914,2.373-2.577c0-0.651-0.31-2.564-2.373-2.564h-1.326   v5.142H30.051z"/>
	<rect x="39.414" y="89.555" clip-path="url(#SVGID_2_)" fill="#666666" width="1.315" height="7.483"/>
	<polygon clip-path="url(#SVGID_2_)" fill="#666666" points="48.34,93.938 48.34,95.862 52.04,95.862 52.04,97.038 47.037,97.038    47.037,89.555 52.04,89.555 52.04,90.731 48.34,90.731 48.34,92.763 51.237,92.763 51.237,93.938  "/>
	<polygon clip-path="url(#SVGID_2_)" fill="#444444" points="62.962,92.452 60.901,97.104 60.804,97.104 57.382,89.555    58.836,89.555 60.857,94.312 62.91,89.416 63.017,89.416 65.08,94.312 67.1,89.555 68.555,89.555 65.133,97.104 65.037,97.104  "/>
	<polygon clip-path="url(#SVGID_2_)" fill="#444444" points="74.347,93.938 74.347,95.862 78.045,95.862 78.045,97.038    73.042,97.038 73.042,89.555 78.045,89.555 78.045,90.731 74.347,90.731 74.347,92.763 77.244,92.763 77.244,93.938  "/>
	<path clip-path="url(#SVGID_2_)" fill="#444444" d="M88.66,93.285c0.608,0.257,0.919,0.995,0.919,1.583   c0,0.898-0.62,2.17-2.64,2.17h-2.801v-7.483h2.801c2.02,0,2.64,1.272,2.64,2.181C89.579,92.345,89.268,93.029,88.66,93.285    M87.088,92.752c0.982-0.032,1.155-0.716,1.155-1.017c0-0.245-0.173-1.015-1.197-1.015h-1.615v2.031H87.088z M87.046,95.862   c1.024,0,1.197-0.748,1.197-0.994c0-0.342-0.173-0.898-1.155-0.93h-1.657v1.924H87.046z"/>
	<path clip-path="url(#SVGID_2_)" fill="#666666" d="M100.921,91.586c-0.396-0.492-1.198-0.94-1.968-0.94   c-2.085,0-2.384,1.988-2.384,2.64c0,0.653,0.299,2.642,2.384,2.642c0.79,0,1.581-0.471,2.062-0.93l0.76,0.95   c-0.729,0.729-1.615,1.188-2.822,1.188c-2.866,0-3.709-2.245-3.709-3.85c0-1.56,0.854-3.838,3.709-3.838   c1.293,0,2.138,0.515,2.844,1.305L100.921,91.586z"/>
	<path clip-path="url(#SVGID_2_)" fill="#666666" d="M112.581,97.038h-1.452l-0.791-1.914h-2.449l-0.791,1.914h-1.454l3.421-7.547   h0.098L112.581,97.038z M108.337,94.035h1.55l-0.77-1.872L108.337,94.035z"/>
	<polygon clip-path="url(#SVGID_2_)" fill="#666666" points="120.685,97.135 118.514,92.709 117.082,97.038 115.682,97.038    118.333,89.459 118.428,89.459 120.738,94.558 123.046,89.459 123.143,89.459 125.793,97.038 124.394,97.038 122.961,92.709    120.792,97.135  "/>
	<path clip-path="url(#SVGID_2_)" fill="#666666" d="M131.811,97.038h-1.314v-7.483h2.822c2.021,0,2.64,1.411,2.64,2.385   c0,1.453-1.282,2.416-2.49,2.416h-1.657V97.038z M133.414,93.158c0.995-0.033,1.231-0.823,1.231-1.219   c0-0.418-0.226-1.219-1.273-1.219h-1.561v2.438H133.414z"/>
</g>
</svg>