<?xml version="1.0" encoding="utf-8"?>
<!-- Generator: Adobe Illustrator 18.1.1, SVG Export Plug-In . SVG Version: 6.00 Build 0)  -->
<svg version="1.1" id="Layer_1" xmlns="http://www.w3.org/2000/svg" xmlns:xlink="http://www.w3.org/1999/xlink" x="0px" y="0px"
     viewBox="0 8.5 15.4 7.5" enable-background="new 0 8.5 15.4 7.5" xml:space="preserve">
<path fill="#000000" d="M6.7,13.4c0-0.3-0.2-0.6-0.4-0.9c-0.2-0.3-0.5-0.5-0.8-0.4c-0.1,0-0.2,0-0.3,0c-0.4,0-0.5,0-0.6,0.1
    c-0.4,0.3-0.7,0.7-0.7,1.2c0,0.4,0.2,0.7,0.5,1.1C4.6,14.7,4.8,14.9,5,15c0.1,0,0.2,0,0.3,0h0.3c0.3,0,0.5-0.1,0.7-0.3
    s0.3-0.4,0.4-0.7C6.7,13.8,6.8,13.6,6.7,13.4 M7,15.6c-0.1,0.1-0.6,0.1-0.7,0c0,0,0,0-0.1-0.1c-0.2-0.1-0.3-0.2-0.5-0.2
    s-0.5,0-0.8,0c-0.1,0-0.2-0.1-0.3-0.1c-0.2,0-0.5-0.2-0.7-0.4s-0.4-0.5-0.4-0.7s-0.1-0.4-0.1-0.5c0-0.3,0.1-0.6,0.3-1
    c0.1-0.1,0.2-0.2,0.4-0.4c0.3-0.2,0.7-0.4,1-0.5c0.1,0,0.3,0,0.7,0.1h0.1c0.1,0,0.2,0.1,0.3,0.1C6.6,12,6.9,12.2,7,12.4
    c0.2,0.3,0.3,0.6,0.3,1c0,0.3-0.1,0.6-0.3,0.9c0,0.1-0.2,0.3-0.4,0.6V15c0,0.1-0.1,0.1,0.1,0.2C7.1,15.5,7,15.6,7,15.6"/>
<path fill="#000000" d="M10.7,15.1c0,0.1-0.1,0.2-0.3,0.2c-0.1,0-0.2,0-0.5-0.1c-0.1,0-0.2,0-0.4,0.1s-0.3,0.1-0.4,0.1
    c-0.5,0-0.9-0.1-1.1-0.3c-0.2-0.2-0.3-0.6-0.3-1.1v-1.4c0-0.1,0-0.1,0-0.2c0-0.1,0-0.2,0-0.2c0-0.2,0.1-0.3,0.4-0.3h0.1
    c0.1,0,0.2,0.1,0.2,0.2v1.7v0.3c0,0.1,0,0.2,0,0.3s0.1,0.2,0.1,0.3C8.6,14.8,8.7,15,8.8,15c0.1,0.1,0.3,0.1,0.5,0.1
    c0.4,0,0.7-0.2,0.8-0.5c0,0,0-0.2,0-0.4l0,0V14v-1.4c0-0.1,0-0.2,0-0.3s0-0.2,0-0.2c0-0.1,0.1-0.2,0.4-0.2c0.1,0,0.2,0.1,0.2,0.2
    v0.1v1.9c0,0.1,0,0.3,0,0.6C10.8,14.8,10.8,15,10.7,15.1"/>
<path fill="#000000" d="M12,15.2c0,0.1-0.1,0.2-0.3,0.2s-0.3,0-0.3-0.1s0-0.2,0-0.5c0-1.1,0-2,0-2.6c0-0.1,0-0.2,0.1-0.3
    s0.2-0.1,0.3-0.1c0.2,0,0.3,0.1,0.3,0.3c0,0.1,0,0.1,0,0.2c0,0.1,0,0.2,0,0.2v1.6c0,0.1,0,0.2,0,0.4s0,0.3,0,0.4
    C12,15,12,15.1,12,15.2"/>
<path fill="#000000" d="M15.3,14.9V15c0,0.1,0,0.1-0.1,0.2c-0.1,0.1-0.1,0.1-0.2,0.1c-0.3,0-0.7,0-1.1,0c-0.1,0-0.2,0-0.4,0
    s-0.3,0-0.4,0c-0.1,0-0.1,0-0.2,0c-0.1,0-0.2,0-0.2,0c-0.1,0-0.2,0-0.3-0.1c0-0.1,0-0.2,0-0.2c0.1-0.2,0.4-0.5,0.7-1.1
    c0-0.1,0.1-0.2,0.2-0.3c0.1-0.1,0.2-0.3,0.3-0.3c0,0,0.2-0.3,0.3-0.5c0,0,0,0,0.1-0.2c0.1-0.1,0.1-0.1,0.1-0.2v-0.1
    c-0.1,0-0.4-0.1-0.8-0.1H13c-0.2,0-0.3,0-0.4,0v-0.1c0-0.1,0.2-0.2,0.5-0.3c0,0,0.1,0,0.5,0s0.8,0,1.3,0c0.1,0,0.1,0,0.1,0.1
    c0,0.1,0,0.1,0,0.2c-0.3,0.5-0.6,0.8-0.9,1.3c-0.1,0.2-0.4,0.5-0.7,1c0,0.1-0.1,0.1-0.1,0.2c0,0,0,0,0,0.1c0.1,0.1,0.2,0.2,0.3,0.2
    c0.4,0,0.7,0.1,0.9,0.1c0.1,0,0.2,0,0.3,0s0.2-0.1,0.3-0.1C15.1,14.9,15.2,14.9,15.3,14.9"/>
<path fill="#000000" d="M1.9,15.5H1.7c-0.3,0-1.7-0.3-1.7-0.9c0-0.1,0.3-0.3,0.3-0.3c0.5,0,0.3,0.8,1.1,0.8c0.4,0,1-0.2,1-0.8
    c0-1.1-2.2-0.4-2.2-2.3c0-0.6,0.7-1.1,1.4-1.3c0.3,0,0.4,0,0.6,0c0.1,0,0.3,0,0.5,0.1c0.1,0,0.2,0.2,0.2,0.3c-0.1,0.2-0.3,0.1-0.6,0
    c-0.1,0-0.3,0-0.4,0c-0.2,0-0.9,0.1-0.9,1c0,1,2.1,0.6,2.1,2.2C3.1,14.9,2.4,15.5,1.9,15.5"/>
<path fill="#000000" d="M10.9,9.2c0.1,0,0.1-0.1,0.2-0.1C11.1,9.1,11,9.2,10.9,9.2"/>
<path fill="#000000" d="M12.7,10.3L12.7,10.3C12.6,10.3,12.6,10.3,12.7,10.3C12.6,10.3,12.6,10.3,12.7,10.3
    C12.6,10.4,12.7,10.3,12.7,10.3"/>
<path fill="#000000" d="M12.3,10.5L12.3,10.5c0.1,0,0.2-0.1,0.2-0.1l0,0l0,0C12.4,10.4,12.4,10.4,12.3,10.5
    C12.3,10.4,12.3,10.4,12.3,10.5L12.3,10.5L12.3,10.5"/>
<path fill="#000000" d="M12.6,10.4c0,0.1-0.1,0.2-0.1,0.2l0,0l0,0l0,0l0,0c0-0.1,0.1-0.1,0.1-0.1S12.7,10.4,12.6,10.4
    C12.7,10.4,12.6,10.4,12.6,10.4"/>
<path fill="#000000" d="M12.3,10.6C12.3,10.6,12.3,10.5,12.3,10.6L12.3,10.6L12.3,10.6C12.2,10.5,12.2,10.6,12.3,10.6
    C12.2,10.6,12.3,10.6,12.3,10.6S12.4,10.6,12.3,10.6C12.4,10.6,12.4,10.6,12.3,10.6c0.1,0,0.1,0,0.1,0
    C12.4,10.5,12.4,10.6,12.3,10.6"/>
<path fill="#000000" d="M12.5,10.7c-0.3,0.4-0.5,0.4-0.5,0.4c0.2-0.1,0.3-0.3,0.4-0.4l0,0c0,0,0,0-0.1,0c0,0-0.1,0-0.1-0.1
    c0,0.1-0.1,0.1-0.2,0.1c0,0-0.1,0.1-0.3,0.1c0,0-0.9,0.2-1.1-0.7c0,0-0.1-0.9,1-0.5c0,0,0.6,0.2,0.7,0.6c0.1,0,0.2,0,0.3-0.1
    c-0.1-0.4-0.4-0.8-0.4-0.8C11.8,8.8,11.7,9,11.7,9c-0.2,0-0.3,0-0.5,0.1C11.5,9,11.7,9,11.7,9c0.4,0.1,0.7,0.7,0.7,0.7l-0.2-0.2
    c-0.2-0.2-0.3-0.3-0.3-0.3c-0.5-0.4-1.1,0.2-1.1,0.2l0.1-0.1c-0.1,0.1-0.1,0.1-0.1,0.1l-0.1,0.1c-0.4,0.4-0.1,1.2-0.1,1.2
    c0.2,0.6,0.9,0.6,1,0.6l0.2-0.1C12.2,11.2,12.4,10.9,12.5,10.7L12.5,10.7 M12.2,10.7c0,0.2-0.2,0.2-0.2,0.2
    C12.1,10.9,12.2,10.7,12.2,10.7 M10.6,9.7c-0.2,0.7,0.2,1.2,0.2,1.2C10.1,10.5,10.6,9.7,10.6,9.7 M10.7,10.9
    c0.2,0.3,0.6,0.3,0.6,0.3C10.9,11.2,10.7,10.9,10.7,10.9 M10.7,10.5c0.2,0.4,0.7,0.5,0.7,0.5C10.8,11,10.7,10.5,10.7,10.5"/>
<path fill="#000000" d="M12.2,9.4c0,0-0.9-1.5-1.5,0.1c-0.1,0.2-0.1,0.2-0.1,0.1C10.6,9.6,11.3,8,12.2,9.4"/>
<path fill="#000000" d="M11.8,10.2c0,0.1,0.1,0.1,0.1,0.1C11.9,10.3,11.8,10.3,11.8,10.2"/>
<path fill="#000000" d="M13,10c0,0-0.3,1.4-1.1,0.3c-0.1-0.1-0.1-0.2-0.1-0.1C11.8,10.2,12.7,11.4,13,10"/>
<path fill="#000000" d="M13.2,9.5c0,0-0.1-0.4-0.5-0.5l-0.2-0.1c0,0-0.3-0.1-0.6,0.1l0,0l0,0l0,0l0,0l0,0c0.1-0.1,0.2-0.2,0.4-0.1
    c0,0-0.2,0-0.4,0.1l0,0l0,0l0,0l0,0c0,0,0,0,0.1,0.1l0,0c0.1,0,0.2-0.1,0.4,0c0,0-0.2,0-0.3,0.1l0,0l0,0c0.3-0.1,0.5,0,0.5,0
    c0.1,0.1,0.2,0.1,0.2,0.1c0.1,0.1,0.1,0.2,0.1,0.2c0.1,0.5-0.6,0.6-0.6,0.6c-0.8,0.1-0.6-0.5-0.6-0.5l0,0l0,0l0,0c0,0.1,0,0.2,0,0.3
    c0,0-0.1-0.1-0.1-0.3l0,0l0,0c0,0.2,0,0.3,0.1,0.5l0.1,0.1c0,0,0,0.1,0.1,0.1v-0.1c0,0,0.3,0.4,0.7,0.2c0,0,0.1-0.1,0.2-0.2l0.2-0.1
    c0,0-0.3,0.4-0.6,0.4c0,0-0.2,0-0.4-0.1c0.1,0.1,0.2,0.1,0.3,0.1c0,0,0.1,0.2,0.4-0.2C12.7,10.4,13.3,9.8,13.2,9.5 M12.8,9.2
    c0,0,0.1,0,0.1,0.2C12.9,9.3,12.9,9.2,12.8,9.2 M13.1,9.9c0,0,0-0.1,0-0.4c0,0-0.1-0.2-0.2-0.4c0,0,0.1,0,0.3,0.4
    C13.1,9.5,13.2,9.7,13.1,9.9"/>
<path fill="#000000" d="M12,9.3C12,9.2,12,9.3,12,9.3C12,9.2,12,9.2,12,9.3C12,9.2,12,9.2,12,9.3C12,9.2,12,9.3,12,9.3"/>
<path fill="#000000" d="M11.9,9.1C11.9,9.2,11.9,9.2,11.9,9.1C11.9,9.2,11.9,9.2,11.9,9.1C11.9,9.2,11.9,9.2,11.9,9.1
    C11.9,9.2,11.9,9.2,11.9,9.1"/>
<path fill="#000000" d="M11.7,9.1C11.7,9.1,11.8,9.1,11.7,9.1h0.1C11.9,9.1,11.8,9.1,11.7,9.1L11.7,9.1z"/>
</svg>
