<?xml version="1.0" encoding="utf-8"?>
<!-- Generator: Adobe Illustrator 15.0.0, SVG Export Plug-In . SVG Version: 6.00 Build 0)  -->
<!DOCTYPE svg PUBLIC "-//W3C//DTD SVG 1.1//EN" "http://www.w3.org/Graphics/SVG/1.1/DTD/svg11.dtd">
<svg version="1.1" id="Layer_1" xmlns="http://www.w3.org/2000/svg" xmlns:xlink="http://www.w3.org/1999/xlink" x="0px" y="0px"
	 width="720px" height="720px" viewBox="0 0 720 720" enable-background="new 0 0 720 720" xml:space="preserve">
<path fill="#F9F9FA" d="M274.137,153.748c-13.219-12.438-31.078-12.438-44.311,0L0.101,360.424l229.725,206.667
	c13.233,12.444,31.092,12.444,44.311,0c13.232-12.46,13.232-32.653,0-45.1L95.782,360.424l178.355-161.578
	C287.369,186.4,287.369,166.214,274.137,153.748z M490.375,153.748c-13.232-12.438-31.078-12.438-44.311,0
	c-13.233,12.466-12.516,32.653,0.718,45.099L624.42,360.424L446.782,521.991c-13.233,12.446-13.951,32.64-0.718,45.1
	c13.232,12.444,31.078,12.444,44.311,0l229.726-206.667L490.375,153.748z"/>
</svg>
