<svg xmlns="http://www.w3.org/2000/svg" width="720" height="432.004"><path fill="#F9F9FA" d="M274.137 9.328c-13.219-12.438-31.078-12.438-44.311 0l-229.725 206.676 229.725 206.667c13.233 12.444 31.092 12.444 44.311 0 13.232-12.46 13.232-32.653 0-45.101l-178.355-161.566 178.355-161.578c13.232-12.446 13.232-32.632 0-45.098zm216.238 0c-13.232-12.438-31.078-12.438-44.311 0-13.233 12.466-12.519 32.653.718 45.099l177.638 161.577-177.638 161.566c-13.233 12.447-13.951 32.641-.718 45.101 13.229 12.444 31.075 12.444 44.311 0l229.726-206.667-229.726-206.676z"/></svg>