<svg width="800" height="150" xmlns="http://www.w3.org/2000/svg" viewBox="0 0 80 15">
<rect x="0" y="0" width="80" height="15" fill="white" stroke-width="2" stroke="#666"/>
<rect x="3" y="4" width="7" height="2" fill="#FC0D1B"/>
<rect x="3" y="7" width="7" height="4" fill="#FC0D1B"/>
<rect x="11" y="4" width="1" height="2" fill="#fc5d20"/>
<rect x="12" y="6" width="1" height="3" fill="#fc5d20"/>
<rect x="13" y="9" width="1" height="2" fill="#fc5d20"/>
<polygon points="13,4 19,4 19,6 18,6 18,9 17,9 17,11 15,11 15,9 14,9 14,6 13,6" fill="#fc5d20"/>
<polygon points="21,4 25,4 25,5 26,5 26,7 22,7 22,8 26,8 26,10 25,10 25,11 21,11 21,10 20,10 20,8 19,8 19,7 20,7 20,5 21,5" fill="#fdb02a"/>

<rect x="28" y="2" width="50" height="1" fill="#fda829"/>
<rect x="28" y="3" width="50" height="1" fill="#fd9c27"/>
<rect x="28" y="4" width="50" height="1" fill="#fd9025"/>
<rect x="28" y="5" width="50" height="1" fill="#fd8124"/>
<rect x="28" y="6" width="50" height="1" fill="#fd7222"/>
<rect x="28" y="7" width="50" height="1" fill="#fd6420"/>
<rect x="28" y="8" width="50" height="1" fill="#fc561f"/>
<rect x="28" y="9" width="50" height="1" fill="#fc481e"/>
<rect x="28" y="10" width="50" height="1" fill="#fc371d"/>
<rect x="28" y="11" width="50" height="1" fill="#fc291c"/>
<rect x="28" y="12" width="50" height="1" fill="#fc1c1c"/>
<path d="m33,5 h1 v5 h-1 z" fill="#fff"/>
<path d="m36,5 h1 v1 h1 v1 h1 v1 h1 v-3 h1 v5 h-1 v-1 h-1 v-1 h-1 v-1 h-1 v3 h-1 z" fill="#fff"/>
<path d="m43,5 h3 v1 h-2 v3 h2 v1 h-3 z" fill="#fff"/>
<path d="m46,6 h1 v3 h-1 z" fill="#fff"/>
<path d="m49,5 h1 v5 h-1 z" fill="#fff"/>
<path d="m52,5 h3 v1 h-2 v1 h2 v1 h-2 v1 h2 v1 h-3 z" fill="#fff"/>
<path d="m57,5 h1 v4 h1 v-3 h1 v3 h1 v-4 h1 v4 h-1 v1 h-1 v-1 h-1 v1 h-1 v-1 h-1 z" fill="#fff"/>
<path d="m64,5 h3 v1 h-2 v1 h2 v1 h-2 v1 h2 v1 h-3 z" fill="#fff"/>
<path d="m69,5 h3 v1 h-2 v1 h2 v1 h-2 v1 h2 v1 h-3 z" fill="#fff"/>
<rect x="72" y="6" width="1" height="1" fill="#fff"/>
<rect x="72" y="8" width="1" height="1" fill="#fff"/>
</svg>