<svg width="272" height="40" viewBox="0 0 272 40" xmlns="http://www.w3.org/2000/svg" xmlns:xlink="http://www.w3.org/1999/xlink">
    <defs>
        <g id="icon-codepen">
            <path d="M39.52 13.76c0-0.040-0.040-0.040-0.040-0.080s0-0.080 0-0.16c-0.040 0-0.040-0.040-0.040-0.080s-0.040-0.080-0.040-0.12c0 0-0.040-0.040-0.040-0.080-0.040-0.040-0.040-0.080-0.080-0.12 0 0 0-0.040-0.040-0.080 0 0-0.040-0.040-0.080-0.080 0-0.040 0-0.040-0.040-0.080s-0.040-0.080-0.080-0.080-0.040-0.040-0.080-0.080-0.040-0.040-0.080-0.080c-0.040 0-0.040-0.040-0.080-0.040 0-0.040-0.040-0.040-0.040-0.040l-18.040-12.040c-0.6-0.36-1.32-0.36-1.88 0l-18.080 12.040c0 0 0 0-0.040 0.040 0 0-0.040 0.040-0.080 0.040 0 0.040-0.040 0.040-0.080 0.080s-0.040 0.040-0.080 0.080c0 0-0.040 0.040-0.080 0.080 0 0.040-0.040 0.040-0.040 0.080-0.040 0.040-0.080 0.080-0.080 0.080-0.040 0.040-0.040 0.080-0.040 0.080-0.040 0.040-0.040 0.080-0.080 0.12 0 0.040 0 0.080-0.040 0.080 0 0.040 0 0.080-0.040 0.12 0 0.040 0 0.080 0 0.080-0.040 0.080-0.040 0.12-0.040 0.16s0 0.040-0.040 0.080c0 0.080 0 0.16 0 0.2v12.040c0 0.080 0 0.16 0 0.24 0.040 0.040 0.040 0.040 0.040 0.080s0 0.080 0.040 0.12c0 0.040 0 0.080 0 0.080 0.040 0.040 0.040 0.12 0.040 0.16 0.040 0 0.040 0.040 0.040 0.080 0.040 0.040 0.040 0.080 0.080 0.080 0 0.040 0 0.080 0.040 0.080 0 0.040 0.040 0.080 0.080 0.12 0 0.040 0.040 0.040 0.040 0.080 0.040 0.040 0.080 0.040 0.080 0.080 0.040 0.040 0.040 0.040 0.080 0.080 0.040 0 0.080 0.040 0.080 0.080 0.040 0 0.080 0.040 0.080 0.040 0.040 0 0.040 0.040 0.040 0.040l18.080 12.040c0.28 0.2 0.6 0.28 0.92 0.28s0.64-0.080 0.96-0.28l18.040-12.040c0 0 0.040-0.040 0.040-0.040 0.040 0 0.040-0.040 0.080-0.040 0.040-0.040 0.040-0.080 0.080-0.080 0.040-0.040 0.040-0.040 0.080-0.080s0.040-0.040 0.080-0.080 0.040-0.040 0.040-0.080c0.040-0.040 0.080-0.080 0.080-0.12 0.040 0 0.040-0.040 0.040-0.080 0.040 0 0.040-0.040 0.080-0.080 0-0.040 0.040-0.080 0.040-0.080 0-0.040 0.040-0.12 0.040-0.16 0 0 0-0.040 0.040-0.080 0-0.040 0-0.080 0-0.12s0.040-0.040 0.040-0.080c0-0.080 0-0.16 0-0.24v-12.040c0-0.040 0-0.12 0-0.2zM21.48 5.12l13.28 8.84-5.92 4-7.36-4.92v-7.92zM18.080 5.12v7.92l-7.36 4.92-5.96-4 13.32-8.84zM3.4 17.16l4.24 2.84-4.24 2.84v-5.68zM18.080 34.88l-13.32-8.88 5.96-3.96 7.36 4.92v7.92zM19.76 24l-6-4 6-4 6 4-6 4zM21.48 34.88v-7.92l7.36-4.92 5.92 3.96-13.28 8.88zM36.12 22.84l-4.24-2.84 4.24-2.84v5.68z" fill="#FFFFFF" />
        </g>
        <g id="icon-github">
            <path d="M24.8 22.56q1.040 0 1.8 1.040t0.76 2.56-0.76 2.56-1.8 1.040q-1.12 0-1.88-1.040t-0.76-2.56 0.76-2.56 1.88-1.040zM33.84 13.2q2.96 3.2 2.96 7.76 0 2.96-0.68 5.32t-1.72 3.84-2.56 2.6-2.8 1.64-2.92 0.8-2.48 0.32-1.8 0.040q-0.24 0-1.44 0.040t-2 0.040-2-0.040-1.44-0.040q-0.96 0-1.8-0.040t-2.48-0.32-2.92-0.8-2.8-1.64-2.56-2.6-1.72-3.84-0.68-5.32q0-4.56 2.96-7.76-0.32-0.16-0.040-3.2t1.32-5.6q3.68 0.4 9.12 4.16 1.84-0.48 5.040-0.48 3.36 0 5.040 0.48 2.48-1.68 4.76-2.72t3.32-1.2l1.040-0.24q1.040 2.56 1.32 5.6t-0.040 3.2zM18.48 33.76q6.64 0 10.040-1.6t3.4-6.56q0-2.88-2.16-4.8-1.12-1.040-2.6-1.28t-4.52 0-4.16 0.24h-0.16q-1.28 0-3.32-0.16t-3.2-0.2-2.52 0.28-2.24 1.12q-2.080 1.84-2.080 4.8 0 4.96 3.36 6.56t10 1.6h0.16zM12.080 22.56q1.040 0 1.8 1.040t0.76 2.56-0.76 2.56-1.8 1.040q-1.12 0-1.88-1.040t-0.76-2.56 0.76-2.56 1.88-1.040z" fill="#FFFFFF" />
        </g>
        <g id="icon-lastfm">
            <path d="M15.76 25.12l1.36 4q-2.56 2.080-6.72 2.080-4.24 0-7.32-2.92t-3.080-7.96q0-5.2 3.2-8.36t7.52-3.16q4.48 0 6.68 1.8t3.64 6.36l1.44 4.64q1.92 5.84 8.080 5.84 4.8 0 4.8-2.4 0-2.16-3.12-2.88l-3.12-0.72q-5.36-1.36-5.36-6.080 0-3.52 2.32-5.040t5.84-1.52q7.36 0 7.92 5.84l-4.56 0.56q-0.32-2.8-3.6-2.8t-3.28 2.48q0 2 2.64 2.64l2.96 0.64q6 1.44 6 6.64 0 6.4-9.52 6.4-5.44 0-8.16-2.12t-4-5.96l-1.44-4.64q-0.56-1.6-0.88-2.4t-1-1.72-1.68-1.32-2.44-0.4q-2.56 0-4.52 1.84t-1.96 5.68q0 3.2 1.84 5.2t4.4 2q2.4 0 5.12-2.24z" fill="#D51007" />
        </g>
        <g id="icon-rss">
            <path d="M0 4.8q12.56 0 21.48 8.92t8.92 21.48h-4.72q0-10.64-7.52-18.12t-18.16-7.48v-4.8zM0 14.32q8.72 0 14.84 6.12t6.12 14.76h-4.72q0-6.64-4.76-11.4t-11.48-4.76v-4.72zM4.56 26.16q1.84 0 3.2 1.32t1.36 3.24q0 1.84-1.36 3.16t-3.2 1.32-3.2-1.32-1.36-3.16q0-1.92 1.36-3.24t3.2-1.32z" fill="#5F8AA6" />
        </g>
        <g id="icon-twitter">
            <path d="M36.8 8.56q-1.44 2.16-3.76 3.92v0.96q0 5.2-2.4 10t-7.44 8.12-11.6 3.32q-6.4 0-11.6-3.36 0.56 0.080 1.84 0.080 5.28 0 9.36-3.2-2.48-0.080-4.4-1.52t-2.64-3.76q0.4 0.16 1.36 0.16 1.040 0 2-0.24-2.64-0.56-4.32-2.64t-1.68-4.8v-0.080q1.44 0.8 3.36 0.96-3.36-2.32-3.36-6.32 0-1.92 1.040-3.76 6.16 7.52 15.6 7.84-0.24-0.72-0.24-1.68 0-3.12 2.2-5.32t5.4-2.2q3.28 0 5.44 2.32 2.4-0.48 4.8-1.76-0.8 2.64-3.28 4.16 2.24-0.32 4.32-1.2z" fill="#55ACEE" />
        </g>
        <g id="icon-link">
            <path class="path1" d="M15.718 29.388l-1.62 1.608c-1.404 1.39-3.686 1.392-5.088 0-0.674-0.67-1.044-1.556-1.044-2.502s0.372-1.834 1.044-2.504l5.96-5.914c1.234-1.226 3.558-3.028 5.252-1.348 0.778 0.772 2.034 0.766 2.804-0.010 0.772-0.776 0.768-2.032-0.010-2.804-2.878-2.856-7.134-2.328-10.84 1.348l-5.96 5.914c-1.428 1.42-2.216 3.308-2.216 5.318 0 2.008 0.788 3.896 2.218 5.316 1.472 1.462 3.404 2.19 5.336 2.19s3.868-0.728 5.34-2.19l1.62-1.61c0.778-0.772 0.782-2.028 0.010-2.802-0.772-0.776-2.028-0.78-2.806-0.010zM33.782 6.418c-3.092-3.068-7.414-3.234-10.278-0.394l-2.018 2.002c-0.778 0.772-0.784 2.026-0.012 2.804 0.774 0.778 2.028 0.782 2.804 0.010l2.018-2.002c1.482-1.472 3.424-0.862 4.692 0.394 0.674 0.668 1.044 1.558 1.044 2.502 0 0.946-0.372 1.834-1.044 2.502l-6.36 6.308c-2.906 2.884-4.272 1.532-4.854 0.954-0.778-0.772-2.032-0.766-2.802 0.010-0.772 0.778-0.768 2.034 0.010 2.804 1.334 1.324 2.86 1.98 4.456 1.98 1.956 0 4.022-0.984 5.986-2.934l6.358-6.308c1.43-1.418 2.218-3.306 2.218-5.314s-0.788-3.898-2.218-5.318z" file="#4F4F4F" />
        </g>
    </defs>
    <g>
        <use xlink:href="#icon-codepen" transform="translate(0 0)"></use>
        <use xlink:href="#icon-github" transform="translate(51 0)"></use>
        <use xlink:href="#icon-lastfm" transform="translate(99 0)"></use>
        <use xlink:href="#icon-rss" transform="translate(149 0)"></use>
        <use xlink:href="#icon-twitter" transform="translate(190 0)"></use>
        <use xlink:href="#icon-link" transform="translate(232 0)"></use>
    </g>
</svg>
