<svg width="210" height="32" viewBox="0 0 210 32" xmlns="http://www.w3.org/2000/svg" xmlns:xlink="http://www.w3.org/1999/xlink">
    <defs>
        <g id="icon-codepen">
            <path d="M31.616 11.008c0-0.032-0.032-0.032-0.032-0.064s0-0.064 0-0.128c-0.032 0-0.032-0.032-0.032-0.064s-0.032-0.064-0.032-0.096c0 0-0.032-0.032-0.032-0.064-0.032-0.032-0.032-0.064-0.064-0.096 0 0 0-0.032-0.032-0.064 0 0-0.032-0.032-0.064-0.064 0-0.032 0-0.032-0.032-0.064s-0.032-0.064-0.064-0.064-0.032-0.032-0.064-0.064-0.032-0.032-0.064-0.064c-0.032 0-0.032-0.032-0.064-0.032 0-0.032-0.032-0.032-0.032-0.032l-14.432-9.632c-0.48-0.288-1.056-0.288-1.504 0l-14.464 9.632c0 0 0 0-0.032 0.032 0 0-0.032 0.032-0.064 0.032 0 0.032-0.032 0.032-0.064 0.064s-0.032 0.032-0.064 0.064c0 0-0.032 0.032-0.064 0.064 0 0.032-0.032 0.032-0.032 0.064-0.032 0.032-0.064 0.064-0.064 0.064-0.032 0.032-0.032 0.064-0.032 0.064-0.032 0.032-0.032 0.064-0.064 0.096 0 0.032 0 0.064-0.032 0.064 0 0.032 0 0.064-0.032 0.096 0 0.032 0 0.064 0 0.064-0.032 0.064-0.032 0.096-0.032 0.128s0 0.032-0.032 0.064c0 0.064 0 0.128 0 0.16v9.632c0 0.064 0 0.128 0 0.192 0.032 0.032 0.032 0.032 0.032 0.064s0 0.064 0.032 0.096c0 0.032 0 0.064 0 0.064 0.032 0.032 0.032 0.096 0.032 0.128 0.032 0 0.032 0.032 0.032 0.064 0.032 0.032 0.032 0.064 0.064 0.064 0 0.032 0 0.064 0.032 0.064 0 0.032 0.032 0.064 0.064 0.096 0 0.032 0.032 0.032 0.032 0.064 0.032 0.032 0.064 0.032 0.064 0.064 0.032 0.032 0.032 0.032 0.064 0.064 0.032 0 0.064 0.032 0.064 0.064 0.032 0 0.064 0.032 0.064 0.032 0.032 0 0.032 0.032 0.032 0.032l14.464 9.632c0.224 0.16 0.48 0.224 0.736 0.224s0.512-0.064 0.768-0.224l14.432-9.632c0 0 0.032-0.032 0.032-0.032 0.032 0 0.032-0.032 0.064-0.032 0.032-0.032 0.032-0.064 0.064-0.064 0.032-0.032 0.032-0.032 0.064-0.064s0.032-0.032 0.064-0.064 0.032-0.032 0.032-0.064c0.032-0.032 0.064-0.064 0.064-0.096 0.032 0 0.032-0.032 0.032-0.064 0.032 0 0.032-0.032 0.064-0.064 0-0.032 0.032-0.064 0.032-0.064 0-0.032 0.032-0.096 0.032-0.128 0 0 0-0.032 0.032-0.064 0-0.032 0-0.064 0-0.096s0.032-0.032 0.032-0.064c0-0.064 0-0.128 0-0.192v-9.632c0-0.032 0-0.096 0-0.16zM17.184 4.096l10.624 7.072-4.736 3.2-5.888-3.936v-6.336zM14.464 4.096v6.336l-5.888 3.936-4.768-3.2 10.656-7.072zM2.72 13.728l3.392 2.272-3.392 2.272v-4.544zM14.464 27.904l-10.656-7.104 4.768-3.168 5.888 3.936v6.336zM15.808 19.2l-4.8-3.2 4.8-3.2 4.8 3.2-4.8 3.2zM17.184 27.904v-6.336l5.888-3.936 4.736 3.168-10.624 7.104zM28.896 18.272l-3.392-2.272 3.392-2.272v4.544z" fill="#FFFFFF" />
        </g>
        <g id="icon-github">
            <path d="M19.84 18.048q0.832 0 1.44 0.832t0.608 2.048-0.608 2.048-1.44 0.832q-0.896 0-1.504-0.832t-0.608-2.048 0.608-2.048 1.504-0.832zM27.072 10.56q2.368 2.56 2.368 6.208 0 2.368-0.544 4.256t-1.376 3.072-2.048 2.080-2.24 1.312-2.336 0.64-1.984 0.256-1.44 0.032q-0.192 0-1.152 0.032t-1.6 0.032-1.6-0.032-1.152-0.032q-0.768 0-1.44-0.032t-1.984-0.256-2.336-0.64-2.24-1.312-2.048-2.080-1.376-3.072-0.544-4.256q0-3.648 2.368-6.208-0.256-0.128-0.032-2.56t1.056-4.48q2.944 0.32 7.296 3.328 1.472-0.384 4.032-0.384 2.688 0 4.032 0.384 1.984-1.344 3.808-2.176t2.656-0.96l0.832-0.192q0.832 2.048 1.056 4.48t-0.032 2.56zM14.784 27.008q5.312 0 8.032-1.28t2.72-5.248q0-2.304-1.728-3.84-0.896-0.832-2.080-1.024t-3.616 0-3.328 0.192h-0.128q-1.024 0-2.656-0.128t-2.56-0.16-2.016 0.224-1.792 0.896q-1.664 1.472-1.664 3.84 0 3.968 2.688 5.248t8 1.28h0.128zM9.664 18.048q0.832 0 1.44 0.832t0.608 2.048-0.608 2.048-1.44 0.832q-0.896 0-1.504-0.832t-0.608-2.048 0.608-2.048 1.504-0.832z" fill="#FFFFFF" />
        </g>
        <g id="icon-lastfm">
            <path d="M12.608 20.096l1.088 3.2q-2.048 1.664-5.376 1.664-3.392 0-5.856-2.336t-2.464-6.368q0-4.16 2.56-6.688t6.016-2.528q3.584 0 5.344 1.44t2.912 5.088l1.152 3.712q1.536 4.672 6.464 4.672 3.84 0 3.84-1.92 0-1.728-2.496-2.304l-2.496-0.576q-4.288-1.088-4.288-4.864 0-2.816 1.856-4.032t4.672-1.216q5.888 0 6.336 4.672l-3.648 0.448q-0.256-2.24-2.88-2.24t-2.624 1.984q0 1.6 2.112 2.112l2.368 0.512q4.8 1.152 4.8 5.312 0 5.12-7.616 5.12-4.352 0-6.528-1.696t-3.2-4.768l-1.152-3.712q-0.448-1.28-0.704-1.92t-0.8-1.376-1.344-1.056-1.952-0.32q-2.048 0-3.616 1.472t-1.568 4.544q0 2.56 1.472 4.16t3.52 1.6q1.92 0 4.096-1.792z" fill="#D51007" />
        </g>
        <g id="icon-rss">
            <path d="M0 3.84q10.048 0 17.184 7.136t7.136 17.184h-3.776q0-8.512-6.016-14.496t-14.528-5.984v-3.84zM0 11.456q6.976 0 11.872 4.896t4.896 11.808h-3.776q0-5.312-3.808-9.12t-9.184-3.808v-3.776zM3.648 20.928q1.472 0 2.56 1.056t1.088 2.592q0 1.472-1.088 2.528t-2.56 1.056-2.56-1.056-1.088-2.528q0-1.536 1.088-2.592t2.56-1.056z" fill="#5F8AA6" />
        </g>
        <g id="icon-twitter">
            <path d="M29.44 6.848q-1.152 1.728-3.008 3.136v0.768q0 4.16-1.92 8t-5.952 6.496-9.28 2.656q-5.12 0-9.28-2.688 0.448 0.064 1.472 0.064 4.224 0 7.488-2.56-1.984-0.064-3.52-1.216t-2.112-3.008q0.32 0.128 1.088 0.128 0.832 0 1.6-0.192-2.112-0.448-3.456-2.112t-1.344-3.84v-0.064q1.152 0.64 2.688 0.768-2.688-1.856-2.688-5.056 0-1.536 0.832-3.008 4.928 6.016 12.48 6.272-0.192-0.576-0.192-1.344 0-2.496 1.76-4.256t4.32-1.76q2.624 0 4.352 1.856 1.92-0.384 3.84-1.408-0.64 2.112-2.624 3.328 1.792-0.256 3.456-0.96z" fill="#007BA8" />
        </g>
    </defs>
    <g>
        <use xlink:href="#icon-codepen" transform="translate(0 0)"></use>
        <use xlink:href="#icon-github" transform="translate(48 0)"></use>
        <use xlink:href="#icon-lastfm" transform="translate(93 0)"></use>
        <use xlink:href="#icon-rss" transform="translate(141 0)"></use>
        <use xlink:href="#icon-twitter" transform="translate(181 0)"></use>
    </g>
</svg>