<svg xmlns="http://www.w3.org/2000/svg" xmlns:xlink="http://www.w3.org/1999/xlink"
  xml:space="preserve" viewBox="0 0 856.441 711.019">
  <title>Raven</title>
  <defs>
    <clipPath id="a" clipPathUnits="userSpaceOnUse">
      <path d="M0 533.264h642.331V0H0Z"/>
    </clipPath>
  </defs>
  <g fill-rule="evenodd" clip-path="url(#a)" transform="translate(856.441 711.019)scale(-1.33333)">
    <path fill="#f9f9f9" d="M0 411.27c13.516.907 31.961-2.336 40.909-7.46l.294.294a106 106 0 0 1 4.379 4.627c6.618 7.476 12.57 16.181 17.834 24.64 7.881 12.668 15.368 26.37 21.813 39.83 6.044 12.622 15.383 29.813 18.542 42.42 10.283-2.573 19.098-5.72 19.867-13.35 4.027 11.932 17.719 27.287 28.592 28.992 8.808-12.706 12.37-19.736 15.573-34.445l.057-.27c.355-.217.706-.441 1.058-.66 4.951-3.088 8.994-6.287 12.01-11.443 4.486-7.67 4.64-16.922 3.587-25.502-.669-5.445-1.83-11.175-3.284-16.833 5.794 4.668 27.467 14.273 35.857 13.239 2.324-1.803.481-13.826-.99-19.098 2.6.252 11.518-.193 13.978-1.647 4.554-2.428-9.448-36.984-13.501-43.608 10.021 3.544 45.654 13.755 52.575 17.554 3.828-8.574-2.795-30.387-6.844-36.08a68 68 0 0 0-3.645-4.66c2.415.203 4.828.397 7.236.563 9.134.627 32.544 1.218 39.946.8.7-6.996-3.152-11.94-4.225-15.005a187 187 0 0 1 9.228 7.517c11.688 10.176 22.612 21.898 33.073 33.328 9.839 10.75 19.499 22.047 29.691 32.425 8.036 8.182 12.605 10.918 23.432 14.503 12.135 4.017 24.475 7.41 36.59 11.528 8.741 2.97 17.113 6.343 25.545 10.077 8.709 3.857 23.936 9.784 31.046 13.96 2.107-10.068-.369-19.715-.61-21.185 12.537.45 24.775 1.072 37.348 2.569 14.643 1.744 100.192 19.404 109.542 16.002 4.3-5.432-12.755-31.72-19.93-38.13 3.078-14.538-21.152-27.88-32.526-33.354q-.177-.751-.438-1.497c-1.578-4.53-5.13-7.943-8.888-10.743-4.675-3.481-10.199-6.594-15.437-9.16-5.03-2.464-10.271-4.576-15.591-6.34 2.633-2.135 5.396-4.853 5.704-7.122-2.743-3.092-17.672-8.266-19.347-9.114 6.313-5.026 8.908-7.39 9.491-10.792-4.166-8.281-22.342-19.586-31.964-22.66 3.622-3.218 8.002-9.17 8.077-14.482-4.43-5.87-30.082-13.214-38.745-14.578 2.426-3.22 5.6-10.657 6.46-14.845-5.92-8.12-34.603-12.067-43.263-12.431-1.501-2.415-9.64-10.194-30.819-12.657-9.1-1.058-18.628-1.57-27.792-1.743a75 75 0 0 0-1.646-.013c2.516-2.991 4.955-6.17 6.894-9.321 2.129-3.46 3.582-6.867 4.522-10.728a823 823 0 0 1 5.948-6.721c1.529-.625 3.721-1.186 5.147-1.613 13.194-3.947 26.633-7.19 40.232-9.388 20.125-3.252 40.988-4.445 61.342-5.352 22.177-.99 44.491-1.61 66.691-1.72 13.806-.068 52.935 1.542 62.081 10.039 27.788-57.482-25.615-91.39-75.937-95.918-17.001-18.894-52.156-25.012-70.54-22.268-26.069-15.712-74.465-10.032-102.715-2.38-10.809 2.928-21.424 6.668-31.917 10.58-1.528-2.727-3.905-5.121-6.081-7.358 2.137-.728 4.653-1.773 6.511-3.09 1.413-1.002 2.65-2.124 3.888-3.327.503-.49 1.245-1.284 1.836-1.66.8-.508 1.975-.968 2.846-1.366 2.168-.99 4.22-2.046 6.115-3.514 3.85-2.985 6.501-7.241 7.899-11.872 1.079-3.572 1.308-7.162.299-10.782-.306-1.094-.679-2.003-1.096-2.928l.011-.126c.849-9.868.083-23.732-12.703-30.401-.256-.17-10.42-9.751-11.729-11.06-.341-.341.661-.384 3.209.117 2.547.5 6.641 1.546 9.188 2.665q.166.073.322.145C360.05 7.633 345.898 1.267 329.505 1.82c-4.168.14-7.008.809-10.697 2.68-2.526 1.283-4.685 2.455-6.964 4.194-3.11 2.372-6.002 5.313-8.625 8.208-2.412 2.662-4.698 5.538-7.193 8.103-1.563 1.609-3.291 2.909-4.888 4.443-3.578 3.435-4.906 7.367-4.499 12.3.213 2.584.758 5.099.742 7.71-.019 3.185-.689 6.683-1.111 9.852-.657 4.935-.925 9.543-.178 14.514.313 2.084.778 4.075 1.302 6.045q-1.117-.529-2.227-1.078c-3.683-1.822-7.411-3.894-10.699-6.372a41 41 0 0 1-4.146-3.595 23 23 0 0 0 1.455-2.857c1.774-4.165 2.574-9.311 2.786-13.84.138-2.915-.051-5.543-.197-8.403.087-.342.181-.684.265-1.022 1.158-4.657 1.801-9.578.538-14.29-1.657-6.187-6.243-10.686-11.936-13.35-3.267-1.53-6.059-1.995-9.335-3.053l-.085-.028c-.475-.296-.985-.71-1.44-1.03-8.822-6.252-13.305-7.787-23.968-5.794-3.273.61-15.951 7.58-18.74 9.383-1.836-8.087-2.415-7.74-.716-14.54-16.152 3.215-23.316 9.393-27.554 24.872-.378 3.236-.225 5.765.364 8.839-.189 2.263-.034 4.396.637 6.615.48 1.587 1.301 2.928 1.763 4.384.214.676.357 1.69.362 2.39.011 1.713-.299 3.696-.348 5.488-.152 5.543 1.405 13.45 4.445 18.22 1.953 3.067 8.297 4.496 14.812 7.94 8.272 4.375 17.213 10.669 22.087 13.112 4.379 2.194 8.248 5.444 11.882 8.687 5.405 4.825 10.535 9.793 16.369 14.132a109 109 0 0 0 7.748 5.248c-2.604 2.612-5.206 5.228-7.745 7.913-5.334 5.646-10.614 11.659-14.815 18.208-3.355 5.23-5.694 10.52-8.394 16.056-1.464 3-2.365 4.76-5.311 6.532-5.387 3.24-12.97 4.508-19.153 4.606-10.068.158-21.597-2.06-31.425-4.158-6.184-1.32-12.573-2.751-18.629-4.59l-.034-.011-.186-.266c-3.886-5.496-7.682-10.62-12.291-15.571-10.57-11.356-24.965-22.63-30.317-36.84-18.072 1.958-16.978 35.75-12.047 49.399.699 1.936 1.471 3.47 2.304 5.173-.06.648-.152 1.319-.217 1.91-.665 6.127-1.155 12.257-.369 18.4.671 5.239 2.294 10.438 4.451 15.273-1.172 5.522-1.935 11.3-1.5 16.93.458 5.918 2.264 11.623 4.713 16.999.285.625.591 1.24.886 1.859.375 2.415.649 4.45 1.472 6.917a30.6 30.6 0 0 0 5.436 9.764c-1.249 1.77-2.342 3.606-3.511 5.566-.089.149-.185.318-.286.462-.51.613-1.312 1.313-1.888 1.869-4.976 4.792-10.109 9.37-15.347 13.876-10.446 8.984-21.386 17.935-32.679 25.824-9.584 6.695-19.462 12.16-29.328 18.298-6.685 4.158-12.87 8.56-17.437 15.098-4.413 6.319-6.658 13.459-7.442 21.08-.76 7.382-.139 14.847-.878 22.199C8.459 389.552 6.159 399.4 0 411.27"/>
    <path fill="#5f8aa6" d="M339.577 75.195c-.992-.899-3.807-.75-5.886-2.156-2.078-1.408-3.422-4.37-4.008-7.378-.586-3.006-.416-6.055 1.408-7.985 1.822-1.928 5.298-2.739 7.9-4.423 2.6-1.685 4.327-4.244 5.243-6.194s1.024-3.294 1.504-5.18c.48-1.887 1.332-4.319 2.271-6.067.937-1.748 1.961-2.813 2.688-3.34.728-.525 1.16-.51-.429-.777-1.587-.267-5.196-.814-10.55.47-5.355 1.281-12.454 4.393-17.603 9.532S313.767 54 313.63 60.46c-.138 6.46 2.782 12.215 7.506 15.353 4.723 3.138 11.25 3.656 14.927 2.942 3.678-.714 4.507-2.662 3.515-3.56M224.262 17.85c.46.236-.136 1.247-.533 3.243-.396 1.997-.592 4.98.238 7.707.83 2.728 2.684 5.2 3.643 8.122.96 2.92 1.024 6.289 2.314 8.806s3.805 4.178 6.737 4.146 6.28-1.76 8.041-4.451c1.763-2.691 1.941-6.347 2.367-8.842s1.102-3.827 1.895-.752c.793 3.074 1.705 10.555.192 15.992s-5.454 8.829-11.815 8.723c-6.362-.105-15.146-3.71-19.314-9.561-4.168-5.853-3.72-13.954-2.494-19.711s3.23-9.168 4.99-11.143 3.28-2.514 3.74-2.28"/>
    <path fill="#2b4251" d="M120.105 270.057c-2.487 2.395-7.037 6.753-15.793 14.284-8.757 7.53-21.72 18.234-33.531 26.485s-22.472 14.05-29.806 18.612c-7.334 4.563-11.343 7.89-14.307 12.132-2.963 4.242-4.881 9.402-5.564 16.032s-.127 14.733-.875 22.172-2.796 14.216-3.918 17.658-1.317 3.552-1.422 3.51c-.106-.044-.122-.239 2.278-.74 2.402-.5 7.22-1.306 11.442-2.668 4.221-1.363 7.846-3.28 10.597-5.499 2.75-2.217 4.626-4.733 5.777-5.927s1.578-1.066 3.497.171c1.918 1.236 5.33 3.582 8.559 6.58 3.229 3 6.275 6.651 8.386 9.38s3.286 4.535 1.741 3.818-5.809-3.958-10.142-6.61c-4.333-2.65-8.736-4.71-9.65-4.8s1.661 1.792 6.245 6.97c4.583 5.177 11.173 13.65 18.909 26.084 7.737 12.434 16.619 28.83 22.381 40.864 5.763 12.035 8.407 19.711 10.913 23.888s4.875 4.856 7.508 3.78 5.53-3.91 7.693-6.86c2.163-2.952 3.592-6.023 4.457-7.8.864-1.78 1.165-2.266 1.603-2.11s1.012.954 1.907 3.607c.894 2.653 2.108 7.16 3.599 11.982s3.262 9.96 5.628 14.043 5.33 7.11 7.015 8.753c1.684 1.641 2.089 1.897 3.486-.118 1.396-2.015 3.784-6.3 5.441-10.939s2.585-9.632 3.156-12.256.788-2.879 1.588-4.553c.801-1.674 2.187-4.764 3.093-6.779s1.332-2.953.959-1.834c-.373 1.12-1.545 4.296-1.92 5.705-.374 1.408.05 1.05 2.203-.294 2.154-1.343 6.036-3.67 8.426-7.755 2.389-4.084 3.284-9.926 2.197-18.774s-4.157-20.702-7.621-30.488-7.323-17.504-9.617-21.956c-2.294-4.45-3.022-5.636-3.27-6.177s-.016-.439 5.871 5.345c5.886 5.784 17.426 17.25 26.01 24.517 8.584 7.268 14.213 10.338 17.496 11.394 3.284 1.055 4.222.095 2.9-4.19s-4.904-11.896-8.713-18.457c-3.81-6.56-7.847-12.068-10.011-15.18s-2.455-3.83.8-1.034 10.057 9.108 15.494 13.393 9.509 6.546 12.035 7.601c2.526 1.056 3.507.906 2.761-3.038s-3.22-11.683-7.046-19.135-9.009-14.615-12.601-19.722c-3.592-5.106-5.596-8.154-6.513-9.733-.917-1.577-.746-1.684.32-1.652s3.028.203 5.032.48 4.051.661 4.187.841c.136.181-1.638.158-2.322.194s-.28.134 7.057 2.693 21.605 7.581 31.649 11.244 15.865 5.965 19.009 7.222c3.145 1.26 3.614 1.472 3.134-1.215-.48-2.686-1.908-8.272-6.343-14.509-4.434-6.236-11.875-13.122-16.56-16.949-4.686-3.827-6.615-4.595-7.549-4.999s-.872-.444.726-.657c1.599-.213 4.734-.598 11.211-.303 6.477.294 16.297 1.27 25.247 1.884s17.03.871 21.145 1.01c4.115.138 4.264.16 3.475-1.525s-2.516-5.074-7.6-8.923c-5.086-3.848-13.528-8.155-19.028-10.617-5.5-2.464-8.055-3.082-8.716-3.914-.661-.83.573-1.875 3.472-3.026s7.461-2.408 11.853-2.739 8.614.266 11.279.97c2.665.703 3.773 1.514 9.253 5.16 5.479 3.645 15.329 10.127 26.128 19.53 10.798 9.402 22.545 21.724 33.941 34.175s22.439 25.031 29.433 32.151 9.935 8.785 19.146 11.833c9.21 3.05 24.689 7.484 36.671 11.556s20.468 7.782 26.437 10.426c5.97 2.643 9.424 4.221 11.663 5.501 2.238 1.28 3.261 2.26 3.731 1.812s.384-2.324-.405-5.309-2.282-7.078-2.42-8.976c-.139-1.897 1.076-1.599 9.402-1.322 8.325.278 23.762.534 42.736 2.793 18.976 2.261 41.491 6.525 57.694 9.744 16.204 3.22 26.097 5.394 31.213 6.481 5.117 1.088 5.459 1.088 4.84-1.258s-2.196-7.036-6.205-11.939c-4.007-4.904-10.446-10.02-13.666-12.515-3.219-2.495-3.219-2.367-3.176-2.346.043.022.128-.064.49-.085.362-.02 1.002.021 2.303-.043 1.3-.063 3.261-.234 4.007-1.15.748-.917.278-2.58-1.875-5.203-2.154-2.622-5.991-6.204-11.3-9.636-5.309-3.433-12.089-6.717-15.713-8.412-3.624-1.694-4.093-1.8-4.178-2.036-.085-.234.213-.596.56-1.284.346-.687.741-1.7.25-3.107s-1.865-3.209-5.164-5.666c-3.3-2.457-8.524-5.57-13.747-8.129s-10.447-4.562-15.02-6.044-8.497-2.44-10.202-3.08-1.194-.96-.043-2.08c1.151-1.119 2.942-3.037 3.475-4.562.534-1.525-.192-2.655-3.421-4.595-3.231-1.94-8.966-4.69-14.072-6.588s-9.584-2.942-11.823-3.465c-2.238-.522-2.238-.522 1.173-1.524s10.233-3.006 14.092-5.03c3.859-2.027 4.755-4.074 4.883-5.79.127-1.716-.512-3.102-2.73-4.904-2.217-1.8-6.012-4.019-11.929-6.194-5.916-2.174-13.954-4.306-19.412-5.553s-8.336-1.61-8.837-1.919 1.375-.565 4.872-2.089 8.614-4.318 11.268-6.375 2.847-3.38 1.834-5.096-3.231-3.827-8.145-5.628-12.526-3.294-20.19-4.317-15.383-1.578-19.306-1.759c-3.923-.182-4.051.011-.502-2.09 3.55-2.099 10.779-6.492 14.637-9.466s4.35-4.53 4.04-6.162c-.308-1.63-1.417-3.336-6.481-4.53s-14.082-1.876-21.683-2.196-13.783-.278-16.459-.448-1.845-.554-.672-1.567 2.687-2.654 3.23-3.976.118-2.324-2.729-3.497c-2.847-1.172-8.112-2.516-16.363-3.475s-19.487-1.535-26.758-1.674c-7.269-.138-10.574.16-12.014.043-1.438-.117-1.012-.65-.884-1.407s-.042-1.737-1.045-2.92c-1.002-1.184-2.835-2.57-3.113-3.818-.277-1.246 1.002-2.356 3.795-5.437 2.793-3.08 7.1-8.133 9.573-12.152 2.473-4.018 3.113-7.004 3.432-8.518.321-1.513.321-1.555 1.877-3.335s4.668-5.299 6.395-7.228c1.726-1.93 2.068-2.27 9.977-4.638 7.91-2.366 23.389-6.758 41.597-9.7 18.207-2.942 39.144-4.435 62.575-5.479s49.358-1.642 67.117-1.73 27.354.331 35.271 1.49 14.157 3.056 17.278 4.066c3.12 1.011 3.12 1.134 4.37-.579s3.752-5.262 4.256-10.83c.504-5.57-.988-13.16-5.017-20.73-4.031-7.568-10.597-15.116-19.637-21.129-9.04-6.01-20.553-10.489-30.999-13.188-10.447-2.699-19.827-3.62-24.46-3.848s-4.518.24-4.283-1.196c.234-1.437.587-4.778-2.434-8.132s-9.417-6.724-18.009-8.877-19.381-3.09-26.992-3.496c-7.611-.405-12.046-.277-14.264-.213-2.216.064-2.216.064-5.137-1.663s-8.764-5.182-18.912-6.844c-10.149-1.663-24.604-1.536-37.759-.533-13.155 1.002-25.009 2.878-37.524 6.268-12.514 3.39-25.691 8.294-32.684 10.917-6.994 2.622-7.805 2.963-8.21 2.953s-.406-.373-.843-2.197c-.437-1.822-1.311-5.106-3.838-8.496-2.526-3.389-6.705-6.886-10.255-9.22s-6.47-3.508-7.931-4.894c-1.46-1.386-1.46-2.984-1.46-4.84 0-1.854 0-3.966 1.066-4.978 1.065-1.013 3.197-.927 5.916.181 2.719 1.11 6.024 3.241 9.21 3.763 3.188.522 6.258-.564 8.528-2.174s3.743-3.742 6.173-5.288 5.821-2.505 8.144-4.306c2.324-1.8 3.582-4.445 4.2-6.492s.598-3.496.234-4.797c-.362-1.3-1.065-2.452-1.385-3.252-.32-.798-.256-1.247-.053-3.602.202-2.357.543-6.62-.128-9.957-.672-3.337-2.357-5.746-3.188-6.588-.832-.843-.81-.117-1.396 2.004-.587 2.121-1.78 5.64-3.312 7.978-1.531 2.34-3.399 3.5-4.774 4.193s-2.258.918-3.529 1.65a12.3 12.3 0 0 0-4.258 4.024c-1.322 2.057-2.303 4.936-4.307 6.322s-5.032 1.28-8.219-.544c-3.188-1.822-6.535-5.362-8.208-7.132s-1.674-1.769-.748-3.73c.928-1.962 2.783-5.885 4.467-8.379 1.685-2.494 3.198-3.56 4.413-3.997 1.215-.438 2.132-.245 3.667-.779 1.535-.533 3.69-1.79 5.267-3.07s2.58-2.58 3.07-3.934.469-2.76.586-3.72.373-1.47 1.418-2.26 2.878-1.856 4.541-2.474 3.155-.789 3.795-1.13.427-.852-.277-1.407c-.703-.554-1.898-1.15-3.657-1.63-1.758-.48-4.082-.842-6.374-.757-2.293.084-4.552.618-6.012.714-1.461.096-2.122-.246-3.007-.192s-1.993.501-3.102 1.226c-1.108.724-2.217 1.727-3.464 2.612-1.248.885-2.633 1.652-3.028 1.748-.394.096.202-.48.948-1.482.747-1.002 1.643-2.43 2.932-3.379 1.29-.949 2.975-1.418 4.51-1.972 1.535-.555 2.921-1.194 3.656-2.324s.821-2.75.832-3.667c.01-.917-.054-1.13.127-1.323.182-.19.608-.362 2.133-.67 1.524-.31 4.146-.758 6.141-.833 1.993-.074 3.357.224 4.114.406.757.181.906.245.266-.736-.639-.98-2.068-3.006-5.799-4.232s-9.765-1.652-13.36-1.53c-3.596.121-4.754.79-6.204 1.525-1.449.736-3.191 1.538-5.309 3.153-2.119 1.618-4.613 4.048-7.182 6.883s-5.213 6.076-7.452 8.38-4.072 3.666-5.149 4.7-1.396 1.738-1.236 3.678.799 5.117.778 8.656-.703 7.441-1.205 11.204c-.501 3.763-.821 7.388-.203 11.502.619 4.116 2.175 8.721 3.028 11.952s1.002 5.084.842 7.024-.629 3.966-1.076 4.83c-.449.862-.875.564-4.244-.918-3.368-1.48-9.679-4.146-14.849-6.705s-9.199-5.01-12.398-7.419-5.565-4.776-7.558-6.95-3.613-4.157-4.071-5.234c-.459-1.077.246-1.247 1.45-2.057 1.205-.81 2.91-2.26 4.072-4.988 1.162-2.73 1.78-6.739 1.94-10.139s-.138-6.193-.213-7.707.075-1.748.586-3.806c.512-2.057 1.386-5.938.587-8.923-.8-2.985-3.273-5.074-6.119-6.407-2.847-1.332-6.066-1.908-8.081-2.558s-2.825-1.375-4.434-2.516c-1.61-1.14-4.02-2.696-5.864-3.518-1.844-.82-3.123-.906-3.059-.34.064.564 1.471 1.78 2.921 4.19 1.45 2.408 2.942 6.011 3.741 9.625.8 3.613.906 7.238 1.482 9.817.575 2.58 1.621 4.116 2.217 5.341.597 1.227.747 2.144.118 3.913-.63 1.77-2.036 4.392-5.085 5.884s-7.74 1.855-11.567.203-6.79-5.319-8.389-8.315-1.834-5.32-1.738-6.96c.096-1.643.522-2.602.256-3.69-.266-1.087-1.226-2.302-1.556-3.73-.331-1.429-.032-3.07.437-4.627s1.108-3.027 2.046-4.829a97 97 0 0 1 2.879-5.085c.703-1.152.874-1.322-.437-1.076-1.312.244-4.105.906-6.45 2.845-2.345 1.941-4.243 5.16-5.458 6.791s-1.748 1.673-2.622 2.004-2.09.948-2.89 1.61c-.799.661-1.182 1.365-1.289 1.375s.064-.67-.107-1.493c-.17-.82-.682-1.78-1.375-2.398-.692-.618-1.567-.896-2.079-1.3-.511-.406-.66-.938-.895-2.59-.235-1.653-.554-4.425-.341-7.037.213-2.61.959-5.063 1.396-6.385s.565-1.514-.746-.704-4.062 2.622-6.055 5.842-3.23 7.846-3.603 11.044.117 4.968.336 6.038.167 1.442.092 2.146c-.075.703-.171 1.74.185 2.918.357 1.178 1.167 2.501 1.722 4.25.553 1.747.852 3.922.863 5.563.011 1.642-.267 2.75-.352 5.853s.021 8.198 1.633 10.728 4.728 2.493 6.685 2.587 2.754.32 4.298 2.054c1.543 1.734 3.834 4.978 7.879 7.41 4.044 2.433 9.843 4.053 14.928 6.601s9.456 6.022 14.221 10.276 9.925 9.285 15.628 13.528c5.703 4.242 11.951 7.697 15.308 9.392 3.358 1.695 3.828 1.631.886 4.69s-9.295 9.242-14.796 15.064c-5.501 5.82-10.149 11.278-13.581 16.63s-5.65 10.595-7.782 14.966-4.179 7.868-9.424 11.023c-5.244 3.156-13.687 5.971-24.517 6.141s-24.05-2.302-33.836-4.392-16.139-3.795-19.508-4.818c-3.369-1.024-3.753-1.365-5.863-4.35s-5.949-8.613-11.385-14.455c-5.437-5.842-12.473-11.897-16.886-16.929-4.414-5.03-6.205-9.04-7.185-11-.981-1.963-1.151-1.877-1.727 1.086s-1.557 8.806-1.364 14.35c.191 5.543 1.556 10.787 2.75 14.092s2.217 4.67 2.686 5.882c.468 1.214.382 2.277-.023 6.007-.405 3.732-1.129 10.131-.393 15.88.736 5.746 2.931 10.843 4.029 13.188 1.098 2.344 1.098 1.94.458 4.83-.64 2.887-1.918 9.07-1.481 14.72s2.59 10.767 3.778 13.376 1.413 2.71 1.605 3.905c.192 1.193.352 3.48 1.167 5.923.815 2.445 2.287 5.046 4.163 7.04s4.158 3.378 5.17 3.87c1.013.49.757.084.223-1.51a116 116 0 0 1-1.659-5.566c-.313-1.183-.126-.767 1.283.445s4.037 3.217 5.096 4.358c1.059 1.142.547 1.42-1.212 2.57-1.758 1.152-4.765 3.177-7.091 5.71-2.328 2.533-3.976 5.574-5.011 7.31s-1.46 2.167-3.947 4.562"/>
    <path fill="#5f8aa6" d="M194.325 227.753c5.543-2.984 14.754-8.485 23.133-14.263s15.926-11.833 21.83-15.5c5.907-3.668 10.17-4.947 14.606-6.865 4.434-1.92 9.04-4.477 13.058-9.11s7.45-11.336 9.167-14.69c1.716-3.352 1.716-3.352 4.413-3.747 2.697-.394 8.09-1.183 13.133-2.9 5.043-1.715 9.733-4.36 12.857-7.663 3.123-3.305 4.679-7.272 4.765-11.184s-1.301-7.77-2.122-9.765c-.82-1.993-1.076-2.121-2.83-2.552-1.753-.433-5.004-1.168-7.99-2.235-2.984-1.065-5.702-2.462-7.11-3.138-1.407-.678-1.502-.635-2.57-.113-1.065.523-3.101 1.525-7.104 4.787s-9.973 8.784-14.514 13.74c-4.542 4.958-7.655 9.349-10.97 16.47-3.315 7.122-6.833 16.972-8.7 21.79-1.864 4.819-2.077 4.606-2.344 2.9s-.587-4.903-.256-8.7c.33-3.793 1.31-8.186 1.919-10.701.607-2.516.842-3.156.17-2.431-.671.724-2.25 2.814-5.202 5.5s-7.281 5.97-12.984 9.893-12.782 8.486-19.605 11.103c-6.822 2.617-13.39 3.288-16.672 3.624-3.284.336-3.284.336-2.286.61.997.278 2.992.828 5.609 2.14s5.856 3.382 7.742 5.563c1.886 2.182 2.419 4.473 2.702 5.726s.314 1.466.09 1.327c-.224-.137-.703-.63-2.38-1.831-1.677-1.203-4.55-3.118-8.627-4.562s-9.36-2.42-12.001-2.907-2.64-.487-2.203.036c.437.522 1.31 1.567 2.388 4.12 1.076 2.553 2.355 6.615 2.696 9.856.34 3.24-.255 5.66-.57 6.79s-.346.97-.554.464c-.208-.507-.592-1.36-2.303-4.461s-4.75-8.454-8.363-12.33-7.803-6.272-11.3-7.888c-3.496-1.615-6.3-2.446-7.771-2.894s-1.61-.512-1.785-.074c-.176.437-.39 1.375-.938 2.158-.55.784-1.434 1.413-2.016 1.722-.581.309-.857.298-.783.534.075.234.5.713 1.439 1.779a413 413 0 0 1 3.166 3.63c.779.91.885 1.082-.058 1.305-.944.225-2.937.5-6.364.17s-8.29-1.267-10.794-1.8-2.654-.662-2.601-.383c.053.276.309.959.714 1.763.405.805.96 1.732 1.423 2.313s.837.816.65.98c-.186.166-.933.262-2.083.166-1.152-.095-2.71-.383-4.51-1.028-1.802-.645-3.848-1.647-4.83-2.111-.981-.464-.896-.391-1.675 2.514-.78 2.905-2.421 8.64-3.124 13.576-.704 4.935-.47 9.07-.096 11.662.373 2.59.885 3.636.949 3.614.064-.021-.32-1.11-.118-3.198.203-2.09.992-5.181 1.834-7.313.842-2.133 1.737-3.305 2.143-3.742s.32-.14.19 2.622c-.127 2.762-.297 7.986.204 11.759.5 3.773 1.674 6.098 2.729 7.739s1.993 2.6 2.11 2.633c.118.032-.585-.863-.96-2.58-.372-1.716-.414-4.253-.361-6.183s.202-3.251.309-3.688.17.01 1.29 1.845c1.119 1.833 3.294 5.052 5.725 7.152s5.116 3.08 7.1 3.689c1.985.609 3.266.844 4.003.962.736.118.928.118 4.116-1.48 3.187-1.6 9.37-4.798 15.329-7.196 5.959-2.4 11.695-3.998 15.5-5.032 3.806-1.034 5.683-1.503 11.226-4.488"/>
    <path fill="#f9f9f9" d="M162.147 239.636c.489-1.84.968-3.865 1.114-5.87.267-3.646-.565-7.228-1.012-9.094s-.512-2.015-.598-.97-.191 3.284-.394 4.797c-.202 1.514-.501 2.303-.629 1.834-.127-.468-.085-2.196-.501-4.67-.415-2.472-1.29-5.692-2.494-8.207s-2.74-4.33-3.656-5.341c-.917-1.013-1.216-1.226-.299-1.044.917.18 3.049.756 5.287 2.334s4.584 4.157 6.109 6.737c1.524 2.58 2.228 5.16 2.591 6.684.362 1.525.383 1.994.692.127.31-1.865.906-6.065-.97-10.33s-6.225-8.591-8.507-10.883-2.494-2.548-3.678-3.027q-.145-.06-.308-.122c-.099.088-.294.153-.598.226-.943.224-2.937.5-6.363.17-3.428-.33-8.289-1.268-10.794-1.8-2.506-.533-2.655-.662-2.601-.384.053.276.309.959.714 1.764.405.804.959 1.73 1.423 2.312s.837.817.65.982-.933.26-2.084.165c-1.151-.096-2.708-.384-4.509-1.03-1.802-.644-3.848-1.646-4.83-2.11-.981-.464-.897-.391-1.675 2.515-.779 2.904-2.421 8.639-3.124 13.575-.704 4.935-.47 9.07-.097 11.662.374 2.59.886 3.636.95 3.614.064-.021-.32-1.11-.118-3.198.203-2.09.992-5.181 1.833-7.313.843-2.132 1.738-3.305 2.143-3.742s.32-.138.192 2.622c-.128 2.762-.298 7.986.203 11.759s1.673 6.098 2.729 7.739c1.055 1.642 1.993 2.6 2.111 2.633.117.032-.587-.863-.96-2.58-.373-1.716-.416-4.253-.362-6.182s.202-3.251.309-3.69c.107-.435.17.012 1.29 1.846 1.119 1.833 3.294 5.053 5.725 7.152 2.429 2.1 5.116 3.08 7.1 3.69 1.984.608 3.266.843 4.002.96.737.12.929.12 4.117-1.48 2.21-1.108 5.86-2.985 9.877-4.832"/>
    <path fill="#5f8aa6" d="M129.556 211.129c.33-.64 1.706-1.794 3.555-2.435 1.85-.64 4.173-.768 6.732.308 2.558 1.077 5.351 3.358 6.822 6.056 1.472 2.696 1.621 5.809 1.06 8.342-.56 2.532-1.83 4.484-3.718 5.347s-4.39.639-6.014-.625-2.372-3.566-2.947-6.082-.98-5.245-1.482-6.94c-.5-1.695-1.098-2.356-1.599-2.697s-.906-.363-1.466-.436-1.274-.198-.943-.838m-17.933-65.703c-.192 3.315-.426 8.838 1.194 16.012s5.096 16 7.132 21.555 2.632 7.835 3.475 9.54c.842 1.706 1.929 2.836 3.049 3.775 1.119.937 2.27 1.684 2.825 1.726.554.043.512-.618.17-1.31-.341-.694-.981-1.418-1.258-2.39-.277-.97-.191-2.184-.107-2.983.086-.8.171-1.184.406-1.11.234.076.618.609 1.695 1.664s2.846 2.633 5.927 3.55 7.473 1.172 10.466 1.769c2.993.596 4.587 1.532 5.311 1.808.725.278.581-.104-.226-1.81-.808-1.703-2.279-4.731-3.26-8.057s-1.471-6.951-3.507-10.937c-2.036-3.988-5.618-8.337-9.669-12.857s-8.571-9.21-11.374-12.28-3.892-4.52-4.467-5.31c-.576-.788-.639-.916.533 1.685s3.582 7.932 6.62 13.677c3.038 5.746 6.705 11.908 9.605 16.63 2.899 4.722 5.032 8.007 6.226 9.765s1.449 1.993.458 2.217c-.992.225-3.23.438-5.949-.937s-5.916-4.34-9.679-9.456c-3.763-5.117-8.091-12.387-10.522-17.685-2.43-5.3-2.964-8.625-3.379-12.206-.416-3.582-.715-7.42-.896-9.392s-.245-2.08-.351-1.578c-.107.5-.256 1.61-.448 4.925"/>
    <path fill="#5f8aa6" d="M116.91 155.244a59 59 0 0 0 3.317 8.208c1.78 3.624 4.317 7.91 6.939 11.918 2.623 4.01 5.33 7.74 7.249 9.978 1.919 2.24 3.049 2.986 3.753 3.455.703.468.98.661-1.311-2.74-2.292-3.4-7.154-10.394-10.991-16.897-3.838-6.503-6.652-12.515-8.091-15.628-1.44-3.112-1.504-3.326-1.504-2.92 0 .404.065 1.428.097 2.077.03.652.03.928.543 2.55"/>
    <path fill="#2b4251" d="M128.275 214.729c.34-.502.917-1.227 1.642-1.387s1.599.245 2.313 1.866 1.269 4.457 1.562 6.962.325 4.68 1.263 6.252 2.783 2.542 4.397 2.825 3.002-.122 4.068-.693c1.066-.57 1.812-1.305 2.063-1.62.25-.314.004-.208-.768-.256-.773-.048-2.074-.251-3.022-.795-.95-.543-1.546-1.427-1.898-2.153-.352-.725-.458-1.29-.283-1.428.176-.14.635.15 1.594.08s2.42-.496 3.513-1.296a5.58 5.58 0 0 0 2.11-3.208c.294-1.237.155-2.538-.202-3.545s-.933-1.721-1.338-2.324-.64-1.092-1.13-1.78-1.237-1.572-2.281-2.09c-1.045-.516-2.39-.666-3.391-.597a5.05 5.05 0 0 0-2.131.609c-.47.25-.747.463-1.082.436-.336-.026-.73-.293-1.375-.527s-1.541-.437-2.404-.394c-.864.042-1.696.33-2.271.895-.576.565-.895 1.407-1.103 2.324s-.304 1.907-.3 2.265c.006.357.113.08.454-.421"/>
    <path fill="#f9f9f9" d="M141.504 219.654c2.208 0 3.998-1.89 3.998-4.222 0-2.33-1.79-4.22-3.998-4.22s-3.998 1.89-3.998 4.22c0 2.332 1.79 4.222 3.998 4.222"/>
    <path fill="#5f8aa6" d="M332.001 130.299c-2.516 3.534-7.228 9.3-10.878 14.898-3.652 5.596-6.242 11.022-7.559 13.756-1.316 2.735-1.359 2.778-1.476 2.075-.118-.705-.309-2.154.292-4.81.601-2.653 1.996-6.514 5.375-11.773 3.38-5.261 8.744-11.923 11.378-16.395s2.539-6.753 1.542-8.738c-.997-1.986-2.895-3.675-4.707-4.811s-3.539-1.716-4.234-1.9c-.693-.185-.354.027.465 1.37.821 1.344 2.12 3.816 2.344 5.799.225 1.983-.628 3.475-2.611 4.467s-5.096 1.48-8.859 1.269c-3.763-.214-8.176-1.131-11.78-2.378a42.5 42.5 0 0 1-7.376-3.4c-.981-.576-.149-.15 2.921.49s8.378 1.492 11.854 1.737 5.117-.117 6.545-.564c1.429-.448 2.644-.982 2.836-1.247.192-.268-.64-.268-3.187-.641-2.548-.373-6.813-1.12-10.853-2.281s-7.856-2.74-12.535-4.765-10.223-4.498-14.603-6.406c-4.381-1.907-7.601-3.251-12.003-6.651s-9.989-8.86-15.297-13.315c-5.309-4.456-10.341-7.91-15.085-10.543s-9.199-4.445-12.003-5.575c-2.803-1.13-3.955-1.577-5.17-2.654s-2.494-2.783-4.093-4.498c-1.599-1.717-3.518-3.444-5.714-5.213s-4.67-3.582-6.033-4.968c-1.365-1.386-1.621-2.346-2.228-4.723s-1.568-6.173-2.75-8.581c-1.183-2.41-2.589-3.431-3.474-4.561-.884-1.13-1.248-2.367-1.43-3.125-.182-.757-.182-1.034.117-.95.298.086.895.534 2.014.779s2.761.288 4.233.043 2.771-.78 3.464-1.11.778-.458.895.022c.118.48.267 1.567.15 2.89-.117 1.32-.501 2.877.138 5.798.64 2.92 2.303 7.206 3.678 9.69s2.463 3.167 4.605 5.149c2.143 1.984 5.342 5.267 7.58 7.399s3.518 3.113 5.255 4.157 3.934 2.153 6.365 2.985c2.43.83 5.095 1.386 5.692 1.152.597-.236-.874-1.258-4.967-4.404-4.094-3.144-10.81-8.41-14.701-11.811s-4.957-4.936-5.415-6.63c-.459-1.695-.31-3.551-.502-5.245-.192-1.696-.725-3.231-1.161-4.493s-.776-2.253-.727-3.224c.048-.97.485-1.918.72-2.382s.266-.442.58.069c.314.51.91 1.513 1.677 2.163.766.65 1.704.948 2.739 1.055 1.035.108 2.166.023 2.711.03s.503.105.572.547c.07.443.25 1.229-.007 2.033-.257.802-.951 1.623-1.384 2.885-.432 1.263-.602 2.969-.56 4.205s.298 2.004.693 2.644.928 1.15 4.04 3.827 8.806 7.516 12.366 9.957 4.989 2.484 6.801 2.27c1.812-.212 4.008-.682 6.204-2.035s4.393-3.593 5.747-6.44c1.354-2.846 1.865-6.3 2.057-8.39.192-2.088.064-2.813-.704-3.325-.767-.511-2.175-.81-3.528-1.546-1.354-.735-2.655-1.908-3.401-3.123s-.938-2.473-.458-2.836c.479-.362 1.631.17 3.283-.032s3.806-1.14 5.298-2.078c1.493-.938 2.324-1.877 3.241-1.834s1.919 1.065 2.238 2.537c.32 1.47-.042 3.39-.362 4.669s-.597 1.919-.885 4.233c-.287 2.313-.586 6.299-1.268 9.476s-1.748 5.544-3.56 7.815c-1.813 2.27-4.371 4.445-5.927 5.746-1.557 1.299-2.111 1.726-2.399 2.589-.288.865-.309 2.166 2.068 5.332s7.154 8.197 12.025 12.045 9.84 6.513 14.956 8.656c5.118 2.142 10.384 3.763 14.989 5.778s8.549 4.424 13.059 5.928 9.583 2.099 13.443 2.238 6.503-.182 9.594 1.114c3.091 1.295 6.631 4.205 8.401 6.893 1.769 2.685 1.769 5.147 1.609 7.029s-.479 3.183-2.995 6.716M202.952 61.633c1.226 1.002 3.443 2.762 4.653 3.822s1.413 1.423 1.31 1.54c-.1.118-.505-.01-1.353-.138-.847-.128-2.137-.255-3.182-.788-1.044-.534-1.844-1.472-2.323-2.527-.48-1.055-.64-2.228-.603-2.692s.272-.218 1.498.783"/>
    <path fill="#5f8aa6" d="M307.442 97.896c.171-2.565.832-7.575.384-12.788s-2.004-10.628-2.59-14.37c-.587-3.74-.203-5.81.341-8.55.544-2.739 1.247-6.15 1.375-9.38s-.32-6.28-.81-8.423-1.024-3.378-.528-4.918c.495-1.54 2.02-3.385 4.322-6.3s5.383-6.903 7.297-10.132 2.66-5.703 4.023-7.228c1.366-1.524 3.348-2.1 4.404-2.26 1.054-.16 1.182.096.97.511-.214.416-.768.992-.98 1.973-.215.98-.087 2.367.372 3.55s1.247 2.164 1.898 2.708c.65.543 1.162.65 1.214 1.054.054.406-.35 1.11-1.428 1.75s-2.825 1.214-4.53 1.758-3.369 1.056-5.02 2.654c-1.654 1.6-3.296 4.286-4.639 6.365-1.343 2.078-2.388 3.55-2.697 6.406-.309 2.857.117 7.1.618 10.597s1.077 6.247 1.013 9.018-.768 5.565-1.024 7.696c-.256 2.132-.063 3.604.267 4.755.331 1.151.8 1.983 1.141 1.993s.554-.799 1.13-1.95c.576-1.152 1.514-2.644 2.217-3.433s1.173-.874 2.825.661 4.488 4.69 7.878 6.652 7.334 2.73 10.756 2.047 6.322-2.814 7.942-4.499 1.962-2.92 2.015-4.008-.18-2.025-.118-3.465c.065-1.439.427-3.379 1.003-4.743s1.364-2.154 2.238-2.623 1.834-.618 2.07-.416c.233.202-.257.757-.758 2.484-.5 1.727-1.013 4.626-.523 6.855.491 2.227 1.983 3.784 3.422 4.584s2.825.843 3.358 1.194.214 1.012-.907 1.855c-1.119.842-3.037 1.865-4.945 2.312-1.908.45-3.807.321-6.013 1.802s-4.722 4.573-6.737 5.874-3.528.811-5.809-.437c-2.283-1.248-5.33-3.25-7.92-4.318-2.592-1.065-4.724-1.193-6.706-.256-1.984.94-3.817 2.943-4.745 6.205s-.948 7.782-1.375 10.415c-.426 2.634-1.257 3.38-2.025 3.625s-1.47-.01-1.994-.438c-.522-.425-.863-1.022-1.193-1.38-.33-.356-.65-.475-.479-3.038"/>
    <path fill="#5f8aa6" d="M317.213 53.477c-.149-.901-.522-2.394-.432-4.237.091-1.845.645-4.041 1.396-5.283.752-1.242 1.701-1.53 3.097-2.116 1.397-.586 3.241-1.471 4.632-2.521s2.33-2.265 3.23-3.21c.901-.942 1.764-1.613 2.441-1.945.678-.33 1.168-.32 1.296-.148.128.17-.108.5-.193 1.466-.085.964-.02 2.563.325 3.8.347 1.236.976 2.11 1.5 2.628.521.516.937.676.372 1.017-.565.342-2.112.863-4.116 1.195-2.004.33-4.465.468-6.507 1.604-2.04 1.135-3.662 3.268-4.765 4.979-1.104 1.709-1.69 3-1.946 3.49s-.18.18-.33-.72M118.046 273.744c-2.878 4.36-7.313 11.438-14.093 18.858s-15.906 15.18-27.824 23.836c-11.917 8.657-26.63 18.208-34.883 24.762-8.255 6.555-10.052 10.112-11.044 15.324-.991 5.213-1.177 12.082-3.624 19.898-2.45 7.816-7.161 16.578-9.645 21.045-2.484 4.466-2.74 4.637 1.823 1.14 4.562-3.496 13.943-10.66 20.638-17.397 6.694-6.737 10.703-13.05 12.91-16.673 2.207-3.624 2.612-4.563 2.889-5.085s.427-.63.576.629.298 3.88.074 6.108-.82 4.062-.618 4.883 1.205.629 6.876 3.74c5.67 3.114 16.01 9.532 24.828 16.408 8.816 6.876 16.107 14.21 20.52 18.804 4.414 4.595 5.949 6.45 6.812 7.463s1.056 1.183-.16-1.813-3.837-9.157-8.847-17.334c-5.011-8.176-12.41-18.367-16.3-24.763s-4.275-8.998-3.251-11.791c1.023-2.792 3.454-5.777 5.117-7.59s2.558-2.451 2.91-2.505c.35-.053.16.48-.15 1.546s-.735 2.665-.906 4.05c-.17 1.387-.085 2.56.118 2.794.202.234.522-.47 3.454-2.921 2.93-2.452 8.474-6.652 18.442-13.421 9.967-6.77 24.358-16.108 31.757-20.884 7.398-4.776 7.804-4.988 4.808-1.993s-9.392 9.2-13.795 14.487c-4.402 5.288-6.811 9.658-8.197 12.409-1.386 2.75-1.75 3.88-.768 2.889.98-.991 3.305-4.105 10.277-11.172 6.97-7.068 18.59-18.09 28.175-26.854a832 832 0 0 1 21.097-18.655c3.965-3.39 4.349-3.667 4.839-5.778s1.087-6.055 1.652-8.923c.565-2.867 1.098-4.658 1.386-5.606.288-.95.33-1.056-3.134 3.005-3.465 4.062-10.436 12.292-16.64 18.42-6.205 6.13-11.641 10.16-15.618 12.75-3.976 2.592-6.492 3.743-8.432 5.043s-3.304 2.75-8.613 6.535c-5.31 3.785-14.563 9.904-20.426 13.549-5.863 3.646-8.336 4.819-10.351 5.469-2.014.65-3.571.778-4.381.896s-.874.224-4.808 2.76c-3.933 2.537-11.737 7.505-19.03 10.565-7.29 3.059-14.07 4.21-18.537 4.339-4.466.128-6.62-.768-6.46-2.516.16-1.75 2.633-4.35 8.678-10.607 6.044-6.258 15.659-16.172 27.567-27.834 11.907-11.663 26.107-25.073 34.24-32.45s10.202-8.72 11.364-9.477 1.417-.927.395 1.279c-1.024 2.207-3.327 6.79-12.665 17.344s-25.712 27.078-36.212 37.514-15.128 14.786-17.537 17.056c-2.41 2.27-2.601 2.463 1.833.32s13.497-6.62 19.668-10.021c6.173-3.4 9.456-5.724 11.375-7.238 1.919-1.513 2.474-2.217 7.11-8.656s13.358-18.613 21.14-27.973 14.626-15.904 18.122-19.262 3.646-3.53 2.836-1.344-2.58 6.727-8.667 16.097-16.491 23.57-21.885 30.915-5.778 7.836-1.151 4.467 14.263-10.597 19.114-14.285c4.85-3.688 4.914-3.838 5.489-5.98s1.663-6.28 3.646-11.375 4.86-11.15 8.08-15.991 6.78-8.464 8.625-10.318c1.844-1.856 1.972-1.941.309 1.748s-5.117 11.15-7.537 17.046-3.806 10.223-4.264 12.078.01 1.237 4.382-2.72c4.37-3.954 12.643-11.245 19.156-17.258 6.513-6.012 11.268-10.745 13.645-13.111s2.377-2.367 3.113-4.158c.735-1.79 2.206-5.372 3.848-8.368 1.64-2.996 3.454-5.405 4.435-6.663.98-1.257 1.13-1.364.064 2.164-1.067 3.529-3.348 10.693-4.883 17.953s-2.324 14.615-2.697 18.59c-.373 3.977-.33 4.574 3.689-2.355 4.018-6.93 12.014-21.384 17.344-30.371s7.995-12.504 12.537-17.835c4.54-5.33 10.959-12.473 14.465-16.225 3.508-3.753 4.104-4.115 4.328-4.115s.075.362-1.833 5.117c-1.908 4.754-5.576 13.9-8.145 21.256a191 191 0 0 0-4.797 15.862c-.757 2.943-.8 3.263 3.316-3.847 4.114-7.111 12.387-21.652 20.713-32.866 8.325-11.214 16.704-19.102 20.755-22.961 4.05-3.86 3.774-3.69 2.196 2.196-1.578 5.885-4.456 17.483-6.044 28.313-1.59 10.83-1.888 20.895-1.61 27.333.277 6.44 1.13 9.253 1.748 10.192.618.938 1.002 0 3.88-7.035 2.879-7.037 8.25-20.17 12.793-32.11 4.54-11.94 8.25-22.684 10.724-28.697 2.473-6.013 3.709-7.291 4.285-7.675s.49.128-.597 5.415c-1.088 5.288-3.176 15.35-4.072 23.794-.896 8.443-.597 15.265-.277 19.252s.66 5.138 1.13 5.138 1.066-1.151 3.71-3.794c2.644-2.645 7.334-6.78 12.686-12.09 5.35-5.308 11.363-11.79 15.787-15.798 4.423-4.008 7.258-5.543 8.815-6.332s1.833-.831.17 1.002c-1.662 1.834-5.266 5.544-7.515 8.657-2.25 3.113-3.145 5.628-3.464 6.619-.321.992-.065.459 3.699-2.995 3.762-3.454 11.033-9.83 17.834-13.602 6.8-3.774 13.133-4.947 19.316-4.765 6.184.18 12.218 1.716 15.916 2.963s5.064 2.207 5.074 2.687c.01.479-1.332.479-7.004 1.94-5.67 1.46-15.67 4.38-23.974 7.686-8.304 3.304-14.913 6.993-19.36 10.34-4.445 3.348-6.726 6.354-7.674 7.772-.95 1.418-.566 1.247 4.914-1.482 5.478-2.73 16.053-8.016 24.187-11.342s13.826-4.691 16.79-5.437 3.198-.875 1.034 1.364-6.727 6.844-11.77 11.385c-5.041 4.54-10.564 9.019-15.584 12.26a70.5 70.5 0 0 1-12.28 6.32c-2.741 1.078-3.7 1.228-2.463 1.483 1.236.255 4.669.618 11.022-1.545 6.354-2.165 15.628-6.856 23.517-13.038s14.39-13.86 19.849-19.242 9.872-8.475 12.92-10.308c3.05-1.834 4.735-2.41 5.065-2.793.33-.384-.693-.576-6.534-2.335-5.842-1.76-16.502-5.085-27.035-7.74-10.532-2.654-20.937-4.636-30.478-5.66-9.541-1.023-18.218-1.087-25.36-.992-7.143.097-12.75.353-15.191.289s-1.717-.448 1.098-2.015c2.814-1.567 7.718-4.318 16.693-5.8s22.025-1.694 32.364-.341c10.34 1.355 17.974 4.275 21.706 5.736 3.73 1.46 3.56 1.46 3.069.426-.49-1.034-1.3-3.102-3.177-4.903-1.876-1.802-4.818-3.337-6.257-4.148s-1.376-.895 3.293-2.632 13.945-5.128 22.185-6.866 15.446-1.822 19.05-1.588c3.603.235 3.603.79 1.322-.895-2.28-1.685-6.844-5.607-13.495-8.336-6.653-2.73-15.394-4.265-26.097-4.307-10.702-.043-23.367 1.407-32.897 3.412-9.531 2.003-15.926 4.562-18.506 5.82s-1.344 1.215 2.28 1.258c3.625.043 9.638.17 14.989 1.236s10.042 3.07 12.729 4.286 3.368 1.642-1.515 1.663c-4.882.02-15.33-.363-27.268.853-11.94 1.215-25.371 4.029-36.951 6.954s-21.307 5.96-27.34 8.283c-6.035 2.324-8.374 3.937-12.273 7.76-3.9 3.823-9.357 9.857-17.587 17.159-8.23 7.303-19.231 15.874-29.016 22.1-9.787 6.224-18.357 10.105-26.374 12.962s-15.478 4.69-24.2 7.697c-8.72 3.006-18.696 7.184-25.178 10.233s-9.466 4.968-11.62 6.747c-2.153 1.78-3.475 3.422-6.353 7.78"/>
    <path fill="#f9f9f9" d="M158.635 182.658c2.479.847 7.148 2.36 10.917 3.288 3.768.928 6.635 1.27 8.394 1.482 1.759.213 2.409.298.853.522s-5.32.587-8.752.214a25.3 25.3 0 0 1-8.891-2.724 23 23 0 0 1-4.626-3.215c-.662-.596-.374-.415 2.105.433"/>
    <path fill="#5f8aa6" d="M159.476 406.347c7.729 5.533 22.227 15.809 29.764 21.043 7.536 5.235 8.112 5.427 4.365-.677-3.747-6.102-11.817-18.501-21.315-29.76-9.5-11.255-20.425-21.372-27.658-27.507-7.233-6.134-10.773-8.287-13.597-9.322-2.826-1.034-4.936-.948-6.04-.948-1.103 0-1.2-.086 2.042 2.152 3.24 2.239 9.818 6.802 17.339 13.198s15.985 14.627 22.85 22.323c6.865 7.697 12.13 14.86 14.903 18.729 2.772 3.87 3.049 4.447.512 2.837s-7.89-5.405-13.827-8.966-12.461-6.887-15.244-8.155-1.823-.48 5.906 5.053m-1.172 83.549c1.11-3.449 3.562-10.101 1.643-22.798s-8.208-31.437-15.105-46.542-14.403-26.577-19.86-34.7c-5.459-8.123-8.87-12.898-10.66-15.393-1.793-2.494-1.963-2.707.99-.65s9.03 6.386 15.636 14.34c6.605 7.955 13.74 19.535 19.826 32.21s11.126 26.445 13.752 37.039 2.84 18.014 1.293 24.224-4.853 11.211-6.623 13.588c-1.769 2.378-2.002 2.131-.892-1.318m-29.887-7.374c1.64 4.073 4.54 10.81 7.696 16.161s6.567 9.318 8.337 11.343 1.897 2.11 2.366-1.429a95 95 0 0 0 .576-19.933c-.704-9.232-2.921-20.532-5.671-32.11-2.751-11.576-6.034-23.43-11.662-36.65-5.63-13.217-13.603-27.801-19.637-37.246-6.033-9.445-10.127-13.751-12.365-16.16-2.24-2.41-2.623-2.922.81 2.643 3.432 5.564 10.68 17.205 17.099 30.061 6.417 12.856 12.003 26.928 16.118 41.682 4.115 14.753 6.759 30.19 8.102 39.698s1.385 13.09 1.033 14.882c-.351 1.791-1.097 1.791-3.698-1.812-2.602-3.604-7.058-10.81-9.094-13.71-2.036-2.899-1.652-1.492-.01 2.58M47.25 394.597c5.095 3.667 14.902 10.916 23.728 20.788 8.828 9.871 16.674 22.365 22.687 33.452 6.011 11.086 10.19 20.765 12.92 28.463 2.729 7.696 4.008 13.41 4.818 16.693s1.15 4.137 2.366 1.066 3.306-10.063 3.498-19.444c.19-9.38-1.515-21.15-4.265-30.83s-6.545-17.269-9.168-22.066-4.072-6.8-4.99-8.038c-.916-1.236-1.3-1.706.023 1.727s4.349 10.767 6.993 18.591c2.643 7.825 4.904 16.14 5.82 23.07.917 6.928.49 12.472.278 15.243-.213 2.772-.213 2.772-2.644-3.304-2.431-6.077-7.292-18.229-13.005-29.124s-12.281-20.532-19.765-28.612c-7.483-8.08-15.883-14.605-21.896-17.93-6.012-3.327-9.636-3.455-11.257-3.476-1.62-.02-1.237.064 3.859 3.731m139.544 9.573c4.135 3.39 10.531 7.654 14.603 9.914 4.073 2.26 5.821 2.516 6.791 2.43s1.163-.51-1.737-6.257-8.89-16.81-16.81-27.237c-7.922-10.426-17.772-20.21-24.488-26.362-6.716-6.15-10.298-8.667-11.94-9.925s-1.343-1.258 2.665-1.173c4.008.086 11.727.256 23.39 3.881 11.661 3.624 27.268 10.703 36.542 15.393s12.217 6.993 13.837 8.315 1.92 1.663-2.409 1.215-13.283-1.684-19.977-2.26-11.13-.49-12.175-.149 1.301.938 8.87 2.601 20.361 4.392 29.337 6.546c8.976 2.152 14.135 3.73 16.907 4.455 2.771.725 3.155.597-.64-3.049s-11.769-10.809-23.282-17.802-26.565-13.815-38.419-18.208c-11.855-4.392-20.51-6.353-24.966-7.334s-4.712-.98-1.13-2.025 11.001-3.135 24.071-2.623 31.788 3.625 44.431 6.503 19.21 5.522 23.005 7.1 4.818 2.09 1.28 2.772c-3.54.682-11.642 1.534-16.46 2.494s-6.354 2.025-5.863 2.26 3.006-.363 10.191-.959c7.185-.598 19.04-1.195 26.714-1.429 7.676-.234 11.172-.107 10.852-1.087-.319-.98-4.456-3.07-13.922-6.29-9.466-3.219-24.262-7.569-38.462-10.917-14.199-3.346-27.802-5.69-38.782-6.33s-19.337.425-23.858 1.256c-4.519.832-5.202 1.43-7.888 4.243-2.686 2.815-7.377 7.846-10.077 10.703s-3.41 3.54-3.497 3.966c-.085.427.455.597 4.5 2.9 4.043 2.302 11.59 6.737 19.031 13.431 7.44 6.695 14.775 15.65 19.956 22.6s8.208 11.897 9.85 14.753c1.641 2.857 1.897 3.625 1.002 3.455-.896-.17-2.942-1.28-5.99-2.9-3.05-1.62-7.1-3.752-9.425-5.053-2.324-1.3-2.92-1.77-2.28-.746.638 1.023 2.514 3.54 6.651 6.93m10.93-105.612c-.907 4.531-1.867 11.333-2.09 15.842-.224 4.51.287 6.726 1.183 7.217.895.49 2.175-.747 6.577-8.443 4.403-7.697 11.93-21.854 16.62-32.013 4.69-10.16 6.545-16.32 7.525-19.466.981-3.144 1.088-3.272-1.108 1.312s-6.694 13.88-11.268 22.311c-4.573 8.433-9.22 16.002-11.662 20.01s-2.676 4.456-2.804 2.761-.149-5.533-.182-8.838a767 767 0 0 0-.105-7.61c-.033-1.536-.054-1.834-.49-.854-.438.981-1.29 3.241-2.197 7.771m58.77 34.337a249 249 0 0 1 20.127-7.313c9.445-2.984 21.556-6.226 27.952-7.867s7.078-1.684 2.387-2.815c-4.691-1.13-14.754-3.347-24.326-5.138s-18.656-3.155-28.058-3.688-19.124-.235-24.603.107c-5.48.34-6.717.725-7.058.404s.213-1.342 2.665-7.291 6.8-16.821 8.976-22.088c2.175-5.266 2.175-4.925 2.985-1.407s2.43 10.213 4.776 12.45c2.345 2.24 5.415.022 10.042-10.083s10.809-28.101 16.566-43.877c5.756-15.778 11.086-29.337 13.815-36.246 2.729-6.908 2.857-7.164-1.343 1.493s-12.728 26.224-19.423 38.782-11.555 20.105-15.48 24.028c-3.921 3.923-6.906 4.22-8.74 4.072-1.834-.15-2.515-.747-3.006-1.3-.49-.555-.79-1.067-4.051 6.247-3.262 7.313-9.488 22.45-12.877 31.02-3.39 8.572-3.945 10.575-4.03 11.407s.298.49 6.695-.192c6.396-.682 18.804-1.705 30.936-1.407 12.13.298 23.985 1.919 30.125 2.77 6.14.854 6.567.94 1.045 3.349s-16.992 7.142-23.325 10.383-7.525 4.989-7.611 5.629.938.17 4.84-1.43"/>
    <path fill="#f9f9f9" d="M338.952 289.175c-.863-.437-3.379-.95-6.98-1.76-3.605-.81-8.295-1.918-16.845-2.845s-20.958-1.674-30.393-1.525c-9.434.15-15.894 1.194-19.209 1.79-3.316.598-3.486.747-3.359.044.13-.704.555-2.26 1.941-6.876s3.731-12.291 5.074-18.677a88 88 0 0 0 1.802-13.954c.117-2.473.011-2.324-.384-.885-.395 1.44-1.077 4.169-2.91 9.404-1.835 5.234-4.82 12.974-7.527 19.679-2.708 6.706-5.138 12.377-6.45 15.35-1.31 2.975-1.503 3.252-1.46 3.348s.32.01 6.364-.725 17.856-2.121 29.071-2.57c11.214-.446 21.832.044 27.343.33 5.511.289 5.917.374 2.89 1.313-3.029.938-9.489 2.728-14.968 4.892s-9.978 4.702-12.227 5.97l-2.139 1.206c.111-.062.332-.187 6.622 1.263s18.647 4.474 30.027 7.926 21.786 7.333 27.83 10.008c6.044 2.676 7.73 4.148 8.955 5 1.226.853 1.994 1.087.437.619-1.556-.47-5.437-1.642-9.902-2.591-4.467-.95-9.52-1.674-13.976-2.047s-8.315-.395-10.49-.47c-2.175-.073-2.666-.201 1.683 2.996 4.35 3.199 13.54 9.723 18.656 13.582 5.117 3.859 6.162 5.053 8.475 7.366 2.314 2.313 5.897 5.745 8.434 9.199a34.6 34.6 0 0 1 4.818 9.274c.79 2.345.874 3.56.8 3.838-.074.277-.31-.384-4.786-4.765-4.478-4.381-13.197-12.483-21.694-18.55-8.497-6.065-16.769-10.094-23.112-12.727s-10.756-3.87-14.23-4.35c-3.476-.48-6.013-.203-6.418.203-.406.405 1.321.938 8.08 5.82s18.55 14.115 27.642 22.11c9.093 7.995 15.49 14.753 23.623 23.857s18.004 20.553 24.37 27.535c6.363 6.983 9.22 9.499 15.296 11.993 6.077 2.495 15.372 4.968 26.566 9.7 11.192 4.734 24.284 11.727 32.534 16.61s11.663 7.654 13.54 9.21c1.875 1.557 2.217 1.898.425-.938-1.79-2.836-5.714-8.848-13.816-15.5-8.1-6.652-20.38-13.943-30.168-18.997-9.786-5.053-17.078-7.867-21.747-10.575s-6.715-5.308-11.32-10.681-11.769-13.517-15.735-17.963c-3.966-4.445-4.734-5.191-1.748-3.347 2.984 1.844 9.721 6.279 16.331 11.353 6.61 5.075 13.091 10.788 18.1 13.826 5.011 3.038 8.551 3.4 14.616 3.667 6.066.267 14.658.438 21.45.118 6.79-.32 11.778-1.13 14.581-1.631 2.804-.501 3.423-.693 3.497-.874s-.395-.352-6.65-2.793c-6.259-2.442-18.305-7.153-28.39-11.215s-18.208-7.473-22.356-9.211c-4.146-1.737-4.317-1.801-2.292-.298s6.247 4.573 11.684 7.622 12.09 6.076 17.718 8.486c5.63 2.409 10.234 4.2 12.557 5.159 2.325.96 2.367 1.088-1.108.447-3.476-.64-10.469-2.046-16.172-3.72s-10.116-3.614-17.195-6.993c-7.078-3.38-16.822-8.197-23.163-12.461-6.343-4.265-9.285-7.974-10.906-9.946-1.62-1.972-1.919-2.207.576-1.93s7.782 1.067 13.07 1.567c5.287.502 10.574.714 13.751.79 3.176.074 4.242.01 4.391-.277s-.619-.8-5.203-3.411c-4.584-2.612-12.984-7.324-22.354-12.58a48992 48992 0 0 0-27.174-15.233c-7.462-4.18-12.046-6.737-14.093-7.995-2.046-1.258-1.555-1.215 1.931-.65s9.967 1.652 15.894 2.889 11.3 2.622 13.901 3.293 2.431.629 1.694-.448c-.735-1.076-2.035-3.187-4.764-6.108s-6.886-6.652-14.796-10.788-19.573-8.678-28.485-11.46c-8.91-2.782-15.073-3.806-18.036-4.328s-2.73-.544-.577-1.631 6.226-3.241 11.204-5.117c4.98-1.876 10.863-3.475 14.2-4.456s4.126-1.343 3.263-1.78"/>
    <path fill="#5f8aa6" d="M419.396 376.911c1.882.411 5.293 1.178 10.139 1.647 4.844.47 11.124.64 16.02.47a84 84 0 0 0 10.769-1.056c2.35-.374 3.533-.608 3.597-.98.064-.374-.991-.886-3.907-1.957a147 147 0 0 0-13.351-4.179c-5.662-1.476-12.206-2.799-15.836-3.587s-4.344-1.045-4.611-.992c-.266.054-.086.417.155.97.24.555.538 1.301.804 1.674.267.373.5.373 2.986.864 2.483.49 7.216 1.471 11.464 2.515 4.249 1.046 8.01 2.154 10.058 2.73 2.047.575 2.378.618.64.506a120 120 0 0 1-10.074-1.056c-4.532-.676-9.787-1.764-12.415-2.307-2.627-.544-2.627-.544-3.038-.01-.41.532-1.23 1.598-2.297 2.392-1.066.794-2.377 1.316-2.857 1.605s-.129.341 1.753.751m-35.801-33.085c3.635 1.908 10.415 5.213 15.34 7.675 4.925 2.463 7.995 4.083 9.732 4.936 1.738.853 2.143.938 6.663 1.183s13.155.651 19.838.544c6.685-.107 11.418-.725 13.859-1.034 2.44-.309 2.59-.309.01-1.63a116 116 0 0 0-15.286-6.525c-7.398-2.559-16.885-5.032-25.702-7.079-8.815-2.046-16.96-3.667-21.128-4.487-4.17-.82-4.36-.843-.46.383a1291 1291 0 0 0 20.32 6.183c8.42 2.484 17.269 4.98 22.706 6.748 5.436 1.77 7.462 2.814 8.688 3.443 1.226.63 1.652.843-3.934-.543-5.585-1.386-17.184-4.37-27.397-6.759-10.212-2.388-19.038-4.179-23.207-4.818-4.168-.64-3.677-.128-.042 1.78m-1.45-18.325c1.364 1.066 3.177 2.665 4.583 4.158 1.408 1.492 2.409 2.878 2.985 3.581.576.704.725.725 4.552.651 3.827-.075 11.332-.245 19.07-1.205 7.74-.959 15.714-2.707 19.83-3.678 4.114-.97 4.37-1.162 2.067-2.068s-7.163-2.526-15.564-4.051c-8.4-1.524-20.34-2.952-28.985-3.826s-13.997-1.195-16.78-1.354c-2.781-.16-2.994-.16.374.362s10.319 1.567 17.803 2.782 15.5 2.601 20.937 3.657c5.437 1.055 8.293 1.78 9.936 2.196 1.64.415 2.067.522-2.016.031-4.083-.49-12.675-1.577-20.308-2.238s-14.305-.895-17.76-1.013c-3.453-.117-3.688-.117-3.347.149.34.267 1.259.8 2.623 1.866m-48.047-24.694c6.727-.176 19.263-.464 30.232-.23 10.97.235 20.372.992 27.13 1.733s10.874 1.466 13.166 1.839 2.76.394-.404 1.183c-3.166.789-9.968 2.345-17.228 3.422s-14.977 1.674-20.296 2.014c-5.32.342-8.241.427-9.754.395-1.514-.032-1.621-.181-3.6-1.231-1.976-1.05-5.825-3.001-7.754-3.971-1.93-.97-1.94-.96 2.04-1.055 3.983-.096 11.957-.298 18.897-.421s12.845-.165 15.67-.23c2.825-.063 2.569-.15-.571-.431-3.138-.283-9.162-.762-18.991-1.247s-23.463-.976-29.821-1.253c-6.36-.277-5.443-.341 1.284-.517m-2.623-2.959c4.264-1.077 11.939-3.209 15.937-5.202 3.998-1.994 4.317-3.848 4.509-4.776s.255-.927 4.36-.98c4.104-.054 12.249-.16 17.91-.097 5.66.064 8.837.3 10.553.437 1.716.14 1.972.181-4.008 1.91-5.981 1.726-18.198 5.137-28.442 7.056s-18.517 2.345-22.226 2.548c-3.71.202-2.858.181 1.407-.896"/>
    <path fill="#f9f9f9" d="M393.495 285.162c2.302-1.162 6.332-3.145 8.581-4.403 2.25-1.258 2.72-1.79-2.015-2.239-4.733-.447-14.669-.81-25.233-.99a1002 1002 0 0 0-30.946-.043c-9.19.138-16.374.415-20.286.554s-4.553.14-.874-.469c3.677-.608 11.672-1.823 20.445-2.59 8.774-.768 18.325-1.088 29.252-1.045 10.927.042 23.228.448 30.808.831 7.58.384 10.437.747 11.716 1.098 1.28.352.981.693-.98 1.855a72 72 0 0 1-9.85 4.83c-4.264 1.683-9.169 3.07-11.333 3.591-2.164.523-1.588.182.715-.98"/>
    <path fill="#5f8aa6" d="M320.52 273.382c3.534-.928 10.11-2.56 15.569-4.125a186 186 0 0 0 12.073-3.902c2.276-.832 2.489-.992-2.371-1.008-4.862-.016-14.797.112-22.415.262-7.616.149-12.914.32-15.738.41-2.826.09-3.178.1-.624-.378 2.552-.481 8.01-1.45 15.536-2.127s17.12-1.061 23.702-1.045 10.155.432 12.02.64 2.025.208.576 1.012c-1.45.805-4.51 2.415-9.243 4.104-4.732 1.69-11.14 3.46-17.019 4.729-5.879 1.268-11.23 2.035-13.66 2.307s-1.94.048 1.593-.88"/>
    <path fill="#f9f9f9" d="M418.747 288.306c4.936-.437 12.291-.95 19.7-.927 7.408.02 14.871.575 18.847.874s4.467.34 2.558 1.652c-1.908 1.31-6.214 3.89-11.385 6.375s-11.203 4.872-15.98 6.503c-4.775 1.63-8.293 2.505-9.828 2.868-1.535.362-1.088.213 3.337-2.111a2268 2268 0 0 0 17.11-9.136c4.285-2.313 4.455-2.441.223-2.783-4.232-.34-12.866-.895-19.24-1.28-6.376-.383-10.49-.596-12.666-.713-2.175-.117-2.409-.138-1.269-.331 1.141-.192 3.656-.554 8.593-.991m36.243 39.752c3.593-.64 10.48-2.154 15.852-3.455 5.374-1.3 9.232-2.387 11.866-3.336 2.633-.948 4.04-1.76 4.85-2.324.81-.565 1.023-.885-1.365-1.641-2.388-.757-7.377-1.951-14.849-2.953s-17.43-1.812-25.575-2.452-14.476-1.11-18.367-1.333c-3.89-.224-5.34-.202-5.917-.192-.575.01-.276.01 4.5.715 4.775.703 14.028 2.11 23.377 3.379 9.35 1.268 18.794 2.399 23.868 3.07 5.074.672 5.778.885 5.981 1.162.202.277-.096.618-3.41 1.8-3.317 1.185-9.65 3.21-14.319 4.639-4.669 1.428-7.676 2.26-9.029 2.793-1.354.533-1.056.767 2.537.128m18.484 26.746c3.444-.778 9.029-1.844 13.858-2.942s8.902-2.228 11.183-2.868c2.28-.64 2.772-.79-1.173-1.94-3.944-1.151-12.322-3.305-20.392-5.181s-15.83-3.475-21.054-4.5c-5.224-1.022-7.91-1.47-9.595-1.79-1.683-.32-2.366-.511.757-.351s10.053.67 17.686 1.705c7.632 1.034 15.969 2.59 24.25 4.456 8.285 1.866 16.514 4.04 21.002 5.245 4.489 1.205 5.235 1.439 1.973 2.527-3.263 1.087-10.533 3.027-18.304 4.434s-16.044 2.282-20.5 2.687-5.095.34-4.765.064c.33-.277 1.632-.768 5.074-1.546m1.971 24.934a820 820 0 0 0 18.25-5.202c4.393-1.322 4.542-1.493.353-2.708-4.19-1.215-12.718-3.475-19.073-5.117a940 940 0 0 0-12.759-3.21c-2.228-.542-2.505-.606 1.748-.201s13.038 1.279 22.024 2.75 18.176 3.54 23.847 4.883 7.825 1.96 9.221 2.388c1.397.426 2.035.66-1.098 1.588-3.134.927-10.042 2.548-17.834 3.827-7.793 1.279-16.47 2.217-22.206 2.676-5.735.458-8.529.437-9.019.255-.49-.181 1.322-.522 6.546-1.93m34.272 8.838c7.26 1.93 19.71 5.426 29.018 8.56 9.306 3.135 15.467 5.906 18.74 7.367 3.273 1.46 3.656 1.61.928-.203-2.73-1.812-8.572-5.586-16.481-8.87-7.91-3.282-17.89-6.075-25.33-7.557s-12.344-1.652-14.966-1.76c-2.623-.106-2.964-.148-2.1.01.864.16 2.93.524 10.19 2.453m39.913 28.644c6.577 1.727 17.962 4.69 25.766 6.822 7.802 2.132 12.024 3.433 14.348 4.19s2.75.97 1.354-.15c-1.397-1.118-4.616-3.57-10.053-5.873-5.436-2.302-13.091-4.456-19.018-5.757-5.926-1.3-10.126-1.748-13.463-1.94a78 78 0 0 0-7.175-.085c-1.364.043-1.62.064-.863.32.756.256 2.526.746 9.104 2.473m-51.852-7.686c5.384.373 14.7 1.269 19.625 1.684s5.46.352.854-1.77-14.35-6.3-26.524-10.318c-12.173-4.02-26.777-7.878-34.314-9.99-7.537-2.11-8.006-2.472-4.626-2.024s10.606 1.705 19.241 3.762 18.677 4.915 27.802 7.953 17.333 6.258 23.302 8.88 9.702 4.648 11.535 5.863 1.77 1.62.832 1.94-2.75.555-10.277-.426-20.765-3.177-27.674-4.318-7.483-1.225-7.047-1.343c.438-.117 1.887-.266 7.271.107m30.62 27.975c6.047.163 14.283.872 21.617 1.672s13.767 1.69 16.791 2.176c3.025.488 2.642.573-.77-.813s-9.85-4.243-16.493-6.584c-6.644-2.34-13.492-4.166-26.305-7.62-12.814-3.454-31.593-8.537-41.143-11.11s-9.87-2.637-3.217-1.529c6.652 1.11 20.276 3.391 33.974 6.141s27.472 5.97 40.37 9.668c12.9 3.7 24.924 7.878 34.25 12.111 9.329 4.232 15.96 8.517 19.414 10.756s3.732 2.431-2.335 1.098c-6.065-1.332-18.473-4.19-34.251-6.94s-34.923-5.394-44.762-6.779c-9.84-1.386-10.372-1.514-8.71-1.77 1.664-.256 5.522-.64 11.57-.477"/>
    <path fill="#5f8aa6" d="M442.887 196.883c11.172-.33 25.628-2.548 50.24-3.507 24.616-.96 59.39-.66 83.205 1.695s36.67 6.769 43.59 9.168c6.918 2.398 7.899 2.782 4.893-.523s-10-10.298-24.412-16.843c-14.412-6.546-36.245-12.642-54.708-15.18-18.464-2.537-33.56-1.514-43.068-.554-9.51.959-13.431 1.854-14.348 2.302s1.172.448 8.74.619c7.57.17 20.618.51 31.086 1.194 10.469.682 18.357 1.705 27.31 3.965 8.956 2.26 18.977 5.757 24.35 7.654 5.372 1.898 6.098 2.197-4.072 1.748-10.17-.447-31.235-1.641-50.446-1.773s-36.568.798-52.815 2.077c-16.246 1.279-31.381 2.908-41.464 3.552-10.084.642-15.115.302-16.778.409s.043.66 4.84 1.716c4.796 1.055 12.685 2.612 23.857 2.28"/>
    <path fill="#f9f9f9" d="M408.006 174.572c9.444.362 25.542.96 38.613 3.3 13.072 2.34 23.117 6.423 28.608 8.79 5.489 2.366 6.424 3.015 5.718 3.533s-3.05.9-2.528.985c.523.085 3.912-.128 7.28-.629 3.37-.5 6.717-1.29 8.347-1.94 1.632-.65 1.547-1.162-2.494-3.06-4.04-1.897-12.035-5.18-23.196-7.94-11.161-2.762-25.49-5-38.271-5.533s-24.017.64-29.944 1.236c-5.928.597-6.546.618-5.458.693 1.087.075 3.88.202 13.325.565"/>
    <path fill="#5f8aa6" d="M431.67 157.538c-1.662-2.772-4.732-7.506-9.913-11.557-5.181-4.05-12.473-7.42-19.146-9.082s-12.728-1.62-14.391-1.897 1.066-.874 11.32-2.73c10.256-1.854 28.037-4.967 47.865-7.078 19.829-2.11 41.704-3.219 58.035-2.6 16.332.618 27.119 2.963 33.238 5.351 6.12 2.387 7.569 4.82 8.209 6.268.639 1.45.469 1.92-.853 2.047s-3.795-.085-13.368-.15c-9.573-.063-26.245.022-41.682 1.386-15.435 1.364-29.635 4.008-38.611 6.887s-12.728 5.991-13.687 7.164c-.96 1.172.874.404 10.809-1.259 9.936-1.663 27.972-4.22 44.709-4.839 16.737-.618 32.172.703 40.53 1.534s9.636 1.173 2.686 3.177-22.13 5.672-34.091 9.254-20.702 7.078-24.39 8.016c-3.69.938-2.325-.682.255-2.516 2.58-1.833 6.375-3.88 12.196-6.289s13.666-5.18 17.823-6.567c4.158-1.386 4.627-1.386-1.94-1.172s-20.168.64-32.044 1.833-22.024 3.155-28.634 4.818-9.68 3.027-11.342 3.305c-1.663.277-1.92-.533-3.582-3.304m122.849-8.252c6.48.96 17.61 2.963 28.548 7.761 10.937 4.797 21.682 12.386 28.847 19.614 7.163 7.228 10.746 14.094 12.536 19.296 1.79 5.201 1.79 8.741 1.79 10.511s0 1.77 1.194 0 3.582-5.31 2.73-11.109c-.853-5.799-4.947-13.858-10.661-21.086s-13.047-13.623-20.765-18.058c-7.718-4.434-15.821-6.908-23.282-8.293-7.462-1.386-14.285-1.685-19.36-1.407-5.074.277-8.4 1.13-9.146 1.513-.746.384 1.088.298 7.569 1.258"/>
    <path fill="#f9f9f9" d="M343.064 143.553c7.76-3.454 22.343-9.424 37.182-13.986 14.838-4.563 29.933-7.72 42.748-9.637 12.813-1.92 23.345-2.602 31.234-2.985a447 447 0 0 1 16.012-.512c2.878-.043 3.39-.043.447-1.193-2.942-1.152-9.338-3.455-22.322-3.561-12.985-.107-32.557 1.982-48.675 5.01s-28.782 6.993-37.716 10.362c-8.933 3.368-14.136 6.14-18.27 9.68-4.138 3.538-7.208 7.845-8.274 9.529s-.128.747 7.633-2.707M18.523 395.978c4.861-5.362 12.87-15.767 16.606-24.05 3.738-8.283 3.205-14.445 9.25-21.332 6.044-6.886 18.665-14.497 31.01-23.953 12.343-9.456 24.41-20.756 33.152-29.881 8.74-9.125 14.155-16.076 18.217-20.564s6.771-6.513 13.604-9.615c6.834-3.102 17.793-7.28 25.234-10.021 7.44-2.74 11.362-4.041 13.654-4.893 2.291-.854 2.952-1.259 1.345 1.217-1.508 2.321-5.01 7.175-8.533 12.515.228-.011-.133.857-1.1 3-1.662 3.689-5.117 11.151-7.536 17.046-2.42 5.896-3.806 10.223-4.264 12.078-.147.592-.199.932-.059.992.475-.746 1.268-1.956 2.633-3.937 2.974-4.317 8.661-12.293 14.361-19.522s11.414-13.71 16.872-18.731 10.66-8.581 13.262-10.362c.92-.629 1.514-1.035 1.82-1.109.688-.84.694-.557-.247 2.556-1.066 3.528-3.347 10.692-4.883 17.952-1.534 7.26-2.323 14.615-2.696 18.592-.09.952-.155 1.71-.148 2.218.273-.806.754-2.148 1.603-4.39 2.185-5.767 6.811-17.493 11.214-26.565 4.402-9.072 8.581-15.49 14.061-21.395 5.48-5.906 12.26-11.301 16.646-14.615 4.385-3.314 6.378-4.548 7.347-5.038.152-.076.28-.135.371-.153.882-.841 1.14-.964 1.27-.964.223 0 .073.362-1.835 5.117-1.908 4.754-5.575 13.9-8.144 21.256a191 191 0 0 0-4.797 15.862c-.757 2.942-.8 3.263 3.315-3.848l.743-1.286a393 393 0 0 1 5.744-14.338c2.921-6.877 6.247-14.061 10.82-21.448s10.394-14.977 17.078-21.565 14.232-12.174 22.58-16.417c6.757-3.436 14.04-5.991 19.17-7.664-6.614 1.258-13.2 2.762-19.277 4.297-11.579 2.925-21.307 5.96-27.34 8.284s-8.373 3.936-12.272 7.759-9.358 9.858-17.587 17.16c-8.23 7.302-19.23 15.874-29.017 22.099s-18.357 10.106-26.373 12.962c-8.017 2.858-15.479 4.691-24.199 7.697s-18.698 7.185-25.179 10.234c-6.482 3.049-9.467 4.968-11.62 6.747-2.154 1.781-3.476 3.421-6.354 7.781s-7.313 11.438-14.093 18.858c-6.78 7.419-15.905 15.18-27.823 23.836S49.5 334.645 41.245 341.199s-10.052 10.112-11.043 15.324c-.99 5.213-1.177 12.082-3.625 19.897-2.449 7.816-7.16 16.579-9.644 21.045l-.26.468a57 57 0 0 0 1.85-1.955m222.601-129.992c.427 2.367 1.083 7.281 1.803 10.042.724 2.782 1.513 3.38 4.264-1.589 2.75-4.967 7.462-15.499 10.766-24.667a173 173 0 0 0 3.294-10.109c-6.325 11.755-10.977 18.902-14.758 22.683-2.058 2.058-3.858 3.12-5.369 3.64"/>
    <path fill="#f9f9f9" d="M279.215 243.291c.427-5.757 1.066-15.734 2.836-25.605 1.769-9.873 4.669-19.637 6.673-25.138 2.004-5.5 3.113-6.737 4.307-7.376 1.194-.641 2.473-.683 1.556 7.377-.917 8.058-4.03 24.22-7.1 35.498s-6.098 17.675-7.504 20.105c-1.408 2.431-1.194.896-.768-4.861m28.345-18.975c.203-4.2.565-11.705 2.164-18.112s4.434-11.716 9.754-14.946 13.123-4.38 19.135-4.104c6.013.277 10.234 1.982 12.558 3.006s2.751 1.365 2.526 1.59c-.223.222-1.097.33-5.17 1.918-4.072 1.587-11.342 4.658-18.09 9.37s-12.974 11.065-16.747 15.883c-3.774 4.82-5.096 8.102-5.736 9.296s-.597.298-.394-3.9m47.208-71.165c2.488-.934 7.187-2.717 12.826-3.792s12.218-1.442 17.66-1.19c5.445.252 9.752 1.123 13.632 2.582 3.88 1.46 7.335 3.504 8.529 4.486 1.194.98.128.895-3.742 1.46s-10.543 1.781-15.222 3.081-7.367 2.686-8.88 3.241c-1.514.554-1.855.277-3.53-.629-1.672-.906-4.68-2.44-8.026-3.73-3.348-1.29-7.036-2.336-10.021-2.933s-5.266-.746-6.194-.917c-.927-.17-.501-.362-.15-.5.353-.139.63-.224 3.118-1.159M75.104 347.501c1.303-.739 2.961-1.741 5.085-3.097 5.928-3.784 15.478-10.33 24.284-18.208s16.865-17.088 22.856-25.221c5.991-8.134 9.914-15.191 11.865-19.328 1.154-2.445 1.618-3.87 1.786-4.74-1.387 2.621-4.332 7.254-11.912 15.821-9.338 10.554-25.713 27.077-36.213 37.514-10.501 10.436-15.127 14.785-17.536 17.056Zm50.88-24.394c3.849-3.571 11.179-10.48 16.667-17.655 5.487-7.175 9.133-14.616 11.162-20.156 1.529-4.177 2.139-7.274 2.347-9.135-1.213 2.687-3.353 6.793-7.424 13.06-6.086 9.37-16.491 23.57-21.885 30.915-2.384 3.245-3.788 5.15-4.215 5.979.632-.508 1.652-1.434 3.348-3.008m-67.551 36.519c.522 1.119 1.397 2.804 1.95 4.456.555 1.652.79 3.273 1.014 4.147s.437 1.001 3.933 3.272 10.277 6.685 15.724 10.469 9.562 6.94 11.694 8.624 2.282 1.898.118-1.717c-2.164-3.613-6.642-11.054-10.096-16.085s-5.884-7.655-7.27-8.881-1.727-1.055-3.315-1.13-4.424-.394-7.068-1.332-5.096-2.495-6.236-2.996-.97.054-.448 1.173m357.45-226.04c1.812.503 4.84 1.568 8.026 2.922 3.189 1.354 6.536 2.995 8.465 3.625s2.442.245 10.692-1.631c8.252-1.877 24.242-5.245 38.313-7.058 14.07-1.812 26.224-2.068 32.439-2.196s6.492-.128 3.389-1.428c-3.101-1.3-9.583-3.902-22.151-4.68-12.57-.778-31.224.266-44.655 1.727-13.432 1.46-21.64 3.337-27.024 4.797s-7.942 2.505-8.923 2.996c-.98.49-.383.426 1.429.927m21.34 24.306c4.776-1.184 13.752-3.145 22.877-4.775 9.125-1.632 18.399-2.933 27.94-3.7 9.54-.767 19.349-1.003 28.319-1.036s17.102.134 21.367.155c4.264.02 4.659-.103-.548-.933s-16.017-2.365-27.668-2.78c-11.651-.416-24.145.288-36.053 1.688-11.907 1.402-23.228 3.5-30.157 5.845-6.93 2.346-9.467 4.937-10.447 6.03-.982 1.094-.405.69 4.37-.494m-189.7 24.338c1.823-2.133 5.426-7.186 8.773-12.516 3.348-5.33 6.439-10.937 11.524-16.523s12.163-11.15 20.35-15.52c6.518-3.48 13.738-6.204 18.848-7.98a17 17 0 0 0-.683-.179c-1.753-.432-5.004-1.168-7.99-2.234-2.984-1.066-5.702-2.462-7.11-3.139-1.407-.678-1.503-.635-2.57-.112-1.065.522-3.101 1.524-7.104 4.787s-9.974 8.783-14.515 13.74-7.654 9.35-10.97 16.471c-3.315 7.12-6.832 16.971-8.698 21.79a59 59 0 0 1-1.063 2.606c.274-.174.66-.55 1.208-1.19m-55.792 9.84c3.392.622 9.414 1.29 15.104 1.406 5.756.117 11.171-.33 15.51-.992 4.339-.66 7.601-1.534 9.179-2.174s1.471-1.045 2.483-3.838 3.145-7.973 5.002-11.937c1.857-3.965 3.438-6.71 5.027-9.185q.298-.463.591-.91a47 47 0 0 1-2.963 2.942c-2.953 2.686-7.281 5.97-12.984 9.892-5.703 3.923-12.782 8.485-19.605 11.103-6.823 2.617-13.389 3.288-16.673 3.624zm-3.816 12.243c1.812 2.47 3.23 5.646 4.046 8.14.815 2.494 1.028 4.306 1.156 5.25.129.943.171 1.018.667.778.495-.24 1.444-.794 2.452-1.95a10.3 10.3 0 0 0 2.42-5.245c.346-2.329-.028-5.23-1.946-7.527-1.919-2.298-5.384-3.992-8.4-4.973s-5.586-1.247-6.615-1.204-.517.394.842 1.45c1.359 1.054 3.566 2.813 5.378 5.281m-36.616-7.06c-2.313-3.026-6.105-8.49-10.037-14.42a716 716 0 0 1-11.671-18.244c-3.666-5.921-6.926-11.364-9.143-15.202l-.53-.92a34 34 0 0 1-.513-.687c-.576-.79-.64-.917.533 1.684s3.582 7.932 6.62 13.677c3.038 5.746 6.705 11.908 9.605 16.63s5.032 8.006 6.226 9.765 1.45 1.993.458 2.217c-.991.225-3.23.438-5.948-.937-2.72-1.375-5.917-4.34-9.68-9.457-3.763-5.116-8.091-12.386-10.522-17.684-2.43-5.3-2.963-8.625-3.38-12.206-.414-3.582-.713-7.42-.894-9.392s-.246-2.08-.352-1.578c-.106.5-.256 1.609-.448 4.925s-.426 8.838 1.194 16.012c1.62 7.173 5.096 16 7.132 21.555s2.633 7.835 3.475 9.54c.842 1.706 1.93 2.836 3.049 3.775 1.119.937 2.27 1.684 2.825 1.726.554.043.512-.618.17-1.31-.341-.694-.981-1.418-1.257-2.39-.278-.97-.192-2.184-.107-2.983.085-.8.17-1.184.405-1.11.234.076.618.609 1.695 1.663 1.077 1.056 2.846 2.634 5.927 3.55 3.08.917 7.473 1.173 10.466 1.77 2.993.595 4.587 1.532 5.31 1.808.5.19.587.07.33-.58a52 52 0 0 1-.938-1.196m166.892-76.342c.353-.16.377-.33-.216-.675-.362.286-1.466.752-2.738 1.152q-.292.091-.603.177c1.605-.158 2.995-.397 3.557-.654m-1.08-1.108c-.668-.308-1.62-.707-2.931-1.243-4.126-1.683-11.794-4.706-20.254-8.23-8.461-3.526-17.714-7.556-24.74-12.246-7.024-4.69-11.821-10.042-16.757-14.828-4.936-4.787-10.01-9.009-12.805-11.183-2.794-2.175-3.308-2.302-4.918-4.07-1.61-1.77-4.314-5.183-8.086-8.668-3.772-3.487-8.612-7.047-10.992-9.332s-2.302-3.296-2.28-4.65c.02-1.354-.016-3.052-.173-4.508s-.433-2.67-.273-3.972c.093-.758.335-1.546.548-2.216-.801-.15-1.528-.446-2.145-.97-.767-.649-1.363-1.65-1.677-2.162-.313-.51-.345-.533-.58-.069s-.671 1.412-.72 2.382c-.05.97.29 1.961.727 3.223.436 1.263.969 2.798 1.16 4.494.193 1.694.044 3.55.503 5.245.458 1.694 1.524 3.23 5.415 6.63s10.607 8.667 14.7 11.811c4.094 3.146 5.565 4.168 4.968 4.403s-3.262-.32-5.692-1.15a33.8 33.8 0 0 1-6.365-2.986c-1.737-1.044-3.016-2.025-5.255-4.158-2.238-2.13-5.437-5.415-7.58-7.398s-3.23-2.665-4.605-5.148c-1.375-2.485-3.038-6.77-3.677-9.69-.64-2.922-.256-4.478-.14-5.8.118-1.322-.031-2.409-.15-2.889-.116-.48-.201-.352-.894-.02-.693.33-1.993.862-3.464 1.108-1.472.245-3.114.202-4.233-.043-1.12-.246-1.716-.693-2.014-.779-.3-.085-.3.193-.117.95.182.757.546 1.995 1.43 3.124.885 1.13 2.29 2.153 3.474 4.562 1.182 2.408 2.142 6.204 2.75 8.581.607 2.377.863 3.337 2.228 4.723 1.363 1.385 3.837 3.198 6.033 4.967 2.196 1.77 4.115 3.497 5.714 5.213s2.878 3.421 4.093 4.498 2.367 1.525 5.17 2.655 7.259 2.942 12.003 5.575 9.776 6.087 15.085 10.543c5.308 4.456 10.894 9.914 15.297 13.314s7.622 4.744 12.003 6.652c4.38 1.908 9.923 4.381 14.603 6.406s8.495 3.603 12.535 4.765 8.305 1.908 10.853 2.281c.985.144 1.713.233 2.225.303m-11.003-44.654c.19-2.554.563-5.803 1.115-9.219.904-5.61 2.287-11.67 2.757-16.637.468-4.968.024-8.843 1.187-12.422s3.935-6.864 5.811-10.573a26.3 26.3 0 0 0 2.463-7.5c-.594 1.207-1.256 2.627-2.208 4.234-1.914 3.23-4.994 7.217-7.297 10.132s-3.827 4.76-4.322 6.3.037 2.776.528 4.918c.49 2.143.938 5.193.81 8.422s-.83 6.642-1.375 9.381c-.544 2.74-.928 4.81-.342 8.55.204 1.297.523 2.794.873 4.414M165.138 479.97a98 98 0 0 0-.27-5.724c-.534-7.057-2.018-17.494-6.662-30.88-4.644-13.383-12.447-29.715-19.42-41.633-6.97-11.918-13.11-19.423-17.716-24.923a480 480 0 0 0-6.262-7.346l.504.349c2.953 2.058 9.03 6.386 15.636 14.34 6.605 7.955 13.74 19.536 19.826 32.21 6.086 12.676 11.126 26.445 13.752 37.039s2.84 18.014 1.293 24.224q-.302 1.205-.68 2.344m-17.472 16.007c-.67-4.273-1.875-10.97-4.057-20.468-2.712-11.797-6.934-27.915-10.857-40.111s-7.547-20.467-12.216-29.677-10.383-19.36-14.946-26.801c-3.366-5.49-6.106-9.506-7.02-11.868 2.327 2.505 6.254 6.844 11.85 15.606 6.035 9.445 14.008 24.028 19.637 37.247s8.912 25.073 11.662 36.65 4.968 22.877 5.672 32.109c.199 2.615.276 5.065.275 7.314m38.598-80.532a70 70 0 0 1-.971-1.027c-3.177-3.422-8.755-9.973-14.71-16.574-5.954-6.601-12.287-13.253-18.523-18.935s-12.376-10.393-17.717-14.178c-3.131-2.218-5.987-4.118-8.028-5.545 1.172.045 2.776.226 4.719.937 2.824 1.034 6.364 3.188 13.597 9.322 7.233 6.135 18.159 16.25 27.658 27.508 5.26 6.236 10.082 12.82 13.975 18.492m8.69-24.95c-4.813-4.716-11.21-11.62-16.533-17.052-6.737-6.876-11.752-11.392-17.252-15.04-5.264-3.49-10.973-6.181-15.098-7.79-2.3-1.288-2.643-1.466-2.574-1.812.086-.427.796-1.11 3.497-3.966 2.701-2.857 7.391-7.888 10.077-10.703s3.37-3.411 7.89-4.243c4.52-.831 12.877-1.897 23.857-1.257 9.625.56 21.267 2.432 33.558 5.14-5.71-.66-12.76-1.432-18.965-1.886-9.626-.703-17.216-.64-23.474.16s-11.182 2.334-14.328 3.517c-1.445.543-2.514 1.01-3.199 1.388l-.648.188c-3.58 1.044-3.326 1.044 1.13 2.025s13.112 2.942 24.966 7.334c9.786 3.626 21.75 8.908 32.105 14.575-7.573-2.947-18.93-7.405-27.809-10.318-11.567-3.795-18.922-4.968-24.54-5.402-5.618-.433-9.498-.128-11.584.025-.765.056-1.288.093-1.562.156-2.643-.037-2.678.108-1.256 1.199 1.642 1.258 5.224 3.774 11.94 9.925 6.717 6.15 16.567 15.936 24.487 26.362a150 150 0 0 1 5.314 7.476m88.353-75.672c-1.78-1.28-6.709-3.845-14.813-5.662-7.79-1.745-18.515-2.797-24.456-3.38 3.394.008 6.988.09 10.536.292 9.402.533 18.484 1.897 28.058 3.688 9.572 1.79 19.635 4.008 24.326 5.138s4.008 1.173-2.388 2.815c-6.396 1.64-18.506 4.882-27.95 7.867a249 249 0 0 0-20.127 7.313c-3.902 1.599-4.925 2.068-4.84 1.429.085-.641 1.28-2.39 7.611-5.63 6.332-3.24 17.803-7.974 23.325-10.382 4.705-2.053 5.09-2.42 1.301-3.01a5 5 0 0 0-.583-.478"/>
    <path fill="#5f8aa6" d="M255.172 291.968c3.686-1.547 9.173-3.396 16.914-4.64 9.541-1.536 22.503-2.154 33.11-1.835 10.607.32 18.858 1.578 24.604 2.452 4.493.684 7.455 1.133 9.444 1.45.23.357-.783.745-3.555 1.56-3.337.98-9.222 2.58-14.2 4.456s-9.05 4.03-11.204 5.117c-1.179.595-1.782.871-1.6 1.084-.889.074-1.852.108-3.08.148-4.11.135-11.208.345-16.106.975-.78-.126-.86-.08-.913-.05l2.14-1.207c2.248-1.269 6.746-3.805 12.226-5.97s11.94-3.955 14.967-4.893 2.622-1.023-2.889-1.31c-5.51-.289-16.129-.779-27.343-.33-11.215.446-23.027 1.832-29.07 2.568-1.459.177-2.58.317-3.445.425m50.034 38.852c6.694 3.113 18.975 10.021 30.04 17.888 11.066 7.867 20.916 16.694 30.916 27.226s20.147 22.77 25.86 29.188c5.715 6.418 6.994 7.014 13.135 9.381 6.139 2.366 17.14 6.503 28.179 12.053s22.115 12.514 29.897 19.827a65 65 0 0 1 6.024 6.47c-2.181-1.61-5.41-3.8-10.43-6.77-8.25-4.883-21.342-11.876-32.535-16.61-11.193-4.733-20.49-7.206-26.565-9.7-6.076-2.495-8.934-5.01-15.298-11.993-6.364-6.982-16.235-18.432-24.368-27.535-8.134-9.104-14.53-15.862-23.623-23.858-9.094-7.995-20.884-17.227-27.643-22.109-4.17-3.013-6.424-4.369-7.444-5.062 1.027.355 2.288.875 3.855 1.604m85.628 33.068c4.578-.032 4.621.021-2.979-4.189-7.602-4.21-22.845-12.686-32.152-17.53-3.817-1.988-6.635-3.364-8.755-4.306q.786.583 1.48 1.107c5.117 3.86 6.162 5.052 8.475 7.366 2.314 2.313 5.897 5.745 8.434 9.2a34.4 34.4 0 0 1 3.508 5.98 20 20 0 0 0 2.326.816c5.97 1.705 15.084 1.588 19.663 1.556"/>
    <path fill="#f9f9f9" d="M409.793 354.81c5.927.102 17.643.293 23.586.293 4.236 0 5.538-.097 2.94-.972a305 305 0 0 1-2.079-.507c-5.586-1.387-17.184-4.372-27.397-6.76s-19.038-4.178-23.207-4.818c-4.168-.64-3.677-.128-.042 1.78s10.415 5.213 15.34 7.675a733 733 0 0 1 6.378 3.234c.894.014 2.293.039 4.481.076m10.04 20.35c2.516.544 7.206 1.237 11.859 1.524 4.654.288 9.269.17 12.222-.084 2.942-.254 4.233-.646 4.026-1.09a120 120 0 0 1-9.692-1.03c-4.53-.677-9.785-1.764-12.413-2.308s-2.628-.544-3.038-.011c-.411.534-1.232 1.6-2.298 2.394a9 9 0 0 1-.858.563zm-29.993-43.67c3.454-.064 9.936-.266 16.097-.938s12.004-1.812 15.02-2.474c2.792-.611 3.165-.812 2.347-1.07-.51-.052-1.278-.141-2.368-.271-4.083-.491-12.675-1.578-20.308-2.24-7.633-.66-14.306-.894-17.76-1.011-3.454-.118-3.688-.118-3.347.149.34.266 1.258.799 2.623 1.865 1.364 1.066 3.176 2.665 4.583 4.158a33 33 0 0 1 1.615 1.852c.426-.002.919-.01 1.498-.02m-35.6-22.062c4.332-.357 12.487-1.04 18.106-1.98 5.621-.94 8.704-2.137 9.828-2.784.307-.177.467-.313.458-.421l-.437.01c-2.824.066-8.73.108-15.67.23-6.939.124-14.914.326-18.895.422-3.982.096-3.97.086-2.04 1.055 1.718.864 4.962 2.509 7.047 3.599zm-16-13.442c2.884-.168 8.163-.774 13.21-1.804 5.512-1.124 10.746-2.755 13.747-3.704s3.77-1.215 3.294-1.348c-.475-.133-2.19-.133-6.62-.16-2.819-.017-6.735-.045-10.314.098-.445.973-1.474 2.244-4.147 3.577-2.292 1.143-5.795 2.332-9.17 3.341"/>
  </g>
</svg>
