<svg width="120" height="120" viewBox="0 0 120 120" xmlns="http://www.w3.org/2000/svg" xmlns:xlink="http://www.w3.org/1999/xlink">
    <path d="m3.298,0.371c1.208,-0.833 4.001,0 6.001,0c14.492,5.292 23.458,16.109 38.012,21.339c4.479,10.192 7.943,21.397 13.335,30.675c7.063,-0.64 12.082,0.562 17.338,-1.334c2.274,-1.519 -3.043,-2.584 -0.666,-4.001c3.849,1.484 8.85,1.819 12.67,3.334c-0.264,-3.074 -3.527,-3.141 -4.002,-6.002c8.334,-1.443 9.556,4.228 14.673,6.002c-0.66399,-3.362 -4.80199,-8.778 -1.335,-12.003c3.792,1.766 4.645,6.469 8.002,8.669c-2.96899,-4.991 -2.143,-9.599 0,-15.337c2.895,5.998 3.089,14.695 8.00301,18.672c1.095,-4.241 -0.104,-10.773 4.668,-11.336l0,2c-1.554,6.45 -0.226,15.78 -0.667,23.34c-6.08801,0.16 -6.628,3.728 -13.33701,2c-7.476,3.416 -14.739,7.045 -22.007,10.67c0.682,3.985 4.768,4.568 5.334,8.67c-5.225,3.62701 -2.555,14.12701 -4.666,19.33801c-4.817,-4.766 -5.135,-13.051 -12.004,-14.67c-9.178,-2.164 -15.467,5.35 -23.34,7.334c0.42,9.541 8.6742,18.69099 -2.4381,22.133l1.3515,-2.249c1.6714,-2.225 -0.0003,-0.17699 -1.6863,-2.275c1.1883,-0.479 3.0011,-0.334 3.6272,-1.813c0.27093,-1.3535 0.66687,-1.957 -0.6872,-3.3105c-2.6263,-3.101 -8.1741,1.7385 -9.5031,1.5205c-0.294,-4.519 5.125,-3.323 6.001,-6.67c1.488,-0.099 -0.865,-1.682 0,-3.334c-2.79,0.541 -1.936,4.731 -5.334,4.668c-0.175,-1.955 1.508,-2.049 1.334,-4.002c-1.607,-0.271 -1.45,1.21899 -3.335,0.668c0.867,-2.023 4.215,-1.565 3.335,-5.336c-1.25,-0.974 -4.419,-0.024 -5.335,-1.334c2.135,-0.97701 3.938,-2.283 7.336,-2l0,-4c-7.083,0.213 -13.897,-2.65401 -21.531,-2.67001c-0.158,0 -0.579,-0.322 -0.636,-0.481c-1.263,-3.46201 -4.185,-5.263 -8.673,-5.498c-0.166,-0.011 -0.651,-0.397 -0.736,-0.585c-2.345,-5.197 -9.665,-10.24001 -11.026,-12.79c-1.18,-2.209 -1.372,-4.603 -1.403,-6.365c-0.006,-0.345 0.576,-0.487 0.886,-0.264c0.314,0.231 0.641,0.458 0.98,0.681c7.635,5.04 21.339,8.309 30.136,7.301c0.965,-2.522 -1.832,-1.279 -1.333,-3.336c4.721,-1.504 9.036,-3.41 12.671,-6c-10.091,-5.026 -13.875,-16.357 -14.671,-30.678c-7.984,-11.992 -26.551,-28.508 -25.342,-29.341zm44.68,94.025l2.667,-2c-0.52,-0.15 -0.775,-0.56001 -0.667,-1.33601l-2.668,0c0.365,0.971 -0.779,3.44901 0.668,3.33601z" fill="#5F8AA6"/>
</svg>