<?xml version="1.0" encoding="utf-8"?>
<svg xmlns="http://www.w3.org/2000/svg" xmlns:xlink="http://www.w3.org/1999/xlink" xml:space="preserve" viewBox="0 0 856.44135 711.01868" style="transform: scaleX(-1);">
	<title>Raven</title>
	<defs>
		<clipPath id="a" clipPathUnits="userSpaceOnUse">
			<path d="M0 533.264h642.331V0H0Z"/>
		</clipPath>
	</defs>
	<g clip-path="url(#a)" transform="matrix(1.33333 0 0 -1.33333 0 711.01867)">
		<path d="M0 411.2695c13.516.907 31.961-2.336 40.909-7.459l.294.294c1.505 1.508 2.965 3.03 4.379 4.627 6.618 7.476 12.57 16.181 17.834 24.64 7.881 12.668 15.368 26.37 21.813 39.829 6.044 12.623 15.383 29.814 18.542 42.42 10.283-2.573 19.098-5.719 19.867-13.35 4.027 11.933 17.719 27.288 28.592 28.993 8.808-12.706 12.37-19.736 15.573-34.445.019-.087.038-.177.057-.27.355-.218.706-.442 1.058-.661 4.951-3.088 8.994-6.287 12.01-11.443 4.486-7.669 4.64-16.922 3.587-25.502-.669-5.445-1.83-11.175-3.284-16.833 5.794 4.668 27.467 14.273 35.857 13.239 2.324-1.803.481-13.826-.99-19.098 2.6.252 11.518-.193 13.978-1.647 4.554-2.428-9.448-36.984-13.501-43.608 10.021 3.544 45.654 13.755 52.575 17.554 3.828-8.573-2.795-30.386-6.844-36.08-1.103-1.553-2.331-3.113-3.645-4.659 2.415.203 4.828.397 7.236.563 9.134.627 32.544 1.218 39.946.8.7-6.996-3.152-11.941-4.225-15.005 3.126 2.391 6.197 4.877 9.228 7.517 11.688 10.176 22.612 21.898 33.073 33.328 9.839 10.75 19.499 22.046 29.691 32.424 8.036 8.182 12.605 10.918 23.432 14.503 12.135 4.017 24.475 7.411 36.59 11.528 8.741 2.971 17.113 6.343 25.545 10.077 8.709 3.857 23.936 9.784 31.046 13.961 2.107-10.069-.369-19.716-.61-21.186 12.537.45 24.775 1.072 37.348 2.569 14.643 1.744 100.192 19.404 109.542 16.002 4.3-5.432-12.755-31.719-19.93-38.13 3.078-14.538-21.152-27.88-32.526-33.354-.118-.501-.264-1-.438-1.497-1.578-4.53-5.13-7.943-8.888-10.743-4.675-3.481-10.199-6.594-15.437-9.159-5.03-2.465-10.271-4.577-15.591-6.34 2.633-2.136 5.396-4.854 5.704-7.123-2.743-3.092-17.672-8.266-19.347-9.114 6.313-5.026 8.908-7.39 9.491-10.792-4.166-8.281-22.342-19.586-31.964-22.659 3.622-3.219 8.002-9.17 8.077-14.483-4.43-5.87-30.082-13.214-38.745-14.578 2.426-3.22 5.6-10.657 6.46-14.845-5.92-8.119-34.603-12.067-43.263-12.431-1.501-2.415-9.64-10.194-30.819-12.657-9.1-1.058-18.628-1.569-27.792-1.743-.546-.011-1.095-.014-1.646-.013 2.516-2.991 4.955-6.17 6.894-9.321 2.129-3.46 3.582-6.867 4.522-10.728 1.969-2.25 3.954-4.492 5.948-6.721 1.529-.625 3.721-1.186 5.147-1.613 13.194-3.947 26.633-7.19 40.232-9.388 20.125-3.252 40.988-4.445 61.342-5.352 22.177-.989 44.491-1.609 66.691-1.72 13.806-.068 52.935 1.542 62.081 10.039 27.788-57.482-25.615-91.389-75.937-95.918-17.001-18.894-52.156-25.012-70.54-22.268-26.069-15.712-74.465-10.032-102.715-2.379-10.809 2.927-21.424 6.667-31.917 10.579-1.528-2.727-3.905-5.121-6.081-7.358 2.137-.728 4.653-1.773 6.511-3.09 1.413-1.002 2.65-2.124 3.888-3.327.503-.489 1.245-1.284 1.836-1.66.8-.508 1.975-.968 2.846-1.366 2.168-.99 4.22-2.046 6.115-3.514 3.85-2.985 6.501-7.241 7.899-11.872 1.079-3.572 1.308-7.162.299-10.782-.306-1.094-.679-2.003-1.096-2.928.004-.042.008-.084.011-.126.849-9.868.083-23.732-12.703-30.401-.256-.169-10.42-9.751-11.729-11.06-.341-.341.661-.384 3.209.117 2.547.501 6.641 1.546 9.188 2.665.11.049.218.096.322.145-2.062-18.251-16.214-24.617-32.607-24.063-4.168.14-7.008.809-10.697 2.681-2.526 1.282-4.685 2.454-6.964 4.193-3.11 2.372-6.002 5.313-8.625 8.208-2.412 2.662-4.698 5.538-7.193 8.103-1.563 1.609-3.291 2.909-4.888 4.443-3.578 3.435-4.906 7.367-4.499 12.3.213 2.584.758 5.099.742 7.71-.019 3.185-.689 6.683-1.111 9.852-.657 4.935-.925 9.543-.178 14.514.313 2.084.778 4.075 1.302 6.045-.745-.353-1.487-.711-2.227-1.078-3.683-1.822-7.411-3.894-10.699-6.372-1.488-1.121-2.847-2.315-4.146-3.595.546-.908 1.032-1.861 1.455-2.857 1.774-4.165 2.574-9.311 2.786-13.839.138-2.916-.051-5.544-.197-8.404.087-.342.181-.684.265-1.022 1.158-4.657 1.801-9.578.538-14.29-1.657-6.187-6.243-10.686-11.936-13.35-3.267-1.53-6.059-1.995-9.335-3.053-.027-.009-.057-.018-.085-.028-.475-.296-.985-.709-1.44-1.03-8.822-6.252-13.305-7.787-23.968-5.794-3.273.611-15.951 7.581-18.74 9.383-1.836-8.088-2.415-7.741-.716-14.541-16.152 3.215-23.316 9.393-27.554 24.872-.378 3.236-.225 5.765.364 8.839-.189 2.263-.034 4.396.637 6.615.48 1.587 1.301 2.928 1.763 4.384.214.676.357 1.69.362 2.391.011 1.712-.299 3.695-.348 5.487-.152 5.543 1.405 13.45 4.445 18.221 1.953 3.066 8.297 4.495 14.812 7.94 8.272 4.374 17.213 10.668 22.087 13.111 4.379 2.194 8.248 5.444 11.882 8.687 5.405 4.825 10.535 9.793 16.369 14.132 2.461 1.832 5.069 3.592 7.748 5.248-2.604 2.612-5.206 5.228-7.745 7.913-5.334 5.646-10.614 11.659-14.815 18.208-3.355 5.231-5.694 10.521-8.394 16.056-1.464 3-2.365 4.76-5.311 6.532-5.387 3.241-12.97 4.508-19.153 4.606-10.068.158-21.597-2.059-31.425-4.158-6.184-1.32-12.573-2.751-18.629-4.59-.011-.004-.023-.007-.034-.011-.063-.091-.125-.18-.186-.266-3.886-5.496-7.682-10.619-12.291-15.571-10.57-11.356-24.965-22.63-30.317-36.839-18.072 1.957-16.978 35.749-12.047 49.398.699 1.936 1.471 3.471 2.304 5.173-.06.648-.152 1.319-.217 1.911-.665 6.126-1.155 12.256-.369 18.4.671 5.238 2.294 10.437 4.451 15.272-1.172 5.522-1.935 11.301-1.5 16.931.458 5.917 2.264 11.622 4.713 16.998.285.625.591 1.241.886 1.859.375 2.415.649 4.451 1.472 6.917 1.163 3.487 3.053 6.906 5.436 9.764-1.249 1.77-2.342 3.606-3.511 5.566-.089.149-.185.318-.286.462-.51.613-1.312 1.313-1.888 1.869-4.976 4.792-10.109 9.371-15.347 13.876-10.446 8.984-21.386 17.935-32.679 25.824-9.584 6.695-19.462 12.16-29.328 18.298-6.685 4.158-12.87 8.561-17.437 15.098-4.413 6.319-6.658 13.459-7.442 21.081-.76 7.381-.139 14.846-.878 22.198-1.09 10.851-3.39 20.699-9.549 32.568" fill="#f9f9f9" fill-rule="evenodd"/>
		<path d="M339.5771 75.1953c-.992-.899-3.807-.75-5.886-2.156-2.078-1.408-3.422-4.371-4.008-7.378-.586-3.006-.416-6.055 1.408-7.985 1.822-1.928 5.298-2.739 7.899-4.423 2.601-1.685 4.328-4.244 5.244-6.194.917-1.95 1.024-3.294 1.504-5.18.48-1.887 1.332-4.319 2.271-6.067.937-1.748 1.961-2.813 2.688-3.34.728-.525 1.16-.51-.429-.777-1.587-.267-5.196-.814-10.55.469-5.355 1.282-12.454 4.394-17.603 9.533-5.149 5.139-8.348 12.302-8.486 18.763-.138 6.46 2.782 12.215 7.506 15.353 4.723 3.138 11.25 3.656 14.927 2.942 3.678-.714 4.507-2.662 3.515-3.56M224.2622 17.8496c.46.236-.136 1.247-.533 3.243-.396 1.997-.592 4.98.238 7.707.829 2.728 2.684 5.201 3.643 8.122.96 2.921 1.024 6.289 2.314 8.806 1.29 2.516 3.805 4.178 6.737 4.146 2.932-.032 6.279-1.759 8.041-4.451 1.763-2.691 1.941-6.347 2.367-8.842.426-2.495 1.102-3.827 1.895-.752.793 3.074 1.705 10.555.192 15.992-1.514 5.437-5.454 8.829-11.815 8.723-6.362-.105-15.146-3.709-19.314-9.561-4.168-5.853-3.721-13.954-2.494-19.711 1.226-5.756 3.229-9.168 4.99-11.143 1.761-1.975 3.279-2.514 3.739-2.279" fill="#737373" fill-rule="evenodd"/>
		<path d="M120.105 270.0571c-2.487 2.395-7.037 6.753-15.793 14.284-8.757 7.53-21.72 18.234-33.531 26.485-11.812 8.251-22.472 14.049-29.806 18.612-7.334 4.563-11.343 7.889-14.307 12.132-2.963 4.242-4.881 9.402-5.564 16.032-.682 6.631-.127 14.733-.875 22.172s-2.796 14.216-3.918 17.658c-1.122 3.443-1.317 3.552-1.422 3.509-.106-.043-.122-.238 2.278-.739 2.402-.5 7.22-1.306 11.442-2.668 4.221-1.363 7.846-3.281 10.597-5.499 2.75-2.217 4.626-4.733 5.777-5.927 1.151-1.194 1.578-1.066 3.497.171 1.918 1.236 5.33 3.582 8.559 6.58 3.229 2.999 6.275 6.651 8.386 9.38 2.111 2.729 3.286 4.535 1.741 3.818-1.544-.718-5.809-3.958-10.142-6.61-4.333-2.65-8.736-4.711-9.65-4.801-.914-.089 1.661 1.793 6.245 6.971 4.583 5.177 11.173 13.65 18.909 26.084 7.737 12.434 16.619 28.829 22.381 40.864 5.763 12.035 8.407 19.711 10.913 23.888 2.506 4.177 4.875 4.856 7.508 3.78 2.632-1.077 5.53-3.91 7.693-6.861 2.163-2.951 3.592-6.022 4.457-7.8.864-1.779 1.165-2.265 1.603-2.11.437.157 1.012.955 1.907 3.608.894 2.653 2.108 7.159 3.599 11.982 1.492 4.822 3.262 9.96 5.628 14.043 2.367 4.083 5.33 7.11 7.015 8.753 1.684 1.641 2.089 1.897 3.486-.118 1.396-2.015 3.784-6.3 5.441-10.939 1.658-4.639 2.585-9.632 3.156-12.256.571-2.624.788-2.879 1.588-4.553.801-1.674 2.187-4.764 3.093-6.779.906-2.015 1.332-2.953.959-1.834-.373 1.119-1.545 4.296-1.92 5.705-.374 1.408.05 1.049 2.203-.294 2.154-1.343 6.036-3.671 8.426-7.755 2.389-4.084 3.284-9.926 2.197-18.774-1.087-8.848-4.157-20.702-7.621-30.488-3.464-9.786-7.323-17.504-9.617-21.956-2.294-4.451-3.022-5.636-3.27-6.177-.248-.541-.016-.439 5.871 5.345 5.886 5.784 17.426 17.249 26.01 24.517 8.584 7.268 14.213 10.338 17.496 11.394 3.284 1.055 4.222.095 2.9-4.19-1.322-4.285-4.904-11.896-8.713-18.457-3.81-6.56-7.847-12.068-10.011-15.181-2.164-3.112-2.455-3.83.8-1.033s10.057 9.108 15.494 13.393c5.436 4.286 9.509 6.546 12.035 7.601 2.526 1.056 3.507.906 2.761-3.038s-3.22-11.683-7.046-19.135c-3.827-7.452-9.009-14.615-12.601-19.722-3.592-5.106-5.596-8.154-6.513-9.733-.917-1.577-.746-1.684.32-1.652 1.067.032 3.028.203 5.032.48 2.004.277 4.051.661 4.187.841.136.181-1.638.158-2.322.194-.685.037-.28.134 7.057 2.693 7.337 2.56 21.605 7.581 31.649 11.244 10.044 3.662 15.865 5.965 19.009 7.222 3.145 1.259 3.614 1.472 3.134-1.215-.48-2.686-1.908-8.272-6.343-14.509-4.434-6.236-11.875-13.122-16.56-16.949-4.686-3.827-6.615-4.595-7.549-4.999-.934-.404-.872-.444.726-.657 1.599-.213 4.734-.598 11.211-.303 6.477.294 16.297 1.269 25.247 1.884s17.03.871 21.145 1.009c4.115.139 4.264.16 3.475-1.524-.789-1.684-2.516-5.074-7.6-8.923-5.086-3.848-13.528-8.155-19.028-10.617-5.5-2.464-8.055-3.082-8.716-3.914-.661-.831.573-1.875 3.472-3.026 2.898-1.151 7.461-2.408 11.853-2.739 4.392-.33 8.614.266 11.279.97 2.665.703 3.773 1.514 9.253 5.16 5.479 3.645 15.329 10.127 26.128 19.529 10.798 9.403 22.545 21.725 33.941 34.176s22.439 25.031 29.433 32.151c6.993 7.121 9.935 8.785 19.146 11.833 9.21 3.049 24.689 7.484 36.671 11.556 11.982 4.072 20.468 7.782 26.437 10.426 5.97 2.643 9.424 4.221 11.663 5.501 2.238 1.279 3.261 2.26 3.731 1.812.469-.448.384-2.324-.405-5.309-.789-2.985-2.282-7.078-2.42-8.976-.139-1.897 1.076-1.599 9.402-1.322 8.325.278 23.762.534 42.736 2.793 18.976 2.261 41.491 6.525 57.694 9.744 16.204 3.22 26.097 5.394 31.213 6.481 5.117 1.088 5.459 1.088 4.84-1.258-.619-2.345-2.196-7.036-6.205-11.939-4.007-4.904-10.446-10.021-13.666-12.515-3.219-2.495-3.219-2.367-3.176-2.346.043.022.128-.064.49-.085.362-.021 1.002.021 2.303-.043 1.3-.063 3.261-.234 4.007-1.151.748-.916.278-2.579-1.875-5.202-2.154-2.622-5.991-6.204-11.3-9.636-5.309-3.433-12.089-6.717-15.713-8.412-3.624-1.694-4.093-1.801-4.178-2.036-.085-.234.213-.596.56-1.284.346-.687.741-1.7.25-3.107-.491-1.407-1.865-3.209-5.164-5.666-3.3-2.457-8.524-5.57-13.747-8.129-5.224-2.558-10.447-4.562-15.02-6.044-4.573-1.482-8.497-2.441-10.202-3.081-1.705-.639-1.194-.959-.043-2.079 1.151-1.119 2.942-3.037 3.475-4.562.534-1.525-.192-2.655-3.421-4.595-3.231-1.94-8.966-4.69-14.072-6.588-5.106-1.897-9.584-2.942-11.823-3.465-2.238-.522-2.238-.522 1.173-1.524s10.233-3.006 14.092-5.031c3.859-2.026 4.755-4.073 4.883-5.789.127-1.716-.512-3.102-2.73-4.904-2.217-1.801-6.012-4.019-11.929-6.194-5.916-2.174-13.954-4.306-19.412-5.553-5.458-1.247-8.336-1.61-8.837-1.919-.501-.309 1.375-.565 4.872-2.089 3.496-1.525 8.614-4.318 11.268-6.375 2.654-2.057 2.847-3.38 1.834-5.096-1.013-1.716-3.231-3.827-8.145-5.628-4.914-1.802-12.526-3.294-20.19-4.317-7.665-1.024-15.383-1.578-19.306-1.759-3.923-.182-4.051.011-.502-2.09 3.55-2.099 10.779-6.492 14.637-9.466 3.859-2.974 4.35-4.53 4.04-6.162-.308-1.631-1.417-3.336-6.481-4.53-5.064-1.194-14.082-1.876-21.683-2.196-7.601-.32-13.783-.278-16.459-.448-2.676-.17-1.845-.554-.672-1.567 1.173-1.012 2.687-2.654 3.23-3.976.544-1.322.118-2.324-2.729-3.497-2.847-1.172-8.112-2.516-16.363-3.475-8.251-.959-19.487-1.535-26.758-1.674-7.269-.138-10.574.16-12.014.043-1.438-.117-1.012-.65-.884-1.407s-.042-1.737-1.045-2.921c-1.002-1.183-2.835-2.569-3.113-3.817-.277-1.246 1.002-2.356 3.795-5.437 2.793-3.08 7.1-8.133 9.573-12.152 2.473-4.018 3.113-7.004 3.432-8.518.321-1.513.321-1.555 1.877-3.335 1.556-1.781 4.668-5.299 6.395-7.228 1.726-1.93 2.068-2.27 9.977-4.638 7.91-2.366 23.389-6.758 41.597-9.7 18.207-2.942 39.144-4.435 62.575-5.479 23.432-1.045 49.358-1.642 67.117-1.731 17.76-.088 27.354.332 35.271 1.491 7.917 1.16 14.157 3.056 17.278 4.066 3.12 1.011 3.12 1.134 4.37-.579 1.251-1.713 3.752-5.262 4.256-10.831.504-5.57-.988-13.16-5.017-20.729-4.031-7.568-10.597-15.116-19.637-21.129-9.04-6.011-20.553-10.489-30.999-13.188-10.447-2.699-19.827-3.62-24.46-3.848-4.633-.227-4.518.24-4.283-1.196.234-1.437.587-4.778-2.434-8.132-3.02-3.355-9.417-6.724-18.009-8.877-8.593-2.153-19.381-3.091-26.992-3.496-7.611-.405-12.046-.277-14.264-.213-2.216.064-2.216.064-5.137-1.663-2.921-1.728-8.764-5.182-18.912-6.844-10.149-1.663-24.604-1.536-37.759-.533-13.155 1.002-25.009 2.878-37.524 6.268-12.514 3.39-25.691 8.294-32.684 10.917-6.994 2.622-7.805 2.963-8.21 2.953-.406-.011-.406-.373-.843-2.197-.437-1.822-1.311-5.106-3.838-8.496-2.526-3.389-6.705-6.886-10.255-9.22-3.55-2.335-6.47-3.508-7.931-4.894-1.46-1.386-1.46-2.984-1.46-4.84 0-1.854 0-3.966 1.066-4.978 1.065-1.013 3.197-.927 5.916.181 2.719 1.109 6.024 3.241 9.21 3.763 3.188.522 6.258-.564 8.528-2.174 2.271-1.61 3.743-3.742 6.173-5.288 2.431-1.546 5.821-2.505 8.144-4.306 2.324-1.801 3.582-4.445 4.2-6.492.618-2.047.598-3.496.234-4.797-.362-1.3-1.065-2.452-1.385-3.252-.32-.798-.256-1.247-.053-3.602.202-2.357.543-6.62-.128-9.957-.672-3.337-2.357-5.746-3.188-6.588-.832-.843-.81-.117-1.396 2.004-.587 2.121-1.78 5.639-3.312 7.978-1.531 2.339-3.399 3.499-4.774 4.193-1.375.692-2.258.918-3.529 1.649-1.274.732-2.937 1.967-4.258 4.025-1.322 2.057-2.303 4.936-4.307 6.322-2.005 1.386-5.032 1.279-8.219-.544-3.188-1.822-6.535-5.362-8.208-7.132-1.674-1.769-1.674-1.769-.748-3.73.928-1.962 2.783-5.885 4.467-8.379 1.685-2.494 3.198-3.561 4.413-3.997 1.215-.438 2.132-.245 3.667-.779 1.535-.533 3.69-1.791 5.267-3.07 1.577-1.279 2.58-2.58 3.07-3.934.49-1.354.469-2.761.586-3.72.117-.96.373-1.471 1.418-2.26 1.045-.789 2.878-1.856 4.541-2.474 1.663-.618 3.155-.789 3.795-1.13.64-.34.427-.852-.277-1.407-.703-.554-1.898-1.151-3.657-1.631-1.758-.479-4.082-.841-6.374-.756-2.293.084-4.552.618-6.012.714-1.461.096-2.122-.246-3.007-.192-.885.053-1.993.501-3.102 1.226-1.108.724-2.217 1.727-3.464 2.612-1.248.885-2.633 1.652-3.028 1.748-.394.096.202-.48.948-1.482.747-1.002 1.643-2.43 2.932-3.379 1.29-.949 2.975-1.418 4.51-1.972 1.535-.555 2.921-1.194 3.656-2.324.736-1.13.821-2.75.832-3.667.01-.917-.054-1.13.127-1.323.182-.191.608-.362 2.133-.67 1.524-.31 4.146-.758 6.141-.833 1.993-.074 3.357.224 4.114.406.757.181.906.245.266-.736-.639-.98-2.068-3.006-5.799-4.232-3.731-1.226-9.765-1.652-13.36-1.531-3.596.122-4.754.791-6.204 1.526-1.449.736-3.191 1.538-5.309 3.153-2.119 1.618-4.613 4.048-7.182 6.883-2.569 2.836-5.213 6.076-7.452 8.379s-4.072 3.667-5.149 4.701c-1.076 1.035-1.396 1.738-1.236 3.678.16 1.94.799 5.117.778 8.656-.021 3.539-.703 7.441-1.205 11.204-.501 3.763-.821 7.388-.203 11.502.619 4.116 2.175 8.721 3.028 11.952.853 3.229 1.002 5.084.842 7.024-.16 1.94-.629 3.966-1.076 4.829-.449.863-.875.565-4.244-.917-3.368-1.481-9.679-4.146-14.849-6.705s-9.199-5.01-12.398-7.419c-3.198-2.409-5.565-4.776-7.558-6.951-1.993-2.174-3.613-4.156-4.071-5.233-.459-1.077.246-1.247 1.45-2.057 1.205-.811 2.91-2.26 4.072-4.988 1.162-2.73 1.78-6.739 1.94-10.139.16-3.401-.138-6.193-.213-7.707-.075-1.514.075-1.748.586-3.806.512-2.057 1.386-5.938.587-8.923-.8-2.985-3.273-5.074-6.119-6.407-2.847-1.332-6.066-1.908-8.081-2.558-2.015-.65-2.825-1.375-4.434-2.516-1.61-1.141-4.02-2.696-5.864-3.518-1.844-.82-3.123-.906-3.059-.341.064.565 1.471 1.781 2.921 4.19 1.45 2.409 2.942 6.012 3.741 9.626.8 3.613.906 7.238 1.482 9.817.575 2.58 1.621 4.116 2.217 5.341.597 1.227.747 2.144.118 3.913-.63 1.77-2.036 4.392-5.085 5.884s-7.74 1.855-11.567.203-6.79-5.319-8.389-8.315c-1.599-2.995-1.834-5.32-1.738-6.961.096-1.642.522-2.601.256-3.689-.266-1.087-1.226-2.302-1.556-3.731-.331-1.428-.032-3.07.437-4.626.469-1.557 1.108-3.027 2.046-4.829.938-1.802 2.175-3.934 2.879-5.085.703-1.152.874-1.322-.437-1.076-1.312.244-4.105.906-6.45 2.845-2.345 1.941-4.243 5.159-5.458 6.791-1.215 1.631-1.748 1.673-2.622 2.004-.874.33-2.09.948-2.89 1.61-.799.661-1.182 1.365-1.289 1.375-.107.01.064-.671-.107-1.493-.17-.82-.682-1.78-1.375-2.398-.692-.618-1.567-.896-2.079-1.301-.511-.405-.66-.937-.895-2.59-.235-1.652-.554-4.424-.341-7.036.213-2.611.959-5.063 1.396-6.385.437-1.322.565-1.514-.746-.704s-4.062 2.622-6.055 5.842c-1.993 3.22-3.23 7.846-3.603 11.044-.373 3.198.117 4.968.336 6.038.219 1.071.167 1.442.092 2.146-.075.703-.171 1.739.185 2.918.357 1.178 1.167 2.501 1.722 4.249.553 1.748.852 3.923.863 5.564.011 1.642-.267 2.75-.352 5.853-.085 3.102.021 8.198 1.633 10.728 1.612 2.529 4.728 2.493 6.685 2.587 1.957.095 2.754.319 4.298 2.054 1.543 1.734 3.834 4.978 7.879 7.41 4.044 2.433 9.843 4.053 14.928 6.601 5.086 2.547 9.456 6.022 14.221 10.276 4.766 4.254 9.925 9.285 15.628 13.528 5.703 4.242 11.951 7.697 15.308 9.392 3.358 1.695 3.828 1.631.886 4.69-2.942 3.06-9.295 9.242-14.796 15.064-5.501 5.82-10.149 11.278-13.581 16.63-3.433 5.351-5.65 10.595-7.782 14.966-2.132 4.371-4.179 7.868-9.424 11.023-5.244 3.156-13.687 5.971-24.517 6.141-10.831.17-24.05-2.302-33.836-4.392-9.786-2.09-16.139-3.795-19.508-4.818-3.369-1.024-3.753-1.365-5.863-4.35-2.111-2.984-5.949-8.613-11.385-14.455-5.437-5.842-12.473-11.897-16.886-16.929-4.414-5.031-6.205-9.04-7.185-11.001-.981-1.962-1.151-1.876-1.727 1.087-.576 2.964-1.557 8.806-1.364 14.349.191 5.544 1.556 10.788 2.75 14.093 1.194 3.305 2.217 4.669 2.686 5.882.468 1.214.382 2.277-.023 6.007-.405 3.732-1.129 10.131-.393 15.879.736 5.747 2.931 10.844 4.029 13.189 1.098 2.344 1.098 1.939.458 4.829-.64 2.888-1.918 9.071-1.481 14.721.437 5.65 2.59 10.767 3.778 13.376 1.189 2.609 1.413 2.71 1.605 3.905.192 1.193.352 3.48 1.167 5.923.815 2.445 2.287 5.046 4.163 7.039 1.876 1.994 4.158 3.379 5.17 3.87 1.013.491.757.085.223-1.51-.535-1.595-1.347-4.38-1.659-5.565-.313-1.183-.126-.767 1.283.445 1.408 1.211 4.037 3.217 5.096 4.358 1.059 1.142.547 1.419-1.212 2.57-1.758 1.152-4.765 3.177-7.091 5.709-2.328 2.534-3.976 5.575-5.011 7.31-1.036 1.736-1.46 2.168-3.947 4.563" fill="#2b2b2b" fill-rule="evenodd"/>
		<path d="M194.3247 227.7529c5.543-2.984 14.754-8.485 23.133-14.263 8.378-5.778 15.926-11.833 21.831-15.5 5.906-3.668 10.17-4.947 14.605-6.865 4.434-1.919 9.04-4.477 13.058-9.11 4.019-4.632 7.451-11.336 9.167-14.689 1.716-3.353 1.716-3.353 4.413-3.748 2.697-.394 8.091-1.183 13.133-2.899 5.043-1.716 9.733-4.361 12.857-7.664 3.123-3.305 4.679-7.272 4.765-11.184.085-3.912-1.301-7.77-2.122-9.765-.82-1.993-1.076-2.121-2.83-2.552-1.753-.433-5.004-1.168-7.989-2.235-2.985-1.065-5.703-2.462-7.11-3.138-1.408-.678-1.503-.635-2.57-.113-1.066.523-3.102 1.525-7.105 4.787s-9.973 8.784-14.514 13.741c-4.542 4.957-7.655 9.348-10.97 16.47-3.315 7.121-6.833 16.971-8.699 21.789-1.865 4.819-2.078 4.606-2.345 2.9-.267-1.705-.587-4.903-.256-8.699.33-3.794 1.311-8.187 1.919-10.702.607-2.516.842-3.156.17-2.431-.671.724-2.249 2.814-5.202 5.501-2.953 2.686-7.281 5.97-12.984 9.892-5.703 3.923-12.782 8.486-19.605 11.103-6.822 2.617-13.389 3.288-16.672 3.624-3.284.336-3.284.336-2.286.611.997.277 2.992.827 5.609 2.139 2.617 1.312 5.856 3.382 7.742 5.563 1.886 2.182 2.419 4.473 2.702 5.726.282 1.253.314 1.466.09 1.327-.224-.137-.703-.629-2.379-1.831-1.678-1.203-4.551-3.118-8.628-4.562-4.078-1.445-9.36-2.419-12.001-2.907-2.64-.487-2.64-.487-2.203.036.437.522 1.311 1.567 2.388 4.12 1.076 2.553 2.355 6.615 2.696 9.856.341 3.24-.255 5.66-.57 6.79-.314 1.13-.346.97-.554.464-.208-.507-.592-1.359-2.303-4.461-1.711-3.102-4.749-8.454-8.363-12.329s-7.803-6.273-11.3-7.889c-3.496-1.615-6.3-2.446-7.771-2.894-1.471-.447-1.61-.512-1.785-.074-.176.437-.39 1.375-.938 2.158-.55.784-1.434 1.413-2.016 1.722-.581.309-.857.298-.783.534.075.234.501.713 1.439 1.779.938 1.066 2.388 2.719 3.166 3.63.779.911.885 1.082-.058 1.305-.944.225-2.937.501-6.364.171-3.428-.33-8.289-1.268-10.794-1.8-2.505-.534-2.654-.663-2.601-.384.053.276.309.959.714 1.763.405.805.96 1.732 1.423 2.313.464.582.837.816.65.981-.186.165-.933.261-2.083.165-1.152-.095-2.709-.383-4.51-1.028-1.802-.645-3.848-1.647-4.829-2.111-.982-.464-.897-.391-1.676 2.514-.779 2.905-2.421 8.64-3.124 13.576-.704 4.935-.469 9.071-.096 11.662.373 2.591.885 3.636.949 3.614.064-.021-.32-1.109-.118-3.198.203-2.09.992-5.181 1.834-7.313.842-2.133 1.737-3.305 2.143-3.742.405-.437.32-.139.191 2.622-.128 2.762-.298 7.986.203 11.759.501 3.773 1.674 6.098 2.729 7.739 1.055 1.642 1.993 2.601 2.111 2.633.117.032-.586-.863-.96-2.579-.373-1.717-.415-4.254-.362-6.184.053-1.929.202-3.251.309-3.688.107-.437.17.011 1.29 1.845 1.119 1.833 3.294 5.052 5.725 7.152 2.43 2.101 5.116 3.081 7.101 3.689 1.984.609 3.265.844 4.002.962.736.118.928.118 4.116-1.48 3.187-1.6 9.37-4.798 15.329-7.196 5.959-2.399 11.695-3.998 15.5-5.032 3.806-1.034 5.683-1.503 11.226-4.488" fill="#737373" fill-rule="evenodd"/>
		<path d="M162.147 239.6357c.489-1.84.968-3.865 1.114-5.87.267-3.646-.565-7.228-1.012-9.094-.448-1.865-.512-2.015-.598-.97-.085 1.045-.191 3.284-.394 4.797-.202 1.514-.501 2.303-.629 1.834-.127-.468-.085-2.196-.501-4.669-.415-2.473-1.29-5.693-2.494-8.208-1.205-2.516-2.74-4.329-3.656-5.341-.917-1.013-1.216-1.226-.299-1.044.917.18 3.049.756 5.287 2.334 2.239 1.578 4.584 4.157 6.109 6.737 1.524 2.58 2.228 5.16 2.591 6.684.362 1.525.383 1.994.692.127.31-1.865.906-6.065-.97-10.329s-6.225-8.592-8.507-10.884c-2.281-2.292-2.494-2.548-3.678-3.027-.096-.04-.2-.08-.308-.122-.099.088-.294.153-.598.226-.943.224-2.937.501-6.363.171-3.428-.331-8.289-1.269-10.794-1.801-2.506-.533-2.655-.662-2.601-.384.053.276.309.959.714 1.764.405.804.959 1.731 1.423 2.312.464.582.837.817.65.982-.186.165-.933.26-2.084.165-1.151-.096-2.708-.384-4.509-1.029-1.802-.645-3.848-1.647-4.83-2.111-.981-.464-.897-.391-1.675 2.515-.779 2.904-2.421 8.639-3.124 13.575-.704 4.935-.47 9.071-.097 11.662.374 2.591.886 3.636.95 3.614.064-.021-.32-1.109-.118-3.198.203-2.09.992-5.181 1.833-7.313.843-2.132 1.738-3.305 2.143-3.742.405-.437.32-.138.192 2.622-.128 2.762-.298 7.986.203 11.759.501 3.774 1.673 6.098 2.729 7.739 1.055 1.642 1.993 2.601 2.111 2.633.117.032-.587-.863-.96-2.579-.373-1.717-.416-4.254-.362-6.183.053-1.93.202-3.251.309-3.689.107-.436.17.011 1.29 1.845 1.119 1.833 3.294 5.053 5.725 7.152 2.429 2.101 5.116 3.081 7.1 3.69 1.984.608 3.266.843 4.002.961.737.119.929.119 4.117-1.48 2.21-1.109 5.86-2.986 9.877-4.833" fill="#f9f9f9" fill-rule="evenodd"/>
		<path d="M129.5562 211.1289c.33-.64 1.706-1.794 3.555-2.435 1.849-.64 4.173-.768 6.732.308 2.558 1.077 5.351 3.358 6.822 6.056 1.472 2.696 1.621 5.809 1.06 8.342-.56 2.532-1.831 4.484-3.718 5.347-1.887.863-4.39.639-6.014-.625-1.625-1.264-2.372-3.566-2.947-6.082-.575-2.515-.981-5.245-1.482-6.94-.501-1.695-1.098-2.356-1.599-2.697-.501-.341-.906-.363-1.466-.436-.56-.073-1.274-.198-.943-.838M111.623 145.4258c-.192 3.315-.426 8.838 1.194 16.012 1.62 7.174 5.096 16.001 7.132 21.555 2.036 5.554 2.632 7.835 3.475 9.541.842 1.705 1.929 2.835 3.049 3.774 1.119.937 2.27 1.684 2.825 1.726.554.043.512-.618.17-1.31-.341-.694-.981-1.418-1.258-2.389-.277-.97-.191-2.185-.107-2.984.086-.8.171-1.184.406-1.11.234.076.618.609 1.695 1.664s2.846 2.633 5.927 3.55c3.081.916 7.473 1.172 10.466 1.769 2.993.596 4.587 1.532 5.311 1.808.725.278.581-.104-.226-1.809-.808-1.704-2.279-4.732-3.26-8.058-.981-3.326-1.471-6.951-3.507-10.937-2.036-3.988-5.618-8.337-9.669-12.857-4.051-4.519-8.571-9.21-11.374-12.28-2.804-3.07-3.892-4.519-4.467-5.309-.576-.789-.639-.917.533 1.684 1.172 2.602 3.582 7.932 6.62 13.677 3.038 5.746 6.705 11.908 9.605 16.631 2.899 4.721 5.032 8.006 6.226 9.764 1.193 1.759 1.449 1.993.458 2.217-.992.225-3.23.438-5.949-.937-2.718-1.375-5.916-4.339-9.679-9.456-3.763-5.117-8.091-12.387-10.522-17.685-2.43-5.299-2.964-8.625-3.379-12.206-.416-3.582-.715-7.42-.896-9.392-.181-1.972-.245-2.079-.351-1.578-.107.501-.256 1.61-.448 4.925" fill="#737373" fill-rule="evenodd"/>
		<path d="M116.9106 155.2441c.512 1.62 1.535 4.583 3.316 8.208 1.78 3.624 4.317 7.91 6.939 11.918 2.623 4.009 5.33 7.74 7.249 9.978 1.919 2.239 3.049 2.986 3.753 3.455.703.468.981.661-1.311-2.741-2.292-3.4-7.154-10.393-10.991-16.896-3.838-6.503-6.652-12.515-8.091-15.628-1.439-3.112-1.504-3.326-1.504-2.921 0 .405.065 1.429.097 2.078.031.652.031.928.543 2.549" fill="#737373" fill-rule="evenodd"/>
		<path d="M128.2749 214.7285c.341-.501.917-1.226 1.642-1.386.725-.16 1.599.245 2.313 1.866.714 1.62 1.269 4.456 1.562 6.961.293 2.505.325 4.68 1.263 6.252.938 1.573 2.783 2.542 4.397 2.825 1.615.283 3.002-.122 4.068-.693 1.066-.57 1.812-1.305 2.063-1.62.25-.314.004-.208-.768-.256-.773-.048-2.074-.251-3.022-.795-.95-.543-1.546-1.427-1.898-2.153-.352-.725-.458-1.289-.283-1.428.176-.139.635.15 1.594.08.96-.07 2.42-.496 3.513-1.296 1.093-.798 1.817-1.971 2.111-3.208.293-1.237.154-2.538-.203-3.545-.357-1.007-.933-1.721-1.338-2.324-.405-.602-.639-1.092-1.13-1.78-.49-.688-1.237-1.572-2.281-2.089-1.045-.517-2.389-.667-3.391-.598-1.001.07-1.663.358-2.131.609-.469.25-.747.463-1.082.436-.336-.026-.73-.293-1.375-.527-.645-.234-1.541-.437-2.404-.394-.864.042-1.696.331-2.271.895-.576.565-.895 1.407-1.103 2.324-.208.916-.304 1.907-.299 2.265.005.357.112.08.453-.421" fill="#2b2b2b" fill-rule="evenodd"/>
		<path d="M141.5044 219.6543c2.208 0 3.998-1.89 3.998-4.222 0-2.331-1.79-4.221-3.998-4.221s-3.998 1.89-3.998 4.221c0 2.332 1.79 4.222 3.998 4.222" fill="#f9f9f9" fill-rule="evenodd"/>
		<path d="M332.001 130.2988c-2.516 3.534-7.228 9.301-10.878 14.898-3.652 5.596-6.242 11.022-7.559 13.756-1.316 2.735-1.359 2.778-1.476 2.075-.118-.705-.309-2.154.292-4.809.601-2.654 1.996-6.515 5.375-11.774 3.38-5.261 8.744-11.923 11.378-16.395 2.635-4.472 2.539-6.753 1.542-8.738-.997-1.986-2.895-3.675-4.707-4.811-1.812-1.136-3.539-1.716-4.234-1.9-.693-.185-.354.027.465 1.371.821 1.343 2.12 3.815 2.344 5.798.225 1.983-.628 3.475-2.611 4.467-1.983.992-5.096 1.481-8.859 1.269-3.763-.214-8.176-1.131-11.78-2.378-3.603-1.247-6.396-2.825-7.376-3.4-.981-.576-.149-.15 2.921.49s8.378 1.492 11.854 1.737c3.475.246 5.117-.117 6.545-.564 1.429-.448 2.644-.982 2.836-1.247.192-.268-.64-.268-3.187-.641-2.548-.373-6.813-1.119-10.853-2.281-4.04-1.162-7.856-2.739-12.535-4.765-4.68-2.025-10.223-4.498-14.603-6.406-4.381-1.907-7.601-3.251-12.003-6.651-4.403-3.401-9.989-8.859-15.297-13.315-5.309-4.456-10.341-7.91-15.085-10.543-4.744-2.633-9.199-4.445-12.003-5.575-2.803-1.13-3.955-1.577-5.17-2.654-1.215-1.077-2.494-2.783-4.093-4.498-1.599-1.717-3.518-3.444-5.714-5.213-2.196-1.77-4.67-3.582-6.033-4.968-1.365-1.386-1.621-2.346-2.228-4.723-.608-2.377-1.568-6.173-2.75-8.581-1.183-2.409-2.589-3.431-3.474-4.561-.884-1.13-1.248-2.367-1.43-3.125-.182-.757-.182-1.034.117-.949.298.085.895.533 2.014.778 1.119.245 2.761.288 4.233.043 1.471-.245 2.771-.779 3.464-1.109.693-.331.778-.459.895.021.118.48.267 1.567.15 2.89-.117 1.321-.501 2.877.138 5.798.64 2.921 2.303 7.206 3.678 9.691 1.375 2.483 2.463 3.166 4.605 5.148 2.143 1.984 5.342 5.267 7.58 7.399 2.239 2.132 3.518 3.113 5.255 4.157 1.738 1.045 3.934 2.153 6.365 2.985 2.43.831 5.095 1.386 5.692 1.152.597-.236-.874-1.258-4.967-4.404-4.094-3.144-10.81-8.41-14.701-11.811s-4.957-4.936-5.415-6.63c-.459-1.695-.31-3.551-.502-5.245-.192-1.696-.725-3.231-1.161-4.493-.436-1.263-.776-2.253-.727-3.224.048-.97.485-1.918.72-2.382.235-.464.266-.442.58.069.314.511.91 1.513 1.677 2.163.766.65 1.704.948 2.739 1.055 1.035.108 2.166.023 2.711.03.545.006.503.105.572.547.07.443.25 1.229-.007 2.033-.257.802-.951 1.623-1.384 2.885-.432 1.263-.602 2.969-.56 4.205.042 1.237.298 2.004.693 2.644.394.64.928 1.151 4.04 3.827 3.113 2.676 8.806 7.516 12.366 9.957 3.561 2.442 4.989 2.484 6.801 2.271 1.812-.213 4.008-.683 6.204-2.036 2.196-1.354 4.393-3.593 5.747-6.439 1.354-2.847 1.865-6.301 2.057-8.39.192-2.089.064-2.814-.704-3.326-.767-.511-2.175-.81-3.528-1.546-1.354-.735-2.655-1.908-3.401-3.123-.746-1.215-.938-2.473-.458-2.836.479-.362 1.631.171 3.283-.032 1.652-.202 3.806-1.14 5.298-2.078 1.493-.938 2.324-1.877 3.241-1.834.917.043 1.919 1.065 2.238 2.537.32 1.471-.042 3.39-.362 4.669-.32 1.279-.597 1.919-.885 4.233-.287 2.313-.586 6.299-1.268 9.476-.682 3.177-1.748 5.544-3.56 7.815-1.813 2.27-4.371 4.445-5.927 5.746-1.557 1.299-2.111 1.726-2.399 2.589-.288.865-.309 2.166 2.068 5.332 2.378 3.166 7.154 8.197 12.025 12.045 4.872 3.848 9.84 6.513 14.956 8.656 5.118 2.142 10.384 3.763 14.989 5.778 4.605 2.015 8.549 4.424 13.059 5.928 4.509 1.503 9.583 2.099 13.443 2.238 3.859.139 6.503-.182 9.594 1.114 3.091 1.295 6.631 4.205 8.401 6.893 1.769 2.685 1.769 5.147 1.609 7.029-.16 1.882-.479 3.183-2.995 6.716" fill="#737373" fill-rule="evenodd"/>
		<path d="M202.9517 61.6328c1.226 1.002 3.443 2.762 4.653 3.822 1.21 1.061 1.413 1.423 1.311 1.54-.101.118-.506-.009-1.354-.138-.847-.128-2.137-.255-3.182-.788-1.044-.534-1.844-1.472-2.323-2.527-.48-1.055-.64-2.228-.603-2.692.037-.464.272-.218 1.498.783" fill="#ccc" fill-rule="evenodd"/>
		<path d="M307.4424 97.8955c.171-2.564.832-7.574.384-12.787-.447-5.213-2.004-10.628-2.591-14.37-.586-3.741-.202-5.81.342-8.55.544-2.739 1.247-6.151 1.375-9.381.128-3.229-.32-6.279-.81-8.422-.491-2.142-1.024-3.378-.528-4.918.495-1.541 2.02-3.385 4.322-6.301 2.303-2.915 5.383-6.902 7.297-10.131 1.913-3.231 2.66-5.703 4.023-7.228 1.366-1.524 3.348-2.1 4.404-2.26 1.054-.16 1.182.096.969.511-.213.416-.767.992-.98 1.973-.214.98-.086 2.367.373 3.55.458 1.183 1.247 2.164 1.898 2.708.65.543 1.162.65 1.214 1.054.054.406-.351 1.11-1.428 1.749-1.077.64-2.825 1.215-4.531 1.759-1.705.544-3.368 1.056-5.02 2.654-1.653 1.599-3.295 4.286-4.638 6.365-1.343 2.078-2.388 3.549-2.697 6.406-.309 2.857.117 7.099.618 10.597.501 3.496 1.077 6.247 1.013 9.018-.064 2.772-.768 5.565-1.024 7.696-.256 2.132-.063 3.604.267 4.755.331 1.151.8 1.983 1.141 1.993.341.011.554-.799 1.13-1.951.576-1.151 1.514-2.643 2.217-3.432.703-.788 1.173-.874 2.825.661 1.652 1.535 4.488 4.69 7.878 6.652 3.39 1.961 7.334 2.729 10.756 2.047 3.422-.683 6.322-2.814 7.942-4.499 1.621-1.685 1.962-2.921 2.015-4.008.053-1.088-.181-2.025-.118-3.465.065-1.439.427-3.379 1.003-4.743.575-1.365 1.364-2.154 2.238-2.623.874-.47 1.834-.618 2.069-.416.234.202-.256.757-.757 2.484-.501 1.727-1.013 4.626-.523 6.855.491 2.227 1.983 3.784 3.422 4.584 1.44.799 2.825.842 3.358 1.193.533.352.214 1.013-.907 1.856-1.119.842-3.037 1.865-4.945 2.312-1.908.449-3.807.321-6.013 1.802-2.207 1.482-4.722 4.573-6.737 5.874-2.015 1.301-3.528.811-5.809-.437-2.283-1.248-5.331-3.251-7.921-4.318-2.591-1.065-4.723-1.193-6.705-.256-1.984.939-3.817 2.943-4.745 6.205-.927 3.262-.948 7.782-1.375 10.415-.426 2.633-1.257 3.379-2.025 3.624-.768.246-1.471-.01-1.994-.437-.522-.426-.863-1.023-1.193-1.38-.331-.357-.65-.476-.479-3.039" fill="#737373" fill-rule="evenodd"/>
		<path d="M317.2134 53.4766c-.149-.901-.522-2.394-.432-4.237.091-1.845.645-4.041 1.396-5.283.752-1.242 1.701-1.53 3.097-2.116 1.397-.586 3.241-1.471 4.632-2.521 1.391-1.05 2.329-2.265 3.23-3.209.901-.943 1.764-1.614 2.441-1.946.678-.33 1.168-.319 1.296-.148.128.17-.108.501-.193 1.466-.085.964-.02 2.563.325 3.8.347 1.236.976 2.111 1.499 2.628.522.516.938.676.373 1.017-.565.342-2.112.863-4.116 1.195-2.004.33-4.465.468-6.507 1.604-2.041 1.135-3.662 3.268-4.765 4.979-1.104 1.709-1.69 3-1.946 3.491-.256.489-.181.18-.33-.72M118.0459 273.7427c-2.878 4.36-7.313 11.438-14.093 18.858s-15.906 15.18-27.824 23.836c-11.917 8.657-26.629 18.208-34.883 24.762-8.255 6.555-10.052 10.112-11.044 15.324-.991 5.213-1.177 12.082-3.624 19.898-2.449 7.816-7.161 16.578-9.645 21.045-2.484 4.466-2.74 4.637 1.823 1.14 4.562-3.496 13.943-10.66 20.638-17.397 6.694-6.737 10.703-13.049 12.91-16.673 2.207-3.624 2.612-4.563 2.889-5.085.277-.522.427-.629.576.629.149 1.258.298 3.88.074 6.108-.223 2.228-.82 4.062-.618 4.883.202.82 1.205.629 6.876 3.741 5.671 3.113 16.011 9.531 24.828 16.407 8.816 6.876 16.107 14.21 20.521 18.804 4.413 4.595 5.948 6.45 6.811 7.463.864 1.012 1.056 1.183-.159-1.813-1.216-2.995-3.838-9.157-8.848-17.334-5.011-8.176-12.409-18.367-16.3-24.763-3.891-6.396-4.275-8.998-3.251-11.791 1.023-2.792 3.454-5.777 5.117-7.59 1.663-1.812 2.558-2.451 2.91-2.505.351-.053.16.48-.149 1.546-.31 1.066-.736 2.665-.907 4.051-.17 1.386-.085 2.559.118 2.793.202.234.522-.469 3.454-2.921 2.931-2.452 8.474-6.652 18.442-13.421 9.967-6.769 24.358-16.108 31.757-20.884 7.398-4.776 7.804-4.988 4.808-1.993-2.996 2.995-9.392 9.2-13.795 14.487-4.402 5.288-6.811 9.658-8.197 12.409-1.386 2.75-1.749 3.88-.768 2.889.981-.991 3.305-4.105 10.277-11.172 6.971-7.068 18.591-18.09 28.175-26.854 9.583-8.762 17.13-15.265 21.097-18.655 3.965-3.389 4.349-3.667 4.839-5.778.49-2.111 1.087-6.055 1.652-8.923.565-2.867 1.098-4.658 1.386-5.606.288-.95.331-1.056-3.134 3.005-3.465 4.062-10.436 12.292-16.64 18.421-6.205 6.13-11.641 10.159-15.618 12.75-3.976 2.591-6.492 3.742-8.432 5.042-1.94 1.301-3.304 2.751-8.613 6.535-5.31 3.785-14.563 9.904-20.426 13.549-5.863 3.646-8.336 4.819-10.351 5.469-2.014.65-3.571.778-4.381.896-.81.117-.874.224-4.808 2.76-3.933 2.537-11.737 7.505-19.029 10.565-7.291 3.059-14.071 4.211-18.538 4.339-4.466.128-6.62-.768-6.46-2.516.16-1.749 2.633-4.35 8.678-10.607 6.044-6.258 15.659-16.172 27.567-27.834 11.907-11.663 26.107-25.073 34.24-32.45 8.134-7.377 10.202-8.72 11.364-9.477 1.162-.757 1.417-.927.395 1.279-1.024 2.207-3.327 6.791-12.665 17.344-9.338 10.554-25.712 27.078-36.212 37.514-10.501 10.436-15.128 14.786-17.537 17.056-2.409 2.271-2.601 2.463 1.833.32 4.435-2.143 13.497-6.62 19.668-10.021 6.173-3.4 9.456-5.724 11.375-7.238 1.919-1.513 2.474-2.217 7.111-8.656s13.357-18.613 21.139-27.973c7.782-9.359 14.626-15.904 18.122-19.262 3.497-3.358 3.646-3.529 2.836-1.344-.81 2.185-2.58 6.727-8.667 16.097-6.086 9.371-16.491 23.57-21.885 30.915-5.394 7.345-5.778 7.836-1.151 4.467 4.626-3.369 14.263-10.597 19.114-14.285 4.85-3.688 4.914-3.838 5.489-5.98.576-2.143 1.663-6.28 3.646-11.375 1.983-5.095 4.861-11.15 8.081-15.991 3.219-4.839 6.78-8.464 8.624-10.318 1.844-1.856 1.972-1.941.309 1.748-1.663 3.688-5.117 11.15-7.537 17.046-2.42 5.895-3.806 10.223-4.264 12.078-.458 1.855.01 1.237 4.382-2.719 4.37-3.955 12.643-11.246 19.156-17.259 6.513-6.012 11.268-10.745 13.645-13.111 2.377-2.367 2.377-2.367 3.113-4.158.735-1.79 2.206-5.372 3.848-8.368 1.641-2.996 3.454-5.405 4.435-6.663.98-1.257 1.13-1.364.064 2.164-1.067 3.529-3.348 10.693-4.883 17.953-1.535 7.259-2.324 14.615-2.697 18.591-.373 3.976-.33 4.573 3.689-2.356 4.018-6.929 12.014-21.384 17.344-30.371 5.33-8.986 7.995-12.504 12.537-17.835 4.541-5.33 10.959-12.473 14.465-16.225 3.508-3.753 4.104-4.115 4.328-4.115.224 0 .075.362-1.833 5.117-1.908 4.754-5.576 13.901-8.145 21.256-2.569 7.356-4.04 12.921-4.797 15.862-.757 2.943-.799 3.263 3.316-3.847 4.114-7.111 12.387-21.652 20.713-32.866 8.325-11.214 16.704-19.102 20.755-22.961 4.051-3.859 3.774-3.689 2.196 2.196-1.578 5.885-4.456 17.483-6.044 28.313-1.589 10.831-1.888 20.895-1.61 27.333.277 6.44 1.13 9.253 1.748 10.192.618.938 1.002 0 3.88-7.035 2.879-7.037 8.251-20.17 12.793-32.11 4.541-11.939 8.251-22.684 10.724-28.697 2.473-6.013 3.709-7.291 4.285-7.675.576-.384.491.128-.597 5.415-1.088 5.288-3.176 15.351-4.072 23.794-.896 8.443-.597 15.265-.277 19.252.319 3.987.661 5.138 1.13 5.138.469 0 1.066-1.151 3.71-3.794 2.644-2.645 7.334-6.78 12.686-12.089 5.351-5.309 11.363-11.79 15.787-15.799 4.423-4.008 7.258-5.543 8.815-6.332 1.556-.788 1.833-.831.17 1.002-1.662 1.834-5.266 5.544-7.515 8.657-2.25 3.113-3.145 5.628-3.464 6.619-.321.992-.065.459 3.699-2.995 3.762-3.454 11.033-9.829 17.834-13.602 6.801-3.774 13.133-4.947 19.316-4.765 6.184.181 12.218 1.716 15.916 2.963 3.699 1.247 5.064 2.207 5.074 2.687.011.479-1.332.479-7.004 1.94-5.67 1.46-15.669 4.381-23.974 7.686-8.304 3.304-14.913 6.993-19.359 10.34-4.446 3.348-6.727 6.354-7.675 7.772-.95 1.418-.566 1.247 4.914-1.482 5.478-2.729 16.053-8.016 24.187-11.342 8.134-3.327 13.826-4.691 16.79-5.437 2.964-.747 3.198-.875 1.034 1.364-2.164 2.239-6.727 6.844-11.769 11.385-5.042 4.541-10.565 9.019-15.585 12.26-5.021 3.241-9.541 5.244-12.28 6.321-2.741 1.077-3.7 1.227-2.463 1.482 1.236.255 4.669.618 11.022-1.545 6.354-2.165 15.628-6.856 23.517-13.038 7.889-6.183 14.391-13.859 19.849-19.242 5.458-5.383 9.872-8.475 12.92-10.308 3.05-1.834 4.735-2.41 5.065-2.793.331-.384-.693-.576-6.534-2.335-5.842-1.759-16.502-5.085-27.035-7.739-10.532-2.655-20.937-4.637-30.478-5.661-9.541-1.023-18.218-1.087-25.36-.992-7.143.097-12.75.353-15.191.289-2.442-.064-1.717-.448 1.098-2.015 2.814-1.567 7.718-4.318 16.693-5.799 8.976-1.483 22.025-1.695 32.364-.342 10.341 1.355 17.974 4.275 21.706 5.736 3.73 1.46 3.56 1.46 3.069.426-.49-1.034-1.3-3.102-3.177-4.903-1.876-1.802-4.818-3.337-6.257-4.148-1.439-.81-1.376-.895 3.293-2.632 4.67-1.738 13.945-5.128 22.185-6.866 8.24-1.737 15.446-1.822 19.05-1.588 3.603.235 3.603.79 1.322-.895-2.28-1.685-6.844-5.607-13.495-8.336-6.653-2.729-15.394-4.265-26.097-4.307-10.702-.043-23.367 1.407-32.897 3.412-9.531 2.003-15.926 4.562-18.506 5.82s-1.344 1.215 2.281 1.258c3.624.043 9.637.17 14.988 1.236 5.352 1.066 10.042 3.07 12.729 4.286 2.686 1.215 3.368 1.642-1.515 1.663-4.882.021-15.329-.363-27.268.853-11.94 1.215-25.371 4.029-36.951 6.954-11.58 2.925-21.307 5.96-27.34 8.283-6.035 2.324-8.374 3.937-12.273 7.76-3.899 3.823-9.357 9.857-17.587 17.159-8.229 7.303-19.231 15.874-29.016 22.1-9.787 6.224-18.357 10.105-26.374 12.962-8.017 2.857-15.478 4.69-24.199 7.697-8.72 3.006-18.697 7.184-25.179 10.233-6.481 3.049-9.466 4.968-11.619 6.747-2.154 1.781-3.476 3.422-6.354 7.781" fill="#737373" fill-rule="evenodd"/>
		<path d="M158.6348 182.6582c2.479.847 7.148 2.36 10.917 3.288 3.768.928 6.635 1.269 8.394 1.482 1.759.213 2.409.298.853.522-1.556.224-5.32.587-8.752.214-3.433-.374-6.535-1.483-8.891-2.724-2.356-1.242-3.965-2.617-4.626-3.215-.662-.596-.374-.415 2.105.433" fill="#f9f9f9" fill-rule="evenodd"/>
		<path d="M159.4756 406.3467c7.729 5.533 22.227 15.809 29.764 21.043 7.536 5.235 8.112 5.427 4.365-.677-3.747-6.102-11.817-18.501-21.315-29.759-9.499-11.256-20.425-21.373-27.658-27.508-7.233-6.134-10.773-8.287-13.597-9.322-2.826-1.034-4.936-.948-6.039-.948-1.104 0-1.2-.086 2.041 2.152 3.241 2.239 9.818 6.802 17.339 13.198 7.52 6.396 15.985 14.627 22.85 22.323 6.865 7.697 12.131 14.86 14.903 18.729 2.772 3.871 3.049 4.447.512 2.837-2.538-1.61-7.889-5.405-13.827-8.966-5.938-3.56-12.461-6.887-15.244-8.155-2.782-1.268-1.823-.48 5.906 5.053M158.3042 489.896c1.11-3.449 3.562-10.101 1.643-22.798-1.919-12.697-8.208-31.437-15.105-46.542-6.897-15.106-14.403-26.577-19.861-34.7-5.458-8.123-8.87-12.898-10.66-15.393-1.792-2.494-1.962-2.707.991-.65 2.953 2.058 9.03 6.386 15.636 14.34 6.605 7.955 13.739 19.535 19.826 32.21 6.086 12.676 11.126 26.445 13.752 37.039 2.627 10.594 2.84 18.014 1.293 24.224-1.547 6.21-4.853 11.211-6.623 13.588-1.769 2.378-2.002 2.131-.892-1.318M128.4165 482.5225c1.641 4.073 4.541 10.81 7.696 16.161 3.156 5.352 6.567 9.318 8.337 11.343 1.769 2.025 1.897 2.11 2.366-1.429.469-3.539 1.279-10.703.576-19.934-.704-9.232-2.921-20.532-5.671-32.109-2.751-11.577-6.034-23.431-11.662-36.65-5.629-13.218-13.603-27.802-19.637-37.247-6.033-9.445-10.127-13.751-12.365-16.16-2.239-2.41-2.623-2.922.81 2.643 3.432 5.565 10.681 17.206 17.099 30.062 6.417 12.856 12.003 26.928 16.118 41.682 4.115 14.753 6.759 30.189 8.102 39.698s1.385 13.09 1.033 14.882c-.351 1.791-1.097 1.791-3.698-1.812-2.602-3.604-7.058-10.81-9.094-13.71-2.036-2.899-1.652-1.492-.01 2.58M47.2495 394.5972c5.096 3.667 14.903 10.916 23.729 20.788 8.827 9.871 16.673 22.365 22.686 33.452 6.012 11.086 10.19 20.765 12.92 28.463 2.729 7.696 4.008 13.41 4.818 16.693.81 3.284 1.151 4.137 2.367 1.066 1.215-3.07 3.305-10.063 3.497-19.444.191-9.381-1.515-21.15-4.265-30.83-2.75-9.679-6.545-17.269-9.168-22.066-2.622-4.797-4.072-6.801-4.989-8.038-.917-1.236-1.3-1.706.022 1.727s4.349 10.767 6.993 18.591c2.643 7.825 4.904 16.14 5.82 23.069.917 6.929.491 12.473.278 15.244-.213 2.772-.213 2.772-2.644-3.304-2.431-6.077-7.292-18.229-13.005-29.124-5.714-10.895-12.281-20.532-19.765-28.612-7.483-8.081-15.883-14.605-21.896-17.931-6.012-3.326-9.636-3.454-11.257-3.475-1.62-.021-1.237.064 3.859 3.731M186.7935 404.1704c4.136 3.39 10.532 7.654 14.604 9.914 4.073 2.26 5.821 2.516 6.791 2.43.97-.085 1.163-.511-1.737-6.257-2.9-5.746-8.891-16.811-16.811-27.237-7.921-10.426-17.771-20.211-24.487-26.362-6.716-6.151-10.298-8.667-11.94-9.925-1.642-1.258-1.343-1.258 2.665-1.173 4.008.086 11.727.256 23.389 3.881 11.662 3.624 27.269 10.703 36.543 15.393 9.275 4.69 12.217 6.993 13.837 8.315 1.62 1.322 1.919 1.663-2.409 1.215-4.328-.448-13.283-1.684-19.977-2.26-6.695-.576-11.13-.49-12.175-.149-1.044.341 1.301.938 8.87 2.601 7.568 1.663 20.361 4.392 29.337 6.546 8.976 2.152 14.135 3.73 16.907 4.455 2.771.725 3.155.597-.64-3.049-3.795-3.645-11.769-10.809-23.282-17.802s-26.565-13.815-38.419-18.208c-11.855-4.392-20.511-6.353-24.966-7.334-4.456-.981-4.712-.981-1.13-2.025 3.581-1.045 11.001-3.135 24.071-2.623 13.069.512 31.788 3.625 44.431 6.503 12.643 2.878 19.21 5.522 23.005 7.1 3.795 1.577 4.818 2.089 1.279 2.772-3.539.682-11.641 1.534-16.459 2.494-4.819.959-6.354 2.025-5.863 2.26.49.234 3.006-.363 10.191-.959 7.185-.598 19.039-1.195 26.714-1.429 7.676-.234 11.172-.107 10.852-1.087-.319-.981-4.456-3.07-13.922-6.29-9.466-3.219-24.262-7.569-38.462-10.917-14.199-3.346-27.802-5.691-38.782-6.331-10.98-.64-19.337.426-23.858 1.257-4.519.832-5.202 1.429-7.888 4.243-2.686 2.815-7.377 7.846-10.077 10.703-2.701 2.857-3.411 3.54-3.497 3.966-.085.427.455.597 4.499 2.899 4.044 2.303 11.591 6.738 19.032 13.432 7.44 6.695 14.775 15.649 19.956 22.6 5.181 6.95 8.208 11.897 9.85 14.753 1.641 2.857 1.897 3.625 1.002 3.455-.896-.171-2.942-1.28-5.991-2.9-3.049-1.62-7.1-3.752-9.424-5.053-2.324-1.3-2.921-1.77-2.281-.746.639 1.023 2.515 3.539 6.652 6.929M197.7222 298.5591c-.906 4.531-1.866 11.333-2.089 15.842-.224 4.509.287 6.726 1.183 7.217.895.49 2.175-.747 6.577-8.443 4.403-7.697 11.929-21.854 16.62-32.013 4.69-10.16 6.545-16.321 7.525-19.466.981-3.144 1.088-3.272-1.108 1.312-2.196 4.583-6.694 13.879-11.268 22.311-4.573 8.433-9.221 16.002-11.662 20.01-2.442 4.008-2.676 4.456-2.804 2.761-.128-1.695-.149-5.533-.182-8.838-.031-3.304-.074-6.076-.105-7.611-.033-1.535-.054-1.833-.491-.853-.437.981-1.29 3.241-2.196 7.771M256.4927 332.8955c3.901-1.599 10.682-4.328 20.126-7.313 9.445-2.984 21.556-6.226 27.952-7.867 6.396-1.642 7.078-1.684 2.387-2.815-4.691-1.13-14.754-3.347-24.326-5.138-9.573-1.79-18.656-3.155-28.058-3.688-9.402-.533-19.124-.235-24.603.107-5.48.341-6.717.725-7.058.404-.341-.319.213-1.342 2.665-7.291 2.452-5.948 6.801-16.821 8.976-22.088 2.175-5.266 2.175-4.925 2.985-1.407s2.43 10.213 4.776 12.451c2.345 2.239 5.415.021 10.042-10.084 4.626-10.106 10.809-28.101 16.566-43.877 5.756-15.778 11.086-29.337 13.815-36.246 2.729-6.908 2.857-7.164-1.343 1.493-4.2 8.656-12.728 26.224-19.423 38.782-6.694 12.557-11.555 20.105-15.479 24.028-3.922 3.923-6.907 4.221-8.741 4.072-1.834-.149-2.515-.747-3.006-1.3-.49-.555-.789-1.067-4.051 6.247-3.262 7.313-9.488 22.45-12.877 31.021-3.39 8.571-3.945 10.574-4.03 11.406-.086.832.298.491 6.695-.192 6.396-.682 18.804-1.705 30.936-1.407 12.131.298 23.985 1.919 30.125 2.771 6.141.853 6.567.939 1.045 3.348s-16.992 7.142-23.325 10.383c-6.332 3.241-7.525 4.989-7.611 5.629-.085.639.938.17 4.84-1.429" fill="#737373" fill-rule="evenodd"/>
		<path d="M338.9521 289.1748c-.863-.437-3.379-.949-6.981-1.759-3.604-.81-8.294-1.919-16.844-2.846-8.55-.928-20.958-1.674-30.393-1.525-9.434.15-15.894 1.194-19.209 1.791-3.316.597-3.486.746-3.359.043.129-.704.555-2.26 1.941-6.876 1.386-4.616 3.731-12.291 5.074-18.677 1.343-6.385 1.684-11.481 1.802-13.954.117-2.473.011-2.324-.384-.885-.395 1.44-1.077 4.169-2.911 9.404-1.834 5.234-4.819 12.974-7.526 19.679-2.708 6.706-5.138 12.377-6.45 15.351-1.311 2.974-1.503 3.251-1.46 3.347.043.096.32.011 6.364-.725 6.044-.735 17.856-2.121 29.071-2.569 11.214-.447 21.832.043 27.343.33 5.511.288 5.917.373 2.889 1.312-3.028.938-9.488 2.728-14.967 4.892-5.479 2.165-9.978 4.702-12.227 5.971-2.25 1.268-2.25 1.268-2.139 1.205.111-.062.332-.187 6.622 1.263 6.289 1.449 18.647 4.474 30.027 7.926 11.381 3.452 21.786 7.333 27.83 10.008 6.044 2.676 7.729 4.148 8.955 5 1.226.853 1.994 1.087.437.619-1.556-.47-5.437-1.642-9.902-2.591-4.467-.949-9.52-1.674-13.976-2.047-4.457-.373-8.315-.395-10.49-.469-2.175-.074-2.666-.202 1.683 2.995 4.35 3.199 13.539 9.723 18.656 13.582 5.117 3.859 6.162 5.053 8.475 7.366 2.314 2.313 5.897 5.745 8.434 9.199 2.537 3.454 4.029 6.929 4.818 9.274.789 2.345.874 3.561.8 3.838-.074.277-.31-.384-4.786-4.765-4.478-4.381-13.197-12.483-21.694-18.549-8.497-6.066-16.769-10.095-23.112-12.728-6.343-2.633-10.756-3.87-14.231-4.35-3.475-.479-6.012-.203-6.417.203-.406.405 1.321.938 8.08 5.821 6.759 4.882 18.549 14.114 27.642 22.109 9.093 7.995 15.49 14.753 23.623 23.857 8.133 9.104 18.004 20.553 24.369 27.535 6.364 6.983 9.221 9.499 15.297 11.993 6.077 2.495 15.372 4.968 26.566 9.701 11.192 4.733 24.284 11.726 32.534 16.609 8.251 4.882 11.663 7.654 13.539 9.21 1.876 1.557 2.218 1.898.426-.938-1.79-2.836-5.714-8.848-13.816-15.5-8.101-6.652-20.381-13.943-30.168-18.997-9.786-5.053-17.078-7.867-21.747-10.575-4.669-2.707-6.715-5.308-11.321-10.681-4.605-5.373-11.768-13.517-15.734-17.963-3.966-4.445-4.734-5.191-1.748-3.347 2.984 1.844 9.721 6.279 16.331 11.353 6.609 5.075 13.091 10.788 18.1 13.826 5.011 3.038 8.551 3.401 14.616 3.667 6.066.267 14.658.438 21.449.118 6.79-.32 11.779-1.13 14.582-1.631 2.804-.501 3.423-.693 3.497-.874.074-.181-.395-.352-6.651-2.793-6.258-2.442-18.304-7.153-28.389-11.215s-18.208-7.473-22.356-9.211c-4.146-1.737-4.317-1.801-2.292-.298 2.026 1.503 6.247 4.573 11.684 7.622 5.437 3.048 12.089 6.076 17.718 8.486 5.629 2.409 10.234 4.2 12.557 5.159 2.325.96 2.367 1.088-1.108.447-3.476-.639-10.469-2.046-16.172-3.72-5.703-1.674-10.116-3.614-17.195-6.993-7.078-3.379-16.822-8.197-23.163-12.461-6.343-4.265-9.285-7.974-10.906-9.946-1.621-1.972-1.919-2.207.576-1.93 2.494.277 7.782 1.067 13.069 1.567 5.288.502 10.575.714 13.752.79 3.176.074 4.242.01 4.391-.277.149-.288-.619-.8-5.203-3.411-4.584-2.612-12.984-7.324-22.354-12.579-9.37-5.256-19.711-11.055-27.174-15.234-7.462-4.179-12.046-6.737-14.093-7.995-2.046-1.258-1.555-1.215 1.931-.65 3.485.565 9.967 1.652 15.894 2.889 5.927 1.236 11.299 2.622 13.901 3.293 2.6.672 2.431.629 1.694-.448-.735-1.076-2.035-3.187-4.764-6.108-2.729-2.92-6.886-6.652-14.796-10.788-7.91-4.136-19.573-8.678-28.485-11.46-8.911-2.782-15.073-3.806-18.036-4.328-2.964-.523-2.73-.544-.577-1.631 2.154-1.087 6.226-3.241 11.204-5.117 4.979-1.876 10.863-3.475 14.2-4.456 3.337-.981 4.126-1.343 3.263-1.78" fill="#f9f9f9" fill-rule="evenodd"/>
		<path d="M419.3955 376.9111c1.882.411 5.293 1.178 10.139 1.647 4.844.469 11.124.64 16.021.469 4.9-.171 8.417-.682 10.768-1.055 2.35-.374 3.533-.608 3.597-.981.064-.373-.991-.885-3.907-1.956-2.915-1.071-7.691-2.703-13.351-4.179-5.662-1.476-12.206-2.799-15.836-3.587-3.63-.789-4.344-1.045-4.611-.992-.266.054-.086.417.155.97.24.555.538 1.301.804 1.674.267.373.501.373 2.986.864 2.483.49 7.216 1.471 11.464 2.515 4.249 1.046 8.011 2.154 10.058 2.73 2.047.575 2.378.618.64.506-1.738-.112-5.543-.378-10.074-1.056-4.531-.676-9.786-1.764-12.414-2.307-2.627-.544-2.627-.544-3.038-.011-.411.533-1.231 1.599-2.297 2.393-1.066.794-2.377 1.316-2.857 1.605-.48.288-.129.341 1.753.751M383.5937 343.8262c3.635 1.908 10.415 5.213 15.34 7.675 4.925 2.463 7.995 4.083 9.732 4.936 1.738.853 2.143.938 6.663 1.183 4.52.246 13.155.651 19.838.544 6.685-.107 11.418-.725 13.859-1.034 2.441-.309 2.59-.309.01-1.631-2.579-1.322-7.887-3.965-15.286-6.524-7.398-2.559-16.885-5.032-25.702-7.079-8.815-2.046-16.96-3.667-21.128-4.487-4.169-.821-4.36-.843-.459.383 3.902 1.226 11.897 3.7 20.319 6.183 8.421 2.484 17.269 4.979 22.706 6.748 5.436 1.77 7.462 2.814 8.688 3.443 1.226.629 1.652.843-3.934-.543-5.585-1.386-17.184-4.371-27.397-6.759-10.212-2.388-19.038-4.179-23.207-4.818-4.168-.64-3.677-.128-.042 1.78M382.1436 325.501c1.364 1.066 3.177 2.665 4.583 4.158 1.408 1.492 2.409 2.878 2.985 3.581.576.704.725.725 4.552.651 3.827-.075 11.332-.245 19.071-1.205 7.74-.959 15.713-2.707 19.829-3.678 4.114-.97 4.371-1.162 2.067-2.068-2.302-.906-7.163-2.526-15.564-4.051-8.4-1.524-20.339-2.952-28.985-3.826-8.645-.875-13.997-1.195-16.779-1.354-2.782-.16-2.995-.16.373.362 3.369.522 10.319 1.567 17.803 2.782s15.501 2.601 20.937 3.657c5.437 1.055 8.293 1.78 9.936 2.196 1.64.415 2.067.522-2.016.031-4.083-.49-12.675-1.577-20.308-2.238-7.632-.661-14.305-.895-17.759-1.013-3.454-.117-3.689-.117-3.348.149.341.267 1.259.8 2.623 1.866M334.0967 300.8066c6.727-.176 19.263-.464 30.232-.229 10.97.234 20.372.991 27.131 1.732s10.873 1.466 13.165 1.839 2.761.394-.404 1.183c-3.166.789-9.968 2.345-17.228 3.422-7.259 1.077-14.977 1.674-20.296 2.014-5.32.342-8.241.427-9.754.395-1.514-.032-1.621-.181-3.599-1.231-1.977-1.05-5.826-3.001-7.755-3.971-1.929-.969-1.94-.959 2.041-1.055 3.982-.096 11.956-.298 18.896-.421 6.939-.123 12.845-.165 15.67-.23 2.825-.063 2.569-.149-.571-.431-3.138-.283-9.162-.762-18.991-1.247-9.828-.486-23.463-.976-29.821-1.253-6.36-.277-5.443-.341 1.284-.517M331.4736 297.8481c4.264-1.077 11.939-3.209 15.937-5.202 3.998-1.994 4.317-3.848 4.509-4.776.192-.927.255-.927 4.36-.98 4.104-.054 12.249-.161 17.91-.097 5.66.064 8.837.299 10.553.437 1.716.139 1.972.181-4.008 1.909-5.981 1.727-18.198 5.138-28.442 7.057-10.245 1.919-18.517 2.345-22.226 2.548-3.71.202-2.858.181 1.407-.896" fill="#737373" fill-rule="evenodd"/>
		<path d="M393.4951 285.1621c2.302-1.162 6.332-3.145 8.581-4.403 2.249-1.258 2.719-1.791-2.015-2.239-4.733-.447-14.669-.81-25.233-.991-10.563-.181-21.757-.181-30.946-.042-9.19.138-16.374.415-20.286.554-3.913.139-4.553.139-.874-.469 3.677-.608 11.672-1.823 20.445-2.591 8.774-.767 18.325-1.087 29.252-1.044 10.927.042 23.228.448 30.808.831 7.58.384 10.437.747 11.716 1.098 1.28.352.981.693-.981 1.855-1.961 1.162-5.586 3.145-9.85 4.829-4.263 1.684-9.168 3.07-11.332 3.592-2.164.523-1.588.182.715-.98" fill="#f9f9f9" fill-rule="evenodd"/>
		<path d="M320.5195 273.3818c3.534-.928 10.111-2.559 15.569-4.125 5.458-1.568 9.797-3.071 12.073-3.902 2.276-.832 2.489-.992-2.371-1.008-4.862-.016-14.797.112-22.415.262-7.616.149-12.914.32-15.738.41-2.826.091-3.178.101-.624-.378 2.553-.481 8.01-1.45 15.537-2.127 7.526-.677 17.12-1.061 23.702-1.045 6.583.016 10.155.432 12.02.64 1.865.208 2.025.208.576 1.012-1.45.805-4.51 2.415-9.243 4.104-4.732 1.69-11.14 3.46-17.019 4.729-5.879 1.268-11.23 2.035-13.661 2.307-2.43.272-1.94.048 1.594-.879" fill="#737373" fill-rule="evenodd"/>
		<path d="M418.7471 288.3057c4.936-.437 12.291-.949 19.699-.927 7.409.021 14.872.575 18.848.874 3.976.299 4.467.341 2.558 1.652-1.908 1.311-6.214 3.891-11.385 6.375-5.17 2.484-11.203 4.872-15.98 6.503-4.775 1.631-8.293 2.505-9.828 2.868-1.535.362-1.088.213 3.337-2.111 4.423-2.324 12.824-6.823 17.109-9.136 4.286-2.313 4.456-2.441.224-2.783-4.232-.34-12.866-.895-19.241-1.279-6.375-.384-10.49-.597-12.665-.714-2.175-.117-2.409-.138-1.269-.331 1.141-.192 3.656-.554 8.593-.991M454.9902 328.0576c3.593-.64 10.479-2.154 15.852-3.455 5.374-1.3 9.232-2.387 11.866-3.336 2.633-.948 4.039-1.759 4.849-2.324.811-.565 1.024-.885-1.364-1.641-2.388-.757-7.377-1.951-14.849-2.953-7.473-1.002-17.43-1.812-25.575-2.452-8.144-.64-14.476-1.109-18.367-1.333-3.891-.224-5.341-.202-5.917-.192-.575.011-.276.011 4.499.715 4.776.703 14.029 2.11 23.378 3.379 9.349 1.268 18.794 2.399 23.868 3.071 5.074.671 5.778.884 5.981 1.161.202.277-.096.618-3.411 1.801-3.316 1.184-9.649 3.209-14.318 4.638-4.669 1.428-7.676 2.26-9.029 2.793-1.354.533-1.056.767 2.537.128M473.4736 354.8037c3.444-.778 9.029-1.844 13.858-2.942 4.83-1.098 8.902-2.228 11.183-2.868 2.281-.64 2.772-.789-1.173-1.94-3.944-1.151-12.322-3.305-20.392-5.181s-15.83-3.475-21.054-4.499c-5.224-1.023-7.91-1.471-9.595-1.791-1.683-.319-2.366-.511.757-.351 3.124.16 10.053.671 17.686 1.705 7.632 1.034 15.969 2.591 24.251 4.456 8.284 1.866 16.513 4.04 21.001 5.245 4.489 1.205 5.235 1.439 1.973 2.527-3.263 1.087-10.533 3.027-18.304 4.434-7.771 1.408-16.044 2.282-20.5 2.687-4.456.405-5.095.341-4.765.064.331-.277 1.632-.768 5.074-1.546M475.4453 379.7378c5.224-1.407 13.858-3.88 18.25-5.202 4.393-1.322 4.542-1.493.353-2.708-4.19-1.215-12.718-3.475-19.073-5.117-6.353-1.641-10.531-2.665-12.759-3.209-2.228-.543-2.505-.607 1.748-.202 4.253.405 13.038 1.279 22.024 2.75s18.176 3.54 23.847 4.883c5.672 1.343 7.825 1.961 9.221 2.388 1.397.426 2.035.661-1.098 1.588-3.134.927-10.042 2.548-17.834 3.827-7.793 1.279-16.47 2.217-22.206 2.676-5.735.458-8.529.437-9.019.255-.49-.181 1.322-.522 6.546-1.929M509.7168 388.5747c7.26 1.93 19.711 5.426 29.018 8.561 9.306 3.134 15.467 5.905 18.74 7.366 3.273 1.46 3.656 1.61.928-.203-2.73-1.812-8.572-5.586-16.481-8.87-7.91-3.282-17.889-6.075-25.329-7.557-7.44-1.482-12.345-1.652-14.967-1.759-2.623-.107-2.964-.149-2.1.01.864.16 2.931.523 10.191 2.452M549.6289 417.2187c6.577 1.727 17.962 4.69 25.766 6.822 7.802 2.132 12.024 3.433 14.348 4.19 2.324.757 2.75.97 1.354-.149-1.397-1.119-4.616-3.571-10.053-5.874-5.436-2.302-13.091-4.456-19.018-5.757-5.926-1.3-10.126-1.748-13.463-1.94-3.337-.191-5.811-.127-7.175-.085-1.364.043-1.62.064-.863.32.756.256 2.526.746 9.104 2.473M497.7773 409.5327c5.384.373 14.7 1.269 19.625 1.684 4.926.416 5.459.352.854-1.769-4.606-2.122-14.35-6.301-26.524-10.319-12.173-4.019-26.777-7.878-34.314-9.989-7.537-2.111-8.006-2.473-4.626-2.025 3.379.447 10.606 1.705 19.241 3.762s18.677 4.915 27.802 7.953c9.125 3.038 17.333 6.258 23.302 8.88 5.97 2.623 9.702 4.648 11.535 5.863 1.834 1.215 1.77 1.621.832 1.94-.939.32-2.75.555-10.277-.426-7.526-.981-20.765-3.177-27.674-4.318-6.908-1.14-7.483-1.225-7.047-1.343.438-.117 1.887-.266 7.271.107M528.3965 437.5083c6.048.163 14.284.872 21.618 1.672 7.334.8 13.767 1.689 16.791 2.176 3.024.488 2.641.573-.771-.813-3.411-1.386-9.85-4.243-16.493-6.584-6.644-2.341-13.492-4.166-26.305-7.62-12.814-3.454-31.593-8.537-41.143-11.11-9.549-2.573-9.869-2.637-3.217-1.529 6.652 1.109 20.276 3.391 33.974 6.141 13.698 2.75 27.472 5.969 40.37 9.668 12.9 3.7 24.924 7.878 34.251 12.111 9.328 4.232 15.959 8.517 19.413 10.756 3.454 2.239 3.732 2.431-2.335 1.098-6.065-1.332-18.473-4.19-34.251-6.94-15.777-2.75-34.923-5.394-44.762-6.779-9.839-1.386-10.372-1.514-8.709-1.77 1.663-.256 5.521-.64 11.569-.477" fill="#f9f9f9" fill-rule="evenodd"/>
		<path d="M442.8867 196.8828c11.172-.33 25.628-2.548 50.241-3.507 24.615-.959 59.389-.66 83.204 1.695 23.815 2.356 36.671 6.769 43.59 9.168 6.918 2.398 7.899 2.782 4.893-.523-3.006-3.305-9.999-10.298-24.412-16.843-14.412-6.546-36.245-12.642-54.708-15.179-18.464-2.538-33.559-1.515-43.068-.555-9.509.959-13.431 1.854-14.348 2.302-.917.448 1.172.448 8.741.619 7.569.171 20.617.511 31.085 1.194 10.469.682 18.357 1.705 27.311 3.965 8.955 2.26 18.976 5.757 24.349 7.654 5.372 1.898 6.098 2.197-4.072 1.748-10.17-.447-31.235-1.641-50.446-1.773-19.211-.132-36.568.798-52.815 2.077-16.246 1.279-31.381 2.908-41.464 3.552-10.084.642-15.115.302-16.778.409-1.663.106.043.66 4.84 1.716 4.796 1.055 12.685 2.612 23.857 2.281" fill="#737373" fill-rule="evenodd"/>
		<path d="M408.0059 174.5723c9.444.362 25.542.959 38.613 3.299 13.072 2.341 23.117 6.424 28.608 8.79 5.489 2.367 6.424 3.016 5.718 3.534-.706.517-3.05.9-2.528.985.523.085 3.912-.128 7.28-.629 3.37-.5 6.717-1.29 8.347-1.94 1.632-.65 1.547-1.162-2.494-3.06-4.04-1.897-12.035-5.18-23.196-7.941-11.161-2.761-25.489-5-38.271-5.532-12.781-.533-24.017.639-29.944 1.236-5.928.597-6.546.618-5.458.693 1.087.075 3.88.202 13.325.565" fill="#f9f9f9" fill-rule="evenodd"/>
		<path d="M431.6709 157.5381c-1.663-2.772-4.733-7.506-9.914-11.557-5.181-4.05-12.473-7.42-19.146-9.082-6.673-1.663-12.728-1.62-14.391-1.897-1.663-.277 1.066-.874 11.321-2.73 10.255-1.854 28.036-4.967 47.864-7.078 19.829-2.111 41.704-3.219 58.035-2.6 16.332.618 27.119 2.963 33.238 5.351 6.12 2.387 7.569 4.819 8.209 6.268.639 1.45.469 1.919-.853 2.047-1.322.128-3.795-.085-13.368-.15-9.573-.063-26.245.022-41.682 1.386-15.435 1.364-29.635 4.008-38.611 6.887-8.975 2.878-12.728 5.991-13.687 7.164-.96 1.172.874.404 10.809-1.259 9.936-1.663 27.972-4.221 44.709-4.839 16.737-.618 32.172.703 40.53 1.534 8.358.832 9.636 1.173 2.686 3.177-6.95 2.005-22.13 5.672-34.091 9.254-11.961 3.581-20.702 7.078-24.39 8.016-3.689.938-2.325-.682.255-2.516 2.58-1.833 6.375-3.88 12.196-6.289 5.82-2.409 13.666-5.181 17.823-6.567 4.158-1.386 4.627-1.386-1.94-1.172-6.567.213-20.168.639-32.044 1.833-11.875 1.194-22.024 3.155-28.634 4.818-6.61 1.663-9.679 3.027-11.342 3.305-1.663.277-1.919-.533-3.582-3.304M554.5195 149.2861c6.481.96 17.61 2.963 28.548 7.761 10.937 4.797 21.682 12.386 28.847 19.614 7.163 7.228 10.746 14.094 12.536 19.296 1.791 5.201 1.791 8.741 1.791 10.511 0 1.769 0 1.769 1.194 0 1.193-1.77 3.582-5.31 2.729-11.109-.853-5.799-4.947-13.858-10.661-21.086-5.713-7.227-13.047-13.623-20.765-18.058-7.718-4.434-15.821-6.908-23.282-8.293-7.462-1.386-14.285-1.685-19.36-1.407-5.074.277-8.4 1.129-9.146 1.513-.746.384 1.088.298 7.569 1.258" fill="#737373" fill-rule="evenodd"/>
		<path d="M343.0635 143.5527c7.761-3.454 22.344-9.424 37.183-13.986 14.838-4.563 29.933-7.719 42.748-9.637 12.813-1.919 23.345-2.602 31.234-2.985 7.889-.384 13.133-.469 16.012-.512 2.878-.043 3.389-.043.447-1.193-2.942-1.152-9.338-3.455-22.322-3.561-12.985-.107-32.557 1.982-48.675 5.01-16.118 3.027-28.782 6.993-37.716 10.362-8.933 3.368-14.136 6.14-18.271 9.68-4.137 3.538-7.207 7.845-8.273 9.529-1.066 1.685-.128.747 7.633-2.707M18.5234 395.978c4.861-5.362 12.869-15.767 16.606-24.05 3.738-8.283 3.205-14.445 9.249-21.332 6.045-6.886 18.666-14.497 31.011-23.953 12.343-9.456 24.41-20.756 33.152-29.881 8.74-9.125 14.155-16.076 18.217-20.564 4.062-4.488 6.771-6.513 13.604-9.615 6.834-3.102 17.793-7.28 25.234-10.021 7.44-2.74 11.362-4.041 13.654-4.893 2.291-.854 2.952-1.259 1.345 1.217-1.508 2.321-5.01 7.175-8.533 12.515.228-.011-.133.857-1.1 3-1.662 3.689-5.117 11.151-7.536 17.046-2.42 5.896-3.806 10.223-4.264 12.078-.147.592-.199.932-.059.992.475-.746 1.268-1.956 2.633-3.937 2.974-4.317 8.661-12.293 14.361-19.522 5.7-7.228 11.414-13.71 16.872-18.731 5.458-5.021 10.66-8.581 13.262-10.362.919-.629 1.514-1.035 1.82-1.109.688-.84.694-.557-.247 2.556-1.066 3.528-3.347 10.692-4.883 17.952-1.534 7.26-2.323 14.615-2.696 18.592-.09.952-.155 1.71-.148 2.218.273-.806.754-2.148 1.603-4.39 2.185-5.767 6.811-17.493 11.214-26.565 4.402-9.072 8.581-15.49 14.061-21.395 5.479-5.906 12.259-11.301 16.646-14.615 4.385-3.314 6.378-4.548 7.347-5.038.152-.076.279-.135.371-.153.882-.841 1.139-.964 1.269-.964.224 0 .074.362-1.834 5.117-1.908 4.754-5.575 13.9-8.144 21.256-2.569 7.355-4.041 12.921-4.797 15.862-.757 2.942-.8 3.263 3.315-3.848l.743-1.286c1.557-4.113 3.534-9.137 5.744-14.338 2.921-6.877 6.247-14.061 10.82-21.448 4.573-7.388 10.394-14.977 17.078-21.565 6.684-6.588 14.232-12.174 22.579-16.417 6.758-3.436 14.04-5.991 19.17-7.664-6.613 1.258-13.199 2.762-19.276 4.297-11.579 2.925-21.307 5.96-27.34 8.284-6.034 2.324-8.373 3.936-12.272 7.759-3.899 3.824-9.358 9.858-17.587 17.16-8.23 7.302-19.231 15.874-29.017 22.099-9.786 6.225-18.357 10.106-26.373 12.962-8.017 2.858-15.479 4.691-24.199 7.697-8.72 3.006-18.698 7.185-25.179 10.234-6.482 3.049-9.467 4.968-11.62 6.747-2.154 1.781-3.476 3.421-6.354 7.781-2.878 4.36-7.313 11.438-14.093 18.858-6.78 7.419-15.905 15.18-27.823 23.836-11.918 8.656-26.629 18.208-34.884 24.762-8.254 6.554-10.052 10.112-11.043 15.324-.991 5.213-1.177 12.082-3.625 19.897-2.449 7.816-7.16 16.579-9.644 21.045l-.261.468c.561-.563 1.176-1.21 1.851-1.955M241.124 265.9863c.427 2.367 1.083 7.281 1.803 10.042.724 2.782 1.513 3.379 4.264-1.589 2.75-4.967 7.462-15.499 10.766-24.667 1.317-3.651 2.41-7.085 3.294-10.109-6.325 11.755-10.977 18.902-14.758 22.683-2.058 2.058-3.858 3.119-5.369 3.64" fill="#f9f9f9" fill-rule="evenodd"/>
		<path d="M279.2148 243.291c.427-5.757 1.066-15.734 2.836-25.605 1.769-9.873 4.669-19.637 6.673-25.138 2.004-5.5 3.113-6.737 4.307-7.376 1.194-.641 2.473-.683 1.556 7.377-.917 8.058-4.03 24.22-7.1 35.498-3.07 11.278-6.098 17.675-7.504 20.105-1.408 2.431-1.194.896-.768-4.861M307.5601 224.3164c.203-4.2.565-11.705 2.164-18.112 1.599-6.407 4.434-11.716 9.754-14.946 5.32-3.23 13.123-4.381 19.135-4.104 6.013.277 10.234 1.982 12.558 3.006 2.324 1.023 2.751 1.365 2.526 1.589-.223.223-1.097.331-5.17 1.919-4.072 1.587-11.342 4.658-18.091 9.37-6.747 4.712-12.973 11.065-16.746 15.883-3.774 4.819-5.096 8.102-5.736 9.296-.64 1.194-.597.298-.394-3.901M354.7676 153.1523c2.488-.934 7.187-2.717 12.826-3.792 5.639-1.075 12.218-1.442 17.661-1.19 5.444.252 9.751 1.123 13.631 2.582 3.881 1.459 7.335 3.504 8.529 4.486 1.194.98.128.895-3.742 1.46-3.869.565-10.543 1.781-15.222 3.081-4.68 1.301-7.367 2.686-8.88 3.241-1.514.554-1.855.277-3.53-.629-1.672-.906-4.679-2.441-8.026-3.731-3.348-1.29-7.036-2.335-10.021-2.932-2.985-.597-5.266-.746-6.194-.917-.927-.171-.501-.362-.149-.501.352-.138.63-.223 3.117-1.158M75.104 347.501c1.303-.739 2.961-1.741 5.085-3.097 5.928-3.784 15.478-10.33 24.284-18.208 8.806-7.878 16.865-17.088 22.856-25.221 5.991-8.134 9.914-15.191 11.865-19.328 1.154-2.445 1.618-3.87 1.786-4.74-1.387 2.621-4.332 7.254-11.912 15.821-9.338 10.554-25.713 27.077-36.213 37.514-10.501 10.436-15.127 14.785-17.536 17.056ZM125.9839 323.1069c3.849-3.571 11.179-10.48 16.667-17.655 5.487-7.175 9.133-14.616 11.162-20.156 1.529-4.177 2.139-7.274 2.347-9.135-1.213 2.687-3.353 6.793-7.424 13.06-6.086 9.37-16.491 23.57-21.885 30.915-2.384 3.245-3.788 5.151-4.215 5.979.632-.508 1.652-1.434 3.348-3.008M58.4326 359.626c.522 1.119 1.397 2.804 1.951 4.456.554 1.652.789 3.273 1.013 4.147.224.874.437 1.001 3.933 3.272 3.497 2.271 10.277 6.685 15.724 10.469 5.447 3.784 9.562 6.94 11.694 8.624 2.132 1.684 2.282 1.898.118-1.717-2.164-3.613-6.642-11.054-10.096-16.085-3.454-5.032-5.884-7.655-7.27-8.881-1.386-1.225-1.727-1.055-3.315-1.13-1.588-.074-4.424-.394-7.068-1.332-2.643-.938-5.096-2.495-6.236-2.996-1.14-.501-.97.054-.448 1.173M415.8828 133.5869c1.812.502 4.84 1.567 8.026 2.921 3.189 1.354 6.536 2.995 8.465 3.625 1.929.629 2.442.245 10.692-1.631 8.252-1.877 24.242-5.245 38.313-7.058 14.071-1.812 26.224-2.068 32.439-2.196 6.215-.128 6.492-.128 3.389-1.428-3.101-1.3-9.583-3.902-22.151-4.68-12.569-.778-31.224.266-44.655 1.727-13.432 1.46-21.64 3.337-27.024 4.797-5.384 1.46-7.942 2.505-8.923 2.996-.98.49-.383.426 1.429.927M437.2227 157.8926c4.776-1.184 13.752-3.145 22.877-4.775 9.125-1.632 18.399-2.933 27.94-3.7 9.541-.767 19.349-1.003 28.319-1.036 8.97-.034 17.102.134 21.367.155 4.264.021 4.659-.103-.548-.933-5.207-.83-16.017-2.365-27.668-2.78-11.651-.416-24.145.288-36.053 1.688-11.907 1.402-23.228 3.5-30.157 5.845-6.93 2.346-9.467 4.937-10.447 6.031-.982 1.093-.405.689 4.37-.495M247.5229 182.2314c1.823-2.133 5.426-7.186 8.773-12.516 3.348-5.33 6.439-10.937 11.524-16.523 5.085-5.586 12.163-11.15 20.35-15.521 6.518-3.48 13.738-6.203 18.848-7.98-.2-.058-.425-.114-.683-.178-1.753-.432-5.004-1.168-7.989-2.234-2.985-1.066-5.703-2.462-7.111-3.139-1.407-.678-1.503-.635-2.569-.112-1.066.522-3.102 1.524-7.105 4.787-4.003 3.262-9.974 8.783-14.515 13.74-4.541 4.957-7.654 9.349-10.969 16.471-3.316 7.12-6.833 16.971-8.699 21.789-.438 1.131-.785 1.985-1.063 2.607.274-.174.661-.551 1.208-1.191M191.731 192.0713c3.392.623 9.414 1.291 15.104 1.407 5.756.117 11.171-.331 15.51-.992 4.339-.66 7.601-1.534 9.179-2.174 1.578-.639 1.471-1.045 2.483-3.838 1.013-2.793 3.145-7.973 5.002-11.937 1.857-3.965 3.438-6.711 5.027-9.185.198-.308.396-.613.591-.911-.78.846-1.756 1.845-2.963 2.943-2.953 2.686-7.281 5.969-12.984 9.892-5.703 3.923-12.782 8.485-19.605 11.103-6.823 2.617-13.389 3.288-16.673 3.624zM187.915 204.3154c1.812 2.469 3.23 5.646 4.046 8.14.815 2.494 1.028 4.306 1.156 5.25.129.943.171 1.018.667.778.495-.24 1.444-.794 2.452-1.951 1.007-1.156 2.073-2.916 2.42-5.244.346-2.329-.028-5.23-1.946-7.527-1.919-2.298-5.384-3.992-8.4-4.973-3.017-.981-5.586-1.247-6.615-1.204-1.029.043-.517.394.842 1.449 1.359 1.055 3.566 2.814 5.378 5.282M151.2988 197.2559c-2.313-3.027-6.105-8.49-10.037-14.42-3.932-5.929-8.004-12.325-11.671-18.245-3.666-5.921-6.926-11.364-9.143-15.202l-.529-.919c-.211-.275-.377-.5-.514-.688-.576-.789-.639-.917.533 1.684 1.173 2.602 3.582 7.932 6.62 13.677 3.038 5.746 6.705 11.908 9.605 16.631 2.9 4.721 5.032 8.005 6.226 9.764 1.194 1.759 1.45 1.993.458 2.217-.991.225-3.23.438-5.948-.937-2.719-1.375-5.917-4.339-9.68-9.457-3.763-5.116-8.091-12.386-10.522-17.684-2.43-5.299-2.963-8.625-3.379-12.206-.415-3.582-.714-7.42-.895-9.392-.182-1.972-.246-2.079-.352-1.578-.106.501-.256 1.609-.448 4.925-.192 3.315-.426 8.838 1.194 16.012 1.621 7.173 5.096 16.001 7.132 21.555 2.036 5.554 2.633 7.835 3.475 9.541.842 1.705 1.93 2.835 3.049 3.774 1.119.937 2.27 1.684 2.825 1.726.554.043.512-.618.17-1.31-.341-.694-.981-1.418-1.257-2.389-.278-.97-.192-2.185-.107-2.984.085-.8.171-1.184.405-1.11.234.076.618.609 1.695 1.663 1.077 1.056 2.846 2.634 5.927 3.551 3.081.916 7.473 1.172 10.466 1.769 2.993.595 4.587 1.532 5.311 1.808.499.191.586.071.33-.579-.285-.351-.595-.747-.939-1.197M318.1909 120.9141c.353-.161.377-.33-.216-.675-.362.286-1.466.752-2.738 1.152-.195.06-.395.121-.603.177 1.605-.158 2.995-.397 3.557-.654m-1.08-1.108c-.668-.308-1.62-.707-2.931-1.243-4.126-1.683-11.794-4.706-20.254-8.231-8.461-3.525-17.714-7.555-24.739-12.245-7.025-4.691-11.822-10.042-16.758-14.828-4.936-4.787-10.01-9.009-12.805-11.183-2.794-2.175-3.308-2.302-4.918-4.071-1.61-1.77-4.314-5.182-8.086-8.667-3.772-3.487-8.612-7.047-10.992-9.332-2.381-2.286-2.302-3.296-2.28-4.65.02-1.354-.016-3.052-.173-4.508-.157-1.456-.433-2.671-.273-3.972.093-.758.335-1.546.548-2.216-.801-.151-1.528-.446-2.145-.97-.767-.649-1.363-1.651-1.677-2.162-.313-.511-.345-.533-.58-.069-.234.464-.671 1.412-.72 2.382-.049.97.291 1.961.727 3.223.436 1.263.969 2.798 1.161 4.494.192 1.694.043 3.549.502 5.245.458 1.694 1.524 3.229 5.415 6.63s10.607 8.667 14.701 11.811c4.093 3.146 5.564 4.168 4.967 4.403-.597.235-3.262-.32-5.692-1.151-2.431-.832-4.627-1.94-6.365-2.985-1.737-1.044-3.016-2.025-5.255-4.158-2.238-2.131-5.437-5.415-7.58-7.398-2.142-1.982-3.23-2.665-4.605-5.148-1.375-2.485-3.038-6.77-3.677-9.691-.64-2.921-.256-4.477-.139-5.799.117-1.322-.032-2.409-.15-2.889-.117-.48-.202-.352-.895-.021-.693.33-1.993.863-3.464 1.109-1.472.245-3.114.202-4.233-.043-1.119-.246-1.716-.693-2.014-.779-.299-.085-.299.193-.117.949.182.758.546 1.996 1.43 3.125.885 1.13 2.291 2.153 3.474 4.562 1.182 2.408 2.142 6.204 2.75 8.581.607 2.377.863 3.337 2.228 4.723 1.363 1.385 3.837 3.198 6.033 4.967 2.196 1.77 4.115 3.497 5.714 5.213 1.599 1.716 2.878 3.421 4.093 4.498 1.215 1.078 2.367 1.525 5.17 2.655 2.804 1.13 7.259 2.942 12.003 5.575s9.776 6.087 15.085 10.543c5.308 4.456 10.894 9.914 15.297 13.314 4.403 3.401 7.622 4.744 12.003 6.652 4.38 1.908 9.923 4.381 14.603 6.406 4.679 2.025 8.495 3.603 12.535 4.765 4.04 1.162 8.305 1.908 10.853 2.281.985.144 1.713.233 2.225.303M306.1084 75.1523c.19-2.554.563-5.803 1.115-9.219.904-5.61 2.287-11.67 2.757-16.637.468-4.968.024-8.843 1.187-12.422 1.163-3.579 3.935-6.864 5.811-10.573 1.187-2.345 2.015-4.862 2.463-7.501-.594 1.208-1.256 2.628-2.208 4.235-1.914 3.229-4.994 7.217-7.297 10.132-2.302 2.915-3.827 4.759-4.322 6.3-.496 1.54.037 2.776.528 4.918.49 2.143.938 5.193.81 8.422-.128 3.23-.831 6.642-1.375 9.381-.544 2.74-.928 4.809-.342 8.55.204 1.297.523 2.794.873 4.414M165.1382 479.9697c-.028-1.588-.101-3.486-.271-5.724-.533-7.057-2.017-17.494-6.661-30.879-4.644-13.384-12.447-29.716-19.42-41.634-6.971-11.918-13.111-19.423-17.716-24.923-2.514-3.002-4.57-5.407-6.262-7.346l.504.349c2.953 2.058 9.03 6.386 15.636 14.341 6.605 7.954 13.739 19.535 19.826 32.21 6.086 12.675 11.126 26.444 13.752 37.038 2.627 10.594 2.84 18.014 1.293 24.224-.2.803-.429 1.585-.681 2.344M147.667 495.9775c-.67-4.274-1.875-10.971-4.057-20.469-2.712-11.797-6.934-27.915-10.857-40.111-3.922-12.195-7.547-20.467-12.216-29.677-4.669-9.211-10.383-19.359-14.946-26.801-3.366-5.49-6.106-9.506-7.02-11.868 2.327 2.505 6.254 6.844 11.85 15.606 6.035 9.445 14.008 24.028 19.637 37.247 5.629 13.219 8.912 25.073 11.662 36.65 2.751 11.577 4.968 22.877 5.672 32.109.199 2.615.276 5.065.275 7.314M186.2646 415.4458c-.296-.307-.619-.647-.971-1.027-3.177-3.422-8.755-9.973-14.709-16.574-5.955-6.601-12.288-13.253-18.524-18.935-6.236-5.682-12.376-10.393-17.717-14.178-3.131-2.218-5.987-4.118-8.028-5.545 1.172.045 2.776.226 4.719.937 2.824 1.034 6.364 3.188 13.597 9.322 7.233 6.135 18.159 16.251 27.658 27.508 5.261 6.236 10.082 12.82 13.975 18.492M194.9541 390.4966c-4.812-4.717-11.209-11.621-16.532-17.053-6.737-6.876-11.752-11.392-17.252-15.039-5.264-3.49-10.973-6.182-15.098-7.79-2.3-1.289-2.643-1.467-2.574-1.813.086-.427.796-1.109 3.497-3.966 2.701-2.857 7.391-7.888 10.077-10.703 2.687-2.814 3.369-3.411 7.889-4.243 4.52-.831 12.878-1.897 23.858-1.257 9.625.56 21.267 2.432 33.558 5.14-5.71-.66-12.76-1.432-18.965-1.886-9.626-.703-17.216-.64-23.474.16-6.257.8-11.182 2.334-14.328 3.517-1.445.543-2.514 1.011-3.199 1.388l-.648.188c-3.581 1.044-3.326 1.044 1.13 2.025 4.456.981 13.112 2.942 24.966 7.334 9.786 3.626 21.75 8.908 32.105 14.575-7.573-2.947-18.931-7.405-27.809-10.318-11.567-3.795-18.922-4.968-24.54-5.402-5.618-.433-9.498-.128-11.584.025-.765.056-1.288.093-1.562.156-2.643-.037-2.678.108-1.256 1.199 1.642 1.258 5.224 3.774 11.94 9.925 6.717 6.151 16.567 15.936 24.487 26.362 1.886 2.482 3.662 5.001 5.314 7.476M283.3071 314.8247c-1.78-1.279-6.709-3.845-14.813-5.662-7.791-1.745-18.515-2.797-24.456-3.379 3.394.007 6.988.09 10.536.291 9.402.533 18.484 1.897 28.058 3.688 9.572 1.791 19.635 4.008 24.326 5.138 4.69 1.131 4.008 1.173-2.388 2.815-6.396 1.641-18.506 4.882-27.951 7.867-9.445 2.985-16.225 5.714-20.126 7.313-3.902 1.599-4.925 2.068-4.84 1.429.085-.641 1.279-2.389 7.611-5.629 6.332-3.241 17.803-7.975 23.325-10.383 4.705-2.053 5.09-2.419 1.301-3.009-.135-.136-.326-.294-.583-.479" fill="#f9f9f9" fill-rule="evenodd"/>
		<path d="M255.1724 291.9683c3.686-1.547 9.173-3.396 16.914-4.641 9.541-1.535 22.503-2.153 33.11-1.834 10.607.32 18.858 1.578 24.604 2.452 4.493.684 7.455 1.133 9.444 1.449.23.358-.783.746-3.555 1.56-3.337.981-9.222 2.58-14.2 4.457-4.978 1.876-9.05 4.029-11.204 5.117-1.179.595-1.782.871-1.6 1.084-.889.074-1.852.108-3.081.148-4.11.135-11.207.345-16.105.975-.78-.126-.86-.081-.913-.051-.111.063-.111.063 2.139-1.206 2.249-1.269 6.747-3.805 12.227-5.97 5.479-2.164 11.939-3.955 14.967-4.893 3.027-.938 2.622-1.023-2.889-1.311-5.511-.288-16.129-.778-27.343-.33-11.215.447-23.027 1.833-29.071 2.569-1.458.177-2.58.317-3.444.425M305.2056 330.8203c6.694 3.113 18.975 10.021 30.041 17.888 11.065 7.867 20.915 16.694 30.915 27.226 9.999 10.533 20.147 22.77 25.861 29.188 5.714 6.418 6.993 7.014 13.134 9.381 6.139 2.366 17.141 6.503 28.179 12.053 11.039 5.55 22.115 12.514 29.897 19.827 2.308 2.17 4.327 4.371 6.024 6.469-2.181-1.61-5.41-3.799-10.43-6.77-8.25-4.882-21.342-11.875-32.535-16.609-11.193-4.733-20.489-7.206-26.565-9.7-6.076-2.495-8.934-5.011-15.298-11.993-6.364-6.982-16.235-18.432-24.368-27.535-8.134-9.104-14.53-15.862-23.623-23.858-9.094-7.995-20.884-17.227-27.643-22.109-4.17-3.013-6.424-4.369-7.444-5.062 1.027.355 2.288.875 3.855 1.604M390.834 363.8882c4.578-.032 4.621.021-2.979-4.189-7.602-4.211-22.845-12.686-32.152-17.531-3.817-1.987-6.635-3.363-8.755-4.305.523.388 1.018.758 1.48 1.107 5.117 3.859 6.162 5.052 8.475 7.366 2.314 2.313 5.897 5.745 8.434 9.199 1.519 2.068 2.664 4.144 3.508 5.98.723.306 1.494.579 2.326.817 5.97 1.705 15.084 1.588 19.663 1.556" fill="#737373" fill-rule="evenodd"/>
		<path d="M409.793 354.8105c5.927.102 17.643.293 23.586.293 4.236 0 5.538-.097 2.94-.972-.576-.138-1.262-.306-2.079-.508-5.586-1.387-17.184-4.372-27.397-6.759-10.212-2.388-19.038-4.179-23.207-4.819-4.168-.639-3.677-.128-.042 1.781 3.635 1.908 10.415 5.213 15.34 7.675 2.627 1.314 4.727 2.388 6.378 3.233.894.014 2.293.039 4.481.076M419.833 375.1606c2.516.544 7.206 1.237 11.859 1.524 4.654.288 9.269.171 12.222-.084 2.942-.254 4.233-.646 4.026-1.09-1.876-.125-5.468-.399-9.692-1.03-4.53-.677-9.785-1.764-12.413-2.308-2.628-.544-2.628-.544-3.038-.011-.411.534-1.232 1.6-2.298 2.394-.275.206-.568.393-.858.563zM389.8398 331.4907c3.454-.064 9.936-.266 16.097-.938 6.162-.671 12.004-1.812 15.02-2.474 2.792-.611 3.165-.812 2.347-1.07-.51-.052-1.278-.141-2.368-.271-4.083-.491-12.675-1.578-20.308-2.239-7.633-.661-14.306-.895-17.76-1.012-3.454-.118-3.688-.118-3.347.149.34.266 1.258.799 2.623 1.865 1.364 1.066 3.176 2.665 4.583 4.158.617.654 1.156 1.287 1.615 1.852.426-.002.919-.009 1.498-.02M354.2393 309.4287c4.333-.357 12.488-1.04 18.107-1.979 5.621-.94 8.704-2.138 9.828-2.785.307-.177.467-.313.458-.421l-.437.011c-2.824.065-8.73.107-15.67.23-6.939.123-14.914.325-18.895.421-3.982.096-3.971.086-2.041 1.055 1.719.864 4.963 2.509 7.048 3.599zM338.2402 295.9873c2.884-.168 8.163-.774 13.21-1.804 5.512-1.124 10.746-2.755 13.747-3.704 3.001-.949 3.769-1.215 3.294-1.348-.475-.133-2.19-.133-6.62-.16-2.819-.017-6.735-.045-10.314.098-.445.973-1.474 2.244-4.147 3.577-2.292 1.143-5.795 2.332-9.17 3.341" fill="#f9f9f9" fill-rule="evenodd"/>
	</g>
</svg>
