<?xml version="1.0" encoding="utf-8"?>
<svg xmlns="http://www.w3.org/2000/svg" xmlns:xlink="http://www.w3.org/1999/xlink" viewBox="0 0 123 123">
    <title>Raven</title>
    <path d="M3.3.4c1.2-1 4 0 6 0 14.5 5.3 23.5 16 38 21.3 4.5 10.2 8 21.4 13.3 30.7 7-.7 12 .5 17.4-1.3 2.3-1.2-3-2.2-.7-4 4 1.8 9 2 12.7 3.7-.3-3-3.5-3.2-4-6 8.3-1.5 9.5 4.2 14.7 6-.7-3.4-4.8-8.8-1.4-12 3.8 1.7 4.7 6.5 8 8.7-3-5-2-9.5 0-15.3 3 6 3 14.7 8 18.7 1-4.3 0-10.8 4.7-11.4v2c-1.6 6.5-.2 15.8-.7 23.4-6 0-6.6 3.7-13.3 2-7.5 3.4-14.7 7-22 10.7.7 4 4.8 4.6 5.3 8.7-5.2 3.8-2.5 14.3-4.6 19.5-5-4.7-5.2-13-12-14.6-9.2-2.3-15.5 5.2-23.4 7.2.4 9.8 8.7 19-2.4 22.4l1-2.4c1.6-2.3 0-.3-1.8-2.4 1.2-.4 3-.3 3.7-1.8.2-1.3.6-2-.7-3.3-2.6-3-8.2 1.8-9.5 1.5-.5-4.5 5-3.3 6-6.6 1.3 0-1-1.6 0-3.3-3 .8-2 5-5.6 5 0-2 1.5-2 1.4-4-1.7-.4-1.6 1-3.5.6 1-2 4.4-1.6 3.5-5.4-1.4-1-4.5 0-5.5-1.3 2.2-1 4-2.4 7.4-2v-4C37 91 30 88 22.2 88l-.6-.5C20.3 84 17.4 82.3 13 82l-.7-.5C10 76 2.7 71 1.3 68.5.3 66 0 63.7 0 62c0-.3.5-.5 1-.3l.8.7c7.7 5 21.4 8.3 30.2 7.3 1-2.5-2-1.3-1.4-3.3 4.8-1.5 9-3.4 12.7-6-10-5-14-16.4-14.7-30.7C20.6 17.7 2 1.2 3.3.4zm44.7 94l2.6-2c-.5-.2-.7-.6-.6-1.3h-2.7c.4 1-.8 3.8.7 3.7z" fill="#5f8aa6" />
</svg>
