<svg xmlns="http://www.w3.org/2000/svg" width="120" height="120"><path fill="#5F8AA6" d="M3.298.371c1.208-.833 4.001 0 6.001 0 14.492 5.292 23.458 16.109 38.012 21.339 4.479 10.192 7.943 21.397 13.335 30.675 7.063-.64 12.082.562 17.338-1.334 2.274-1.519-3.043-2.584-.666-4.001 3.849 1.484 8.85 1.819 12.67 3.334-.264-3.074-3.527-3.141-4.002-6.002 8.334-1.443 9.556 4.228 14.673 6.002-.664-3.362-4.802-8.778-1.335-12.003 3.792 1.766 4.645 6.469 8.002 8.669-2.969-4.991-2.143-9.599 0-15.337 2.895 5.998 3.089 14.695 8.003 18.672 1.095-4.241-.104-10.773 4.668-11.336v2c-1.554 6.45-.226 15.78-.667 23.34-6.088.16-6.628 3.728-13.337 2-7.476 3.416-14.739 7.045-22.007 10.67.682 3.985 4.768 4.568 5.334 8.67-5.225 3.627-2.555 14.127-4.666 19.338-4.817-4.766-5.135-13.051-12.004-14.67-9.178-2.164-15.467 5.35-23.34 7.334.42 9.541 8.549 17.629-2.001 22.008h-1.334c1.109-2.35 1.686-3.238 0-5.336h4.002v-4c-3.751-2.475-8.674 1.552-10.003 1.334-.294-4.519 5.125-3.323 6.001-6.67 1.488-.099-.865-1.682 0-3.334-2.79.541-1.936 4.731-5.334 4.668-.175-1.955 1.508-2.049 1.334-4.002-1.607-.271-1.45 1.219-3.335.668.867-2.023 4.215-1.565 3.335-5.336-1.25-.974-4.419-.024-5.335-1.334 2.135-.977 3.938-2.283 7.336-2v-4c-7.083.213-13.897-2.654-21.531-2.67-.158 0-.579-.322-.636-.481-1.263-3.462-4.185-5.263-8.673-5.498-.166-.011-.651-.397-.736-.585-2.345-5.197-9.665-10.24-11.026-12.79-1.18-2.209-1.372-4.603-1.403-6.365-.006-.345.576-.487.886-.264.314.231.641.458.98.681 7.635 5.04 21.339 8.309 30.136 7.301.965-2.522-1.832-1.279-1.333-3.336 4.721-1.504 9.036-3.41 12.671-6-10.091-5.026-13.875-16.357-14.671-30.678-7.984-11.992-26.551-28.508-25.342-29.341zm44.68 94.025l2.667-2c-.52-.15-.775-.56-.667-1.336h-2.668c.365.971-.779 3.449.668 3.336z"/></svg>