<?xml version="1.0" encoding="utf-8"?>
<svg class="svg--sprites" xmlns="http://www.w3.org/2000/svg" xmlns:xlink="http://www.w3.org/1999/xlink">

    <symbol id="svg--raven" viewBox="0 0 123 123">
        <title>Raven</title>
        <path d="M3.3.4c1.2-1 4 0 6 0 14.5 5.3 23.5 16 38 21.3 4.5 10.2 8 21.4 13.3 30.7 7-.7 12 .5 17.4-1.3 2.3-1.2-3-2.2-.7-4 4 1.8 9 2 12.7 3.7-.3-3-3.5-3.2-4-6 8.3-1.5 9.5 4.2 14.7 6-.7-3.4-4.8-8.8-1.4-12 3.8 1.7 4.7 6.5 8 8.7-3-5-2-9.5 0-15.3 3 6 3 14.7 8 18.7 1-4.3 0-10.8 4.7-11.4v2c-1.6 6.5-.2 15.8-.7 23.4-6 0-6.6 3.7-13.3 2-7.5 3.4-14.7 7-22 10.7.7 4 4.8 4.6 5.3 8.7-5.2 3.8-2.5 14.3-4.6 19.5-5-4.7-5.2-13-12-14.6-9.2-2.3-15.5 5.2-23.4 7.2.4 9.8 8.7 19-2.4 22.4l1-2.4c1.6-2.3 0-.3-1.8-2.4 1.2-.4 3-.3 3.7-1.8.2-1.3.6-2-.7-3.3-2.6-3-8.2 1.8-9.5 1.5-.5-4.5 5-3.3 6-6.6 1.3 0-1-1.6 0-3.3-3 .8-2 5-5.6 5 0-2 1.5-2 1.4-4-1.7-.4-1.6 1-3.5.6 1-2 4.4-1.6 3.5-5.4-1.4-1-4.5 0-5.5-1.3 2.2-1 4-2.4 7.4-2v-4C37 91 30 88 22.2 88l-.6-.5C20.3 84 17.4 82.3 13 82l-.7-.5C10 76 2.7 71 1.3 68.5.3 66 0 63.7 0 62c0-.3.5-.5 1-.3l.8.7c7.7 5 21.4 8.3 30.2 7.3 1-2.5-2-1.3-1.4-3.3 4.8-1.5 9-3.4 12.7-6-10-5-14-16.4-14.7-30.7C20.6 17.7 2 1.2 3.3.4zm44.7 94l2.6-2c-.5-.2-.7-.6-.6-1.3h-2.7c.4 1-.8 3.8.7 3.7z" />
    </symbol>

    <symbol id="svg--codepen" viewBox="0 0 41 40">
        <title>CodePen</title>
        <path d="M39.5 13.8v-.5c-.2 0-.2 0-.2-.2h-.5l-18-12h-2L.8 13H.5v.2H0v.5l-.2.3v13H0v.2h.2v.2h.2v.2H1l18 12c.3.3.6.4 1 .4s.6 0 1-.3l18-12c0-.2 0-.2.2-.2s0 0 0-.2h.4V14zM21.5 5l13.3 9-6 4-7.3-5V5zM18 5v8l-7.3 5-6-4L18 5zM3.5 17.3l4 2.7-4 2.8v-5.6zM18 35L5 26l6-4 7.3 5v8zm2-11l-6-4 6-4 6 4-6 4zm1.7 11v-8l7.3-5 6 4-13.3 9zM36 22.7L32 20l4-2.8v5.6z" />
    </symbol>

    <symbol id="svg--github" viewBox="0 0 16 16">
        <title>GitHub</title>
        <path d="M8 0C3.58 0 0 3.58 0 8c0 3.54 2.29 6.53 5.47 7.59.4.07.55-.17.55-.38 0-.19-.01-.82-.01-1.49-2.01.37-2.53-.49-2.69-.94-.09-.23-.48-.94-.82-1.13-.28-.15-.68-.52-.01-.53.63-.01 1.08.58 1.23.82.72 1.21 1.87.87 2.33.66.07-.52.28-.87.51-1.07-1.78-.2-3.64-.89-3.64-3.95 0-.87.31-1.59.82-2.15-.08-.2-.36-1.02.08-2.12 0 0 .67-.21 2.2.82.64-.18 1.32-.27 2-.27.68 0 1.36.09 2 .27 1.53-1.04 2.2-.82 2.2-.82.44 1.1.16 1.92.08 2.12.51.56.82 1.27.82 2.15 0 3.07-1.87 3.75-3.65 3.95.29.25.54.73.54 1.48 0 1.07-.01 1.93-.01 2.2 0 .21.15.46.55.38A8.013 8.013 0 0 0 16 8c0-4.42-3.58-8-8-8z" />
    </symbol>

    <symbol id="svg--lastfm" viewBox="0 0 40 40">
        <title>LastFM</title>
        <path d="M15.76 25.12l1.36 4q-2.56 2.080-6.72 2.080-4.24 0-7.32-2.92t-3.080-7.96q0-5.2 3.2-8.36t7.52-3.16q4.48 0 6.68 1.8t3.64 6.36l1.44 4.64q1.92 5.84 8.080 5.84 4.8 0 4.8-2.4 0-2.16-3.12-2.88l-3.12-0.72q-5.36-1.36-5.36-6.080 0-3.52 2.32-5.040t5.84-1.52q7.36 0 7.92 5.84l-4.56 0.56q-0.32-2.8-3.6-2.8t-3.28 2.48q0 2 2.64 2.64l2.96 0.64q6 1.44 6 6.64 0 6.4-9.52 6.4-5.44 0-8.16-2.12t-4-5.96l-1.44-4.64q-0.56-1.6-0.88-2.4t-1-1.72-1.68-1.32-2.44-0.4q-2.56 0-4.52 1.84t-1.96 5.68q0 3.2 1.84 5.2t4.4 2q2.4 0 5.12-2.24z" />
    </symbol>

    <symbol id="svg--spotify" viewBox="0 0 20 20">
        <title>Spotify</title>
        <path d="M10,1.2c-4.861,0-8.8,3.938-8.8,8.8c0,4.859,3.939,8.8,8.8,8.8c4.862,0,8.799-3.94,8.799-8.8 C18.799,5.139,14.863,1.2,10,1.2z M13.478,14.502c-0.173,0-0.294-0.066-0.421-0.143c-1.189-0.721-2.662-1.099-4.258-1.099 c-0.814,0-1.693,0.097-2.61,0.285l-0.112,0.028c-0.116,0.028-0.235,0.059-0.326,0.059c-0.371,0-0.661-0.288-0.661-0.656 c0-0.373,0.21-0.637,0.562-0.703c1.096-0.25,2.128-0.372,3.152-0.372c1.855,0,3.513,0.43,4.931,1.279 c0.243,0.142,0.396,0.306,0.396,0.668C14.13,14.209,13.838,14.502,13.478,14.502z M14.391,11.941c-0.207,0-0.343-0.079-0.463-0.149 c-2.143-1.271-5.333-1.693-7.961-0.993c-0.044,0.013-0.084,0.025-0.12,0.037c-0.099,0.031-0.191,0.062-0.321,0.062 c-0.432,0-0.783-0.353-0.783-0.788c0-0.419,0.219-0.712,0.614-0.824C6.37,9.008,7.321,8.824,8.69,8.824 c2.212,0,4.357,0.555,6.038,1.561c0.306,0.175,0.445,0.414,0.445,0.771C15.173,11.59,14.822,11.941,14.391,11.941z M15.427,9.021 c-0.195,0-0.315-0.047-0.495-0.144c-1.453-0.872-3.72-1.391-6.069-1.391c-1.224,0-2.336,0.135-3.306,0.397 C5.524,7.891,5.493,7.9,5.459,7.91C5.356,7.941,5.227,7.978,5.094,7.978c-0.516,0-0.919-0.408-0.919-0.929 c0-0.453,0.254-0.799,0.68-0.925c1.171-0.346,2.519-0.521,4.006-0.521c2.678,0,5.226,0.595,6.991,1.631 c0.332,0.189,0.495,0.475,0.495,0.872C16.347,8.619,15.943,9.021,15.427,9.021z" />
    </symbol>

    <symbol id="svg--rss" viewBox="0 0 31 40">
        <title>RSS</title>
        <path d="M0 4.8q12.56 0 21.48 8.92t8.92 21.48h-4.72q0-10.64-7.52-18.12t-18.16-7.48v-4.8zM0 14.32q8.72 0 14.84 6.12t6.12 14.76h-4.72q0-6.64-4.76-11.4t-11.48-4.76v-4.72zM4.56 26.16q1.84 0 3.2 1.32t1.36 3.24q0 1.84-1.36 3.16t-3.2 1.32-3.2-1.32-1.36-3.16q0-1.92 1.36-3.24t3.2-1.32z" />
    </symbol>

    <symbol id="svg--twitter" viewBox="0 0 37 40">
        <title>Twitter</title>
        <path d="M36.8 8.56q-1.44 2.16-3.76 3.92v0.96q0 5.2-2.4 10t-7.44 8.12-11.6 3.32q-6.4 0-11.6-3.36 0.56 0.080 1.84 0.080 5.28 0 9.36-3.2-2.48-0.080-4.4-1.52t-2.64-3.76q0.4 0.16 1.36 0.16 1.040 0 2-0.24-2.64-0.56-4.32-2.64t-1.68-4.8v-0.080q1.44 0.8 3.36 0.96-3.36-2.32-3.36-6.32 0-1.92 1.040-3.76 6.16 7.52 15.6 7.84-0.24-0.72-0.24-1.68 0-3.12 2.2-5.32t5.4-2.2q3.28 0 5.44 2.32 2.4-0.48 4.8-1.76-0.8 2.64-3.28 4.16 2.24-0.32 4.32-1.2z" />
    </symbol>

    <symbol id="svg--article" viewBox="0 0 36 40">
        <title>Article</title>
        <path d="M32 2h-24c-2.2 0-4 1.8-4 4v28c0 2.2 1.8 4 4 4h24c2.202 0 4-1.8 4-4v-28c0-2.2-1.798-4-4-4zM32 34h-24v-28h24v28zM22 24h-10v2h10v-2zM28 16h-8v2h8v-2zM20 14h8v-4h-8v4zM18 10h-6v8h6v-8zM16 20h-4v2h4v-2zM18 22h10v-2h-10v2zM28 28h-16v2h16v-2zM24 26h4v-2h-4v2z" />
    </symbol>

    <symbol id="svg--bullhorn" viewBox="0 0 20 20">
        <title>Bullhorn</title>
        <path d="M17.223,7.03c-1.584-3.686-4.132-6.49-5.421-5.967c-2.189,0.891,1.304,5.164-9.447,9.533 c-0.929,0.379-1.164,1.888-0.775,2.792c0.388,0.902,1.658,1.801,2.587,1.424c0.161-0.066,0.751-0.256,0.751-0.256 c0.663,0.891,1.357,0.363,1.604,0.928c0.296,0.68,0.939,2.158,1.158,2.66c0.219,0.502,0.715,0.967,1.075,0.83 c0.359-0.137,1.582-0.602,2.05-0.779c0.468-0.178,0.579-0.596,0.436-0.924c-0.154-0.355-0.786-0.459-0.967-0.873 c-0.18-0.412-0.769-1.738-0.938-2.156c-0.23-0.568,0.259-1.031,0.97-1.104c4.894-0.512,5.809,2.512,7.475,1.834 C19.068,14.447,18.806,10.713,17.223,7.03z M16.672,13.006c-0.287,0.115-2.213-1.402-3.443-4.267 c-1.231-2.863-1.076-5.48-0.79-5.597c0.286-0.115,2.165,1.717,3.395,4.58C17.065,10.585,16.958,12.889,16.672,13.006z" />
    </symbol>

    <symbol id="svg--feather" viewBox="0 0 28 40">
        <title>Feather</title>
        <path d="M8.508 39.524c0.612-2.002 1.54-4.822 2.782-8.902 5.412-0.874 7.652 0.698 11.090-5.568-2.79 0.872-6.154-1.618-5.972-2.696 0.18-1.080 7.826 0.778 12.83-6.476-6.308 1.418-8.328-1.706-7.514-2.178 1.878-1.090 7.454-0.452 10.426-3.406 1.532-1.52 2.248-5.218 1.626-6.538-0.75-1.592-5.314-3.968-7.83-3.746-2.516 0.224-6.462 9.778-7.632 9.702s-1.404-4.278 0.638-8.186c-2.154 0.972-6.1 3.998-7.338 6.584-2.306 4.812 0.216 15.846-0.592 16.24-0.81 0.392-3.532-5.066-4.344-7.54-1.11 3.792-1.136 7.592 2.108 12.64-1.224 3.312-1.892 7.124-1.994 9.062-0.048 1.552 1.446 1.884 1.716 1.008z" />
    </symbol>

    <symbol id="svg--link" viewBox="0 0 40 40">
        <title>Link</title>
        <path d="M15.718 29.382l-1.62 1.61c-1.402 1.39-3.686 1.39-5.090 0-0.672-0.668-1.042-1.558-1.042-2.504s0.372-1.832 1.042-2.504l5.96-5.91c1.234-1.226 3.558-3.030 5.252-1.35 0.778 0.772 2.032 0.768 2.806-0.010 0.77-0.778 0.766-2.034-0.012-2.804-2.876-2.856-7.132-2.328-10.838 1.35l-5.96 5.912c-1.43 1.418-2.216 3.308-2.216 5.316 0 2.012 0.788 3.898 2.216 5.316 1.472 1.46 3.404 2.192 5.338 2.192s3.868-0.73 5.338-2.192l1.622-1.61c0.778-0.77 0.782-2.024 0.010-2.8-0.774-0.776-2.028-0.78-2.806-0.012zM33.782 6.414c-3.094-3.068-7.418-3.234-10.278-0.394l-2.018 2.004c-0.778 0.772-0.784 2.026-0.012 2.802 0.772 0.778 2.026 0.782 2.804 0.010l2.020-2.002c1.48-1.472 3.422-0.862 4.692 0.394 0.672 0.67 1.044 1.558 1.044 2.504s-0.372 1.834-1.044 2.502l-6.36 6.308c-2.908 2.882-4.272 1.532-4.854 0.954-0.778-0.772-2.032-0.766-2.802 0.010-0.772 0.778-0.768 2.034 0.010 2.802 1.336 1.324 2.86 1.98 4.456 1.98 1.954 0 4.020-0.984 5.986-2.934l6.36-6.306c1.424-1.42 2.214-3.308 2.214-5.316 0-2.010-0.79-3.898-2.218-5.318z" />
    </symbol>

    <symbol id="svg--search" viewBox="0 0 40 40">
        <title>Search</title>
        <path d="M35.090 30.934l-7.558-7.558c1.14-1.87 1.796-4.070 1.796-6.42 0-6.834-5.922-12.754-12.756-12.754-6.834-0.002-12.372 5.538-12.372 12.372 0 6.832 5.922 12.754 12.754 12.754 2.274 0 4.4-0.618 6.23-1.688l7.598 7.602c0.744 0.742 1.95 0.742 2.692 0l1.886-1.886c0.742-0.742 0.472-1.68-0.27-2.422zM8.008 16.574c0-4.732 3.834-8.566 8.564-8.566 4.732 0 8.948 4.214 8.948 8.948 0 4.73-3.836 8.566-8.566 8.566-4.732-0.002-8.946-4.218-8.946-8.948z" />
    </symbol>

    <symbol id="svg--tag" viewBox="0 0 40 40">
        <title>Tag</title>
        <path d="M38.582 0.812c-0.216-0.63-0.898-0.962-1.522-0.744s-0.952 0.908-0.734 1.54c1.84 5.34-1.812 9.328-4.594 11.462l-1.126-1.628c-0.376-0.544-1.224-0.998-1.88-1.008l-6.31 0.030c-0.656-0.010-1.632 0.294-2.172 0.674l-18.592 13.176c-0.9 0.638-1.122 1.894-0.49 2.806l8.452 12.214c0.63 0.912 1.644 0.802 2.544 0.166l18.592-13.178c0.54-0.38 1.154-1.208 1.372-1.836l1.976-6.292c0.214-0.628 0.084-1.588-0.292-2.132l-0.688-0.992c3.738-2.89 7.618-8.004 5.464-14.258zM29.932 19.524c-1.442 1.022-3.428 0.666-4.438-0.792-1.008-1.458-0.658-3.468 0.784-4.49 1.144-0.812 2.63-0.752 3.7 0.036-0.54 0.328-0.908 0.516-0.978 0.55-0.596 0.284-0.852 1.004-0.57 1.608 0.204 0.438 0.632 0.696 1.082 0.696 0.17 0 0.344-0.038 0.508-0.116 0.382-0.182 0.796-0.404 1.226-0.662 0.192 1.186-0.276 2.434-1.314 3.17z" />
    </symbol>

    <symbol id="svg--switch" viewBox="0 0 32 32">
        <title>Switch</title>
        <path d="M18.901 32h4.899c4.501 0 8.2-3.699 8.2-8.2v-15.6c0-4.5-3.699-8.2-8.2-8.2h-5c-0.099 0-0.2 0.099-0.2 0.2v31.6c-0.001 0.101 0.1 0.2 0.301 0.2zM25 14.401c1.801 0 3.199 1.5 3.199 3.197 0 1.803-1.5 3.2-3.199 3.2-1.8 0-3.2-1.399-3.2-3.2-0.1-1.799 1.4-3.197 3.2-3.197zM15.2 0h-7c-4.5 0-8.2 3.7-8.2 8.2v15.6c0 4.501 3.7 8.2 8.2 8.2h7c0.099 0 0.2-0.099 0.2-0.199v-31.601c0.001-0.101-0.1-0.2-0.2-0.2zM12.901 29.401h-4.701c-3.101 0-5.601-2.5-5.601-5.601v-15.6c0-3.101 2.5-5.601 5.601-5.601h4.6zM5 9.599c0 1.7 1.3 3 3 3s3-1.3 3-3c0-1.697-1.3-3-3-3s-3 1.303-3 3z" />
    </symbol>

</svg>
