<?xml version="1.0" encoding="utf-8"?>
<svg class="sprites" version="1.1" xmlns="http://www.w3.org/2000/svg">
  <symbol id="svg--hamburger" viewbox="0 0 20 20">
    <path d="M0 3h20v2h-20v-2zM0 9h20v2h-20v-2zM0 15h20v2h-20v-2z"></path>
  </symbol>
  <symbol id="svg--search" viewbox="0 0 40 40">
    <path
      d="M35.090 30.934l-7.558-7.558c1.14-1.87 1.796-4.070 1.796-6.42 0-6.834-5.922-12.754-12.756-12.754-6.834-0.002-12.372 5.538-12.372 12.372 0 6.832 5.922 12.754 12.754 12.754 2.274 0 4.4-0.618 6.23-1.688l7.598 7.602c0.744 0.742 1.95 0.742 2.692 0l1.886-1.886c0.742-0.742 0.472-1.68-0.27-2.422zM8.008 16.574c0-4.732 3.834-8.566 8.564-8.566 4.732 0 8.948 4.214 8.948 8.948 0 4.73-3.836 8.566-8.566 8.566-4.732-0.002-8.946-4.218-8.946-8.948z" />
  </symbol>
  <symbol id="svg--settings" viewbox="0 0 32 32">
    <path
      d="M29.181 19.070c-1.679-2.908-0.669-6.634 2.255-8.328l-3.145-5.447c-0.898 0.527-1.943 0.829-3.058 0.829-3.361 0-6.085-2.742-6.085-6.125h-6.289c0.008 1.044-0.252 2.103-0.811 3.070-1.679 2.908-5.411 3.897-8.339 2.211l-3.144 5.447c0.905 0.515 1.689 1.268 2.246 2.234 1.676 2.903 0.672 6.623-2.241 8.319l3.145 5.447c0.895-0.522 1.935-0.82 3.044-0.82 3.35 0 6.067 2.725 6.084 6.092h6.289c-0.003-1.034 0.259-2.080 0.811-3.038 1.676-2.903 5.399-3.894 8.325-2.219l3.145-5.447c-0.899-0.515-1.678-1.266-2.232-2.226zM16 22.479c-3.578 0-6.479-2.901-6.479-6.479s2.901-6.479 6.479-6.479c3.578 0 6.479 2.901 6.479 6.479s-2.901 6.479-6.479 6.479z"></path>
  </symbol>
  <symbol id="svg--paragraph" viewBox="0 0 448 512">
    <path d="M160 0L416 0c17.7 0 32 14.3 32 32s-14.3 32-32 32l-32 0 0 416c0 17.7-14.3 32-32 32s-32-14.3-32-32l0-416-48 0 0 416c0 17.7-14.3 32-32 32s-32-14.3-32-32l0-160-48 0C71.6 320 0 248.4 0 160S71.6 0 160 0z"></path>
  </symbol>
  <symbol id="svg--copy" viewBox="0 0 640 640">
    <path d="M288 64C252.7 64 224 92.7 224 128L224 384C224 419.3 252.7 448 288 448L480 448C515.3 448 544 419.3 544 384L544 183.4C544 166 536.9 149.3 524.3 137.2L466.6 81.8C454.7 70.4 438.8 64 422.3 64L288 64zM160 192C124.7 192 96 220.7 96 256L96 512C96 547.3 124.7 576 160 576L352 576C387.3 576 416 547.3 416 512L416 496L352 496L352 512L160 512L160 256L176 256L176 192L160 192z"></path>
  </symbol>
</svg>
