<?xml version="1.0" encoding="utf-8"?>
<svg class="sprites" version="1.1" xmlns="http://www.w3.org/2000/svg">
  <symbol id="svg--raven" viewbox="0 0 123 123">
    <title>Raven</title>
    <path d="M3.3.4c1.2-1 4 0 6 0 14.5 5.3 23.5 16 38 21.3 4.5 10.2 8 21.4 13.3 30.7 7-.7 12 .5 17.4-1.3 2.3-1.2-3-2.2-.7-4 4 1.8 9 2 12.7 3.7-.3-3-3.5-3.2-4-6 8.3-1.5 9.5 4.2 14.7 6-.7-3.4-4.8-8.8-1.4-12 3.8 1.7 4.7 6.5 8 8.7-3-5-2-9.5 0-15.3 3 6 3 14.7 8 18.7 1-4.3 0-10.8 4.7-11.4v2c-1.6 6.5-.2 15.8-.7 23.4-6 0-6.6 3.7-13.3 2-7.5 3.4-14.7 7-22 10.7.7 4 4.8 4.6 5.3 8.7-5.2 3.8-2.5 14.3-4.6 19.5-5-4.7-5.2-13-12-14.6-9.2-2.3-15.5 5.2-23.4 7.2.4 9.8 8.7 19-2.4 22.4l1-2.4c1.6-2.3 0-.3-1.8-2.4 1.2-.4 3-.3 3.7-1.8.2-1.3.6-2-.7-3.3-2.6-3-8.2 1.8-9.5 1.5-.5-4.5 5-3.3 6-6.6 1.3 0-1-1.6 0-3.3-3 .8-2 5-5.6 5 0-2 1.5-2 1.4-4-1.7-.4-1.6 1-3.5.6 1-2 4.4-1.6 3.5-5.4-1.4-1-4.5 0-5.5-1.3 2.2-1 4-2.4 7.4-2v-4C37 91 30 88 22.2 88l-.6-.5C20.3 84 17.4 82.3 13 82l-.7-.5C10 76 2.7 71 1.3 68.5.3 66 0 63.7 0 62c0-.3.5-.5 1-.3l.8.7c7.7 5 21.4 8.3 30.2 7.3 1-2.5-2-1.3-1.4-3.3 4.8-1.5 9-3.4 12.7-6-10-5-14-16.4-14.7-30.7C20.6 17.7 2 1.2 3.3.4zm44.7 94l2.6-2c-.5-.2-.7-.6-.6-1.3h-2.7c.4 1-.8 3.8.7 3.7z" />
  </symbol>
  <symbol id="svg--codepen" viewbox="0 0 41 40">
    <title>CodePen</title>
    <path d="M39.5 13.8v-.5c-.2 0-.2 0-.2-.2h-.5l-18-12h-2L.8 13H.5v.2H0v.5l-.2.3v13H0v.2h.2v.2h.2v.2H1l18 12c.3.3.6.4 1 .4s.6 0 1-.3l18-12c0-.2 0-.2.2-.2s0 0 0-.2h.4V14zM21.5 5l13.3 9-6 4-7.3-5V5zM18 5v8l-7.3 5-6-4L18 5zM3.5 17.3l4 2.7-4 2.8v-5.6zM18 35L5 26l6-4 7.3 5v8zm2-11l-6-4 6-4 6 4-6 4zm1.7 11v-8l7.3-5 6 4-13.3 9zM36 22.7L32 20l4-2.8v5.6z" />
  </symbol>
  <symbol id="svg--github" viewbox="0 0 16 16">
    <title>GitHub</title>
    <path d="M8 0C3.58 0 0 3.58 0 8c0 3.54 2.29 6.53 5.47 7.59.4.07.55-.17.55-.38 0-.19-.01-.82-.01-1.49-2.01.37-2.53-.49-2.69-.94-.09-.23-.48-.94-.82-1.13-.28-.15-.68-.52-.01-.53.63-.01 1.08.58 1.23.82.72 1.21 1.87.87 2.33.66.07-.52.28-.87.51-1.07-1.78-.2-3.64-.89-3.64-3.95 0-.87.31-1.59.82-2.15-.08-.2-.36-1.02.08-2.12 0 0 .67-.21 2.2.82.64-.18 1.32-.27 2-.27.68 0 1.36.09 2 .27 1.53-1.04 2.2-.82 2.2-.82.44 1.1.16 1.92.08 2.12.51.56.82 1.27.82 2.15 0 3.07-1.87 3.75-3.65 3.95.29.25.54.73.54 1.48 0 1.07-.01 1.93-.01 2.2 0 .21.15.46.55.38A8.013 8.013 0 0 0 16 8c0-4.42-3.58-8-8-8z" />
  </symbol>
  <symbol id="svg--rss" viewbox="0 0 31 40">
    <title>RSS</title>
    <path d="M0 4.8q12.56 0 21.48 8.92t8.92 21.48h-4.72q0-10.64-7.52-18.12t-18.16-7.48v-4.8zM0 14.32q8.72 0 14.84 6.12t6.12 14.76h-4.72q0-6.64-4.76-11.4t-11.48-4.76v-4.72zM4.56 26.16q1.84 0 3.2 1.32t1.36 3.24q0 1.84-1.36 3.16t-3.2 1.32-3.2-1.32-1.36-3.16q0-1.92 1.36-3.24t3.2-1.32z" />
  </symbol>
  <symbol id="svg--linkedin" viewbox="0 0 24 24">
    <title>LinkedIn</title>
    <path d="M20.5 2h-17A1.5 1.5 0 002 3.5v17A1.5 1.5 0 003.5 22h17a1.5 1.5 0 001.5-1.5v-17A1.5 1.5 0 0020.5 2zM8 19H5v-9h3zM6.5 8.25A1.75 1.75 0 118.3 6.5a1.78 1.78 0 01-1.8 1.75zM19 19h-3v-4.74c0-1.42-.6-1.93-1.38-1.93A1.74 1.74 0 0013 14.19a.66.66 0 000 .14V19h-3v-9h2.9v1.3a3.11 3.11 0 012.7-1.4c1.55 0 3.36.86 3.36 3.66z" />
  </symbol>
  <symbol id="svg--mastodon" viewbox="0 0 32 32">
    <title>Mastodon</title>
    <path d="M30.924 10.505c0-6.941-4.548-8.976-4.548-8.976-2.293-1.053-6.232-1.496-10.321-1.529h-0.101c-4.091 0.033-8.027 0.476-10.32 1.529 0 0-4.548 2.035-4.548 8.976 0 1.589-0.031 3.491 0.020 5.505 0.165 6.789 1.245 13.479 7.521 15.14 2.893 0.765 5.379 0.927 7.38 0.816 3.629-0.2 5.667-1.296 5.667-1.296l-0.12-2.633c0 0-2.593 0.817-5.505 0.719-2.887-0.099-5.932-0.311-6.399-3.855-0.041-0.29-0.064-0.626-0.064-0.967 0-0.009 0-0.018 0-0.028v0.001c0 0 2.833 0.693 6.423 0.857 2.195 0.1 4.253-0.129 6.344-0.377 4.009-0.479 7.5-2.949 7.939-5.207 0.689-3.553 0.633-8.676 0.633-8.676zM25.559 19.451h-3.329v-8.159c0-1.72-0.724-2.592-2.171-2.592-1.6 0-2.403 1.035-2.403 3.083v4.465h-3.311v-4.467c0-2.048-0.803-3.083-2.403-3.083-1.447 0-2.171 0.873-2.171 2.592v8.159h-3.329v-8.404c0-1.719 0.437-3.084 1.316-4.093 0.907-1.011 2.092-1.528 3.565-1.528 1.704 0 2.995 0.655 3.848 1.965l0.828 1.391 0.829-1.391c0.853-1.311 2.144-1.965 3.848-1.965 1.472 0 2.659 0.517 3.565 1.528 0.877 1.009 1.315 2.375 1.315 4.093z" />
  </symbol>
  <symbol id="svg--search" viewbox="0 0 40 40">
    <title>Search</title>
    <path d="M35.090 30.934l-7.558-7.558c1.14-1.87 1.796-4.070 1.796-6.42 0-6.834-5.922-12.754-12.756-12.754-6.834-0.002-12.372 5.538-12.372 12.372 0 6.832 5.922 12.754 12.754 12.754 2.274 0 4.4-0.618 6.23-1.688l7.598 7.602c0.744 0.742 1.95 0.742 2.692 0l1.886-1.886c0.742-0.742 0.472-1.68-0.27-2.422zM8.008 16.574c0-4.732 3.834-8.566 8.564-8.566 4.732 0 8.948 4.214 8.948 8.948 0 4.73-3.836 8.566-8.566 8.566-4.732-0.002-8.946-4.218-8.946-8.948z" />
  </symbol>
  <symbol id="svg--edit" viewbox="0 0 32 32">
    <title>Edit</title>
    <path d="M27 0c2.761 0 5 2.239 5 5 0 1.126-0.372 2.164-1 3l-2 2-7-7 2-2c0.836-0.628 1.874-1 3-1zM2 23l-2 9 9-2 18.5-18.5-7-7-18.5 18.5zM22.362 11.362l-14 14-1.724-1.724 14-14 1.724 1.724z" />
  </symbol>
  <symbol id="svg--share" viewbox="0 0 32 32">
    <title>Share</title>
    <path d="M27 22c-1.411 0-2.685 0.586-3.594 1.526l-13.469-6.734c0.041-0.258 0.063-0.522 0.063-0.791s-0.022-0.534-0.063-0.791l13.469-6.734c0.909 0.94 2.183 1.526 3.594 1.526 2.761 0 5-2.239 5-5s-2.239-5-5-5-5 2.239-5 5c0 0.269 0.022 0.534 0.063 0.791l-13.469 6.734c-0.909-0.94-2.183-1.526-3.594-1.526-2.761 0-5 2.239-5 5s2.239 5 5 5c1.411 0 2.685-0.586 3.594-1.526l13.469 6.734c-0.041 0.258-0.063 0.522-0.063 0.791 0 2.761 2.239 5 5 5s5-2.239 5-5c0-2.761-2.239-5-5-5z" />
  </symbol>
  <symbol id="svg--hamburger" viewbox="0 0 20 20">
    <title>Hamburger</title>
    <path d="M0 3h20v2h-20v-2zM0 9h20v2h-20v-2zM0 15h20v2h-20v-2z"></path>
  </symbol>
  <symbol id="svg--cog" viewbox="0 0 32 32">
    <title>Settings Cog</title>
    <path d="M29.181 19.070c-1.679-2.908-0.669-6.634 2.255-8.328l-3.145-5.447c-0.898 0.527-1.943 0.829-3.058 0.829-3.361 0-6.085-2.742-6.085-6.125h-6.289c0.008 1.044-0.252 2.103-0.811 3.070-1.679 2.908-5.411 3.897-8.339 2.211l-3.144 5.447c0.905 0.515 1.689 1.268 2.246 2.234 1.676 2.903 0.672 6.623-2.241 8.319l3.145 5.447c0.895-0.522 1.935-0.82 3.044-0.82 3.35 0 6.067 2.725 6.084 6.092h6.289c-0.003-1.034 0.259-2.080 0.811-3.038 1.676-2.903 5.399-3.894 8.325-2.219l3.145-5.447c-0.899-0.515-1.678-1.266-2.232-2.226zM16 22.479c-3.578 0-6.479-2.901-6.479-6.479s2.901-6.479 6.479-6.479c3.578 0 6.479 2.901 6.479 6.479s-2.901 6.479-6.479 6.479z"></path>
  </symbol>
</svg>
