<?xml version="1.0" encoding="utf-8"?>
<svg class="sprites" version="1.1" xmlns="http://www.w3.org/2000/svg">
  <symbol id="svg--raven" viewbox="0 0 123 123">
    <title>Raven</title>
    <path d="M3.3.4c1.2-1 4 0 6 0 14.5 5.3 23.5 16 38 21.3 4.5 10.2 8 21.4 13.3 30.7 7-.7 12 .5 17.4-1.3 2.3-1.2-3-2.2-.7-4 4 1.8 9 2 12.7 3.7-.3-3-3.5-3.2-4-6 8.3-1.5 9.5 4.2 14.7 6-.7-3.4-4.8-8.8-1.4-12 3.8 1.7 4.7 6.5 8 8.7-3-5-2-9.5 0-15.3 3 6 3 14.7 8 18.7 1-4.3 0-10.8 4.7-11.4v2c-1.6 6.5-.2 15.8-.7 23.4-6 0-6.6 3.7-13.3 2-7.5 3.4-14.7 7-22 10.7.7 4 4.8 4.6 5.3 8.7-5.2 3.8-2.5 14.3-4.6 19.5-5-4.7-5.2-13-12-14.6-9.2-2.3-15.5 5.2-23.4 7.2.4 9.8 8.7 19-2.4 22.4l1-2.4c1.6-2.3 0-.3-1.8-2.4 1.2-.4 3-.3 3.7-1.8.2-1.3.6-2-.7-3.3-2.6-3-8.2 1.8-9.5 1.5-.5-4.5 5-3.3 6-6.6 1.3 0-1-1.6 0-3.3-3 .8-2 5-5.6 5 0-2 1.5-2 1.4-4-1.7-.4-1.6 1-3.5.6 1-2 4.4-1.6 3.5-5.4-1.4-1-4.5 0-5.5-1.3 2.2-1 4-2.4 7.4-2v-4C37 91 30 88 22.2 88l-.6-.5C20.3 84 17.4 82.3 13 82l-.7-.5C10 76 2.7 71 1.3 68.5.3 66 0 63.7 0 62c0-.3.5-.5 1-.3l.8.7c7.7 5 21.4 8.3 30.2 7.3 1-2.5-2-1.3-1.4-3.3 4.8-1.5 9-3.4 12.7-6-10-5-14-16.4-14.7-30.7C20.6 17.7 2 1.2 3.3.4zm44.7 94l2.6-2c-.5-.2-.7-.6-.6-1.3h-2.7c.4 1-.8 3.8.7 3.7z" />
  </symbol>
  <symbol id="svg--codepen" viewbox="0 0 41 40">
    <title>CodePen</title>
    <path d="M39.5 13.8v-.5c-.2 0-.2 0-.2-.2h-.5l-18-12h-2L.8 13H.5v.2H0v.5l-.2.3v13H0v.2h.2v.2h.2v.2H1l18 12c.3.3.6.4 1 .4s.6 0 1-.3l18-12c0-.2 0-.2.2-.2s0 0 0-.2h.4V14zM21.5 5l13.3 9-6 4-7.3-5V5zM18 5v8l-7.3 5-6-4L18 5zM3.5 17.3l4 2.7-4 2.8v-5.6zM18 35L5 26l6-4 7.3 5v8zm2-11l-6-4 6-4 6 4-6 4zm1.7 11v-8l7.3-5 6 4-13.3 9zM36 22.7L32 20l4-2.8v5.6z" />
  </symbol>
  <symbol id="svg--discord" viewbox="71.87 112 368.27 282">
    <title>Discord</title>
    <path id="discord-path" fill="#5865f2" d="M257 129q-26 0-42 3l-10-20q-39 6-77 24-67 102-54 211 41 31 93 47 12-16 20-32-24-10-31-16l7-5q49 21 95 21zm-62 175a34 37 0 111 0" />
    <use href="#discord-path" transform="matrix(-1 0 0 1 512 0)"></use>
  </symbol>
  <symbol id="svg--edit" viewbox="0 0 32 32">
    <title>Edit</title>
    <path d="M27 0c2.761 0 5 2.239 5 5 0 1.126-0.372 2.164-1 3l-2 2-7-7 2-2c0.836-0.628 1.874-1 3-1zM2 23l-2 9 9-2 18.5-18.5-7-7-18.5 18.5zM22.362 11.362l-14 14-1.724-1.724 14-14 1.724 1.724z" />
  </symbol>
  <symbol id="svg--github" viewbox="0 0 16 16">
    <title>GitHub</title>
    <path d="M8 0C3.58 0 0 3.58 0 8c0 3.54 2.29 6.53 5.47 7.59.4.07.55-.17.55-.38 0-.19-.01-.82-.01-1.49-2.01.37-2.53-.49-2.69-.94-.09-.23-.48-.94-.82-1.13-.28-.15-.68-.52-.01-.53.63-.01 1.08.58 1.23.82.72 1.21 1.87.87 2.33.66.07-.52.28-.87.51-1.07-1.78-.2-3.64-.89-3.64-3.95 0-.87.31-1.59.82-2.15-.08-.2-.36-1.02.08-2.12 0 0 .67-.21 2.2.82.64-.18 1.32-.27 2-.27.68 0 1.36.09 2 .27 1.53-1.04 2.2-.82 2.2-.82.44 1.1.16 1.92.08 2.12.51.56.82 1.27.82 2.15 0 3.07-1.87 3.75-3.65 3.95.29.25.54.73.54 1.48 0 1.07-.01 1.93-.01 2.2 0 .21.15.46.55.38A8.013 8.013 0 0 0 16 8c0-4.42-3.58-8-8-8z" />
  </symbol>
  <symbol id="svg--hamburger" viewbox="0 0 20 20">
    <title>Hamburger</title>
    <path d="M0 3h20v2h-20v-2zM0 9h20v2h-20v-2zM0 15h20v2h-20v-2z"></path>
  </symbol>
  <symbol id="svg--linkedin" viewbox="0 0 512 512">
    <title>LinkedIn</title>
    <path d="m0 0H512V512H0" fill="#0077b5" />
    <circle cx="142" cy="138" r="37" fill="#f9f9f9" />
    <path stroke="#f9f9f9" stroke-width="66" d="M244 194v198M142 194v198" />
    <path fill="#f9f9f9" d="M276 282c0-20 13-40 36-40 24 0 33 18 33 45v105h66V279c0-61-32-89-76-89-34 0-51 19-59 32" />
  </symbol>
  <symbol id="svg--mastodon" viewbox="96.12 85 319.9 341.63">
    <title>Mastodon</title>
    <linearGradient id="mastodon-gradient" y2="1">
      <stop offset="0" stop-color="#6364ff" />
      <stop offset="1" stop-color="#563acc" />
    </linearGradient>
    <path fill="url(#mastodon-gradient)" d="M317 381q-124 28-123-39 69 15 149 2 67-13 72-80 3-101-3-116-19-49-72-58-98-10-162 0-56 10-75 58-12 31-3 147 3 32 9 53 13 46 70 69 83 23 138-9" />
    <path fill="#f9f9f9" d="M360 293h-36v-93q-1-26-29-23-20 3-20 34v47h-36v-47q0-31-20-34-30-3-30 28v88h-36v-91q1-51 44-60 33-5 51 21l9 15 9-15q16-26 51-21 43 9 43 60" />
  </symbol>
  <symbol id="svg--npm" viewbox="0 0 32 32">
    <title>npm</title>
    <path fill="#ba271a" d="M0 0v32h32v-32h-32zM26 26h-4v-16h-6v16h-10v-20h20v20z" />
  </symbol>
  <symbol id="svg--rss" viewbox="0 0 31 40">
    <title>RSS</title>
    <path fill="#ff8c01" d="M0 4.8q12.56 0 21.48 8.92t8.92 21.48h-4.72q0-10.64-7.52-18.12t-18.16-7.48v-4.8zM0 14.32q8.72 0 14.84 6.12t6.12 14.76h-4.72q0-6.64-4.76-11.4t-11.48-4.76v-4.72zM4.56 26.16q1.84 0 3.2 1.32t1.36 3.24q0 1.84-1.36 3.16t-3.2 1.32-3.2-1.32-1.36-3.16q0-1.92 1.36-3.24t3.2-1.32z" />
  </symbol>
  <symbol id="svg--search" viewbox="0 0 40 40">
    <title>Search</title>
    <path d="M35.090 30.934l-7.558-7.558c1.14-1.87 1.796-4.070 1.796-6.42 0-6.834-5.922-12.754-12.756-12.754-6.834-0.002-12.372 5.538-12.372 12.372 0 6.832 5.922 12.754 12.754 12.754 2.274 0 4.4-0.618 6.23-1.688l7.598 7.602c0.744 0.742 1.95 0.742 2.692 0l1.886-1.886c0.742-0.742 0.472-1.68-0.27-2.422zM8.008 16.574c0-4.732 3.834-8.566 8.564-8.566 4.732 0 8.948 4.214 8.948 8.948 0 4.73-3.836 8.566-8.566 8.566-4.732-0.002-8.946-4.218-8.946-8.948z" />
  </symbol>
  <symbol id="svg--settings" viewbox="0 0 32 32">
    <title>Settings</title>
    <path d="M29.181 19.070c-1.679-2.908-0.669-6.634 2.255-8.328l-3.145-5.447c-0.898 0.527-1.943 0.829-3.058 0.829-3.361 0-6.085-2.742-6.085-6.125h-6.289c0.008 1.044-0.252 2.103-0.811 3.070-1.679 2.908-5.411 3.897-8.339 2.211l-3.144 5.447c0.905 0.515 1.689 1.268 2.246 2.234 1.676 2.903 0.672 6.623-2.241 8.319l3.145 5.447c0.895-0.522 1.935-0.82 3.044-0.82 3.35 0 6.067 2.725 6.084 6.092h6.289c-0.003-1.034 0.259-2.080 0.811-3.038 1.676-2.903 5.399-3.894 8.325-2.219l3.145-5.447c-0.899-0.515-1.678-1.266-2.232-2.226zM16 22.479c-3.578 0-6.479-2.901-6.479-6.479s2.901-6.479 6.479-6.479c3.578 0 6.479 2.901 6.479 6.479s-2.901 6.479-6.479 6.479z"></path>
  </symbol>
  <symbol id="svg--share" viewbox="0 0 32 32">
    <title>Share</title>
    <path d="M27 22c-1.411 0-2.685 0.586-3.594 1.526l-13.469-6.734c0.041-0.258 0.063-0.522 0.063-0.791s-0.022-0.534-0.063-0.791l13.469-6.734c0.909 0.94 2.183 1.526 3.594 1.526 2.761 0 5-2.239 5-5s-2.239-5-5-5-5 2.239-5 5c0 0.269 0.022 0.534 0.063 0.791l-13.469 6.734c-0.909-0.94-2.183-1.526-3.594-1.526-2.761 0-5 2.239-5 5s2.239 5 5 5c1.411 0 2.685-0.586 3.594-1.526l13.469 6.734c-0.041 0.258-0.063 0.522-0.063 0.791 0 2.761 2.239 5 5 5s5-2.239 5-5c0-2.761-2.239-5-5-5z" />
  </symbol>
  <symbol id="svg--xmpp" viewbox="40 108 432 314">
    <title>XMPP</title>
    <linearGradient id="xmpp-gradient" x2="0" y2="1">
      <stop offset="0" stop-color="#002b5c" />
      <stop offset=".57" stop-color="#13b5ea" />
      <stop offset="1" stop-color="#1a4e7d" />
    </linearGradient>
    <g fill="#e96d1f" color="#d9541e">
      <g id="xmpp-group">
        <path fill="url(#xmpp-gradient)" d="m400 136q0 181-163 263c131-55 233-182 235-291" />
        <path d="m337 155c5 95-71 232-187 261v4s217-9 247-283" />
        <path fill="currentColor" d="m392.2 138.4c5 98-85 249-215.2 272.4q-9 3-27 7.2v4c156-12 274-173 261-290.3" />
      </g>
    </g>
    <use xlink:href="#xmpp-group" transform="matrix(-1 0 0 1 512 0)" fill="#a0ce67" color="#439639"></use>
  </symbol>
</svg>
