<?xml version="1.0" encoding="utf-8"?>
<svg xmlns="http://www.w3.org/2000/svg" xmlns:xlink="http://www.w3.org/1999/xlink" preserveAspectRatio="xMidYMid meet" width="200" height="200" viewbox="0 0 200 200">
	<g style="transform: translate(5.9085px)">
		<path d="M175.25,116.21l-2.1.28a50.18,50.18,0,0,0-6.34,13.38,11.33,11.33,0,0,0,2,1.08,95.34,95.34,0,0,1,6.48-14.75m7.55,15.43c1.5-3.91,5.34-13,6.75-15.32a19.57,19.57,0,0,0-3.92-.39c-2.22,3.8-6.41,13.27-7.43,15.82,1.47.06,2.89-.11,4.59-.11m-8.5.17a112.15,112.15,0,0,1,7.42-16s-2.38,0-3.29.12a107.26,107.26,0,0,0-7.54,15.77s.8.43,3.38.13M293,380.48c6.07,2.72,10.1,15.88-3.18,21.86,6.77-17.13-19.53-32.86-46.85-16.39.9-1.12,1.83-2.21,2.69-3.35,28.49-18.19,75.27,2.25,93.28-24.35,1.08,6.91-5.44,16.56-19.51,19.22,14.8,1.82,22.29,9,32.33,11-9.86.34-34.37-12.42-58.76-8m-93.29,30.22c-47.88-29.64-69-92.6-71.81-162.83,6-.59,19.49-1.84,35-2.74.2,37.41,3.9,83.73,22.15,132.07-1.8-27-4.38-81.46-3.77-132.89,6.14-.18,12.25-.27,18.06-.18l.35-.26.34.26c27.14-.38,61,2.71,71.47,3.74-2.79,70.23-23.94,133.19-71.79,162.83m-89.51-7.89c-13.28-6-9.25-19.14-3.18-21.87-24.39-4.42-48.89,8.33-58.77,8,10-2,17.53-9.2,32.34-11C66.54,375.26,60,365.62,61.1,358.69c17.9,26.44,64.22,6.42,92.75,24,.88,1.15,1.83,2.25,2.73,3.39-27.14-16-53.09-.37-46.36,16.67m18.2-198.51c8.65-1.35,21.64-2.79,35.37-3.8-.21,7.87-.51,16.69-.7,26.33-13.59.94-25.86,2.16-35.5,3.14q.06-12.75.83-25.67m16.31-27.89c5.75-6.54,18.79-12.44,25.22-18.86a56.09,56.09,0,0,1,3.58,16.86c-2.38,3.06-10.55,5.11-13.28,9.64a35.23,35.23,0,0,0-.65,6.61l-5,.4c3.22-5.36-.87-9.94-6.27-11.43.68,5.44-1.93,8.27-3.74,8.62-3.92-1.08-3.09-8.16.14-11.83m20.17-32.53c-3.58-1.07-6.13-7-4.65-10.78.8-.78,2.07-.91,3.29-2,2.16-2,1.87-11.51,12.25-20.53,7.6-1.7,18.49-2.27,24.45-1.31.66.42,7.73,3.16,9.24,26.27a91.64,91.64,0,0,0,15.32-3c-10.66,8.85-57.57,12-59.9,11.34m7.94-46.65a24.5,24.5,0,0,1,10.8-.17c2-.68,7.49-1.28,10.72-.17,4.94-1.2,11.13-.72,13.59.2,3-1.37,8.77-.71,11.26.14,8.84-2.13,13.41,2.18,13.41,5,0,2-.61,2.52-1.64,3.08-3.61,2-2.59-3.54-10.27-5.3,3.34,1.68,3.6,5.42,7.34,6.18-12.5,2-10-7.83-19-7.83,3.85,1.13,4.45,5.85,8.2,7.65-12.8,1.28-11.69-8.17-21.11-7.94,4.66,1.36,5,6.1,10,7.69-13.62,1.86-11.37-8.38-21.47-7.63,4.76,2.1,5.64,6.18,10.15,7.29-12.65,3.37-12.28-7.15-20.59-6.3,3.74.94,5.36,5.22,8.42,6.46-7.14,2.64-6.89-3.32-13-3.24,2.38.94,3.29,2.84,5.5,4-11.88,1.76-10.35-9.9-2.27-9M221,123.35a2.81,2.81,0,1,1-2.9,2.81,2.85,2.85,0,0,1,2.89-2.81h0m14.35,55.47c-4.31-.23-4.82.62-7.2,1.19-6-9-6.64-25-1.2-34.77-.45,12,1.37,29.16,8.4,33.58m19.39-2.4c3.24,3.68,4.07,10.77.15,11.85-1.82-.34-4.42-3.18-3.74-8.63a12.47,12.47,0,0,0-4.75,2.46,9.75,9.75,0,0,0-6.48-2.91c-5-5.38-7-12.18-7.47-19,6.89,5.45,17.32,10.63,22.29,16.27m-11,10.52a7,7,0,0,0,1,4q-7.31-.61-14.12-1a23.26,23.26,0,0,1,13.06-3m-22.91-10.1c-5.75-4.56-10.38-20.83-4.77-32.79,1.2-3.24,5.11-5.28,4.66-2.61-3.18,10.21-2.83,26.32.11,35.39M173.16,195.7c5.28-10,6.47-23.65-.68-42.89,5.44,5.1,8.67,18.38,9.18,24.85,1.76-2.5,2.5-10.44,1.82-15.72,4.19,16.67,1,39.82-3.07,43.45-2.67-1.36-4.76-4.42-6.47-7a27.19,27.19,0,0,0,5.33,9.92c26.54-9,45.83-30.57,61-24.9-8.4.45-14.63,4.31-20.42,9.76-9-1.37-15.77,15.65-43.79,24.1-3.51-2.21-7.35-13.5-8.73-17.47s-2.71-4.89-4.59-4.94a20.15,20.15,0,0,1,.68-10s2.1-2.21,7.77-4.25a51.09,51.09,0,0,0,1.93,15.15M271,204.43q.78,12.91.83,25.67c-17.8-1.82-44.66-4.46-72.13-4.57-6.07,0-12.11.18-18,.41,0-2.14.13-4.26.2-6.38,15-5,26.6-15.59,33.71-20a524.27,524.27,0,0,1,55.42,4.9m-160.08-8.12V218c-1-3.47-3.45-7.22-8.13-11.1-4.54,21.94-28.66,22-40,8.38,4.32-17.17,25.61-26.71,46.71-31.87.54,5.7,2.56,9.67,5.42,12.38l-4,.6M96.36,238c3.85-.34,12.49-5.46,14.62-13.06.08,11.08.28,21.61.8,32.21-2.45-6.54-7.11-13.16-15.42-19.15m193.54-54.6c21.11,5.16,42.38,14.7,46.72,31.87-11.36,13.57-35.47,13.55-40-8.39-4.68,3.89-7.15,7.63-8.13,11.1V196.34l-4-.59c2.84-2.69,4.82-6.66,5.36-12.31m-2.27,73.83c.53-10.59.72-21.13.8-32.21,2.14,7.59,10.78,12.72,14.63,13.06-8.32,6-13,12.61-15.43,19.15M364,386.37a23.29,23.29,0,0,0,8.85-16.28c-15.66,13.62-38,7.32-38,7.32s26.09-8.68,4.65-38c1.36,26.89-27.11,30.31-48.67,30.3-15.57,0-30,1.74-40.16,6.12,18.11-25.74,29.61-54,32.73-75.32,1.09-7.48,1.94-14.59,2.61-21.49l.11.69c2,11.1,6.24,16,25,23.81s17.62,20.12,7.88,27.66c14.52,4.14,24.71-17.82,9.1-37.61,1.53-1.28,8.25-10.64-.77-22-4.65,8.49-15,11.41-21.67,10,13.84,6.57,20.65-2.61,21.78-4.08,3.74,8.84-1,16-5.44,16.11,7.72,5.9,13,12.86,11.21,23.94-1.39-8.08-19.77-14.9-29.36-20.43C296.4,292.8,292,281,302.59,275s21.09-10.75,29.21-19c1.36,5.68,7,18.61,28.25,24.84-24-35.5,9.18-37.1-7.15-69.54-2.72,30.85-45.61,38.12-45.61,38.12C343,235.07,354.38,214,347.8,193.2c-4.38-13.81-17.65-27.51-46.41-36.86,5.68-1.13,9.65-2.67,12.59-5.33-17,4-21.84,3.4-29.16,2.38,35.18,9.74,53.36,21.81,57,38.12,1.77,8,.45,14.88-2.63,20.23-6.36-21.37-39.74-30.34-51.94-32.71,0,6.91-2.89,11.25-6.94,13.86l-21.58-3.46a12.51,12.51,0,0,0,2.42-11.09c-1.7-7-8.77-15.73-28.61-29.51.13-1.7.3-3.35.46-4.94,8.81,7,25.83,16,41,20.14-12.07-5.17-31.13-14.87-40.58-24.47,0-.36.08-.73.1-1.08.11-1.17.18-2.35.25-3.52,17.39,13.14,32.38,16.13,37.84,16.13-8.48-2.31-41.72-17.62-57.69-42.6,3.48.1,7,.23,10.35.36a93.22,93.22,0,0,0,23,24,71.89,71.89,0,0,1-16.77-24.16h-.14a6.33,6.33,0,0,0,5.25-6.24c0-2.68-1.3-8.61-16.17-7.79h-.71a59.88,59.88,0,0,0-16-2.73c-.68-4.26-4.09-6.3-5.79,0A93.65,93.65,0,0,0,183,94.42c-3.35-.3-7.46-.28-10.26.63-6.49.41-9,3.77-9.14,7.1a6.48,6.48,0,0,0,6.2,6.71c-2.19,3.41-10.63,16.31-17.83,24.09,5-3.07,11.47-9.42,11.47-9.42l.62-1c-.75,2.5-1.38,4.73-2,6.18a11.62,11.62,0,0,1-3.55,2c-.28.14-2.09.93-2.21,2.26v.53c-10.5,11.87-50,30.44-66.27,38.15,17.89-7.51,41.11-14.51,66.35-33.24a15.14,15.14,0,0,0,.9,3.6c-9.08,9.1-22.55,16.52-30.82,22.44,12.75-5.13,24.66-13.88,32.66-19.26a6.43,6.43,0,0,0,1.6,1.34,18.62,18.62,0,0,0,3,.45,15,15,0,0,1,2.11,2.48c-19,13.35-25.91,21.86-27.57,28.77a12.47,12.47,0,0,0,2.55,11.26l-21.46,3.26c-4.16-2.6-7.1-7-7.13-14-12.19,2.38-45.58,11.35-51.94,32.71-3.08-5.36-4.4-12.2-2.63-20.23,3.59-16.31,21.77-28.36,57-38.12-7.32,1-12.14,1.58-29.16-2.38,3,2.67,6.92,4.2,12.59,5.33-28.75,9.36-42,23.06-46.4,36.87-6.59,20.83,4.77,41.87,40.5,56.16,0,0-42.88-7.26-45.6-38.12-16.34,32.45,16.79,34-7.15,69.55,21.21-6.25,26.88-19.18,28.25-24.84,8.11,8.27,18.59,13,29.2,19s6.2,17.86-1.29,22.16c-9.58,5.52-29,13-29.28,20.76-2-11.12,3.41-18.37,11.12-24.28-4.48,0-9.19-7.25-5.45-16.1,1.13,1.47,7.94,10.66,21.78,4.07-6.69,1.42-17-1.5-21.67-10-9,11.4-2.3,20.76-.77,22-2.62,3.5-12.82,17.66-4.89,31.76,1.77,3.13,6.9,8.14,13.94,5.87-9.53-7.49-10.78-19.86,8-27.68s22.91-12.71,25-23.83l.11-.65c.67,6.93,1.52,14,2.61,21.54,3.13,21.35,14.71,49.77,32.93,75.59-10.19-4.25-24.38-6-39.73-5.94-21.56,0-50-3.41-48.67-30.29-21.44,29.28,4.65,38,4.65,38s-22.35,6.29-38-7.32A23.34,23.34,0,0,0,36,386.69c-2,.23-24.17,3.11-36-15.49C7.5,417.26,77.38,393,88.27,387.48c-4.44,4.19-13.39,15.88-4.54,24,.23-11.53,12.48-17.42,15.66-18,1.47,7.21,7.83,11.69,13.61,13-1.36-7.72-.37-20.34,25.3-19,12.33.67,24.46,8.88,34.66,16.84l.87.69a155,155,0,0,0,25.9,20.07,154.67,154.67,0,0,0,25.66-19.89l1.69-1.32,34.65-16.85c25.67-1.39,26.66,11.23,25.3,18.94,5.79-1.36,12.14-5.84,13.61-13,3.18.63,15.43,6.53,15.65,18,8.85-8.16-.11-19.85-4.53-24,10.88,5.5,80.77,29.78,88.25-16.29-11.79,18.61-33.92,15.72-36,15.49M270.73,141.87c-8.56-1-13.16-2.5-18.92-5.89,16.72,13.11,42.12,16.66,66.12,12.24,10.45-1.93,26.43-1.19,36.07,3.63-3.06-6-19.17-16.9-27.43-18.07,10-16,2.65-27.42,19-37.63-2.89-2.84-12.65-4.65-20,.32-3.35-3.89-9.81-9.59-19.21-10.58-11.21-1.2-19.14,1-26.17,10.77,9.36-10.55,28.65-12.87,40.9-1.3-19.51-9.53-33.24,9.3-34.43,29.72-5.27-6.8-7.94-17.64-7.77-20.87-7,.68-13.33,6.69-13.84,16.56-2.55-3.4-9.53-22.58,3.86-32-3.86-4.54-5.22-9.53-4-12.88,8.68,5.27,21.73,3.8,36,7.2-13.84-8.39-28.79-3.12-39.42-13-2.35,6.3.17,13,3.4,18.21-14.8,16.34-3.91,37.61,3.07,41.52-.85-7.49,1.92-16.41,8.22-19.74,1.42,10.61,10.81,20.61,12.35,23.34.18-5.28,2-26.42,9.53-25.81,4.64.38,8.27,9.19,6.58,15.55-2.29,8.63-8.86,21.54-33.93,18.72m-78.46-11.25c1-2.13,2.93-8.39,4.55-13.28l-3.66-.64c-2.13,5.11-5.59,13.23-6,14.55a51,51,0,0,0,5.1-.63M81.49,148.14c24,4.42,49.39.87,66.12-12.23-5.76,3.38-10.35,4.92-18.93,5.88-25.06,2.83-31.62-10.1-34-18.72-1.7-6.34,1.93-15.16,6.58-15.54,7.56-.6,9.35,20.54,9.53,25.81,1.53-2.72,10.92-12.69,12.36-23.32,6.3,3.33,9.08,12.26,8.22,19.74,7-3.91,17.87-25.19,3.07-41.52,3.23-5.21,5.75-11.91,3.4-18.2-10.64,9.87-25.58,4.59-39.42,13,14.3-3.4,27.34-1.93,36-7.21,1.18,3.36-.18,8.34-4,12.88,13.39,9.41,6.41,28.59,3.86,32-.51-9.87-6.86-15.88-13.84-16.56.17,3.23-2.5,14.06-7.77,20.87C111.52,104.6,97.8,85.76,78.29,95.3c12.25-11.57,31.54-9.25,40.9,1.3-7-9.74-15-12-26.17-10.77-9.4,1-15.86,6.69-19.21,10.59-7.32-5-17.07-3.16-20-.32,16.33,10.21,9,21.61,19,37.63-8.27,1.16-24.37,12.11-27.44,18.07C55,147,71,146.24,81.45,148.17m125.7-12.36c-6.83.65-24.84,2.67-38.12,1.3a12.52,12.52,0,0,1-5.11-4.42,13.41,13.41,0,0,0,2.72,7.32c6.24.91,36-1.82,40.51-4.19m-20.65-85c.91,8.85,5.21,13.61,7.26,12.71s-2.27-17.7,7.5-26.32c-4.54,9.3,0,16.65,1.58,25.41,1.09,5.83-.68,14.53-3.63,16.12S183.32,71,186.5,50.83m-6.24,20.08c2,8.32,9.74,14.27,19.4,15.08,4.71.4,12.93-2.49,14.07-11.12-8.17,3-4.09-4.54,1.59-7.49S226,55.93,220.25,45.71c-1.36,11.23-12.8,16.1-11.51,9.65.9-4.54,14.29-20,4.53-37.89-1.36,5.44-1,10.55-5.45,9.53s-9.64-19.17-1.13-27C197.45,1,191,12,192.17,19.51s4.94,16.85,0,19.74c-2.76,1.62-4.72.4-5.28-1.87-1-4.3.25-12.82-8.34-15.83,5.78,11.57-2.48,32.46,1.7,49.35" fill="#dd0036" transform="scale(0.4704)" />
	</g>
</svg>
