<svg preserveAspectRatio="xMidYMid meet" width="200" height="200" viewBox="0 0 137.335 198.473818" fill="none" xmlns="http://www.w3.org/2000/svg">
	<g style="transform: translate(-46.99875px) scale(4.54)">
		<path fill="black" d="M27.4419 9.66554L27.4546 9.66869C27.462 9.66662 27.4698 9.66554 27.4777 9.66554H27.4419Z"/>
		<path fill="black" d="M24.9181 12.7979C23.078 12.797 21.255 13.1499 19.5478 13.8374L19.4583 13.8733L19.3822 13.9091C19.2687 13.9752 19.1801 14.077 19.1303 14.1987C19.0806 14.3205 19.0725 14.4552 19.1072 14.5821C19.1419 14.7089 19.2176 14.8207 19.3224 14.9C19.4272 14.9793 19.5552 15.0216 19.6866 15.0204C19.7634 15.0212 19.8396 15.0059 19.9103 14.9756C23.1387 13.655 26.7556 13.655 29.984 14.9756C30.1301 15.0352 30.2938 15.0347 30.4395 14.9743C30.5853 14.914 30.7014 14.7985 30.7627 14.653C30.8161 14.5194 30.8202 14.3712 30.7743 14.2348C30.7284 14.0985 30.6354 13.983 30.5121 13.9091L30.4047 13.8912L30.3152 13.8554C28.6009 13.1583 26.7683 12.7993 24.9181 12.7979Z"/>
		<path fill="black" d="M13.0186 22.2751C11.7683 25.2346 11.6637 28.5543 12.7251 31.5869C13.7865 34.6195 15.9378 37.1476 18.7596 38.6783C21.5815 40.2089 24.8715 40.6324 27.9882 39.8662C31.1049 39.0999 33.8249 37.1988 35.6179 34.5336C37.4108 31.8684 38.1481 28.6302 37.686 25.4502C37.224 22.2703 35.5957 19.3766 33.1186 17.3334C30.6416 15.2902 27.4934 14.244 24.2878 14.3988C21.0822 14.5536 18.0491 15.8982 15.7798 18.1705C14.6022 19.3463 13.6643 20.7404 13.0186 22.2751ZM24.8959 14.7604C27.3742 14.7604 29.7968 15.4963 31.8575 16.875C33.9181 18.2536 35.5242 20.2131 36.4726 22.5058C37.421 24.7984 37.6692 27.3211 37.1857 29.755C36.7022 32.1888 35.5088 34.4244 33.7563 36.1791C32.0039 37.9338 29.7712 39.1288 27.3405 39.6129C24.9098 40.097 22.3903 39.8485 20.1006 38.8989C17.8109 37.9493 15.8539 36.3411 14.477 34.2778C13.1001 32.2145 12.3652 29.7887 12.3652 27.3072C12.3652 26.391 12.4642 25.4776 12.6606 24.5828C12.6606 24.5514 12.6606 24.52 12.683 24.4931V24.4618C12.683 24.4214 12.7053 24.3856 12.7143 24.3453C13.3776 21.6115 14.9392 19.1802 17.1484 17.442C19.3576 15.7037 22.0862 14.7593 24.8959 14.7604Z"/>
		<path fill="black" d="M24.2692 42.175C24.3043 42.7447 24.5297 43.286 24.9091 43.712C25.1118 43.5107 25.2727 43.2713 25.3825 43.0075C25.4923 42.7437 25.5488 42.4608 25.5488 42.175C25.5488 41.8892 25.4923 41.6062 25.3825 41.3424C25.2727 41.0786 25.1118 40.8392 24.9091 40.638C24.5309 41.0647 24.3057 41.6056 24.2692 42.175Z"/>
		<path fill="black" d="M22.7565 40.8037C22.2702 41.1122 21.9026 41.5766 21.7137 42.1211C22.2697 42.2499 22.8527 42.1884 23.3696 41.9464C23.8508 41.6414 24.2163 41.1839 24.4078 40.6469C23.8554 40.5124 23.2738 40.5677 22.7565 40.8037Z"/>
		<path fill="black" d="M22.4836 40.4186C21.9533 40.2106 21.3686 40.187 20.8233 40.3514C20.3016 40.583 19.8717 40.9818 19.6016 41.4851C20.1334 41.6931 20.7195 41.7168 21.2663 41.5523C21.7862 41.3197 22.2143 40.921 22.4836 40.4186Z"/>
		<path fill="black" d="M20.6084 39.93C20.1134 39.6478 19.5386 39.539 18.9749 39.6208C18.4252 39.7726 17.9427 40.1057 17.6055 40.5663C18.1002 40.8492 18.6758 40.9565 19.239 40.871C19.7872 40.7184 20.2691 40.3873 20.6084 39.93Z"/>
		<path fill="black" d="M18.8228 39.1729C18.3745 38.8214 17.8214 38.6305 17.252 38.6307C16.6862 38.703 16.1604 38.9615 15.7573 39.3656C16.2075 39.7168 16.7618 39.9076 17.3325 39.9078C17.8973 39.8362 18.4218 39.5775 18.8228 39.1729Z"/>
		<path fill="black" d="M15.6902 37.3982C15.1199 37.386 14.562 37.5659 14.106 37.9091C14.4999 38.3211 15.0194 38.5906 15.5828 38.6753C16.1531 38.6875 16.711 38.5076 17.167 38.1645C16.7739 37.7513 16.254 37.4816 15.6902 37.3982Z"/>
		<path fill="black" d="M15.6633 36.9276C15.3363 36.4629 14.8638 36.1208 14.3207 35.9553C13.7581 35.8606 13.18 35.9568 12.6783 36.2286C13.0065 36.6921 13.4785 37.0339 14.0209 37.201C14.5834 37.2971 15.162 37.2008 15.6633 36.9276Z"/>
		<path fill="black" d="M14.3789 35.4848C14.1195 34.9759 13.6972 34.5689 13.1795 34.3287C12.6383 34.152 12.0534 34.1631 11.5192 34.36C11.777 34.8696 12.1976 35.2781 12.7141 35.5206C13.2576 35.6944 13.8434 35.6818 14.3789 35.4848Z"/>
		<path fill="black" d="M13.3005 33.8717C13.1247 33.3221 12.7682 32.8483 12.2891 32.5274C11.777 32.2762 11.1957 32.2036 10.6377 32.3213C10.8099 32.8678 11.1616 33.34 11.6357 33.6611C12.1512 33.9166 12.7377 33.9908 13.3005 33.8717Z"/>
		<path fill="black" d="M10.8702 31.6717C11.3391 31.9964 11.9033 32.1542 12.4723 32.1198C12.3698 31.5586 12.0832 31.0476 11.6579 30.668C11.189 30.3432 10.6248 30.1854 10.0557 30.2199C10.1583 30.7811 10.4449 31.292 10.8702 31.6717Z"/>
		<path fill="black" d="M11.904 30.2601C11.886 29.6903 11.678 29.143 11.3133 28.7052C10.8948 28.3181 10.3594 28.0817 9.79175 28.0331C9.81305 28.599 10.0225 29.1415 10.387 29.5745C10.8017 29.9668 11.3359 30.2082 11.904 30.2601Z"/>
		<path fill="black" d="M11.6356 28.3421C11.6988 27.7747 11.5712 27.2023 11.2731 26.7155C10.9181 26.2677 10.4233 25.9522 9.86789 25.8193C9.80224 26.3855 9.93001 26.9573 10.2304 27.4415C10.5842 27.8914 11.0793 28.2088 11.6356 28.3421Z"/>
		<path fill="black" d="M11.6045 26.4018C11.7492 25.8492 11.7051 25.2639 11.4792 24.7393C11.1916 24.2476 10.747 23.8672 10.2172 23.6594C10.0724 24.2117 10.1149 24.7964 10.338 25.3219C10.6278 25.8134 11.0737 26.1936 11.6045 26.4018Z"/>
		<path fill="black" d="M11.8728 24.4797C12.0969 23.9561 12.1394 23.3724 11.9936 22.8218C11.7777 22.2931 11.3919 21.8515 10.8972 21.5671C10.6756 22.0914 10.6346 22.6748 10.7808 23.225C10.9941 23.754 11.3787 24.1958 11.8728 24.4797Z"/>
		<path fill="black" d="M12.4186 22.6199C12.7165 22.1331 12.8425 21.5603 12.7766 20.9933C12.6441 20.4396 12.3287 19.947 11.8816 19.5952C11.5834 20.0802 11.4573 20.6517 11.5236 21.2173C11.6565 21.7721 11.9717 22.266 12.4186 22.6199Z"/>
		<path fill="black" d="M13.2287 20.8546C13.5934 20.4168 13.8014 19.8695 13.8194 19.2997C13.765 18.7319 13.5224 18.1987 13.1303 17.7851C12.7623 18.2217 12.5512 18.7691 12.5306 19.34C12.5874 19.9089 12.8333 20.4422 13.2287 20.8546Z"/>
		<path fill="black" d="M15.0949 17.7762C15.1272 17.208 14.9698 16.6452 14.6473 16.1765C14.2221 16.5555 13.9367 17.0669 13.8373 17.6283C13.805 18.1965 13.9625 18.7593 14.2849 19.228C14.7102 18.849 14.9955 18.3375 15.0949 17.7762Z"/>
		<path fill="black" d="M16.5584 16.4498C16.6708 15.8906 16.592 15.3097 16.3346 14.8008C15.8655 15.1221 15.5161 15.5902 15.3411 16.1316C15.2318 16.6914 15.3122 17.2717 15.5694 17.7806C16.038 17.4598 16.3861 16.9914 16.5584 16.4498Z"/>
		<path fill="black" d="M18.2366 15.3562C18.4228 14.8178 18.4228 14.2323 18.2366 13.6938C17.7212 13.9362 17.302 14.3449 17.0462 14.8544C16.86 15.3944 16.86 15.9813 17.0462 16.5213C17.5625 16.278 17.9819 15.8676 18.2366 15.3562Z"/>
		<path fill="black" d="M27.0393 40.8038C26.5224 40.5617 25.9394 40.5002 25.3835 40.629C25.5777 41.1659 25.9444 41.623 26.4262 41.9285C26.9415 42.1705 27.5231 42.2321 28.0776 42.1032C27.8861 41.5662 27.5206 41.1087 27.0393 40.8038Z"/>
		<path fill="black" d="M28.9726 40.3514C28.4232 40.1834 27.8331 40.2071 27.2989 40.4186C27.5665 40.9222 27.9952 41.3214 28.5161 41.5523C29.0614 41.7171 29.6462 41.6934 30.1765 41.4851C29.9122 40.9837 29.4886 40.5848 28.9726 40.3514Z"/>
		<path fill="black" d="M30.821 39.6208C30.2573 39.539 29.6825 39.6478 29.1875 39.93C29.5015 40.413 29.9942 40.7515 30.5573 40.8708C31.1205 40.9901 31.7079 40.8806 32.1904 40.5663C31.852 40.107 31.37 39.7742 30.821 39.6208Z"/>
		<path fill="black" d="M32.5439 38.6307C31.9745 38.6305 31.4215 38.8214 30.9731 39.1729C31.161 39.3877 31.3893 39.5631 31.6451 39.6891C31.9009 39.8151 32.1791 39.8892 32.4636 39.9071C32.7481 39.925 33.0334 39.8864 33.3029 39.7934C33.5725 39.7005 33.821 39.5551 34.0342 39.3656C33.6333 38.961 33.1087 38.7023 32.5439 38.6307Z"/>
		<path fill="black" d="M34.1057 37.3982C33.5418 37.4816 33.022 37.7513 32.6288 38.1645C33.083 38.5079 33.6396 38.6879 34.2086 38.6753C34.7724 38.5919 35.2923 38.3222 35.6854 37.9091C35.2308 37.5666 34.6745 37.3867 34.1057 37.3982Z"/>
		<path fill="black" d="M35.4705 35.9554C34.9274 36.1209 34.4549 36.4631 34.1279 36.9277C34.3699 37.079 34.6393 37.1809 34.9207 37.2277C35.2021 37.2744 35.4899 37.265 35.7677 37.2001C36.0455 37.1351 36.3077 37.0159 36.5393 36.8492C36.7709 36.6825 36.9674 36.4716 37.1174 36.2287C36.6146 35.9552 36.0345 35.859 35.4705 35.9554Z"/>
		<path fill="black" d="M36.6118 34.3287C36.096 34.57 35.6755 34.9769 35.4169 35.4847C35.6782 35.6004 35.9599 35.663 36.2455 35.669C36.5312 35.675 36.8152 35.6243 37.0811 35.5197C37.347 35.4151 37.5896 35.2587 37.7948 35.0597C38 34.8606 38.1638 34.6228 38.2766 34.36C37.7409 34.1631 37.1546 34.152 36.6118 34.3287Z"/>
		<path fill="black" d="M37.5068 32.5498C37.027 32.8709 36.6692 33.3444 36.491 33.8941C36.7675 33.9721 37.0567 33.9945 37.3419 33.9597C37.6271 33.925 37.9026 33.8339 38.1524 33.6918C38.4021 33.5497 38.6212 33.3593 38.797 33.1317C38.9727 32.9041 39.1016 32.6439 39.1761 32.3661C38.6149 32.2373 38.0267 32.302 37.5068 32.5498Z"/>
		<path fill="black" d="M38.1333 30.6634C37.7085 31.0429 37.4233 31.5541 37.3232 32.1153C37.6062 32.1509 37.8933 32.13 38.1681 32.0538C38.4429 31.9777 38.6999 31.8477 38.9242 31.6714C39.1486 31.4951 39.3357 31.2761 39.475 31.0269C39.6142 30.7778 39.7027 30.5034 39.7354 30.2198C39.1668 30.1841 38.6027 30.3403 38.1333 30.6634Z"/>
		<path fill="black" d="M38.4868 28.7052C38.1196 29.1419 37.9099 29.6896 37.8916 30.2601C38.4593 30.2116 38.9946 29.9751 39.4132 29.588C39.7804 29.1513 39.9901 28.6036 40.0084 28.0331C39.4405 28.081 38.905 28.3176 38.4868 28.7052Z"/>
		<path fill="black" d="M38.5406 26.7156C38.2425 27.2024 38.1149 27.7748 38.1781 28.3422C38.4611 28.2972 38.7324 28.1962 38.9761 28.0453C39.2198 27.8943 39.4311 27.6962 39.5977 27.4627C39.7643 27.2292 39.8828 26.9649 39.9464 26.6851C40.01 26.4053 40.0174 26.1156 39.9682 25.8329C39.4072 25.9592 38.9046 26.2699 38.5406 26.7156Z"/>
		<path fill="black" d="M38.3126 24.7393C38.0895 25.2648 38.047 25.8495 38.1918 26.4018C38.7216 26.194 39.1662 25.8136 39.4538 25.3219C39.6797 24.7973 39.7239 24.212 39.5791 23.6594C39.0483 23.8676 38.6024 24.2478 38.3126 24.7393Z"/>
		<path fill="black" d="M37.9185 24.4797C38.4143 24.1966 38.8005 23.7547 39.015 23.225C39.1608 22.6744 39.1183 22.0907 38.8941 21.5671C38.4 21.851 38.0155 22.2928 37.8022 22.8218C37.656 23.372 37.6969 23.9553 37.9185 24.4797Z"/>
		<path fill="black" d="M37.3725 22.6199C37.8181 22.2648 38.133 21.7714 38.2676 21.2173C38.3314 20.6518 38.2054 20.0811 37.9096 19.5952C37.4638 19.9482 37.1487 20.4403 37.0145 20.9933C36.9511 21.5602 37.077 22.1322 37.3725 22.6199Z"/>
		<path fill="black" d="M36.5626 20.8546C36.9547 20.4409 37.1974 19.9077 37.2518 19.34C37.2342 18.7709 37.028 18.2238 36.6655 17.7851C36.2733 18.1987 36.0307 18.7319 35.9763 19.2997C35.9938 19.8688 36.2001 20.4159 36.5626 20.8546Z"/>
		<path fill="black" d="M35.5065 19.228C35.8311 18.7603 35.9888 18.1967 35.954 17.6283C35.8555 17.0677 35.5719 16.5564 35.1485 16.1765C34.8252 16.6447 34.6676 17.2079 34.701 17.7762C34.8011 18.3362 35.0845 18.847 35.5065 19.228Z"/>
		<path fill="black" d="M34.2263 17.7716C34.4847 17.2663 34.5666 16.6889 34.459 16.1315C34.2813 15.5804 33.9214 15.1063 33.4387 14.7872C33.1813 15.2962 33.1025 15.877 33.2149 16.4362C33.3922 16.9827 33.7485 17.4533 34.2263 17.7716Z"/>
		<path fill="black" d="M31.5414 13.6938C31.3566 14.2325 31.3566 14.8175 31.5414 15.3562C31.7975 15.8665 32.2164 16.2766 32.7318 16.5213C32.9166 15.9811 32.9166 15.3946 32.7318 14.8544C32.4746 14.3459 32.0558 13.9376 31.5414 13.6938Z"/>
		<path fill="black" d="M30.7404 31.7254C30.5882 31.3669 30.4316 30.9591 30.4316 30.9591C30.4316 30.9591 29.8364 31.3534 29.5365 31.5327C29.1139 31.7712 28.7306 32.0735 28.3998 32.4289C28.1494 32.7452 27.9389 33.0914 27.7733 33.4595C27.8762 33.4542 27.9792 33.4542 28.0821 33.4595C28.3218 33.4587 28.5612 33.4767 28.7981 33.5133H28.8384H28.9682H29.0129H29.0532C28.9307 34.2293 28.6025 34.8942 28.1089 35.4266C27.8635 35.6743 27.5936 35.8965 27.3034 36.0898C27.1539 36.1914 26.9968 36.2813 26.8335 36.3587H26.659C26.3418 36.3733 26.0317 36.262 25.7962 36.0488C25.5607 35.8356 25.4188 35.5379 25.4014 35.2205V31.098C25.2269 31.098 25.0479 31.098 24.8599 31.098C24.672 31.098 24.493 31.098 24.3184 31.098V35.2608C24.3022 35.5787 24.1607 35.8771 23.9249 36.0905C23.6891 36.3039 23.3783 36.4149 23.0609 36.399H22.8908C22.7352 36.3206 22.5856 36.2307 22.4433 36.1302C22.2208 35.9766 22.0071 35.8106 21.8034 35.6328C21.7435 35.5809 21.6867 35.5255 21.6333 35.467C21.1398 34.935 20.813 34.2697 20.6935 33.5536H20.7338H20.7741H20.9038H20.9441C21.181 33.517 21.4204 33.4991 21.6602 33.4998C21.763 33.4945 21.8661 33.4945 21.9689 33.4998C21.8033 33.1317 21.5929 32.7856 21.3424 32.4692C21.0108 32.1148 20.6276 31.8127 20.2057 31.573C19.9059 31.3938 19.3107 30.9994 19.3107 30.9994C19.3107 30.9994 19.1764 31.3848 19.0242 31.7657C18.7859 32.227 18.6213 32.723 18.5364 33.2354C18.4789 33.6621 18.5047 34.0958 18.6125 34.5125C18.9244 34.301 19.2538 34.1167 19.5971 33.9614H19.6329H19.6687H19.7045H19.7358H19.7671H19.794C19.9447 34.8287 20.2788 35.6537 20.7741 36.3811C20.7833 36.3926 20.7938 36.4032 20.8054 36.4125C20.8637 36.4864 20.928 36.5554 20.9978 36.6186C21.3499 36.9245 21.719 37.2102 22.1032 37.4745C22.6492 37.8553 23.2936 38.2586 23.7814 38.6216C24.156 38.8855 24.5038 39.1857 24.8197 39.5178C25.1379 39.1865 25.4871 38.8864 25.8624 38.6216C26.3502 38.2586 26.9946 37.8553 27.5406 37.4745C27.9248 37.2102 28.2939 36.9245 28.646 36.6186C28.646 36.5917 28.6952 36.5693 28.7221 36.5424C28.7713 36.4931 28.8205 36.4393 28.8653 36.3856L28.9324 36.3004C28.9861 36.2287 29.0353 36.1526 29.0845 36.0719C29.1338 35.9912 29.1472 35.9733 29.1741 35.924C29.2636 35.7582 29.3441 35.588 29.4157 35.4177C29.5007 35.2116 29.5679 35.0054 29.626 34.8172C29.6797 34.6425 29.72 34.4856 29.7514 34.3691C29.7815 34.257 29.8054 34.1433 29.823 34.0286H29.8498H29.8767H29.908H29.9393H29.9706H30.0064H30.0422C30.3849 34.1852 30.7141 34.3695 31.0268 34.5797C31.1346 34.163 31.1604 33.7293 31.1029 33.3027C31.0667 32.7609 30.9443 32.2284 30.7404 31.7254ZM19.8745 33.8135H19.9014H19.8745ZM29.8453 33.8045H29.8811H29.8453ZM29.8946 33.8045H29.9214H29.8946Z"/>
		<path fill="black" d="M24.354 20.7961V23.1487L24.8955 23.4265L25.437 23.1487V20.7961H26.9138L30.8788 20.1643V19.2681H25.437V18.9813C25.8541 18.8516 26.211 18.5765 26.4429 18.2058C26.6748 17.8352 26.7662 17.3936 26.7007 16.9611C26.6352 16.5287 26.417 16.1342 26.0858 15.849C25.7546 15.5639 25.3323 15.4071 24.8955 15.4071C24.4587 15.4071 24.0363 15.5639 23.7051 15.849C23.3739 16.1342 23.1558 16.5287 23.0902 16.9611C23.0247 17.3936 23.1162 17.8352 23.3481 18.2058C23.5799 18.5765 23.9368 18.8516 24.354 18.9813V19.2681H18.9121V20.1643L22.8816 20.7782L24.354 20.7961ZM24.1123 18.009C23.9035 17.7997 23.7862 17.5161 23.7862 17.2203C23.7862 16.9245 23.9035 16.6409 24.1123 16.4317C24.3217 16.225 24.6038 16.1092 24.8977 16.1092C25.1917 16.1092 25.4738 16.225 25.6831 16.4317C25.8062 16.5529 25.8992 16.7012 25.9547 16.8649C26.0103 17.0286 26.0267 17.203 26.0028 17.3742C25.9788 17.5454 25.9152 17.7086 25.817 17.8507C25.7187 17.9929 25.5886 18.11 25.437 18.1927C25.437 18.0489 25.3799 17.911 25.2784 17.8093C25.1768 17.7076 25.0391 17.6505 24.8955 17.6505C24.7519 17.6505 24.6141 17.7076 24.5126 17.8093C24.411 17.911 24.354 18.0489 24.354 18.1927C24.2659 18.1421 24.1847 18.0803 24.1123 18.009Z"/>
		<path fill="black" d="M25.3074 23.6373L25.4372 23.7045L26.7529 24.3856C27.1559 24.1797 27.5697 23.9957 27.9925 23.8344L31.6846 21.7956C32.131 21.5411 32.5587 21.2551 32.9645 20.9397C33.1654 20.7762 33.3567 20.6012 33.5373 20.4154C33.7208 20.2228 33.855 20.0525 33.8595 20.048L34.0564 19.806L33.7432 19.8329C33.7432 19.8329 33.5239 19.8329 33.2643 19.8957C33.0072 19.9411 32.7531 20.0025 32.5035 20.0794C32.0168 20.2397 31.5427 20.4359 31.0849 20.6664L25.4372 23.5701L25.3074 23.6373Z"/>
		<path fill="black" d="M19.0596 30.4212C19.1596 30.422 19.2582 30.3973 19.346 30.3495C19.4658 30.2856 19.5608 30.1834 19.6159 30.0592C19.671 29.935 19.683 29.7959 19.6501 29.664C19.6172 29.5322 19.5412 29.4151 19.4342 29.3315C19.3272 29.2478 19.1954 29.2024 19.0596 29.2024C19.0076 29.1956 18.955 29.1956 18.903 29.2024L18.7822 28.9784L18.7508 28.9201L21.257 27.5355C20.8536 27.4937 20.4559 27.4081 20.071 27.2801C19.7227 27.1648 19.3868 27.0147 19.0686 26.832L18.0706 27.3473L17.9498 27.41L17.8021 27.1322C17.8885 27.0599 17.951 26.963 17.9811 26.8544C18.0037 26.7804 18.0114 26.7028 18.0037 26.6258C17.996 26.5489 17.9731 26.4743 17.9363 26.4063C17.8852 26.3082 17.808 26.2261 17.7132 26.1692C17.6185 26.1123 17.5098 26.0826 17.3993 26.0836C17.2942 26.0836 17.1909 26.1109 17.0995 26.1627C17.008 26.2146 16.9315 26.2893 16.8774 26.3795C16.8234 26.4698 16.7935 26.5725 16.7909 26.6777C16.7882 26.7829 16.8128 26.887 16.8623 26.9798L17.3098 27.8492H17.2472C17.1893 27.8575 17.1333 27.8757 17.0816 27.9029C17.027 27.9344 16.9785 27.9754 16.9384 28.0239C16.9276 28.0411 16.9156 28.0576 16.9026 28.0732H16.8354C16.7773 28.0831 16.7214 28.1028 16.6699 28.1315C16.6141 28.1612 16.5653 28.2024 16.5267 28.2524C16.5173 28.2681 16.5068 28.2831 16.4953 28.2973H16.4282C16.3705 28.3086 16.3147 28.3282 16.2626 28.3555C16.2079 28.3867 16.1593 28.4277 16.1194 28.4765C16.1116 28.4931 16.101 28.5083 16.0881 28.5213H16.021C15.9632 28.5326 15.9075 28.5522 15.8554 28.5796C15.7997 28.6113 15.7509 28.6539 15.7122 28.705L15.6853 28.7454H15.6092C15.5525 28.7576 15.4982 28.7787 15.4481 28.8081C15.3924 28.8378 15.3436 28.8791 15.3049 28.9291L15.2736 28.9739H15.1975C15.1412 28.9852 15.0869 29.0049 15.0364 29.0321C14.983 29.0652 14.936 29.1077 14.8977 29.1576L14.8663 29.1979H14.7903C14.7344 29.2106 14.6803 29.2302 14.6292 29.2562C14.5746 29.2878 14.5273 29.3305 14.4904 29.3817L14.4591 29.422C14.4324 29.4177 14.4052 29.4177 14.3785 29.422C14.3225 29.4342 14.2684 29.4538 14.2174 29.4802C14.1742 29.5038 14.1362 29.5358 14.1056 29.5743H14.0161C13.8 29.5803 13.5952 29.6719 13.4467 29.829C13.2981 29.9862 13.218 30.196 13.2239 30.4123C13.2299 30.6286 13.3214 30.8337 13.4783 30.9824C13.6353 31.1311 13.8448 31.2114 14.0608 31.2054H14.1056C14.2305 31.2118 14.3553 31.1892 14.4702 31.1395C14.585 31.0897 14.6869 31.0142 14.7679 30.9186C14.8168 30.8882 14.8593 30.8487 14.8932 30.8021H14.9827C15.0241 30.7943 15.0646 30.7823 15.1035 30.7663L15.1886 30.7215C15.2378 30.6897 15.2804 30.6486 15.3139 30.6005H15.4034C15.4452 30.5948 15.486 30.5827 15.5242 30.5646L15.6137 30.5198C15.6594 30.4853 15.7001 30.4446 15.7345 30.3988H15.8196L15.9449 30.3585C15.973 30.3478 16 30.3343 16.0254 30.3182C16.0747 30.2865 16.1173 30.2453 16.1507 30.1972H16.2402C16.2834 30.1909 16.3256 30.1789 16.3655 30.1613L16.4461 30.1165C16.4962 30.0858 16.5389 30.0445 16.5714 29.9956H16.6609C16.7041 29.9893 16.7462 29.9772 16.7862 29.9597C16.8145 29.9476 16.8415 29.9326 16.8668 29.9149C16.916 29.8832 16.9586 29.8421 16.9921 29.7939H17.0771C17.1203 29.7876 17.1624 29.7756 17.2024 29.7581C17.2311 29.7468 17.2582 29.7317 17.283 29.7132C17.3346 29.6769 17.3774 29.6295 17.4083 29.5743H17.4933C17.5365 29.5681 17.5786 29.556 17.6186 29.5385C17.6473 29.5272 17.6744 29.5122 17.6992 29.4937C17.7505 29.463 17.7948 29.4218 17.8289 29.3727H17.9005L18.0303 29.3324C18.0465 29.3277 18.0616 29.3201 18.0751 29.31L18.2854 29.7043L18.5092 30.1255C18.5657 30.22 18.6467 30.2974 18.7436 30.3495C18.8405 30.4016 18.9497 30.4264 19.0596 30.4212Z"/>
		<path fill="black" d="M16.2539 20.4154C16.436 20.6012 16.6288 20.7763 16.8312 20.9397C17.2347 21.2561 17.661 21.5422 18.1067 21.7956L21.2393 23.5163C21.9875 23.6492 22.7155 23.8781 23.4053 24.1974L23.6112 24.3005L23.8126 24.408C24.0004 24.5171 24.1799 24.6399 24.3496 24.7754C24.481 24.882 24.6037 24.9989 24.7166 25.125C24.8196 25.1032 24.9245 25.0912 25.0298 25.0891C25.1613 25.0913 25.292 25.1093 25.4192 25.1429C25.6026 25.0219 25.9159 24.8247 26.3142 24.6007L25.4192 24.1526L24.8777 23.8703L24.6897 23.7493L24.4838 23.6417L24.3541 23.5745L18.7108 20.6664C18.2515 20.4359 17.7758 20.2397 17.2877 20.0794C17.0395 20.003 16.7869 19.9416 16.5314 19.8957C16.2718 19.8508 16.057 19.8329 16.048 19.8329L15.7393 19.806L15.9317 20.048C15.9317 20.048 16.0704 20.2228 16.2539 20.4154Z"/>
		<path fill="black" d="M35.766 29.6596H35.6809C35.6477 29.6219 35.6084 29.5901 35.5646 29.5655C35.5153 29.539 35.4626 29.5194 35.4079 29.5073H35.3229L35.2961 29.4669C35.2578 29.4171 35.2108 29.3745 35.1573 29.3415C35.1059 29.3162 35.0519 29.2966 34.9962 29.2832H34.9157L34.9067 29.2205C34.8679 29.1694 34.8192 29.1267 34.7635 29.095C34.7133 29.0671 34.6589 29.0474 34.6024 29.0368H34.5263C34.5174 29.0208 34.5069 29.0058 34.495 28.992C34.4588 28.9413 34.4113 28.8999 34.3563 28.871C34.3062 28.8416 34.2519 28.8204 34.1952 28.8082H34.1191L34.0878 28.7679C34.049 28.7168 34.0003 28.6741 33.9445 28.6424C33.8943 28.6145 33.8399 28.5948 33.7834 28.5842H33.7118L33.6805 28.5394C33.6418 28.4894 33.593 28.4481 33.5373 28.4184C33.4852 28.3911 33.4294 28.3714 33.3717 28.3601H33.3046L33.2733 28.3153C33.2346 28.2653 33.1858 28.2241 33.1301 28.1943C33.0798 28.1664 33.0254 28.1467 32.9689 28.1361H32.8973C32.8884 28.1201 32.8779 28.1051 32.866 28.0913C32.8272 28.0402 32.7785 27.9975 32.7228 27.9658C32.6705 27.9399 32.6148 27.9217 32.5572 27.912H32.4901L32.9376 27.0427C32.9851 26.9689 33.0159 26.8856 33.028 26.7986C33.0401 26.7116 33.0331 26.6231 33.0075 26.5391C32.982 26.4551 32.9385 26.3777 32.88 26.3122C32.8216 26.2467 32.7496 26.1948 32.6691 26.16C32.5812 26.1122 32.4827 26.0875 32.3827 26.0883C32.2872 26.0892 32.1932 26.1127 32.1084 26.1567C32.0236 26.2008 31.9504 26.2642 31.8946 26.3419C31.8388 26.4195 31.8021 26.5092 31.7874 26.6038C31.7727 26.6983 31.7804 26.7949 31.8099 26.8859C31.8435 26.993 31.9053 27.0889 31.9889 27.1637L31.8412 27.4415L31.7204 27.3788L30.4046 26.6977C30.0564 26.9526 29.6608 27.1354 29.2411 27.2354C29.2461 27.2801 29.2461 27.3252 29.2411 27.3698C29.2557 27.5435 29.201 27.7159 29.0889 27.8493L31.0536 28.9382L31.0043 29.0278L30.9014 29.2205C30.8509 29.2139 30.7997 29.2139 30.7492 29.2205C30.6166 29.2205 30.4876 29.2639 30.3818 29.344C30.2761 29.4242 30.1994 29.5368 30.1634 29.6646C30.1274 29.7925 30.1341 29.9286 30.1825 30.0522C30.2309 30.1759 30.3184 30.2804 30.4315 30.3497C30.5191 30.398 30.6178 30.4227 30.7179 30.4214C30.8284 30.4224 30.9371 30.3928 31.0318 30.3358C31.1266 30.2789 31.2038 30.1969 31.2549 30.0988L31.4787 29.6775L31.689 29.2832L31.7383 29.3056L31.8636 29.3459H31.9486C31.9829 29.3962 32.0271 29.4388 32.0784 29.4714L32.1545 29.5117C32.196 29.5293 32.2396 29.5414 32.2842 29.5476H32.3693C32.4017 29.5966 32.4445 29.6379 32.4946 29.6686L32.5751 29.7134C32.6166 29.731 32.6603 29.743 32.7049 29.7492H32.7855C32.8204 29.7961 32.8627 29.837 32.9108 29.8702L32.9958 29.915C33.0356 29.933 33.0778 29.9451 33.1211 29.9509H33.2061C33.2403 30 33.2846 30.0412 33.3359 30.0719C33.3606 30.0903 33.3877 30.1054 33.4165 30.1167C33.4563 30.1347 33.4985 30.1468 33.5418 30.1525H33.6268C33.6617 30.1994 33.7041 30.2403 33.7521 30.2735C33.7791 30.2896 33.8076 30.3031 33.8371 30.3138C33.8762 30.3306 33.9166 30.3441 33.958 30.3542H34.0475C34.0807 30.401 34.1216 30.4419 34.1683 30.4752L34.2533 30.52C34.2933 30.5375 34.3355 30.5495 34.3786 30.5558H34.4681C34.5003 30.6035 34.5413 30.6446 34.589 30.6768L34.674 30.7216C34.7147 30.7371 34.7566 30.7491 34.7993 30.7575H34.9067C34.9393 30.8036 34.9803 30.8431 35.0276 30.874C35.0965 30.9847 35.191 31.0771 35.3032 31.1434C35.4154 31.2097 35.5419 31.2479 35.672 31.2548H35.7167C35.8701 31.2501 36.0191 31.2023 36.1467 31.1169C36.2743 31.0315 36.3753 30.9119 36.4383 30.7717C36.5013 30.6316 36.5237 30.4765 36.5029 30.3243C36.4822 30.172 36.4191 30.0287 36.3209 29.9106C36.1747 29.759 35.9762 29.6692 35.766 29.6596Z"/>
		<path fill="black" d="M19.0733 26.4379L19.2702 26.5499L19.4716 26.653C20.2134 27.0303 21.0338 27.2269 21.8659 27.2265H22.2597L22.7072 27.1952L22.9354 27.1638L23.1145 27.9928L21.8614 29.6955C21.8614 29.6955 22.3581 30.5917 24.3541 30.7307C24.5242 30.7307 24.7032 30.7307 24.8956 30.7307C25.088 30.7307 25.2715 30.7307 25.4371 30.7307C27.4241 30.5873 27.8582 29.6955 27.8582 29.6955L26.2874 28.3199L26.5783 27.5671C26.5187 27.5622 26.4588 27.5622 26.3993 27.5671C26.2634 27.5696 26.1283 27.5877 25.9965 27.6208H25.9115H25.8846H25.8622L25.7548 27.594L25.8578 27.5223L26.0636 27.4102C26.2374 27.3049 26.4379 27.252 26.6409 27.2579L26.7483 27.2848C26.8402 27.3107 26.93 27.3437 27.0168 27.3834C27.1462 27.4395 27.2813 27.4816 27.4196 27.5088H27.4644L27.7105 27.5402C27.8327 27.5326 27.9553 27.5326 28.0775 27.5402H28.1938C28.6906 27.5671 28.6816 27.7956 28.6816 27.7956L28.7935 27.7149C28.8559 27.6738 28.9035 27.6138 28.9292 27.5436C28.955 27.4735 28.9576 27.3969 28.9367 27.3251C28.9147 27.2604 28.8796 27.201 28.8338 27.1503C28.7796 27.0892 28.7179 27.035 28.6503 26.989L28.5071 26.886C28.6369 26.5499 27.6568 26.3975 27.2182 26.3034C26.7736 26.1566 26.3399 25.9784 25.9204 25.7702L25.5669 25.5999H25.54L25.4371 25.5417L25.3431 25.5148C25.2425 25.487 25.1387 25.4719 25.0343 25.47C24.9576 25.4718 24.8812 25.4808 24.8061 25.4969C24.7283 25.5129 24.652 25.5354 24.5779 25.5641C24.515 25.4626 24.4398 25.3693 24.3541 25.2863L24.2556 25.1922C24.001 24.9634 23.7165 24.7704 23.4098 24.6186L23.1995 24.5155L22.9757 24.4169C22.8504 24.3632 22.7117 24.3094 22.5685 24.2601C22.2938 24.1639 22.0145 24.0817 21.7316 24.0137C21.5302 23.9644 21.3199 23.9151 21.0917 23.8747C20.5442 23.7721 19.9914 23.7003 19.4358 23.6597C18.863 23.6148 18.326 23.5969 17.8292 23.5969C14.5668 23.5969 12.9378 24.4259 12.9378 24.4259C12.9378 24.4259 14.5399 24.6724 16.2539 25.1115C17.2602 25.3953 18.2128 25.8434 19.0733 26.4379Z"/>
		<path fill="black" d="M30.6865 23.5922C29.8125 23.6666 28.9544 23.8704 28.1401 24.1972C27.7955 24.3271 27.4689 24.4705 27.1735 24.6139L26.9632 24.717L26.7573 24.82C26.3635 25.0231 25.9811 25.2475 25.6116 25.4922L25.7056 25.5235H25.728C25.8891 25.5773 26.9139 25.9089 27.2898 25.994L27.4733 26.0344C28.1133 26.1643 28.6145 26.2898 28.789 26.6079C28.807 26.6403 28.8206 26.675 28.8293 26.711C28.9093 26.7617 28.9816 26.8236 29.0441 26.8947C29.3917 26.8229 29.7237 26.6894 30.0242 26.5004C30.0869 26.4646 30.145 26.4242 30.2032 26.3839L30.3688 26.2584C30.766 25.9019 31.2197 25.6142 31.7114 25.407C33.6581 24.6229 36.8668 24.242 36.8668 24.242C35.087 23.8491 33.2738 23.627 31.4518 23.5788C31.1833 23.5698 30.9327 23.5788 30.6865 23.5922Z"/>
		<path fill="black" d="M25.5089 1.18736C25.5088 1.29621 25.4794 1.40302 25.4238 1.49655C25.6679 1.61056 25.8928 1.76172 26.0906 1.94465V0.447998C25.8904 0.627838 25.6659 0.778672 25.4238 0.896097C25.4772 0.984044 25.5065 1.08449 25.5089 1.18736Z"/>
		<path fill="black" d="M24.9179 0.582528C25.0252 0.582486 25.1305 0.611935 25.2223 0.667667C25.3395 0.42526 25.4902 0.200517 25.6698 0L24.1885 0C24.3619 0.200637 24.5051 0.425568 24.6136 0.667667C24.7057 0.612759 24.8108 0.583375 24.9179 0.582528Z"/>
		<path fill="black" d="M24.3094 1.18736C24.3118 1.08449 24.3411 0.984044 24.3944 0.896097C24.1498 0.778286 23.9225 0.627522 23.7187 0.447998V1.92224C23.9173 1.74025 24.1421 1.5892 24.3855 1.47414C24.3368 1.38636 24.3106 1.2878 24.3094 1.18736Z"/>
		<path fill="black" d="M25.6474 2.37946C25.4688 2.17817 25.3183 1.95357 25.1999 1.71179C25.1082 1.76752 25.0029 1.79697 24.8956 1.79693C24.796 1.79227 24.6992 1.76302 24.6137 1.71179C24.5055 1.95303 24.3639 2.1778 24.193 2.37946H25.6474Z"/>
		<path fill="black" d="M24.663 1.56851C24.7378 1.62081 24.8268 1.64895 24.918 1.64917C25.0093 1.64895 25.0983 1.62081 25.1731 1.56851C25.2223 1.53486 25.2648 1.4923 25.2984 1.44304C25.3491 1.3676 25.3756 1.27852 25.3745 1.18762C25.3756 1.09673 25.3491 1.00765 25.2984 0.932207C25.2636 0.883934 25.2213 0.841571 25.1731 0.80674C25.0978 0.756028 25.0088 0.72946 24.918 0.730563C24.8273 0.72946 24.7383 0.756028 24.663 0.80674C24.6138 0.840392 24.5713 0.882943 24.5376 0.932207C24.4854 1.00713 24.4573 1.09625 24.4571 1.18762C24.4573 1.27899 24.4854 1.36812 24.5376 1.44304C24.5699 1.49338 24.6127 1.53618 24.663 1.56851Z"/>
		<path fill="black" d="M24.663 5.25161C24.7378 5.30391 24.8268 5.33205 24.918 5.33227C25.0093 5.33205 25.0983 5.30391 25.1731 5.25161C25.2223 5.21796 25.2648 5.17541 25.2984 5.12615C25.3491 5.0507 25.3756 4.96162 25.3745 4.87073C25.3756 4.77983 25.3491 4.69075 25.2984 4.61531C25.2636 4.56704 25.2213 4.52468 25.1731 4.48985C25.0978 4.43913 25.0088 4.41257 24.918 4.41367C24.8273 4.41257 24.7383 4.43913 24.663 4.48985C24.6138 4.5235 24.5713 4.56605 24.5376 4.61531C24.4854 4.69024 24.4573 4.77936 24.4571 4.87073C24.4573 4.9621 24.4854 5.05122 24.5376 5.12615C24.5699 5.17649 24.6127 5.21928 24.663 5.25161Z"/>
		<path fill="black" d="M24.663 6.2197C24.7393 6.26828 24.8276 6.29465 24.918 6.29587C25.0084 6.29397 25.0965 6.26765 25.1731 6.2197C25.2213 6.18487 25.2636 6.1425 25.2984 6.09423C25.3518 6.01502 25.3784 5.92082 25.3745 5.82537C25.3756 5.73448 25.3491 5.6454 25.2984 5.56996C25.2648 5.52069 25.2223 5.47814 25.1731 5.44449C25.0983 5.39219 25.0093 5.36405 24.918 5.36383C24.8268 5.36405 24.7378 5.39219 24.663 5.44449C24.6127 5.47682 24.5699 5.51961 24.5376 5.56996C24.4854 5.64488 24.4573 5.734 24.4571 5.82537C24.4573 5.91674 24.4854 6.00586 24.5376 6.08079C24.5699 6.13488 24.6125 6.18209 24.663 6.2197Z"/>
		<path fill="black" d="M24.6629 7.16952C24.7383 7.22023 24.8273 7.2468 24.918 7.2457C25.0088 7.2468 25.0978 7.22023 25.1731 7.16952C25.2213 7.13469 25.2636 7.09232 25.2984 7.04405C25.3504 6.96904 25.3782 6.87993 25.3782 6.78864C25.3782 6.69734 25.3504 6.60823 25.2984 6.53322C25.2648 6.48396 25.2223 6.4414 25.1731 6.40775C25.0978 6.35704 25.0088 6.33047 24.918 6.33158C24.8273 6.33047 24.7383 6.35704 24.6629 6.40775C24.6127 6.44008 24.5699 6.48288 24.5376 6.53322C24.4857 6.60823 24.4578 6.69734 24.4578 6.78864C24.4578 6.87993 24.4857 6.96904 24.5376 7.04405C24.5713 7.09332 24.6137 7.13587 24.6629 7.16952Z"/>
		<path fill="black" d="M18.4648 10.2571C18.5396 10.3094 18.6286 10.3375 18.7199 10.3377C18.8111 10.3375 18.9001 10.3094 18.975 10.2571C19.0252 10.2247 19.068 10.1819 19.1003 10.1316C19.1525 10.0567 19.1806 9.96756 19.1808 9.87619C19.1806 9.78482 19.1525 9.6957 19.1003 9.62077C19.0667 9.57151 19.0242 9.52896 18.975 9.49531C18.8986 9.44672 18.8103 9.42035 18.7199 9.41913C18.6295 9.42104 18.5414 9.44736 18.4648 9.49531C18.4166 9.53014 18.3743 9.5725 18.3395 9.62077C18.2888 9.69621 18.2623 9.78529 18.2634 9.87619C18.2623 9.96708 18.2888 10.0562 18.3395 10.1316C18.3731 10.1809 18.4156 10.2234 18.4648 10.2571Z"/>
		<path fill="black" d="M24.6628 9.19503C24.7382 9.24574 24.8272 9.27231 24.9179 9.27121C25.0087 9.27231 25.0977 9.24574 25.173 9.19503C25.2212 9.1602 25.2635 9.11784 25.2983 9.06956C25.349 8.99412 25.3755 8.90504 25.3744 8.81415C25.3755 8.72325 25.349 8.63417 25.2983 8.55873C25.2647 8.50947 25.2222 8.46692 25.173 8.43327C25.0977 8.38255 25.0087 8.35599 24.9179 8.35709C24.8272 8.35599 24.7382 8.38255 24.6628 8.43327C24.6126 8.4656 24.5698 8.50839 24.5375 8.55873C24.4869 8.63417 24.4604 8.72325 24.4615 8.81415C24.4604 8.90504 24.4869 8.99412 24.5375 9.06956C24.5711 9.11883 24.6136 9.16138 24.6628 9.19503Z"/>
		<path fill="black" d="M24.9181 4.36444C25.1139 4.36444 25.3052 4.30625 25.468 4.19723C25.6307 4.08822 25.7575 3.93329 25.8322 3.75208C25.9069 3.57086 25.9263 3.37152 25.8877 3.1793C25.8492 2.98708 25.7546 2.81063 25.6158 2.67232C25.477 2.534 25.3004 2.44004 25.1082 2.40234C24.9161 2.36463 24.7171 2.38488 24.5365 2.46052C24.3558 2.53617 24.2017 2.66379 24.0935 2.82723C23.9854 2.99068 23.9281 3.18258 23.929 3.37863C23.929 3.50847 23.9546 3.63702 24.0044 3.75692C24.0542 3.87682 24.1271 3.98569 24.219 4.07729C24.3109 4.16889 24.4199 4.24142 24.5399 4.29069C24.6599 4.33997 24.7884 4.36503 24.9181 4.36444Z"/>
		<path fill="black" d="M18.4869 8.2C18.2452 7.45168 17.3368 5.76234 18.6838 4.57936C19.1444 4.18981 19.7235 3.9686 20.3262 3.95203C20.8111 3.98 21.2891 4.07966 21.7448 4.24777C22.5418 4.56101 23.3903 4.72212 24.2465 4.72276V5.17085C23.3416 5.17136 22.4446 5.00267 21.6016 4.67347C21.2083 4.5233 20.7952 4.43122 20.3754 4.40012C19.8639 4.40004 19.3701 4.58822 18.9881 4.92888C18.1333 5.68617 18.4108 6.67199 18.8046 7.70709C18.8494 7.83256 18.8941 7.94907 18.9299 8.05661L18.4869 8.2Z"/>
		<path fill="black" d="M23.4144 9.73719C23.7077 9.50773 24.0259 9.31231 24.3632 9.15466C24.3268 9.09538 24.301 9.03016 24.2871 8.96198C24.2586 8.80831 24.2855 8.64948 24.3632 8.51388C24.0242 8.34497 23.7059 8.13748 23.4144 7.89551V9.73719Z"/>
		<path fill="black" d="M26.4041 9.73724V7.8866C26.1165 8.12977 25.8028 8.34017 25.4688 8.51393C25.5059 8.57287 25.5317 8.63821 25.5448 8.70662C25.5767 8.86025 25.5496 9.02028 25.4688 9.15472C25.8007 9.31443 26.1143 9.50975 26.4041 9.73724Z"/>
		<path fill="black" d="M24.6138 8.27623C24.6743 8.23902 24.741 8.21321 24.8107 8.20005C24.8539 8.19542 24.8974 8.19542 24.9405 8.20005C25.0541 8.19945 25.1657 8.23048 25.2627 8.28967C25.4263 7.94584 25.6274 7.62123 25.8624 7.32178H23.9918C24.2353 7.61477 24.444 7.93506 24.6138 8.27623Z"/>
		<path fill="black" d="M18.6035 9.26228H18.7198C18.798 9.26333 18.8753 9.27851 18.9481 9.30709C19.0794 8.87908 19.2486 8.46368 19.4538 8.06586L18.2634 8.47363L18.6035 9.26228Z"/>
		<path fill="black" d="M20.246 10.4765L19.8701 8.66174C19.7089 8.97346 19.4775 9.24344 19.1943 9.4504C19.2675 9.53567 19.3196 9.63698 19.3465 9.74614C19.3758 9.85473 19.3758 9.96915 19.3465 10.0777C19.6664 10.1596 19.9704 10.2944 20.246 10.4765Z"/>
		<path fill="black" d="M23.1502 3.62512C23.0756 3.67558 23.0178 3.74742 22.9846 3.83125C22.956 3.91704 22.956 4.00984 22.9846 4.09563C22.9956 4.15485 23.0185 4.21124 23.0518 4.26142C23.1031 4.33527 23.1746 4.39281 23.2576 4.42722C23.345 4.45474 23.4387 4.45474 23.5261 4.42722C23.5833 4.41425 23.6378 4.39151 23.6872 4.36001C23.7626 4.30836 23.8204 4.23487 23.8528 4.1494C23.8883 4.06602 23.8976 3.97384 23.8797 3.88502C23.8667 3.82703 23.8424 3.77219 23.8081 3.72371C23.7479 3.65522 23.6683 3.60676 23.5798 3.5848C23.4948 3.54989 23.401 3.54206 23.3113 3.56239C23.2541 3.57262 23.1993 3.59393 23.1502 3.62512Z"/>
		<path fill="black" d="M22.2688 3.31133C22.1798 3.32998 22.0986 3.37531 22.036 3.44128C21.9751 3.50809 21.9334 3.59015 21.9152 3.67877C21.9062 3.73818 21.9062 3.79861 21.9152 3.85801C21.9366 3.94701 21.9832 4.02793 22.0495 4.09102C22.115 4.15287 22.1977 4.19348 22.2867 4.20753C22.3441 4.22091 22.4038 4.22091 22.4612 4.20753C22.5527 4.19094 22.6368 4.14621 22.7018 4.07956C22.7668 4.0129 22.8094 3.92763 22.8237 3.83561C22.8348 3.77638 22.8348 3.71559 22.8237 3.65637C22.8042 3.56891 22.759 3.48931 22.6939 3.42784C22.6277 3.36354 22.5433 3.32129 22.4522 3.30685C22.3914 3.29564 22.329 3.29716 22.2688 3.31133Z"/>
		<path fill="black" d="M21.1723 2.92615C21.087 2.96505 21.0151 3.02837 20.9657 3.10812C20.9164 3.18787 20.8917 3.28047 20.8948 3.37425C20.8997 3.43416 20.9132 3.49303 20.9351 3.54901C20.9682 3.63307 21.0279 3.70392 21.1051 3.75066C21.17 3.79557 21.2455 3.82254 21.3241 3.82884C21.4027 3.83513 21.4815 3.82053 21.5527 3.7865C21.6349 3.74075 21.7007 3.67019 21.7406 3.58486C21.7873 3.50787 21.8121 3.41953 21.8122 3.32944C21.8121 3.26938 21.7999 3.20995 21.7764 3.15468C21.74 3.07128 21.6792 3.00095 21.6019 2.95304C21.5265 2.90233 21.4376 2.87576 21.3468 2.87686C21.286 2.88223 21.2268 2.89895 21.1723 2.92615Z"/>
		<path fill="black" d="M19.9459 2.90371C19.8782 2.96354 19.8286 3.04115 19.8027 3.12776C19.778 3.21568 19.778 3.3087 19.8027 3.39662C19.8221 3.45191 19.8508 3.50345 19.8877 3.54898C19.9471 3.61714 20.0248 3.66688 20.1115 3.69237C20.1989 3.71989 20.2926 3.71989 20.38 3.69237C20.4399 3.66686 20.4945 3.63039 20.5411 3.58482C20.6104 3.52638 20.6603 3.44825 20.6843 3.36077C20.7108 3.27465 20.7108 3.18252 20.6843 3.0964C20.6604 3.04304 20.627 2.99445 20.5858 2.95301C20.5263 2.88287 20.4466 2.8328 20.3576 2.80961C20.2716 2.78303 20.1796 2.78303 20.0936 2.80961C20.0396 2.83282 19.9897 2.8646 19.9459 2.90371Z"/>
		<path fill="black" d="M18.7959 3.23527C18.7494 3.31235 18.7246 3.40062 18.7243 3.49068C18.7245 3.58206 18.7526 3.67118 18.8049 3.7461C18.8401 3.7955 18.8841 3.83803 18.9346 3.87157C19.0113 3.91879 19.0997 3.94362 19.1897 3.94326C19.281 3.94305 19.37 3.9149 19.4448 3.86261C19.4918 3.82605 19.5326 3.78218 19.5656 3.73266C19.6167 3.6576 19.6418 3.56792 19.6372 3.47724C19.637 3.38587 19.6089 3.29675 19.5567 3.22183C19.5242 3.17283 19.4815 3.13154 19.4314 3.10084C19.3541 3.05076 19.2639 3.02429 19.1718 3.02466C19.0816 3.0271 18.9943 3.05677 18.9212 3.1098C18.8709 3.14213 18.8282 3.18492 18.7959 3.23527Z"/>
		<path fill="black" d="M17.7353 3.98817C17.7164 4.07842 17.7258 4.17231 17.7621 4.25702C17.7966 4.34146 17.8559 4.41337 17.9322 4.46315C17.9816 4.49466 18.0361 4.51739 18.0933 4.53037C18.1821 4.54601 18.2735 4.5367 18.3573 4.50348C18.4417 4.46902 18.5135 4.40961 18.5632 4.3332C18.5984 4.28406 18.6214 4.22722 18.6303 4.16741C18.6497 4.07904 18.6419 3.98687 18.608 3.90303C18.5719 3.81956 18.513 3.74807 18.4379 3.6969C18.3868 3.66539 18.3309 3.64268 18.2723 3.62969C18.1867 3.61555 18.0987 3.62666 18.0193 3.66167C17.9398 3.69667 17.8722 3.75407 17.8248 3.82685C17.7854 3.87474 17.7551 3.9294 17.7353 3.98817Z"/>
		<path fill="black" d="M17.0552 5.03217C17.0734 5.1208 17.1151 5.20285 17.176 5.26967C17.2386 5.33564 17.3198 5.38096 17.4087 5.39961C17.4679 5.41078 17.5286 5.41078 17.5877 5.39961C17.6772 5.38431 17.76 5.34211 17.8249 5.27863C17.8908 5.21595 17.9361 5.13468 17.9547 5.04562C17.9662 4.98793 17.9662 4.92855 17.9547 4.87086C17.9403 4.77966 17.8981 4.69515 17.8339 4.62888C17.7693 4.56552 17.6889 4.52064 17.6012 4.49894C17.5533 4.48475 17.5034 4.47869 17.4535 4.48101C17.3636 4.49907 17.2802 4.54084 17.2118 4.602C17.1459 4.66467 17.1007 4.74595 17.082 4.83501C17.0595 4.89816 17.0504 4.9653 17.0552 5.03217Z"/>
		<path fill="black" d="M16.8268 6.23751C16.8739 6.31656 16.9443 6.37914 17.0282 6.41675C17.111 6.45375 17.2031 6.46469 17.2922 6.44812C17.3507 6.43984 17.407 6.42004 17.4578 6.38987C17.5328 6.33932 17.593 6.26973 17.6323 6.18822C17.6708 6.10578 17.6833 6.01357 17.6681 5.92385C17.6585 5.86495 17.6372 5.80859 17.6055 5.75805C17.5583 5.67901 17.488 5.61642 17.4041 5.57881C17.3213 5.54181 17.2292 5.53087 17.1401 5.54744C17.0662 5.55888 16.9964 5.58866 16.937 5.63406C16.8776 5.67946 16.8305 5.73903 16.7999 5.80734C16.7615 5.88978 16.749 5.982 16.7641 6.07172C16.7738 6.13061 16.7951 6.18698 16.8268 6.23751Z"/>
		<path fill="black" d="M17.0685 7.46077C17.1411 7.51539 17.2285 7.54665 17.3191 7.55039C17.41 7.55641 17.5006 7.53452 17.5787 7.48765C17.628 7.45615 17.6718 7.4168 17.7085 7.37115C17.7626 7.29791 17.7951 7.211 17.8025 7.12021C17.8071 7.02875 17.7837 6.93804 17.7353 6.86032C17.7054 6.80978 17.6659 6.76563 17.619 6.73037C17.547 6.67414 17.4595 6.6413 17.3684 6.63627C17.277 6.63159 17.1864 6.65504 17.1088 6.70348C17.0575 6.73225 17.0132 6.77203 16.979 6.81999C16.9229 6.89207 16.8901 6.97964 16.885 7.07092C16.8804 7.16239 16.9038 7.25309 16.9522 7.33082C16.9809 7.38221 17.0206 7.42658 17.0685 7.46077Z"/>
		<path fill="black" d="M17.4534 8.48699C17.5283 8.53902 17.6173 8.56691 17.7085 8.56691C17.7996 8.56691 17.8886 8.53902 17.9635 8.48699C18.0136 8.45629 18.0564 8.41499 18.0889 8.366C18.1395 8.29056 18.166 8.20148 18.1649 8.11058C18.166 8.01969 18.1395 7.93061 18.0889 7.85517C18.0566 7.80482 18.0138 7.76203 17.9635 7.7297C17.8886 7.67766 17.7996 7.64978 17.7085 7.64978C17.6173 7.64978 17.5283 7.67766 17.4534 7.7297C17.4042 7.76335 17.3617 7.8059 17.3281 7.85517C17.2774 7.93061 17.2509 8.01969 17.252 8.11058C17.2516 8.18515 17.2699 8.25862 17.305 8.32435C17.3402 8.39008 17.3912 8.44598 17.4534 8.48699Z"/>
		<path fill="black" d="M31.3668 10.2571C31.292 10.3094 31.203 10.3376 31.1118 10.3378C31.0205 10.3376 30.9315 10.3094 30.8567 10.2571C30.8075 10.2235 30.765 10.1809 30.7314 10.1316C30.6771 10.0512 30.6504 9.95526 30.6553 9.85831C30.6542 9.76741 30.6807 9.67833 30.7314 9.60289C30.7662 9.55462 30.8085 9.51225 30.8567 9.47742C30.9333 9.42947 31.0214 9.40315 31.1118 9.40125C31.2022 9.40247 31.2905 9.42884 31.3668 9.47742C31.416 9.51107 31.4585 9.55363 31.4922 9.60289C31.5428 9.67833 31.5693 9.76741 31.5682 9.85831C31.5693 9.9492 31.5428 10.0383 31.4922 10.1137C31.462 10.1706 31.4191 10.2196 31.3668 10.2571Z"/>
		<path fill="black" d="M31.3265 8.20006C31.5727 7.45174 32.4767 5.76241 31.1341 4.57943C30.6724 4.19172 30.094 3.97076 29.4917 3.95209C29.0054 3.98014 28.5259 4.07979 28.0686 4.24783C27.2732 4.56114 26.4261 4.72225 25.5714 4.72282V5.17092C26.4763 5.17142 27.3733 5.00274 28.2163 4.67353C28.6266 4.52321 29.0559 4.4312 29.4917 4.40019C29.9836 4.41577 30.4562 4.59557 30.8343 4.91102C31.6935 5.66831 31.4116 6.65412 31.0222 7.68923C30.973 7.8147 30.9282 7.9312 30.8924 8.03875L31.3265 8.20006Z"/>
		<path fill="black" d="M31.2281 9.26228C31.1894 9.25763 31.1504 9.25763 31.1117 9.26228C31.035 9.26285 30.959 9.27806 30.888 9.30709C30.7547 8.87978 30.5856 8.46454 30.3823 8.06586L31.5682 8.47363L31.2281 9.26228Z"/>
		<path fill="black" d="M29.5902 10.4765L29.984 8.66174C30.1444 8.97402 30.3759 9.24417 30.6598 9.4504C30.5832 9.53334 30.5306 9.63557 30.5076 9.74614C30.4805 9.85501 30.4805 9.96887 30.5076 10.0777C30.1816 10.1581 29.8714 10.2929 29.5902 10.4765Z"/>
		<path fill="black" d="M26.6857 3.62509C26.7608 3.67536 26.8189 3.74721 26.8525 3.83118C26.886 3.91516 26.8934 4.00734 26.8737 4.09559C26.8613 4.15515 26.8369 4.21156 26.8021 4.26139C26.7535 4.33254 26.6854 4.38814 26.606 4.42152C26.5266 4.4549 26.4393 4.46465 26.3545 4.44959C26.296 4.4366 26.24 4.41388 26.189 4.38238C26.1136 4.33073 26.0558 4.25724 26.0234 4.17177C25.9894 4.08793 25.9816 3.99576 26.001 3.90739C26.014 3.85016 26.0367 3.79559 26.0681 3.74608C26.1144 3.67568 26.1795 3.61977 26.2561 3.58476C26.3398 3.55077 26.4319 3.54296 26.5201 3.56236C26.5789 3.57202 26.6352 3.59335 26.6857 3.62509Z"/>
		<path fill="black" d="M27.5674 3.31159C27.6547 3.33109 27.7342 3.37635 27.7956 3.44154C27.859 3.5066 27.9012 3.58943 27.9165 3.67903C27.9277 3.73825 27.9277 3.79906 27.9165 3.85827C27.8978 3.94734 27.8526 4.02861 27.7867 4.09129C27.7211 4.15313 27.6385 4.19374 27.5495 4.20779C27.4906 4.22124 27.4294 4.22124 27.3705 4.20779C27.2815 4.18914 27.2004 4.14381 27.1378 4.07784C27.076 4.01221 27.0355 3.92943 27.0214 3.84035C27.008 3.78136 27.008 3.7201 27.0214 3.66111C27.0409 3.57365 27.0861 3.49405 27.1512 3.43258C27.2162 3.3691 27.2989 3.3269 27.3884 3.31159C27.4475 3.30043 27.5082 3.30043 27.5674 3.31159Z"/>
		<path fill="black" d="M28.6414 2.92615C28.729 2.96189 28.803 3.02451 28.8529 3.10502C28.9027 3.18553 28.9258 3.27979 28.9188 3.37425C28.9177 3.43421 28.9056 3.49345 28.883 3.54901C28.8467 3.63241 28.7858 3.70275 28.7085 3.75066C28.6332 3.80137 28.5442 3.82794 28.4534 3.82683C28.3933 3.82419 28.3341 3.81052 28.2789 3.7865C28.1966 3.74209 28.1319 3.67098 28.0954 3.58486C28.0448 3.50942 28.0182 3.42034 28.0193 3.32944C28.0232 3.26939 28.0368 3.21037 28.0596 3.15469C28.0927 3.07063 28.1524 2.99978 28.2297 2.95304C28.305 2.90233 28.394 2.87576 28.4847 2.87686C28.5395 2.88348 28.5927 2.90019 28.6414 2.92615Z"/>
		<path fill="black" d="M29.8856 2.90366C29.9549 2.9621 30.0048 3.04023 30.0288 3.1277C30.0563 3.21521 30.0563 3.30906 30.0288 3.39656C30.0094 3.45279 29.979 3.50459 29.9393 3.54892C29.881 3.61829 29.8029 3.66829 29.7156 3.69231C29.6296 3.7189 29.5375 3.7189 29.4515 3.69231C29.3943 3.67235 29.3411 3.64197 29.2949 3.60269C29.2256 3.54424 29.1757 3.46611 29.1517 3.37864C29.1251 3.29252 29.1251 3.20038 29.1517 3.11426C29.1716 3.05691 29.202 3.00374 29.2412 2.95743C29.3006 2.88927 29.3783 2.83952 29.465 2.81404C29.5523 2.78652 29.6461 2.78652 29.7335 2.81404C29.7889 2.83507 29.8403 2.86537 29.8856 2.90366Z"/>
		<path fill="black" d="M31.0223 3.23524C31.0742 3.31025 31.1021 3.39936 31.1021 3.49065C31.1021 3.58194 31.0742 3.67106 31.0223 3.74607C30.9887 3.79533 30.9462 3.83788 30.897 3.87154C30.82 3.91812 30.7318 3.9429 30.6419 3.94323C30.5506 3.94302 30.4616 3.91487 30.3868 3.86257C30.3384 3.82616 30.2961 3.7823 30.2615 3.73263C30.2143 3.65583 30.1895 3.56736 30.1899 3.47721C30.1927 3.38626 30.2206 3.29786 30.2704 3.22179C30.3057 3.17366 30.3497 3.13261 30.4002 3.10081C30.4756 3.0501 30.5645 3.02353 30.6553 3.02463C30.747 3.02616 30.8361 3.05588 30.9104 3.10977C30.9561 3.14325 30.9942 3.18601 31.0223 3.23524Z"/>
		<path fill="black" d="M32.1008 3.98794C32.1164 4.07834 32.1071 4.17127 32.074 4.2568C32.038 4.34026 31.979 4.41175 31.9039 4.46292C31.8529 4.49443 31.7969 4.51715 31.7383 4.53014C31.6495 4.54555 31.5582 4.53625 31.4743 4.50325C31.3909 4.46719 31.3195 4.40813 31.2684 4.33298C31.237 4.28185 31.2143 4.22581 31.2013 4.16718C31.1824 4.07801 31.1912 3.9852 31.2264 3.90113C31.2615 3.81707 31.3215 3.74574 31.3982 3.69668C31.4477 3.66517 31.5022 3.64244 31.5593 3.62946C31.6495 3.61055 31.7432 3.61994 31.8278 3.65635C31.9122 3.69081 31.984 3.75021 32.0337 3.82663C32.0652 3.87614 32.0879 3.93071 32.1008 3.98794Z"/>
		<path fill="black" d="M32.7765 5.03227C32.7619 5.12225 32.7202 5.20564 32.657 5.27129C32.5939 5.33695 32.5122 5.38175 32.4229 5.39971C32.3653 5.41118 32.306 5.41118 32.2484 5.39971C32.1582 5.38647 32.0749 5.34396 32.0112 5.27872C31.9453 5.21605 31.9001 5.13478 31.8814 5.04571C31.8681 4.98823 31.8681 4.92844 31.8814 4.87095C31.8946 4.78028 31.9352 4.69583 31.9978 4.62898C32.0624 4.56561 32.1427 4.52074 32.2305 4.49903C32.2896 4.48787 32.3504 4.48787 32.4095 4.49903C32.498 4.51722 32.58 4.55902 32.6467 4.62002C32.7126 4.68269 32.7578 4.76397 32.7765 4.85303C32.7876 4.91226 32.7876 4.97304 32.7765 5.03227Z"/>
		<path fill="black" d="M33.0092 6.2375C32.9603 6.31499 32.8905 6.37711 32.8079 6.41674C32.7251 6.45374 32.633 6.46468 32.5438 6.44811C32.4853 6.43982 32.4291 6.42002 32.3782 6.38985C32.3009 6.3408 32.2388 6.27092 32.1992 6.18821C32.1623 6.1053 32.1514 6.0131 32.1679 5.92383C32.1776 5.86494 32.1989 5.80857 32.2306 5.75804C32.2762 5.68279 32.343 5.62268 32.4226 5.58522C32.5022 5.54777 32.5911 5.53462 32.6781 5.54743C32.7369 5.55709 32.7932 5.57842 32.8437 5.61016C32.9219 5.65619 32.9843 5.72495 33.0227 5.80733C33.0586 5.89048 33.071 5.98196 33.0585 6.0717C33.0513 6.1293 33.0346 6.18532 33.0092 6.2375Z"/>
		<path fill="black" d="M32.7676 7.46102C32.695 7.51565 32.6076 7.5469 32.517 7.55064C32.4261 7.55666 32.3355 7.53478 32.2574 7.48791C32.1923 7.45038 32.1377 7.39706 32.0986 7.33285C32.0595 7.26863 32.0371 7.1956 32.0336 7.12047C32.0276 7.02947 32.0495 6.9388 32.0963 6.86057C32.1284 6.8064 32.171 6.75918 32.2216 6.72166C32.2936 6.66543 32.381 6.63259 32.4722 6.62756C32.5623 6.62135 32.6519 6.64497 32.7273 6.69478C32.7808 6.72217 32.8269 6.76214 32.8615 6.81128C32.9161 6.8839 32.9473 6.97142 32.9511 7.06222C32.9571 7.15321 32.9352 7.24388 32.8884 7.32211C32.8564 7.37503 32.8155 7.42202 32.7676 7.46102Z"/>
		<path fill="black" d="M32.3917 8.48699C32.3169 8.53929 32.2279 8.56743 32.1366 8.56765C32.0469 8.56653 31.9596 8.53843 31.886 8.48699C31.8351 8.45745 31.7921 8.41593 31.7607 8.36601C31.7085 8.29108 31.6804 8.20196 31.6802 8.11059C31.6804 8.01922 31.7085 7.9301 31.7607 7.85517C31.7918 7.80384 31.8348 7.76079 31.886 7.72971C31.9596 7.67827 32.0469 7.65017 32.1366 7.64905C32.2279 7.64926 32.3169 7.67741 32.3917 7.72971C32.442 7.76204 32.4848 7.80483 32.517 7.85517C32.5693 7.9301 32.5974 8.01922 32.5976 8.11059C32.5974 8.20196 32.5693 8.29108 32.517 8.36601C32.4846 8.415 32.4418 8.45629 32.3917 8.48699Z"/>
	</g>
</svg>
