<?xml version="1.0" encoding="UTF-8"?>
<svg id="a" xmlns="http://www.w3.org/2000/svg" viewBox="0 0 499 113.3"><defs><style>.d{fill:#737373;}.e{fill:#737373;}.f{fill:none;}</style></defs><g id="b"><path class="f" d="M178.6,18.8c-2.8-2-6.2-3.1-9.6-3-3.7-.1-7.4,1.1-10.4,3.3-1.9,1.4-3.6,3.8-5.2,7.3h30.7c-.9-3.1-2.8-5.8-5.5-7.6Z"/><path class="f" d="M306.9,18.8c-2.8-2-6.2-3.1-9.6-3-3.7-.1-7.4,1.1-10.4,3.3-1.9,1.4-3.6,3.8-5.2,7.3h30.7c-.8-3.1-2.8-5.8-5.5-7.6Z"/><path class="f" d="M362.4,83.4c-1.6-.7-3.3-1.1-5-1.1-2.7-.1-5.4,.9-7.4,2.8-1.7,1.6-2.9,3.7-3.4,6h21.8c-.4-1.7-1.1-3.4-2.2-4.8-1.1-1.2-2.3-2.2-3.8-2.9Z"/><path class="f" d="M402.2,17c-4.2-.1-8.2,1.5-11.1,4.5s-4.5,7.1-4.4,11.3c-.2,4.3,1.5,8.5,4.5,11.6,3,3,7,4.6,11.2,4.5,4.1,.1,8-1.5,10.9-4.4s4.3-6.8,4.3-11.6c.2-4.3-1.4-8.4-4.3-11.5-2.9-2.9-6.9-4.6-11.1-4.4Z"/><rect class="e" x="146.7" y="79.5" width="3.8" height="29.2"/><path class="e" d="M182.5,80.4c-1.7-1.1-3.8-1.7-5.8-1.7-2.1,0-4.2,.5-6,1.5-2,1.1-3.7,2.7-5,4.5v-5.2h-3.8v29.2h3.8v-10.7c-.1-2.7,.1-5.4,.5-8,.6-2.2,1.9-4.1,3.6-5.5,1.7-1.5,3.9-2.3,6.1-2.3,1.7-.1,3.4,.4,4.8,1.5,1.3,1.1,2.2,2.6,2.5,4.3,.4,2.2,.5,4.5,.4,6.8v13.9h3.8v-15c0-4-.4-6.9-1.2-8.8-.7-1.8-2-3.4-3.7-4.5Z"/><path class="e" d="M206.8,92.1c-1.7-.7-3.2-1.8-4.5-3.1-.7-.7-1-1.7-1.1-2.7,0-1.1,.5-2.1,1.3-2.8,.8-.8,2-1.2,3.1-1.2,1.9,0,3.9,1,5.9,2.9l2.4-2.5c-2.7-2.6-5.4-4-8.1-4-2.1,0-4.2,.8-5.7,2.3-1.5,1.4-2.3,3.4-2.3,5.5,0,1.6,.5,3.2,1.4,4.5,1.5,1.7,3.3,3.1,5.4,4,1.7,.8,3.3,1.8,4.7,3.1,.7,.8,1.1,1.8,1.1,2.9,0,1.3-.6,2.6-1.6,3.4-1,1-2.4,1.5-3.9,1.4-2.2,0-4.2-1.1-6.1-3.2l-2.4,2.7c1,1.3,2.3,2.3,3.8,3s3.2,1.1,4.8,1.1c2.4,.1,4.6-.8,6.3-2.5,1.7-1.6,2.6-3.8,2.5-6.1,0-1.7-.5-3.3-1.5-4.6-1.4-1.8-3.4-3.1-5.5-4.1Z"/><polygon class="e" points="231.3 68.6 227.6 68.6 227.6 79.5 222.4 79.5 222.4 82.8 227.6 82.8 227.6 108.7 231.3 108.7 231.3 82.8 237.3 82.8 237.3 79.5 231.3 79.5 231.3 68.6"/><rect class="e" x="247.9" y="79.5" width="3.8" height="29.2"/><polygon class="e" points="272 68.6 268.3 68.6 268.3 79.5 263.1 79.5 263.1 82.8 268.3 82.8 268.3 108.7 272 108.7 272 82.8 278 82.8 278 79.5 272 79.5 272 68.6"/><path class="e" d="M308.6,93.2c.1,2.4-.1,4.8-.6,7.2-.5,1.6-1.6,3-3,4-1.6,1-3.4,1.6-5.3,1.5-1.9,.1-3.8-.5-5.4-1.6-1.5-1-2.6-2.5-3.1-4.2-.5-2.3-.6-4.6-.5-6.9v-13.7h-3.8v14.1c0,4.2,.5,7.3,1.4,9.3s2.4,3.7,4.3,4.8c2.2,1.2,4.6,1.8,7.1,1.7,2.5,.1,4.9-.5,7.1-1.7,1.9-1.1,3.4-2.8,4.2-4.8,.9-2,1.4-5.1,1.4-9.1v-14.3h-3.8v13.7Z"/><polygon class="e" points="330.1 68.6 326.4 68.6 326.4 79.5 321.3 79.5 321.3 82.8 326.4 82.8 326.4 108.7 330.1 108.7 330.1 82.8 336.1 82.8 336.1 79.5 330.1 79.5 330.1 68.6"/><path class="e" d="M369.3,84.4c-2.8-3.7-7.3-5.8-11.9-5.7-4.5-.1-8.9,1.9-11.6,5.5-2.2,2.8-3.4,6.3-3.4,9.9,0,3.9,1.4,7.7,4,10.6,2.7,3.1,6.4,4.7,11.2,4.7,2,0,3.9-.3,5.8-1,1.7-.6,3.3-1.6,4.6-2.9,1.5-1.4,2.7-3.1,3.6-4.9l-3.1-1.7c-.8,1.5-1.9,2.9-3.2,4.2-1.1,.9-2.3,1.6-3.6,2.1-1.4,.5-2.9,.8-4.4,.8-2.9,.1-5.8-1.1-7.8-3.3-2.1-2.3-3.3-5.2-3.3-8.3h26.3c.1-3.6-1-7.1-3.2-10Zm-22.7,6.8c.6-2.3,1.7-4.4,3.4-6,2-1.8,4.7-2.8,7.4-2.8,1.7,0,3.4,.4,5,1.1,1.5,.7,2.8,1.7,3.8,2.9,1.1,1.4,1.8,3.1,2.2,4.8h-21.8Z"/><path class="e" d="M169,50.7c-4,.2-7.8-1.1-10.9-3.5-2.9-2.4-4.8-5.8-5.3-9.6h45.5l.1-2.7c0-9.3-2.8-16.9-8.4-22.6s-12.8-8.6-21.7-8.5c-8.4,0-15.3,2.8-20.9,8.5-5.6,5.7-8.3,12.9-8.3,21.5s2.8,15.4,8.4,21,12.8,8.4,21.7,8.4c5.1,.1,10.2-.9,14.8-3,4.3-2.2,8-5.4,10.7-9.4l-11.9-5.6c-3.8,3.6-8.7,5.6-13.8,5.5Zm-10.4-31.6c3-2.2,6.7-3.4,10.4-3.3,3.4-.1,6.8,1,9.6,3,2.7,1.8,4.6,4.6,5.5,7.7h-30.7c1.6-3.5,3.3-6,5.2-7.4Z"/><path class="e" d="M238.8,3.8c-2.7,0-5.5,.5-8,1.6-3.2,1.4-6.1,3.3-8.7,5.7V5.2h-14.2V61.7h14.2v-22.6c0-5.9,.2-9.7,.6-11.5,.6-3,2.1-5.8,4.3-8,2-1.9,4.6-2.9,7.4-2.9,2-.1,4,.6,5.6,1.8,1.6,1.3,2.7,3.1,3.2,5.1,.6,2.2,.9,6.7,.9,13.4v24.7h14V24.4c0-6.5-1.6-11.4-4.9-14.8-3.9-3.8-9-5.9-14.4-5.8Z"/><path class="e" d="M311,45.2c-3.6,3.6-8.5,5.6-13.7,5.5-4,.2-7.8-1.1-10.9-3.5-2.9-2.4-4.8-5.8-5.3-9.6h45.5v-2.7c0-9.3-2.8-16.9-8.4-22.6s-12.8-8.6-21.7-8.5c-7.9-.2-15.4,2.9-20.9,8.5-5.6,5.7-8.3,12.9-8.3,21.5s2.8,15.4,8.4,21,12.8,8.4,21.6,8.4c5.1,.1,10.2-.9,14.8-3,4.3-2.2,8-5.4,10.7-9.4l-11.8-5.6Zm-24-26.1c3-2.2,6.7-3.4,10.4-3.3,3.4-.1,6.8,1,9.6,3,2.7,1.8,4.6,4.6,5.5,7.7h-30.8c1.6-3.5,3.4-6,5.3-7.4h0Z"/><path class="e" d="M350.3,38.9v-2.8c0-7.9,.8-13.2,2.3-15.9,1.4-2.4,3.6-4.1,6.3-4.7,4.1-.8,5.5-.1,8.9,2.5l4.2-10.5c-3.3-2.3-7.1-3.5-11.1-3.7-2.6,0-5.1,.8-7.2,2.2-2.3,1.6-4.1,3.8-5.2,6.4V5.2h-12.1V61.7h14.1l-.2-22.8Z"/><path class="e" d="M416.9,11.5c-2.5-2.5-5.5-4.5-8.7-5.9-2.9-1.2-6-1.8-9.2-1.8-6.8-.1-13.3,2.6-18,7.4-5.5,5.4-8.3,12.6-8.3,21.6,0,8.4,2.6,15.3,7.8,20.8,4.9,5.3,11.9,8.3,19.2,8.2,3.2,.1,6.3-.5,9.3-1.6,3-1.2,5.6-3.1,7.9-5.4,0,4.6-.5,7.8-1.4,9.7-1.1,2-2.8,3.6-4.9,4.6-2.9,1.3-6,1.9-9.2,1.8-2.6,.1-5.2-.4-7.7-1.2-2.1-.7-3.9-2-5.4-3.6h-15.6c2.3,7.4,8,13.3,15.3,15.9,4.5,1.5,9.2,2.2,14,2.1,10.4,0,18.2-3,23.3-9.1,3.8-4.5,5.8-11.5,5.8-21.1V5.2h-14.2v6.3h0Zm-3.6,33c-2.8,2.9-6.8,4.5-10.9,4.4-4.2,.1-8.3-1.5-11.2-4.5-3-3.1-4.6-7.3-4.5-11.6-.1-4.2,1.4-8.3,4.4-11.3,6.2-6,16-6,22.2-.1,2.9,3.1,4.5,7.2,4.3,11.5,0,4.8-1.4,8.7-4.3,11.6h0Z"/><polygon class="e" points="484.5 5.2 468.3 40.7 453.6 5.2 439.1 5.2 460.6 57.5 449 82.4 463.6 82.4 499 5.2 484.5 5.2"/><path class="d" d="M47.6,75c-9.9-1.9-19.4-5.3-28.2-10.3-1.6,1.5-3.5,2.6-5.6,3.3,6.2,30.2,35.4,49.9,65.8,44.3-16.5-5.9-28.7-20.1-32-37.3Z"/><path class="d" d="M23.7,54.6c0,1.8-.3,3.5-1,5.2,7.4,4.8,15.6,8.1,24.2,9.9-.6-6.8,.1-13.7,2.2-20.2C57.4,23.5,85.3,11.9,104.5,15.8h0l1.3,.2c.8,.2,1.7,.4,2.6,.6l1.3,.4c-21.9-22.4-57.7-22.7-80.1-.8-7.1,7-12.3,15.7-14.9,25.3,5.4,2.1,9,7.3,9,13.1Z"/><path class="d" d="M57.1,56c-1.6,4.8-2.3,9.9-2.2,15,3.7,.3,7.3,.4,11,.1,25.7-1.7,53.7-16,55.4-34.9,0-4.5-3.9-7.7-8.2-9.2-23.2-7.8-48.3,5.2-56,29Z"/><path class="d" d="M99.7,70c-1.1,.4-2.1,.8-3.2,1.2h0c-8.2,2.9-16.7,4.6-25.3,5.2-5.3,.3-10.6,.2-15.8-.3,2,15.8,12.2,29.3,26.7,35.7,28.6-6.6,47.4-34,43.3-63.1-5.8,11.9-19.5,18.7-25.7,21.3Z"/><path class="e" d="M19.4,54.9c0-5.4-4.3-9.7-9.7-9.7S0,49.5,0,54.9s4.3,9.7,9.7,9.7h0c5.3,0,9.6-4.3,9.7-9.7Z"/><rect class="e" x="146.7" y="68.6" width="3.8" height="3.8"/><rect class="e" x="247.9" y="68.6" width="3.8" height="3.8"/></g></svg>
