<svg xmlns="http://www.w3.org/2000/svg" width="96" height="11" fill="none" viewBox="0 0 96 11">
  <path fill="#0d0d0d" d="M7.997 0c.136 0 .247.107.247.24v1.432c0 .132-.11.24-.247.24H2.244v2.766H7.38c.137 0 .247.107.247.239V6.35c0 .132-.11.24-.247.24H2.244v4.17c0 .133-.111.24-.248.24H.247A.243.243 0 0 1 0 10.76V.24C0 .106.11 0 .247 0h7.75ZM12.744 0c.137 0 .248.107.248.24v10.518c0 .132-.111.239-.248.239h-1.748a.243.243 0 0 1-.248-.24V.24c0-.132.11-.239.248-.239h1.748ZM35.382 0c.136 0 .247.107.247.24v1.432c0 .132-.11.24-.247.24H32.28v8.849c0 .132-.111.239-.248.239h-1.749a.243.243 0 0 1-.247-.24V1.912h-3.102a.243.243 0 0 1-.248-.239V.239c0-.132.111-.239.248-.239h8.448ZM40.147 0c.137 0 .248.107.248.24v10.518c0 .132-.111.239-.248.239H38.4a.243.243 0 0 1-.248-.24V.24c0-.132.11-.239.247-.239h1.75ZM50.5.169A.247.247 0 0 1 50.735 0h1.668a.24.24 0 0 1 .236.31l-3.408 10.52a.247.247 0 0 1-.236.167h-2.482a.247.247 0 0 1-.236-.168L42.87.311A.24.24 0 0 1 43.106 0h1.67c.109 0 .205.068.237.169l2.541 7.961h.404L50.498.17ZM62.638 0c.136 0 .247.107.247.24v1.432c0 .132-.11.24-.247.24h-5.506v2.504h5.137c.137 0 .247.107.247.239v1.434c0 .133-.11.24-.247.24h-5.137v2.76h5.523c.137 0 .248.107.248.239v1.43c0 .132-.111.239-.248.239h-7.52a.243.243 0 0 1-.247-.24V.24c0-.132.11-.239.247-.239h7.503ZM76.073 10.997a.25.25 0 0 1-.208-.111l-3.162-4.82h-.448L70.76 7.584v3.174c0 .132-.11.239-.248.239h-1.748a.243.243 0 0 1-.248-.24V.24c0-.132.111-.239.248-.239h1.748c.137 0 .248.107.248.24v4.064h.47L75.384.077A.252.252 0 0 1 75.565 0h2.073c.217 0 .329.251.18.404l-3.772 3.844 4.183 6.382c.104.16-.014.367-.21.367h-1.946ZM82.744 0c.137 0 .248.107.248.24v10.518c0 .132-.111.239-.248.239h-1.748a.243.243 0 0 1-.248-.24V.24c0-.132.11-.239.248-.239h1.748ZM93.757.24c0-.133.11-.24.247-.24h1.749c.136 0 .247.107.247.24v10.518c0 .132-.11.239-.247.239h-2.004a.25.25 0 0 1-.21-.111l-4.448-6.803h-.448v6.675c0 .132-.11.239-.247.239h-1.748a.243.243 0 0 1-.248-.24V.24c0-.132.111-.239.248-.239H88.7a.25.25 0 0 1 .21.111l4.397 6.697h.45V.238ZM19.299 11c-1.981 0-3.588-1.552-3.588-3.467V3.467C15.711 1.552 17.318 0 19.3 0h2.103c1.982 0 3.588 1.552 3.588 3.467v.36c0 .131-.111.238-.248.238H23.01a.243.243 0 0 1-.247-.239v-.6c0-.727-.61-1.316-1.36-1.316h-2.104c-.752 0-1.36.59-1.36 1.315v4.549c0 .726.608 1.315 1.36 1.315h2.103c.752 0 1.36-.589 1.36-1.315v-.6c0-.132.112-.24.248-.24h1.732c.137 0 .248.108.248.24v.359c0 1.915-1.606 3.467-3.588 3.467H19.3Z"></path>
</svg>
