<svg xmlns="http://www.w3.org/2000/svg" width="204.095" height="35.979" viewBox="0 0 204.095 35.979"><g transform="translate(-319 -281)"><path fill="#737373" d="M333.849,285.316h2.9v1.553h.064a3.954,3.954,0,0,1,3.392-1.854c3.24,0,4.056,1.832,4.056,4.592v6.858H341.21v-6.3c0-1.834-.536-2.739-1.953-2.739-1.653,0-2.36.927-2.36,3.191v5.844h-3.048Z"/><path fill="#737373" d="M348.961,284.125h-3.047v-3.056h3.047Zm-3.047,1.191h3.047v11.149h-3.047Z"/><path fill="#737373" d="M357.061,296.465h-3.39l-3.8-11.149h3.2l2.339,7.613h.043l2.339-7.613h3.026Z"/><path fill="#737373" d="M363.954,291.635c.086,1.941,1.03,2.825,2.726,2.825a2.509,2.509,0,0,0,2.4-1.446h2.682a4.993,4.993,0,0,1-5.193,3.753c-3.5,0-5.666-2.415-5.666-5.865a5.579,5.579,0,0,1,5.666-5.887c3.777,0,5.6,3.192,5.386,6.62Zm4.958-1.941c-.279-1.552-.945-2.372-2.426-2.372a2.407,2.407,0,0,0-2.532,2.372Z"/><path fill="#737373" d="M373.121,285.316h2.9v2.071h.042a3.924,3.924,0,0,1,3.541-2.372,2.255,2.255,0,0,1,.666.108v2.846a5.516,5.516,0,0,0-1.1-.108c-2.232,0-3,1.617-3,3.579v5.025h-3.048Z"/><path fill="#737373" d="M383.511,292.842c.021,1.337,1.137,1.876,2.34,1.876.879,0,2-.345,2-1.423,0-.928-1.267-1.251-3.456-1.726-1.76-.387-3.52-1.013-3.52-2.975,0-2.846,2.447-3.579,4.829-3.579,2.425,0,4.657.819,4.893,3.558h-2.9c-.086-1.186-.988-1.51-2.082-1.51-.687,0-1.7.13-1.7,1.035,0,1.1,1.718,1.251,3.456,1.66,1.781.411,3.52,1.057,3.52,3.127,0,2.933-2.533,3.882-5.065,3.882-2.576,0-5.087-.971-5.215-3.925Z"/><path fill="#737373" d="M395.275,284.125h-3.048v-3.056h3.048Zm-3.048,1.191h3.048v11.149h-3.048Z"/><path fill="#737373" d="M401.007,285.316h2.232v2.049h-2.232v5.52c0,1.035.258,1.294,1.287,1.294a4.642,4.642,0,0,0,.945-.086v2.393a11.533,11.533,0,0,1-1.781.108c-1.868,0-3.5-.431-3.5-2.652v-6.577h-1.846v-2.049h1.846v-3.342h3.048Z"/><path fill="#737373" d="M410.389,297.867c-.666,1.788-1.718,2.522-3.822,2.522a17.686,17.686,0,0,1-1.866-.109v-2.522a16.284,16.284,0,0,0,1.781.109,1.446,1.446,0,0,0,1.052-2.093l-3.907-10.458h3.263l2.511,7.634h.043l2.426-7.634h3.153Z"/><path fill="#737373" d="M424.623,285.015c3.5,0,5.752,2.329,5.752,5.887,0,3.536-2.253,5.865-5.752,5.865-3.478,0-5.735-2.329-5.735-5.865C418.888,287.344,421.145,285.015,424.623,285.015Zm0,9.445c2.082,0,2.7-1.791,2.7-3.558,0-1.79-.622-3.58-2.7-3.58-2.061,0-2.684,1.79-2.684,3.58C421.939,292.669,422.562,294.46,424.623,294.46Z"/><path fill="#737373" d="M432.375,287.365H430.55v-2.049h1.825v-.862c0-1.962,1.223-3.385,3.712-3.385.536,0,1.1.065,1.61.086v2.285a9.66,9.66,0,0,0-1.115-.064c-.816,0-1.16.345-1.16,1.273v.667h2.1v2.049h-2.1v9.1h-3.047Z"/><path fill="#737373" d="M336.56,310.826c.086,1.942,1.031,2.824,2.726,2.824a2.508,2.508,0,0,0,2.4-1.443h2.683a5,5,0,0,1-5.194,3.751c-3.5,0-5.666-2.415-5.666-5.864a5.578,5.578,0,0,1,5.666-5.887c3.777,0,5.6,3.191,5.387,6.619Zm4.958-1.941c-.279-1.551-.944-2.371-2.425-2.371a2.408,2.408,0,0,0-2.533,2.371Z"/><path fill="#737373" d="M345.621,304.508h2.9v2.07h.042a3.923,3.923,0,0,1,3.542-2.371,2.253,2.253,0,0,1,.665.108v2.845a5.6,5.6,0,0,0-1.1-.107c-2.232,0-3.005,1.617-3.005,3.579v5.024h-3.047Z"/><path fill="#737373" d="M360.5,306.557h-2.232v5.519c0,1.035.257,1.294,1.287,1.294a4.641,4.641,0,0,0,.945-.085v2.393a11.664,11.664,0,0,1-1.781.107c-1.868,0-3.5-.432-3.5-2.652v-6.576H353.37v-2.049h1.846v-3.342h3.048v3.342H362.3v-.862c0-1.962,1.224-3.386,3.713-3.386.537,0,1.1.065,1.61.087v2.285a9.662,9.662,0,0,0-1.116-.065c-.816,0-1.159.345-1.159,1.273v.668h2.1v2.049h-2.1v9.1H362.3v-9.1Z"/><path fill="#737373" d="M373.85,304.207c3.5,0,5.752,2.328,5.752,5.887,0,3.535-2.254,5.864-5.752,5.864-3.477,0-5.731-2.329-5.731-5.864C368.119,306.535,370.373,304.207,373.85,304.207Zm0,9.443c2.081,0,2.7-1.789,2.7-3.556,0-1.791-.623-3.58-2.7-3.58-2.06,0-2.683,1.789-2.683,3.58C371.167,311.861,371.79,313.65,373.85,313.65Z"/><path fill="#737373" d="M380.935,304.508h2.9v2.07h.042a3.924,3.924,0,0,1,3.542-2.371,2.248,2.248,0,0,1,.665.108v2.845a5.594,5.594,0,0,0-1.094-.107c-2.233,0-3.005,1.617-3.005,3.579v5.024h-3.048Z"/><path fill="#737373" d="M396.5,314.233h-.043a3.68,3.68,0,0,1-3.37,1.725c-3.348,0-4.979-2.89-4.979-5.974,0-3,1.652-5.777,4.915-5.777a3.813,3.813,0,0,1,3.284,1.66h.043V300.26h3.047v15.4h-2.9Zm-2.662-7.719c-1.995,0-2.682,1.724-2.682,3.557,0,1.747.794,3.579,2.682,3.579,2.018,0,2.619-1.767,2.619-3.6C396.455,308.238,395.811,306.514,393.836,306.514Z"/><path fill="#737373" d="M403.412,312.033c.021,1.337,1.137,1.876,2.339,1.876.88,0,2-.344,2-1.423,0-.927-1.267-1.25-3.456-1.725-1.76-.388-3.52-1.013-3.52-2.976,0-2.845,2.447-3.578,4.829-3.578,2.425,0,4.657.818,4.894,3.558h-2.9c-.086-1.187-.987-1.511-2.082-1.511-.687,0-1.7.131-1.7,1.035,0,1.1,1.718,1.252,3.456,1.66,1.781.41,3.52,1.058,3.52,3.127,0,2.934-2.533,3.882-5.065,3.882-2.575,0-5.087-.971-5.215-3.925Z"/><path fill="#737373" d="M411.935,300.26h3.048v5.8h.064a3.9,3.9,0,0,1,3.241-1.853c3.243,0,4.06,1.832,4.06,4.592v6.857H419.3v-6.3c0-1.832-.536-2.738-1.953-2.738-1.653,0-2.361.928-2.361,3.192v5.843h-3.048Z"/><path fill="#737373" d="M427.158,303.316h-3.047V300.26h3.047Zm-3.047,1.192h3.047v11.148h-3.047Z"/><path fill="#737373" d="M428.919,304.508h2.9v2.07h.044a3.921,3.921,0,0,1,3.541-2.371,2.254,2.254,0,0,1,.666.108v2.845a5.6,5.6,0,0,0-1.1-.107c-2.232,0-3.005,1.617-3.005,3.579v5.024h-3.047Z"/><path fill="#737373" d="M438.965,310.826c.086,1.942,1.031,2.824,2.726,2.824a2.507,2.507,0,0,0,2.4-1.443h2.683a4.994,4.994,0,0,1-5.194,3.751c-3.5,0-5.666-2.415-5.666-5.864a5.579,5.579,0,0,1,5.666-5.887c3.777,0,5.6,3.191,5.387,6.619Zm4.959-1.941c-.28-1.551-.945-2.371-2.426-2.371a2.408,2.408,0,0,0-2.533,2.371Z"/><path fill="#737373" d="M485.766,281H474.287v20.57c0,3.23-1.662,5.85-5.744,5.85-4.054,0-5.742-2.62-5.742-5.85V281H451.316v21.648c0,9.209,6.262,14.331,17.227,14.331,10.988,0,17.228-5.12,17.228-14.323C485.771,302.577,485.766,281,485.766,281Z"/><path fill="#737373" d="M488.644,281.022h11.48v11.517H511.61V281h11.485v34.624H511.61V304.088H500.124v11.538h-11.48Z"/><path fill="#737373" d="M332.078,281.077h-3.362V290.8a3.171,3.171,0,1,1-6.341,0v-9.727H319v10.184c0,3.062,2.926,5.543,6.534,5.543s6.544-2.481,6.544-5.543Z"/><path fill="#737373" d="M328.708,306.233h-6.337v-6.006H319v15.4h3.37v-6.011h6.337v6.011h3.368v-15.4h-3.368Z"/></g></svg>
