<svg width="350" height="109" viewBox="0 0 270 84" enable-background="new 0 0 270 84" xmlns="http://www.w3.org/2000/svg" xmlns:xlink="http://www.w3.org/1999/xlink">
    <path fill="#d92432" d="m31.787,21.131l-.369,.049c-.692,1.057-.922,1.771-1.112,2.352 .103,.071 .198,.127 .343,.19 .343-1.045 .899-2.169 1.138-2.591m1.326,2.712c.264-.688 .938-2.292 1.188-2.691 0,0-.347-.075-.688-.069-.39,.667-1.126,2.332-1.305,2.781 .257,.009 .506-.021 .805-.021m-1.494,.03c.341-.906 .808-1.954 1.306-2.812 0,0-.42,0-.58,.021-.5,.794-1.203,2.401-1.317,2.769-.001,0 .139,.074 .591,.022m20.861,43.697c1.065,.477 1.774,2.787-.56,3.84 1.191-3.012-3.43-5.775-8.231-2.881 .158-.197 .321-.389 .473-.592 5.005-3.195 13.227,.396 16.391-4.275 .19,1.211-.958,2.91-3.43,3.379 2.602,.318 3.917,1.572 5.682,1.932-1.733,.06-6.04-2.182-10.325-1.403m-16.397,5.309c-8.413-5.211-12.132-16.275-12.618-28.613 1.05-.104 3.423-.324 6.154-.484 .036,6.574 .687,14.715 3.893,23.207-.317-4.746-.769-14.313-.662-23.352 1.079-.029 2.152-.047 3.175-.029l.06-.047 .06,.047c4.768-.068 10.71,.475 12.558,.656-.488,12.34-4.206,23.406-12.62,28.615m-15.727-1.389c-2.333-1.053-1.625-3.361-.559-3.844-4.287-.777-8.59,1.467-10.328,1.408 1.766-.357 3.082-1.617 5.683-1.934-2.473-.469-3.62-2.164-3.429-3.381 3.146,4.648 11.285,1.131 16.297,4.227 .155,.203 .322,.396 .481,.594-4.77-2.812-9.328-.064-8.145,2.93m3.198-34.88c1.518-.236 3.799-.491 6.213-.667-.036,1.383-.09,2.933-.123,4.628-2.388,.163-4.545,.38-6.236,.551 .007-1.494 .055-3 .146-4.512m2.865-4.91c1.011-1.147 3.302-2.185 4.43-3.313 .334,.877 .582,1.933 .629,2.962-.419,.538-1.855,.897-2.333,1.693-.062,.291-.108,.694-.114,1.163-.289,.021-.581,.045-.878,.07 .565-.942-.153-1.747-1.1-2.01 .12,.958-.339,1.454-.658,1.515-.688-.191-.543-1.435 .024-2.08m3.544-5.716c-.629-.187-1.077-1.234-.816-1.893 .141-.138 .364-.161 .578-.359 .381-.352 .329-2.022 2.152-3.606 1.335-.3 3.249-.4 4.297-.231 .116,.075 1.356,.556 1.624,4.615 1.415-.18 2.154-.359 2.69-.519-1.871,1.555-10.113,2.118-10.525,1.993m1.395-8.196c.598-.134 1.345-.18 1.898-.03 .346-.121 1.317-.225 1.885-.03 .867-.209 1.956-.126 2.386,.034 .529-.239 1.542-.125 1.979,.024 1.554-.373 2.357,.383 2.357,.874 0,.349-.108,.443-.288,.541-.633,.352-.454-.622-1.804-.931 .587,.295 .634,.952 1.289,1.087-2.196,.342-1.764-1.376-3.347-1.376 .677,.199 .783,1.028 1.439,1.345-2.248,.226-2.052-1.437-3.708-1.395 .819,.237 .885,1.071 1.761,1.351-2.394,.329-2-1.471-3.774-1.341 .838,.369 .992,1.086 1.785,1.28-2.223,.593-2.159-1.255-3.619-1.106 .658,.164 .941,.917 1.479,1.137-1.255,.463-1.21-.584-2.288-.569 .419,.165 .578,.499 .968,.694-2.087,.31-1.816-1.74-.398-1.589m8.463,4.589c.282,0 .508,.223 .508,.493 0,.272-.226,.494-.508,.494-.279,0-.509-.222-.509-.494 0-.27 .229-.493 .509-.493m2.521,9.748c-.756-.04-.846,.109-1.264,.209-1.047-1.585-1.166-4.395-.21-6.108-.081,2.112 .239,5.122 1.474,5.899m3.404-.413c.568,.647 .714,1.891 .027,2.082-.319-.061-.779-.559-.659-1.516-.317,.088-.607,.238-.835,.432-.265-.267-.651-.489-1.138-.511-.884-.946-1.221-2.141-1.312-3.346 1.212,.957 3.045,1.868 3.917,2.859m-1.929,1.848c-.014,.223 .038,.462 .186,.713-.857-.072-1.684-.132-2.482-.181 .962-.514 1.78-.582 2.296-.532m-4.025-1.773c-1.011-.801-1.825-3.659-.839-5.761 .212-.569 .898-.928 .819-.46-.559,1.795-.499,4.625 .02,6.221m-8.374,3.299c.926-1.766 1.136-4.156-.119-7.537 .957,.898 1.525,3.23 1.613,4.368 .309-.44 .44-1.834 .321-2.762 .737,2.93 .178,6.997-.54,7.634-.468-.238-.836-.777-1.136-1.235 .219,.796 .678,1.442 .937,1.743 4.665-1.585 8.053-5.372 10.724-4.375-1.473,.08-2.569,.757-3.585,1.714-1.585-.239-2.772,2.751-7.697,4.236-.616-.389-1.291-2.372-1.533-3.069-.241-.698-.476-.86-.807-.868-.13-.736-.011-1.474 .119-1.764 0,0 .369-.388 1.365-.747-.059,.759 .159,2.153 .338,2.662m17.193,1.524c.093,1.512 .14,3.018 .147,4.512-3.128-.32-7.846-.784-12.675-.802-1.067,.004-2.128,.03-3.168,.073 .011-.375 .023-.749 .036-1.121 2.641-.875 4.674-2.739 5.923-3.521 3.551,.121 7.484,.507 9.737,.859m-28.128-1.427c.002,1.328 .001,2.584 .004,3.798-.171-.61-.606-1.27-1.429-1.951-.797,3.854-5.035,3.858-7.032,1.472 .761-3.017 4.5-4.692 8.208-5.599 .095,1.001 .449,1.701 .953,2.175-.234,.033-.469,.069-.704,.105m-2.56,7.327c.676-.058 2.195-.959 2.57-2.293 .015,1.946 .049,3.797 .141,5.659-.43-1.151-1.25-2.313-2.711-3.366m34.009-9.594c3.708,.907 7.446,2.583 8.208,5.6-1.995,2.386-6.233,2.381-7.034-1.473-.821,.684-1.254,1.341-1.427,1.95 .004-1.217 .002-2.477 .005-3.81-.232-.036-.463-.07-.694-.104 .499-.475 .848-1.17 .942-2.163m-.401,12.973c.093-1.859 .127-3.712 .141-5.659 .375,1.334 1.893,2.235 2.568,2.295-1.458,1.049-2.279,2.217-2.709,3.364m13.427,22.683c.399-.275 1.436-1.303 1.556-2.857-2.751,2.395-6.677,1.287-6.677,1.287s4.586-1.523 .817-6.668c.24,4.725-4.765,5.324-8.552,5.32-2.735,0-5.262,.307-7.057,1.076 3.182-4.52 5.204-9.494 5.75-13.234 .192-1.314 .342-2.559 .458-3.775l.021,.123c.359,1.951 1.096,2.807 4.386,4.184 3.288,1.377 3.097,3.535 1.384,4.861 2.551,.727 4.343-3.131 1.6-6.609 .27-.227 1.45-1.869-.135-3.871-.817,1.49-2.631,2.002-3.808,1.754 2.432,1.152 3.629-.461 3.829-.719 .657,1.553-.17,2.82-.957,2.832 1.355,1.035 2.282,2.258 1.969,4.205-.245-1.42-3.474-2.619-5.159-3.588-1.314-.758-2.092-2.84-.227-3.895 1.864-1.055 3.706-1.889 5.13-3.342 .242,.996 1.237,3.273 4.966,4.367-4.208-6.242 1.613-6.521-1.258-12.221-.478,5.422-8.012,6.697-8.012,6.697 6.278-2.511 8.272-6.209 7.117-9.869-.77-2.427-3.101-4.834-8.153-6.478 .996-.199 1.694-.468 2.212-.937-2.991,.699-3.838,.599-5.125,.418 6.184,1.713 9.375,3.833 10.007,6.698 .311,1.412 .08,2.615-.461,3.556-1.117-3.754-6.983-5.332-9.126-5.749-.006,1.213-.508,1.977-1.218,2.436l-3.781-.574c.393-.46 .613-1.168 .425-1.949-.297-1.238-1.539-2.764-5.028-5.186 .022-.299 .051-.588 .08-.869 1.548,1.238 4.538,2.82 7.209,3.539-2.12-.909-5.468-2.612-7.13-4.299 .006-.063 .014-.129 .019-.189 .018-.205 .03-.413 .043-.619 3.056,2.308 5.69,2.833 6.649,2.833-1.491-.407-7.33-3.096-10.137-7.486 .612,.019 1.223,.041 1.822,.065 .313,.498 1.634,2.455 4.035,4.212-2.137-2.052-2.946-4.245-2.946-4.245l-.025-.002c.771-.18 .927-.801 .921-1.097-.008-.471-.228-1.512-2.84-1.367h-.128c-.433-.14-1.471-.428-2.802-.474-.12-.747-.718-1.108-1.017,0-1.023,.093-2.04,.334-2.444,.438-.588-.054-1.311-.05-1.803,.11-1.14,.072-1.589,.662-1.606,1.247-.017,.563 .371,1.116 1.09,1.179-.384,.6-1.868,2.865-3.132,4.232 .877-.54 2.015-1.655 2.015-1.655l.11-.168c-.133,.438-.243,.832-.35,1.086-.2,.199-.574,.327-.622,.35-.049,.025-.368,.164-.39,.396l-.003,.094c-1.844,2.085-8.779,5.35-11.644,6.704 3.144-1.32 7.223-2.55 11.657-5.841 .033,.246 .09,.453 .159,.632-1.597,1.599-3.962,2.905-5.417,3.943 2.241-.901 4.332-2.438 5.74-3.384 .093,.105 .19,.185 .28,.236 .11,.043 .4,.064 .519,.079 .124,.109 .247,.262 .371,.437-3.347,2.345-4.554,3.841-4.846,5.054-.192,.798 .042,1.52 .449,1.979l-3.77,.574c-.73-.457-1.248-1.226-1.255-2.462-2.142,.417-8.008,1.994-9.125,5.749-.541-.941-.773-2.144-.461-3.556 .631-2.865 3.826-4.985 10.007-6.697-1.286,.179-2.133,.278-5.125-.419 .519,.469 1.218,.738 2.213,.938-5.053,1.644-7.385,4.05-8.152,6.479-1.159,3.658 .838,7.355 7.117,9.867 0,0-7.534-1.275-8.014-6.698-2.87,5.7 2.952,5.979-1.255,12.22 3.726-1.098 4.723-3.371 4.963-4.365 1.426,1.451 3.267,2.287 5.13,3.342 1.867,1.051 1.089,3.135-.226,3.893-1.684,.971-5.104,2.291-5.144,3.648-.359-1.955 .598-3.229 1.955-4.268-.789-.01-1.616-1.273-.958-2.826 .199,.258 1.394,1.875 3.827,.711-1.174,.252-2.99-.262-3.807-1.75-1.586,2.002-.403,3.646-.135,3.873-.46,.617-2.253,3.104-.859,5.582 .31,.549 1.213,1.43 2.449,1.033-1.675-1.316-1.894-3.492 1.396-4.865 3.288-1.375 4.026-2.234 4.384-4.188l.018-.111c.12,1.213 .268,2.463 .46,3.781 .55,3.752 2.583,8.746 5.786,13.283-1.79-.748-4.286-1.047-6.981-1.043-3.787,.002-8.792-.598-8.552-5.326-3.768,5.145 .817,6.668 .817,6.668s-3.928,1.109-6.678-1.283c.121,1.555 1.155,2.582 1.555,2.861-.357,.037-4.244,.539-6.317-2.728 1.315,8.094 13.597,3.83 15.509,2.861-.779,.738-2.353,2.791-.799,4.229 .041-2.027 2.194-3.061 2.751-3.168 .259,1.262 1.376,2.051 2.393,2.289-.239-1.355-.065-3.574 4.446-3.326 2.167,.117 4.296,1.563 6.09,2.959l.153,.119c1.396,1.33 2.91,2.531 4.54,3.529 1.617-.988 3.12-2.18 4.507-3.492 .1-.08 .195-.156 .297-.236l6.089-2.961c4.512-.242 4.684,1.975 4.447,3.33 1.017-.238 2.132-1.027 2.391-2.295 .559,.113 2.712,1.146 2.751,3.172 1.555-1.436-.021-3.49-.797-4.227 1.913,.965 14.193,5.234 15.508-2.861-2.07,3.269-5.959,2.761-6.318,2.718m-16.397-42.931c-1.503-.17-2.311-.439-3.323-1.034 2.938,2.303 7.4,2.927 11.617,2.149 1.837-.338 4.645-.208 6.338,.639-.537-1.046-3.368-2.969-4.82-3.174 1.75-2.817 .465-4.819 3.335-6.614-.508-.497-2.223-.816-3.508,.057-.589-.683-1.723-1.684-3.375-1.859-1.971-.211-3.364,.181-4.599,1.893 1.645-1.854 5.034-2.261 7.186-.229-3.428-1.674-5.839,1.633-6.049,5.221-.927-1.192-1.397-3.099-1.366-3.666-1.227,.12-2.343,1.176-2.432,2.91-.449-.598-1.676-3.967 .677-5.621-.677-.797-.917-1.676-.708-2.263 1.525,.926 3.817,.667 6.33,1.264-2.432-1.475-5.059-.547-6.927-2.281-.414,1.107 .029,2.281 .597,3.199-2.601,2.87-.687,6.608 .54,7.296-.149-1.315 .337-2.884 1.445-3.469 .253,1.867 1.903,3.618 2.172,4.096 .031-.927 .346-4.642 1.675-4.536 .815,.067 1.453,1.617 1.156,2.731-.402,1.517-1.556,3.787-5.961,3.291m-13.786-1.978c.172-.375 .515-1.474 .799-2.332l-.642-.113c-.374,.896-.982,2.325-1.053,2.557 .223-.008 .739-.083 .896-.112m-19.463,3.081c4.215,.776 8.678,.153 11.618-2.15-1.011,.595-1.819,.864-3.325,1.034-4.404,.496-5.555-1.773-5.959-3.29-.298-1.114 .339-2.664 1.155-2.73 1.329-.106 1.645,3.609 1.676,4.535 .267-.479 1.919-2.23 2.17-4.097 1.109,.584 1.595,2.153 1.446,3.468 1.227-.687 3.14-4.426 .541-7.295 .566-.916 1.009-2.093 .596-3.199-1.869,1.733-4.495,.806-6.926,2.283 2.511-.599 4.804-.341 6.331-1.268 .207,.589-.033,1.465-.709,2.264 2.351,1.653 1.127,5.022 .678,5.621-.09-1.734-1.206-2.792-2.432-2.909 .028,.567-.44,2.471-1.366,3.668-.21-3.589-2.622-6.898-6.049-5.223 2.151-2.034 5.541-1.625 7.185,.229-1.235-1.71-2.628-2.104-4.598-1.893-1.651,.175-2.786,1.174-3.376,1.861-1.285-.874-2.999-.556-3.507-.057 2.871,1.793 1.586,3.798 3.336,6.612-1.452,.205-4.282,2.129-4.82,3.175 1.69-.849 4.498-.979 6.335-.639m22.087-2.173c-1.2,.114-4.365,.468-6.698,.228-.36-.199-.639-.378-.897-.778 .039,.579 .241,.947 .478,1.286 1.097,.16 6.321-.318 7.117-.736m-3.628-14.93c.16,1.555 .917,2.392 1.276,2.232 .358-.16-.4-3.109 1.316-4.625-.798,1.634-.009,2.926 .278,4.464 .19,1.025-.12,2.553-.638,2.832-.519,.278-2.79-1.357-2.232-4.903m-1.096,3.526c.362,1.463 1.71,2.507 3.409,2.65 .828,.07 2.271-.438 2.472-1.954-1.436,.519-.718-.796 .278-1.316 .998-.517 1.886-2.012 .868-3.806-.241,1.972-2.251,2.827-2.022,1.694 .159-.797 2.511-3.509 .795-6.658-.237,.956-.179,1.854-.956,1.673-.76-.175-1.694-3.37-.199-4.743-1.625,.17-2.761,2.112-2.552,3.428 .21,1.315 .869,2.961 0,3.469-.484,.285-.829,.07-.927-.33-.183-.756 .045-2.251-1.464-2.78 1.016,2.035-.438,5.704 .298,8.673"/>
    <g fill="#231f20">
        <path d="m93.547,29.841h-.231c-.279-.558-1.094-2.186-4.444-2.186-3.885,0-5.955,2.558-5.955,6.956 0,.813 0,2.976 1.419,4.86 .839,1.096 2.094,2.117 4.21,2.117 2.862,0 4.328-1.418 5.375-2.651l.256,.162-.256,2.304c-1.769,.978-3.768,1.466-5.887,1.466-4.536,0-8.305-2.813-8.305-8.049 0-4.676 2.862-8.422 9.073-8.422 1.907,0 3.583,.325 5.443,1.164l-.698,2.279z"/>
        <path d="m96.945,26.586c.443,.046 1.304,.139 1.653,.139 .51,0 1.093-.071 1.652-.139-.256,1.72-.256,5.746-.256,8.096 0,3.465 .047,5.976 .232,7.863-.535-.025-1.093-.139-1.627-.139-.512,0-1.165,.115-1.676,.139 .256-2.769 .256-6.607 .256-10.586 0-1.466 0-3.117-.234-5.373"/>
        <path d="m110.184,39.357c0,1.767 .093,2.537 .164,3.185-.675-.069-1.42-.138-1.699-.138-.396,0-.745,.048-1.583,.138 .093-1.766 .232-3.557 .232-5.326l-.023-6.491c0-.861-.023-1.674-.047-2.582h-1.163c-.21,0-2.443,.045-3.628,.161 .068-.278 .115-.58 .115-.858 0-.281-.047-.582-.115-.861 1.837,.116 4.42,.139 6.211,.139 1.931,0 3.978-.023 6.209-.139-.069,.396-.116,.697-.116,.884 0,.256 .047,.464 .116,.837-1.372-.138-3.022-.162-4.628-.162-.023,.837-.048,1.721-.048,2.604v8.609h.003z"/>
        <path d="m125.004,37.17c0,1.954 .069,3.21 .164,5.374-.535-.047-1.071-.139-1.605-.139-.465,0-1.119,.092-1.559,.139 .069-1.815 .139-4.863 .139-6.305l-1.372-2.373c-1.186-2.047-3.163-5.258-4.373-7.281 .86,.092 1.396,.139 1.906,.139 .56,0 1.234-.023 1.908-.139 1.21,2.56 2.094,4.396 4.071,7.862 1.977-3.396 2.349-4.187 4.023-7.862 .374,.068 .839,.139 1.35,.139 .465,0 .719-.047 .976-.139-.347,.627-2.046,3.327-2.395,3.885-1.045,1.674-1.955,3.419-2.932,5.093-.163,.279-.302,.535-.302,.745v.862h.001z"/>
        <path d="m141.383,28.354c-.07,1.768-.07,4.001-.07,6.001 0,3.7 .049,4.537 .721,5.444 .676,.907 1.932,1.419 3.561,1.419 1.883,0 3.373-.976 3.885-2.396 .186-.511 .301-1.234 .301-3.141 0-3.023-.021-6.071-.207-9.094 .326,.045 .674,.139 1.047,.139s.744-.094 1.094-.139l-.068,1.115c-.119,2.001-.188,6.794-.234,9.143-.047,2.745-.838,4.001-2.371,4.977-1.094,.699-2.654,1.001-3.91,1.001-2.791,0-6.141-.883-6.654-4.488-.045-.328-.045-1.024-.045-1.235v-6.326c0-1.188-.047-3-.115-4.187 .535,.068 1.113,.139 1.625,.139s1.049-.071 1.512-.139l-.072,1.767z"/>
        <path d="m154.969,33.123c0-2.188-.023-4.374-.047-6.537 .184,.023 .373,.046 .559,.046s.348-.023 .533-.046c2.211,2.442 4.283,4.606 7.098,7.351l2.746,2.699c.441,.418 .65,.582 1.162,1v-5.165c0-1.976-.119-3.978-.283-5.885 .283,.069 .586,.139 1.004,.139 .42,0 .697-.069 .977-.139-.209,2.814-.256,4.466-.256,7.863 0,1.35 .023,4.699 .023,5.908 0,.511 .023,1.723 .023,2.303-.162-.024-.328-.046-.467-.046-.16,0-.326,.023-.488,.046-2.953-3.211-8.676-8.911-11.143-11.167 0,3.164 .023,4.862 .07,7.328 .023,1.35 .049,1.582 .209,3.721-.256-.021-.723-.138-1.047-.138-.35,0-.652,.071-.93,.138l.186-3.233c.045-.627 .07-2.371 .07-3.024v-3.162h.001z"/>
        <path d="m172.092,26.586c.439,.046 1.305,.139 1.652,.139 .512,0 1.094-.071 1.65-.139-.254,1.72-.254,5.746-.254,8.096 0,3.465 .047,5.976 .23,7.863-.533-.025-1.094-.139-1.625-.139-.512,0-1.164,.115-1.674,.139 .256-2.769 .256-6.607 .256-10.586-.001-1.466-.001-3.117-.235-5.373"/>
        <path d="m186.865,36.563c.209-.535 2.813-7.024 3.723-9.978 .512,.094 .814,.139 1.07,.139 .279,0 .605-.045 1.115-.139-1.023,2.023-2.42,5.257-3.324,7.397-1.189,2.814-2.305,5.675-3.326,8.562-.281-.07-.441-.139-.861-.139-.559,0-.744,.07-1.07,.139-1.047-2.978-1.162-3.396-2.77-7.236-.348-.837-1.834-4.513-2.135-5.233-.236-.558-1.305-3.001-1.516-3.489 .559,.116 1.303,.139 1.887,.139 .533,0 1.137-.069 1.721-.139 .676,2.302 1.094,3.536 3.002,8.466 .488,1.257 1.07,2.467 1.605,3.7l.879-2.189z"/>
        <path d="m197.754,33.494c1.188,0 3.789-.023 5.021-.162-.068,.256-.113,.488-.113,.838 0,.325 .047,.627 .113,.791-.604-.047-1.207-.095-1.789-.117-1.068-.022-2.164-.047-3.232-.047v6.306c.605,0 3.582-.071 5.559-.163-.09,.209-.117,.441-.117,.767 0,.349 .027,.582 .117,.838-1.396-.094-2.789-.142-4.281-.142-1.395,0-2.857,.048-4.348,.142 .047-.978 .092-1.933 .115-2.909 .047-1.35 .092-4.187 .092-5.257 0-.976-.045-5.467-.207-7.792 1.139,.07 2.953,.139 4.209,.139 1.068,0 2.604-.092 4.279-.139-.07,.28-.115,.466-.115,.744 0,.35 .045,.676 .115,.862l-2.186-.117c-.861-.047-1.096-.047-3.232-.047v5.465l0,0z"/>
        <path d="m209.459,33.865c.438,.024 .998,.071 1.604,.071 2.326,0 3.186-1.699 3.186-3.21 0-.976-.162-1.814-.977-2.418-.625-.464-1.395-.581-2.162-.581-.441,0-1.307,.093-1.65,.117v6.021h-.001zm4.463,1.699c.35,.487 .861,1.255 1.209,1.745 1.84,2.583 2.467,3.396 3.934,5.233-.654-.067-1.232-.138-2.072-.138-.906,0-1.188,.046-1.885,.138-.348-.537-.859-1.396-1.209-1.931-1.188-1.837-2.629-3.886-3.885-5.654h-.559v3.304c0,.676 .092,3.676 .092,4.279-.467-.045-.975-.137-1.561-.137-.533,0-1.09,.071-1.604,.137 .188-4.582 .209-5.093 .209-9.582 0-3.049 0-3.375-.162-6.375 .535,.047 1.139,.117 2.326,.117 .604,0 3.303-.117 3.84-.117 1.51,0 2.65,.188 3.648,1.142 .697,.673 1.07,1.627 1.07,2.604 0,2.583-1.93,3.908-4.047,4.302l.656,.933z"/>
        <path d="m221.322,39.055c1.07,2.327 2.234,2.675 3.605,2.675 1.84,0 3.049-1.233 3.049-2.908 0-1.839-1.467-2.49-1.908-2.676-.65-.279-1.744-.698-2.395-.978-2.256-1-2.932-2.187-2.932-4.116 0-2.047 1.209-4.654 5.422-4.654 1.695,0 2.719,.444 3.859,.955-.465,1.14-.512,1.326-.721,2.21h-.324c-.35-1.325-1.584-2.024-3.049-2.024-1.838,0-2.746,1.14-2.746,2.514 0,1.697 1.188,2.163 3.232,2.954 1.791,.699 2.488,.955 3.164,1.698 .977,1.047 1.141,2.419 1.141,3.07 0,2.373-1.654,5.095-5.908,5.095-2,0-3.514-.767-4.35-1.187 .393-1.21 .418-1.511 .533-2.627h.328z"/>
        <path d="m233.441,26.586c.441,.046 1.305,.139 1.654,.139 .51,0 1.092-.071 1.65-.139-.256,1.72-.256,5.746-.256,8.096 0,3.465 .047,5.976 .232,7.863-.535-.025-1.094-.139-1.627-.139-.512,0-1.164,.115-1.676,.139 .256-2.769 .256-6.607 .256-10.586 .002-1.466 .002-3.117-.233-5.373"/>
        <path d="m247.145,39.357c0,1.767 .092,2.537 .164,3.185-.676-.069-1.418-.138-1.699-.138-.395,0-.744,.048-1.582,.138 .096-1.766 .234-3.557 .234-5.326l-.025-6.491c0-.861-.021-1.674-.043-2.582h-1.164c-.209,0-2.441,.045-3.629,.161 .068-.278 .115-.58 .115-.858 0-.281-.047-.582-.115-.861 1.838,.116 4.42,.139 6.211,.139 1.93,0 3.979-.023 6.211-.139-.07,.396-.117,.697-.117,.884 0,.256 .047,.464 .117,.837-1.373-.138-3.023-.162-4.629-.162-.025,.837-.047,1.721-.047,2.604v8.609h-.002z"/>
        <path d="m262.199,37.17c0,1.954 .07,3.21 .164,5.374-.535-.047-1.072-.139-1.605-.139-.467,0-1.117,.092-1.563,.139 .072-1.815 .141-4.863 .141-6.305l-1.373-2.373c-1.186-2.047-3.16-5.258-4.371-7.281 .861,.092 1.396,.139 1.908,.139 .557,0 1.23-.023 1.908-.139 1.209,2.56 2.092,4.396 4.07,7.862 1.979-3.396 2.346-4.187 4.023-7.862 .373,.068 .84,.139 1.35,.139 .465,0 .723-.047 .979-.139-.348,.627-2.049,3.327-2.398,3.885-1.045,1.674-1.953,3.419-2.928,5.093-.166,.279-.303,.535-.303,.745v.861l-.002,.001z"/>
        <path d="m82.646,56.203c0-1.023 0-1.26-.07-3.328-.023-.486-.07-2.582-.093-3.023 .582,.117 1.023,.139 1.605,.139 .581,0 1.047-.043 1.627-.139-.163,3.516-.232,6.445-.232,10.027 0,1.627 .047,3.141 .069,4.42h.419c.676,0 4.024,0 5.396-.209-.068,.258-.114,.393-.114,.93 0,.35 .021,.488 .114,.791-1.186-.047-3.186-.139-4.442-.139-1.488,0-2.745,.047-4.443,.139 0-.375 .163-5.77 .163-6.352v-3.256h.001z"/>
        <path d="m101.328,64.949c3.954,0 5.49-3.721 5.49-7.049 0-3.793-1.419-7.047-5.49-7.047-4.001,0-5.491,3.861-5.491,7.047 0,3.465 1.49,7.049 5.491,7.049m8.677-7.326c0,5.188-3.512,8.514-8.677,8.514-4.839,0-8.678-2.863-8.678-7.961 0-5.902 4.049-8.512 8.747-8.512 4.351,0 8.608,2.373 8.608,7.959"/>
        <path d="m112.87,56.389c0-2.188-.025-4.375-.047-6.537 .185,.023 .372,.047 .559,.047 .184,0 .348-.023 .534-.047 2.211,2.443 4.282,4.605 7.096,7.35l2.746,2.701c.442,.418 .651,.58 1.163,1v-5.164c0-1.979-.116-3.98-.28-5.887 .28,.07 .583,.139 1.002,.139 .418,0 .698-.07 .976-.139-.21,2.813-.255,4.467-.255,7.863 0,1.348 .021,4.697 .021,5.906 0,.514 .023,1.727 .023,2.305-.163-.023-.325-.049-.466-.049-.163,0-.325,.025-.487,.049-2.954-3.211-8.677-8.91-11.143-11.166 0,3.164 .022,4.861 .069,7.324 .022,1.352 .047,1.586 .209,3.727-.257-.025-.721-.143-1.047-.143-.349,0-.652,.072-.931,.143l.187-3.232c.045-.629 .07-2.373 .07-3.025v-3.165z"/>
        <path d="m132.921,61.229c0,1.068 .07,2.164 .117,3.234 .511,.023 2.581,.113 3.163,.113 1.535,0 5.49-1.141 5.49-7.119 0-3-1.418-6.373-6.258-6.373-.791,0-1.602,.045-2.396,.119-.047,.928-.116,1.881-.116,2.813v7.213zm8.493,3.257c-1.627,1.045-3.141,1.324-5.049,1.324-1.418,0-2.861-.117-4.28-.117-.721,0-1.466,.07-2.187,.117l.139-4.258c.025-1.023 .025-1.535 .025-4.305 0-1.465 .022-2.906-.047-4.373-.047-.998-.069-2-.116-3.023 .629,.047 1.28,.117 1.909,.117 1.256,0 2.629-.117 4.023-.117 1.979,0 4.444,.096 6.374,1.607 1.791,1.396 2.676,3.488 2.676,5.908 0,3.282-1.281,5.722-3.467,7.12"/>
        <path d="m155.977,64.949c3.957,0 5.492-3.721 5.492-7.049 0-3.793-1.42-7.047-5.492-7.047-4,0-5.488,3.861-5.488,7.047-.001,3.465 1.488,7.049 5.488,7.049m8.679-7.326c0,5.188-3.514,8.514-8.68,8.514-4.836,0-8.678-2.863-8.678-7.961 0-5.902 4.051-8.512 8.75-8.512 4.352,0 8.608,2.373 8.608,7.959"/>
        <path d="m167.52,56.389c0-2.188-.025-4.375-.047-6.537 .184,.023 .371,.047 .557,.047s.348-.023 .535-.047c2.211,2.443 4.279,4.605 7.096,7.35l2.746,2.701c.439,.418 .652,.58 1.16,1v-5.164c0-1.979-.115-3.98-.279-5.887 .279,.07 .582,.139 1.004,.139 .418,0 .695-.07 .973-.139-.207,2.813-.252,4.467-.252,7.863 0,1.348 .021,4.697 .021,5.906 0,.514 .023,1.727 .023,2.305-.164-.023-.328-.049-.465-.049-.164,0-.326,.025-.488,.049-2.955-3.211-8.68-8.91-11.143-11.166 0,3.164 .021,4.861 .068,7.324 .023,1.352 .049,1.586 .209,3.727-.256-.025-.721-.143-1.047-.143-.35,0-.65,.072-.93,.143l.184-3.232c.047-.629 .072-2.373 .072-3.025v-3.164h.003z"/>
    </g>
    <path fill="#d92432" d="m46.928,81.314c.213-.301 .42-.592 .619-.871 .199-.283 .383-.547 .551-.791 .167-.242 .305-.449 .413-.623 .091,.025 .166,.033 .23,.033 .062,0 .133-.01 .215-.033-.015,.299-.026,.629-.033,1.002-.011,.367-.015,.746-.015,1.135v.74c.129,0 .252-.004 .369-.018 .116-.012 .213-.021 .289-.035-.024,.09-.034,.164-.034,.223 0,.057 .011,.131 .034,.221-.077-.014-.173-.023-.289-.031-.117-.006-.24-.008-.369-.008v.281c0,.176 .004,.357 .015,.541 .007,.184 .016,.33 .026,.436-.089-.008-.188-.012-.296-.012-.106,0-.205,.004-.296,.012 .01-.117 .021-.264 .035-.447 .013-.182 .019-.361 .019-.531v-.283c-.103,0-.252,.004-.445,.006-.195,.002-.399,.006-.613,.008-.211,.006-.415,.01-.606,.018-.193,.008-.336,.014-.431,.016v-.119c.194-.282 .398-.571 .612-.87m1.468-1.666c-.094,.133-.211,.297-.356,.5-.143,.203-.291,.416-.443,.631-.153,.219-.295,.428-.433,.627-.137,.201-.242,.371-.318,.5h1.565v-2.258h-.015zm-5.182,3.674c.112,.049 .23,.074 .356,.074 .242,0 .45-.066 .622-.201 .173-.137 .313-.309 .42-.527 .108-.215 .187-.459 .238-.729 .052-.268 .079-.539 .079-.807h-.016c-.103,.189-.241,.342-.418,.457-.178,.119-.401,.176-.67,.176-.406,0-.725-.115-.956-.346-.23-.232-.346-.561-.346-.992 0-.203 .036-.395 .105-.57 .069-.174 .167-.324 .298-.453 .129-.129 .286-.229 .47-.299 .184-.078 .39-.113 .619-.113 .202,0 .393,.033 .574,.105 .18,.068 .34,.178 .475,.334 .139,.152 .247,.354 .33,.596 .082,.242 .125,.543 .125,.896 0,.373-.045,.725-.135,1.049-.088,.326-.219,.611-.39,.852-.169,.242-.377,.43-.619,.563-.246,.137-.524,.203-.836,.203-.117,0-.224-.01-.318-.027-.092-.021-.166-.041-.214-.059-.013-.047-.032-.109-.057-.178-.025-.074-.05-.135-.077-.182l.032-.021c.094,.082 .198,.15 .309,.199m1.44-3.826c-.164-.191-.379-.291-.647-.291-.269,0-.486,.111-.648,.328-.164,.217-.246,.516-.246,.895 0,.391 .074,.668 .223,.84 .147,.166 .348,.248 .603,.248 .157,0 .296-.033 .415-.109 .118-.068 .218-.162 .298-.277 .08-.117 .143-.25 .186-.404 .042-.152 .063-.309 .063-.471-.002-.312-.082-.564-.247-.759m-5.748,2.053c.15-.227 .397-.402 .748-.52v-.043c-.083-.02-.171-.053-.258-.107-.088-.051-.167-.115-.237-.193-.073-.078-.131-.172-.175-.279-.045-.109-.067-.227-.067-.348 0-.145 .03-.277 .091-.406 .061-.127 .144-.24 .255-.338 .11-.1 .241-.178 .396-.234 .154-.059 .329-.088 .52-.088 .224,0 .415,.027 .578,.084 .16,.055 .292,.127 .395,.215 .104,.092 .182,.195 .234,.313 .05,.119 .076,.244 .076,.377 0,.215-.064,.41-.19,.592-.128,.182-.316,.311-.561,.391v.049c.075,.016 .169,.041 .282,.082 .111,.045 .217,.109 .318,.193 .101,.088 .188,.203 .258,.34 .073,.139 .108,.313 .108,.518 0,.223-.039,.428-.118,.602-.078,.182-.185,.336-.322,.465-.137,.125-.296,.223-.477,.281-.181,.064-.375,.096-.58,.096-.211,0-.408-.025-.591-.078-.185-.049-.343-.131-.477-.246-.135-.111-.24-.246-.315-.406-.077-.164-.115-.348-.115-.559-.003-.275 .074-.521 .224-.753m1.964-1.815c-.028-.102-.071-.193-.132-.271-.06-.078-.133-.141-.224-.186-.089-.049-.198-.072-.327-.072-.126,0-.234,.023-.326,.072-.093,.045-.167,.107-.224,.186-.058,.08-.102,.17-.129,.271-.025,.104-.04,.211-.04,.328 0,.113 .014,.223 .04,.328 .027,.105 .071,.195 .129,.277 .057,.076 .131,.139 .224,.188 .092,.049 .2,.072 .326,.072 .129,0 .238-.023 .327-.072 .091-.049 .164-.111 .224-.188 .062-.082 .104-.174 .132-.277 .027-.105 .042-.213 .042-.328 0-.117-.015-.224-.042-.328m.151,2.08c-.042-.135-.103-.256-.182-.355-.079-.104-.174-.182-.285-.236-.113-.055-.239-.082-.377-.082s-.265,.027-.376,.082c-.112,.055-.208,.133-.284,.236-.079,.1-.14,.221-.182,.355-.043,.135-.064,.287-.064,.451 0,.166 .021,.318 .064,.455 .042,.137 .103,.254 .183,.357 .078,.098 .173,.178 .284,.23 .111,.059 .237,.088 .376,.088 .139,0 .264-.029 .377-.088 .111-.055 .207-.133 .286-.23 .078-.104 .139-.221 .18-.357 .044-.137 .064-.289 .064-.455 0-.163-.02-.316-.064-.451m-5.146-1.949c-.049-.09-.115-.166-.201-.217v-.047c.255-.104 .516-.217 .782-.338 .265-.125 .516-.244 .748-.359l.048,.031c-.019,.299-.032,.59-.04,.877-.008,.289-.013,.582-.013,.875v1.123c0,.297 .004,.586 .013,.869 .008,.285 .021,.563 .04,.836-.053-.008-.108-.012-.157-.012h-.159-.159c-.051,0-.104,.004-.157,.012 .022-.275 .038-.555 .043-.84 .006-.283 .01-.568 .01-.865v-2.39l-.798,.445zm-4.591-.611c-.118,0-.239,0-.367,.002-.128,.004-.255,.008-.382,.014-.128,.008-.252,.016-.369,.021-.119,.014-.224,.025-.32,.037 .021-.08 .033-.154 .033-.217 0-.049-.012-.119-.033-.207 .296,.012 .584,.018 .868,.023 .282,.008 .571,.012 .865,.012 .296,0 .585-.004 .865-.012 .284-.006 .572-.014 .868-.023-.021,.088-.033,.158-.033,.217 0,.055 .012,.127 .033,.207-.094-.014-.201-.025-.318-.037-.12-.006-.245-.016-.372-.021-.128-.006-.254-.01-.383-.014-.127-.002-.25-.004-.366-.004-.014,.459-.021,.924-.021,1.393v1.152c0,.297 .006,.586 .017,.877 .011,.281 .025,.566 .037,.84-.104-.006-.212-.012-.33-.012-.118,0-.226,.006-.329,.012 .012-.273 .026-.557 .037-.84 .01-.291 .016-.58 .016-.877v-1.152c.002-.469-.005-.932-.016-1.391m-4.555,3.635c.06,.082 .134,.156 .222,.225s.189,.125 .304,.166c.118,.043 .247,.064 .39,.064 .149,0 .281-.025 .4-.078 .119-.051 .22-.119 .302-.209 .083-.086 .146-.186 .191-.309 .045-.119 .068-.242 .068-.379 0-.207-.053-.367-.158-.488-.105-.123-.237-.223-.392-.305-.158-.08-.327-.15-.509-.221-.18-.068-.35-.15-.507-.25-.156-.104-.286-.229-.391-.387-.106-.154-.159-.367-.159-.631 0-.188 .033-.359 .1-.514 .068-.154 .166-.289 .292-.4 .128-.111 .281-.199 .46-.262 .18-.063 .381-.094 .605-.094 .214,0 .4,.025 .556,.078 .157,.051 .304,.129 .437,.236-.041,.078-.074,.156-.101,.242-.027,.086-.054,.191-.08,.322h-.081c-.022-.063-.053-.131-.092-.207-.036-.07-.088-.143-.155-.205-.064-.059-.141-.113-.23-.158-.089-.041-.197-.061-.322-.061-.126,0-.24,.02-.345,.059-.106,.041-.198,.098-.275,.172-.079,.074-.139,.164-.183,.268-.042,.104-.063,.217-.063,.336 0,.209 .051,.371 .156,.494 .106,.119 .236,.225 .393,.305 .159,.082 .326,.156 .508,.223s.35,.143 .507,.236c.157,.094 .288,.217 .393,.363 .105,.15 .159,.346 .159,.59 0,.209-.038,.4-.112,.586-.075,.186-.182,.344-.323,.48-.141,.139-.313,.24-.517,.314-.204,.078-.435,.113-.694,.113-.278,0-.504-.035-.676-.113-.171-.074-.316-.156-.433-.25 .04-.104 .068-.195 .084-.277 .014-.082 .031-.189 .044-.322h.079c.041,.08 .088,.166 .148,.248m-3.659-3.127c-.01-.285-.022-.572-.036-.857 .201,.01 .401,.018 .601,.023 .199,.004 .399,.01 .601,.01 .202,0 .401-.006 .599-.01 .196-.006 .395-.014 .597-.023-.013,.066-.02,.131-.02,.203 0,.064 .007,.131 .02,.201-.144-.012-.274-.02-.393-.027-.118-.012-.243-.018-.377-.027-.131-.01-.274-.016-.431-.023-.157-.006-.345-.008-.563-.008-.004,.143-.01,.275-.018,.408-.006,.127-.01,.275-.01,.439 0,.176 .001,.346 .004,.514 0,.166 .002,.289 .002,.375 .198,0 .376-.002 .533-.01 .156-.002 .3-.012 .429-.016s.25-.014 .359-.018c.108-.008 .214-.014 .312-.025-.014,.068-.02,.137-.02,.209 0,.066 .006,.135 .02,.199-.117-.014-.251-.023-.407-.031-.154-.01-.309-.016-.464-.018-.154-.002-.3-.004-.435-.006-.138-.002-.245-.002-.328-.002 0,.035-.001,.082-.002,.129-.002,.047-.004,.107-.004,.178v.262 .402c0,.256 .001,.467 .004,.631 0,.166 .005,.291 .011,.379h.47c.17,0 .337-.004 .499-.012 .165-.01 .32-.016 .464-.027s.273-.027 .379-.051c-.009,.029-.015,.064-.016,.105-.002,.037-.004,.07-.004,.104 0,.07 .007,.129 .021,.172-.201-.006-.402-.012-.601-.012h-.607-.612c-.201,0-.402,.006-.609,.012 .014-.283 .025-.57 .036-.852 .011-.283 .018-.572 .018-.871v-1.158c-.004-.293-.011-.584-.022-.871"/>
</svg>
