<?xml version="1.0" encoding="UTF-8" standalone="no"?>
<svg xmlns:dc="http://purl.org/dc/elements/1.1/" xmlns:cc="http://creativecommons.org/ns#" xmlns:rdf="http://www.w3.org/1999/02/22-rdf-syntax-ns#" xmlns:svg="http://www.w3.org/2000/svg" xmlns="http://www.w3.org/2000/svg" id="svg1118" version="1.1" viewBox="0 0 29.104167 29.104169" height="110" width="110">
  <defs id="defs1112"/>
  <metadata id="metadata1115">
    <rdf:RDF>
      <cc:Work rdf:about="">
        <dc:format>image/svg+xml</dc:format>
        <dc:type rdf:resource="http://purl.org/dc/dcmitype/StillImage"/>
        <dc:title/>
      </cc:Work>
    </rdf:RDF>
  </metadata>
  <g transform="translate(-95.153616,-29.124491)" id="layer1">
    <g transform="translate(0.09260436)" id="g5394">
      <polygon transform="matrix(0.26458333,0,0,0.26458333,94.597991,27.880953)" class="lws-logo__arr1" points="69.2,103.2 56.8,65.2 44,103.4 53.7,96.5 53.7,114.7 60.2,114.7 60.2,96.6 " id="polygon1274" style="fill:#f47421;fill-opacity:1"/>
      <polygon transform="matrix(0.26458333,0,0,0.26458333,94.597991,27.880953)" class="lws-logo__arr2" points="36.1,98.3 54.2,62.6 18.2,80.6 29.9,82.6 17.1,95.4 21.6,100 34.4,87.3 " id="polygon1276" style="fill:#ee2a7b;fill-opacity:1"/>
      <polygon transform="matrix(0.26458333,0,0,0.26458333,94.597991,27.880953)" class="lws-logo__arr3" points="51.6,60 13.4,47.3 20.3,57 2.1,57 2.1,63.4 20.1,63.4 13.5,72.4 " id="polygon1278" style="fill:#92278f;fill-opacity:1"/>
      <polygon transform="matrix(0.26458333,0,0,0.26458333,94.597991,27.880953)" class="lws-logo__arr4" points="34.2,33.1 21.4,20.3 16.8,24.9 29.5,37.6 18.5,39.3 54.2,57.4 36.2,21.4 " id="polygon1280" style="fill:#2b3990;fill-opacity:1"/>
      <polygon transform="matrix(0.26458333,0,0,0.26458333,94.597991,27.880953)" class="lws-logo__arr5" points="59.8,23.5 59.8,5.3 53.4,5.3 53.4,23.4 44.4,16.8 56.8,54.8 69.5,16.6 " id="polygon1282" style="fill:#0099bd;fill-opacity:1"/>
      <polygon transform="matrix(0.26458333,0,0,0.26458333,94.597991,27.880953)" class="lws-logo__arr6" points="96.5,24.6 91.9,20 79.2,32.7 77.5,21.7 59.4,57.4 95.4,39.4 83.7,37.4 " id="polygon1284" style="fill:#1f8a71;fill-opacity:1"/>
      <polygon transform="matrix(0.26458333,0,0,0.26458333,94.597991,27.880953)" class="lws-logo__arr7" points="93.4,56.6 100,47.6 62,60 100.1,72.7 93.3,63 111.4,63 111.4,56.6 " id="polygon1286" style="fill:#bed73c;fill-opacity:1"/>
      <polygon transform="matrix(0.26458333,0,0,0.26458333,94.597991,27.880953)" class="lws-logo__arr8" points="95,80.7 59.4,62.6 77.4,98.6 79.4,86.9 92.2,99.7 96.8,95.1 84,82.4 " id="polygon1288" style="fill:#fee110;fill-opacity:1"/>
    </g>
  </g>
</svg>