<svg xmlns="http://www.w3.org/2000/svg" width="325" height="134" viewBox="0 0 324.45 133.16"><defs><style>.cls-1{fill:#ed1c24;}.cls-2{fill:#ed1c24;}</style></defs><title>mdx-logoAsset 3</title><g id="Layer_2" data-name="Layer 2"><g id="Layer_1-2" data-name="Layer 1"><path class="cls-1" d="M111.32,4.45,55.34,0,.39,4.25S0,16.75,0,32.23c0,79.32,55.68,100.45,55.68,100.45s56-20.93,56-100.25c0-15.48-.39-28-.39-28"/><path class="cls-2" d="M151,37.85c0-.82-2-21.94-2-21.94-.18-2.07-.14-4-.14-4h-.09s-.33,1.88-.92,4c0,0-5.71,20.83-6.08,21.94H138.4c-.32-1-6-22-6-22-.55-2.07-.92-3.95-.92-3.95h-.09s0,1.88-.15,3.95c0,0-2,21-2,22h-5l3.57-33.17h5.93l5.71,21.26c.55,2.12.83,3.71.83,3.71h.1a31.91,31.91,0,0,1,.83-3.71l5.89-21.26H153l3.58,33.17Z"/><path class="cls-2" d="M161.91,11.86h5.66v26h-5.66Zm2.83-4.48a3,3,0,0,1-3.1-2.9,3.11,3.11,0,0,1,6.21,0,3,3,0,0,1-3.11,2.9"/><path class="cls-2" d="M187.55,15.29A8.23,8.23,0,0,0,185,15c-4.91,0-6.58,4.39-6.58,9.88,0,5.88,1.81,9.74,6.17,9.74a5.21,5.21,0,0,0,2.92-.58Zm-3.06,23c-7.37,0-11.63-4.92-11.63-13.16,0-8.49,4.44-13.55,10.94-13.55a13.17,13.17,0,0,1,3.75.48V0h5.66V36.45c-2,1.16-4.82,1.88-8.72,1.88"/><path class="cls-2" d="M213,15.29A8.28,8.28,0,0,0,210.5,15c-4.91,0-6.58,4.39-6.58,9.88,0,5.88,1.8,9.74,6.16,9.74A5.25,5.25,0,0,0,213,34Zm-3.06,23c-7.38,0-11.64-4.92-11.64-13.16,0-8.49,4.45-13.55,10.94-13.55a13.29,13.29,0,0,1,3.76.48V0h5.65V36.45c-2,1.16-4.82,1.88-8.71,1.88"/><rect class="cls-2" x="225.2" width="5.65" height="37.85"/><path class="cls-2" d="M246.66,15c-3.29,0-5.56,2.8-5.42,9l10.34-1.63c0-5.26-1.81-7.39-4.92-7.39m-5.1,12c.46,4.82,2.69,7.23,6.82,7.23a13.24,13.24,0,0,0,6.3-1.44L256,36.5a16.55,16.55,0,0,1-8.26,1.83c-7.09,0-11.59-4.77-11.59-13.55,0-8.48,4.13-13.4,10.67-13.4s10.24,4.58,10,13.3Z"/><path class="cls-2" d="M267.24,38.28a12.39,12.39,0,0,1-6.92-1.88l1.5-3.76a7.58,7.58,0,0,0,4.68,1.5,3.59,3.59,0,0,0,3.84-3.67c0-2.22-1.11-3.27-3.66-4.29C262,24.3,261,21.6,261,18.9c0-4.15,3.15-7.52,7.93-7.52a11.15,11.15,0,0,1,6.49,1.83L274,16.64a6.44,6.44,0,0,0-4-1.45,3.33,3.33,0,0,0-3.57,3.42c0,2.12,1.53,3.18,3.71,4.1,4.87,2,6,4.63,6,7.67,0,4.24-3.43,7.9-8.9,7.9"/><path class="cls-2" d="M290.66,15c-3.3,0-5.57,2.8-5.43,9l10.34-1.63c0-5.26-1.8-7.39-4.91-7.39m-5.1,12c.47,4.82,2.69,7.23,6.81,7.23a13.28,13.28,0,0,0,6.31-1.44L300,36.5a16.58,16.58,0,0,1-8.26,1.83c-7.09,0-11.59-4.77-11.59-13.55,0-8.48,4.12-13.4,10.66-13.4s10.25,4.58,10,13.3Z"/><polygon class="cls-2" points="318.38 11.86 313.97 20.34 313.89 20.34 309.66 11.86 303.73 11.86 310.68 24.4 302.94 37.85 308.68 37.85 313.46 28.4 313.56 28.4 318.24 37.85 324.45 37.85 316.62 24.01 323.71 11.86 318.38 11.86"/><path class="cls-2" d="M135.89,85c-6.25,0-10.52-4.14-10.52-10.17V51.29h5.89V74.77c0,3.57,2.23,5.49,4.87,5.49S141,78.34,141,74.77V51.29h5.47V74.81c0,6-4.26,10.17-10.53,10.17"/><path class="cls-2" d="M166.78,84.45V66c0-2.12-.93-4.34-4.5-4.34a8.84,8.84,0,0,0-3.89.73v22h-5.66V59.87A22.15,22.15,0,0,1,162.51,58c7.47,0,9.92,3.76,9.92,7.95V84.45Z"/><path class="cls-2" d="M178.65,58.47h5.65v26h-5.65ZM181.48,54a2.92,2.92,0,1,1,3.1-2.89,3,3,0,0,1-3.1,2.89"/><path class="cls-2" d="M202,84.45h-5.38l-8.16-26h6l4.41,16.78a19.16,19.16,0,0,1,.6,3.56h.1a24.07,24.07,0,0,1,.64-3.56l4.5-16.78H210Z"/><path class="cls-2" d="M222.92,61.61c-3.3,0-5.57,2.79-5.42,9L227.84,69c0-5.25-1.81-7.37-4.92-7.37m-5.1,12c.47,4.82,2.69,7.23,6.81,7.23a13.12,13.12,0,0,0,6.31-1.45l1.35,3.71A16.46,16.46,0,0,1,224,84.94c-7.1,0-11.59-4.78-11.59-13.55,0-8.49,4.12-13.4,10.67-13.4s10.24,4.58,10,13.31Z"/><path class="cls-2" d="M249.21,62.33a6.61,6.61,0,0,0-5.28.19V84.46h-5.67V59.87c2.6-1.3,5.76-2,12.06-1.83Z"/><path class="cls-2" d="M259.41,84.89A12.31,12.31,0,0,1,252.5,83L254,79.25a7.63,7.63,0,0,0,4.69,1.49,3.59,3.59,0,0,0,3.85-3.66c0-2.22-1.12-3.28-3.66-4.29-4.74-1.88-5.71-4.58-5.71-7.28,0-4.15,3.15-7.52,7.93-7.52a11.15,11.15,0,0,1,6.49,1.83l-1.39,3.43a6.38,6.38,0,0,0-4-1.45,3.33,3.33,0,0,0-3.57,3.42c0,2.12,1.53,3.18,3.71,4.1,4.87,2,6,4.63,6,7.66,0,4.25-3.43,7.91-8.9,7.91"/><path class="cls-2" d="M273.46,58.47h5.65v26h-5.65ZM276.29,54a2.92,2.92,0,1,1,3.1-2.89,3,3,0,0,1-3.1,2.89"/><path class="cls-2" d="M293.63,84.75c-4.92,0-6.86-3.43-6.86-7V62.23H284V58.47h2.78V52.73l5.66-1.64v7.38h4.07v3.76h-4.07V77.42c0,2,.78,3.37,2.73,3.37a4.24,4.24,0,0,0,1.34-.24v3.66a7.05,7.05,0,0,1-2.87.54"/><path class="cls-2" d="M309.35,94.82h-6l4.07-10.37-8.25-26h6l4.31,16.83A16.88,16.88,0,0,1,310,79h.1a23.57,23.57,0,0,1,.68-3.71l4.64-16.83h5.29Z"/><polygon class="cls-2" points="125.78 99.5 125.78 132.67 139.65 132.67 139.65 129.68 130.05 129.68 130.05 99.5 125.78 99.5"/><path class="cls-2" d="M152.77,108.9c-4.77,0-5.7,5.54-5.7,10.8s1,10.51,5.7,10.51,5.66-5.3,5.66-10.51-.88-10.8-5.66-10.8m0,24.26c-6.82,0-9.78-5.84-9.78-13.46s3-13.5,9.74-13.5,9.78,5.74,9.78,13.5-3,13.46-9.74,13.46"/><path class="cls-2" d="M182.17,132.67V114c0-2.41-1-5.06-5.24-5.06a10.08,10.08,0,0,0-4.73.92v22.8h-4.08V108a20.31,20.31,0,0,1,9.14-1.83c7,0,9,4,9,7.72v18.75Z"/><path class="cls-2" d="M206.65,109.38a11.66,11.66,0,0,0-3.11-.48c-5.79,0-7.65,5.21-7.65,10.85,0,6.12,2,10.6,7.15,10.6a6.63,6.63,0,0,0,3.61-.71Zm-3.8,23.78c-7.14,0-11-5.21-11-13.07,0-8.63,4.4-13.65,10.85-13.65a13.87,13.87,0,0,1,3.94.58V94.82h4v36.5a14.87,14.87,0,0,1-7.83,1.84"/><path class="cls-2" d="M226.08,108.9c-4.77,0-5.7,5.54-5.7,10.8s1,10.51,5.7,10.51,5.66-5.3,5.66-10.51-.88-10.8-5.66-10.8m0,24.26c-6.82,0-9.78-5.84-9.78-13.46s3-13.5,9.73-13.5,9.79,5.74,9.79,13.5-3,13.46-9.74,13.46"/><path class="cls-2" d="M255.48,132.67V114c0-2.41-1-5.06-5.24-5.06a10.06,10.06,0,0,0-4.73.92v22.8h-4.08V108a20.27,20.27,0,0,1,9.13-1.83c7,0,9,4,9,7.72v18.75Z"/><path fill="#f9f9f9" d="M57.64,50.66c-10.88,0-20.75,3.68-24.78,5.41a4.47,4.47,0,0,1-.07-3,1.81,1.81,0,0,0-.15-3.61,1.09,1.09,0,0,0-.26,0l-.29.06-.28.11-.11.05-.2.16-.19.16c-.6.57-2.41,2.66-1.35,6.6a2.35,2.35,0,0,0-1.29,1.63,2.07,2.07,0,0,0-1.77-.15,2.31,2.31,0,0,0-1.31,1.68,2.06,2.06,0,0,0-1.79-.19,2.26,2.26,0,0,0-1.3,1.72,2,2,0,0,0-1.8-.22,2.23,2.23,0,0,0-1.27,1.77,2,2,0,0,0-1.84-.28c-1.15.46-1.6,2.15-1,3.77s2,2.56,3.2,2.09A2.11,2.11,0,0,0,21,66.84a2.09,2.09,0,0,0,2,.36,2.22,2.22,0,0,0,1.22-1.54,2.12,2.12,0,0,0,2,.3,2.22,2.22,0,0,0,1.23-1.51,2.16,2.16,0,0,0,2,.26,2.26,2.26,0,0,0,1.25-1.46,2.23,2.23,0,0,0,1.94.22,1.66,1.66,0,0,0,.32-.17,3.92,3.92,0,0,1-.17,2.91h-.06A1.82,1.82,0,0,0,30.82,68a1.78,1.78,0,0,0,2.66,1.57l.13,0a5.3,5.3,0,0,0,2.22-3.34,8,8,0,0,0-.33-4.43,55.93,55.93,0,0,1,15.14-2.16,41.14,41.14,0,0,1,15.71,2.8c1.64-2.75,4.41-4.1,6.44-3s2.53,4.42,1.14,7.44l3,3H95V69.5c0-2.92-6.5-18-37.39-18.84"/><path fill="#f9f9f9" d="M57.42,76.51h-.54c-7,0-15.86,2.93-19.63,4.32a3.77,3.77,0,0,1-.11-2.51A1.54,1.54,0,0,0,37,75.25a1.3,1.3,0,0,0-.22,0,1.11,1.11,0,0,0-.25,0,1.16,1.16,0,0,0-.22.1l-.11,0-.18.14-.14.13c-.67.62-2.06,2.38-1.07,5.68a.87.87,0,0,0-.19,0,2,2,0,0,0-1.12,1.35A1.81,1.81,0,0,0,32,82.73a2,2,0,0,0-1.12,1.37A1.75,1.75,0,0,0,29.42,84a1.91,1.91,0,0,0-1.1,1.42,1.69,1.69,0,0,0-1.5-.16,1.86,1.86,0,0,0-1.06,1.45,1.57,1.57,0,0,0-2.43.73,3.18,3.18,0,0,0,0,2.29c.51,1.37,1.75,2.18,2.73,1.78a1.78,1.78,0,0,0,1-1.32,1.78,1.78,0,0,0,1.67.28,1.81,1.81,0,0,0,1-1.28,1.81,1.81,0,0,0,1.66.24,1.85,1.85,0,0,0,1-1.23,1.85,1.85,0,0,0,1.63.19,1.92,1.92,0,0,0,1-1.2,1.88,1.88,0,0,0,1.62.16,1.83,1.83,0,0,0,.42-.26A2.94,2.94,0,0,1,37,89h0A1.54,1.54,0,1,0,37,92a1.57,1.57,0,0,0,.72-.2l.1,0A4.54,4.54,0,0,0,39.65,89a5.81,5.81,0,0,0-.16-3.21,46.35,46.35,0,0,1,12.86-1.95,27.61,27.61,0,0,1,10.37,1.74c1.58-2.53,4.17-3.74,6-2.7s2.37,3.83,1.33,6.55L72.86,92H87.39v-.33c0-2.34-5.21-14.42-30-15.13"/><path fill="#f9f9f9" d="M56.86,99h-.25A39.27,39.27,0,0,0,42.26,102l-.39.14a2.44,2.44,0,0,1-.12-2.1,1.35,1.35,0,0,0-.18-2.69.74.74,0,0,0-.18,0,1.2,1.2,0,0,0-.23,0l-.18.07-.08,0-.17.12-.14.13c-.43.4-1.73,1.91-.92,4.75h0a1.58,1.58,0,0,0-.89,1.06,1.44,1.44,0,0,0-1.16-.07,1.56,1.56,0,0,0-.89,1.09,1.4,1.4,0,0,0-1.17-.1,1.58,1.58,0,0,0-.88,1.11,1.38,1.38,0,0,0-1.18-.12,1.53,1.53,0,0,0-.86,1.14,1.3,1.3,0,0,0-1.2-.14,1.34,1.34,0,0,0-.74.77,2.57,2.57,0,0,0,0,1.87c.42,1.12,1.43,1.79,2.25,1.45a1.43,1.43,0,0,0,.81-1,1.43,1.43,0,0,0,1.31.19,1.49,1.49,0,0,0,.82-1A1.36,1.36,0,0,0,38,108a1.43,1.43,0,0,0,1.29.14,1.53,1.53,0,0,0,.84-.93,1.49,1.49,0,0,0,1.28.1,1.19,1.19,0,0,0,.25-.13,2.51,2.51,0,0,1-.11,1.73,1.35,1.35,0,0,0,0,2.7,1.32,1.32,0,0,0,.62-.17l.1-.05A3.74,3.74,0,0,0,43.88,109a4.91,4.91,0,0,0-.16-2.85,35.41,35.41,0,0,1,9.63-1.45,20.1,20.1,0,0,1,6.82,1c1.34-2,3.42-2.85,4.94-2s2,3.08,1.22,5.3l2.08,1.76h11v-.34c0-2.34-4-11-22.55-11.43"/><path fill="#f9f9f9" d="M55.68,35.57c-6.29,0-11.22-1.06-11.22-2.43,0-1.67,5.63-2.43,11.22-2.43,5.39,0,11.21.77,11.21,2.43,0,1.37-4.93,2.43-11.21,2.43M72.38,15a2.37,2.37,0,0,0-1-.24,2.47,2.47,0,0,0-2.24,1.48,2.7,2.7,0,0,0-.23,1l-1.33.5.89,2.55c-1,1.85-2.24,3.69-3,4.74A31.58,31.58,0,0,0,58,23.66c-.16-.89-.69-4-1-6.95l1.86-1.91-1-1.05a2.49,2.49,0,1,0-4.75-1,2.56,2.56,0,0,0,.2,1l-1,1.05,1.85,1.91c-.26,2.87-.83,6.07-1,7A27.27,27.27,0,0,0,45.86,25c-.7-1-1.88-2.87-2.94-4.74l.89-2.55-1.34-.5a2.51,2.51,0,0,0-.22-1A2.47,2.47,0,0,0,40,14.73,2.37,2.37,0,0,0,39,15a2.61,2.61,0,0,0-1.19,3.41,2.43,2.43,0,0,0,.57.81l-.49,1.38,2.47.94c1,2.26,2.38,11.52,2.4,11.62.48,2.75,5.92,4.74,13,4.74s12.43-1.95,12.92-4.74c.06-.34.14-.86.24-1.51.46-2.94,1.3-8.35,2.16-10.1l2.48-.95L73,19.19a2.3,2.3,0,0,0,.57-.81A2.61,2.61,0,0,0,72.38,15"/></g></g></svg>
