<?xml version="1.0" encoding="UTF-8"?>
<svg xmlns="http://www.w3.org/2000/svg" xmlns:xlink="http://www.w3.org/1999/xlink" width="549pt" height="80.43pt" viewBox="0 0 549 80.43" version="1.1">
<g>
	<path style=" stroke:none;fill-rule:nonzero;fill:#43237a;fill-opacity:1;" d="M 49.296875 35.78125 L 49.296875 35.601563 C 49.296875 26.542969 42.902344 18.816406 33.398438 18.816406 C 23.894531 18.816406 17.585938 26.453125 17.585938 35.425781 L 17.585938 35.601563 C 17.585938 44.574219 24.070313 52.390625 33.574219 52.390625 C 42.992188 52.390625 49.296875 44.75 49.296875 35.78125 M 0 35.78125 L 0 35.601563 C 0 17.746094 14.390625 3.269531 33.574219 3.269531 C 52.761719 3.269531 66.972656 17.570313 66.972656 35.425781 L 66.972656 35.601563 C 66.972656 53.457031 52.585938 67.933594 33.398438 67.933594 C 14.210938 67.933594 0 53.632813 0 35.78125 "/>
	<path style=" stroke:none;fill-rule:nonzero;fill:#43237a;fill-opacity:1;" d="M 75.425781 18.636719 L 88.5 18.636719 C 89.027344 18.636719 89.449219 19.0625 89.449219 19.585938 L 89.449219 25.386719 C 92.558594 21.390625 97 17.570313 103.839844 17.570313 C 114.054688 17.570313 120.183594 24.320313 120.183594 35.246094 L 120.183594 65.742188 C 120.183594 66.265625 119.761719 66.691406 119.234375 66.691406 L 110.996094 66.691406 C 106.800781 66.691406 103.394531 63.289063 103.394531 59.089844 L 103.394531 40.664063 C 103.394531 35.335938 100.644531 32.492188 96.558594 32.492188 C 92.46875 32.492188 89.449219 35.335938 89.449219 40.664063 L 89.449219 65.742188 C 89.449219 66.265625 89.027344 66.691406 88.5 66.691406 L 73.523438 66.691406 C 73 66.691406 72.574219 66.265625 72.574219 65.742188 L 72.574219 21.488281 C 72.574219 19.914063 73.851563 18.636719 75.425781 18.636719 "/>
	<path style=" stroke:none;fill-rule:nonzero;fill:#43237a;fill-opacity:1;" d="M 157.972656 38.710938 C 157.351563 33.382813 154.152344 30.007813 149.535156 30.007813 C 145.09375 30.003906 142.070313 33.378906 141.183594 38.710938 Z M 125.285156 42.882813 L 125.285156 42.707031 C 125.285156 28.671875 135.324219 17.566406 149.535156 17.570313 C 166.058594 17.570313 173.695313 29.742188 173.695313 43.863281 C 173.695313 44.796875 173.695313 45.859375 173.632813 46.882813 C 173.621094 47.136719 173.40625 47.328125 173.15625 47.328125 L 141.453125 47.324219 C 142.78125 52.566406 146.601563 55.230469 151.84375 55.230469 C 155.050781 55.234375 157.660156 54.300781 160.308594 52.265625 C 161.6875 51.207031 163.636719 51.289063 164.980469 52.398438 L 171.582031 57.875 C 171.71875 57.984375 171.738281 58.1875 171.628906 58.324219 C 167.019531 64.050781 160.410156 67.847656 151.039063 67.847656 C 135.941406 67.84375 125.285156 57.714844 125.285156 42.882813 "/>
	<path style=" stroke:none;fill-rule:nonzero;fill:#43237a;fill-opacity:1;" d="M 444.335938 18.632813 L 457.414063 18.632813 C 457.9375 18.632813 458.363281 19.058594 458.363281 19.585938 L 458.363281 25.382813 C 461.472656 21.386719 465.914063 17.570313 472.753906 17.570313 C 482.96875 17.570313 489.097656 24.320313 489.097656 35.246094 L 489.097656 65.738281 C 489.097656 66.261719 488.671875 66.691406 488.148438 66.691406 L 479.910156 66.691406 C 475.710938 66.691406 472.308594 63.285156 472.308594 59.085938 L 472.308594 40.664063 C 472.308594 35.332031 469.554688 32.492188 465.46875 32.492188 C 461.382813 32.492188 458.363281 35.332031 458.363281 40.664063 L 458.363281 65.738281 C 458.363281 66.261719 457.9375 66.691406 457.414063 66.691406 L 442.4375 66.691406 C 441.910156 66.691406 441.484375 66.261719 441.484375 65.738281 L 441.484375 21.484375 C 441.484375 19.910156 442.761719 18.632813 444.335938 18.632813 "/>
	<path style=" stroke:none;fill-rule:nonzero;fill:#43237a;fill-opacity:1;" d="M 360.585938 66.734375 L 345.609375 66.734375 C 345.085938 66.734375 344.660156 66.3125 344.660156 65.785156 L 344.660156 59.984375 C 341.550781 63.984375 337.109375 67.800781 330.269531 67.800781 C 320.054688 67.800781 313.925781 61.050781 313.925781 50.125 L 313.925781 21.53125 C 313.925781 19.957031 315.199219 18.679688 316.777344 18.679688 L 323.109375 18.679688 C 327.3125 18.679688 330.714844 22.085938 330.714844 26.28125 L 330.714844 44.707031 C 330.714844 50.035156 333.46875 52.878906 337.554688 52.878906 C 341.640625 52.878906 344.660156 50.035156 344.660156 44.707031 L 344.660156 21.53125 C 344.660156 19.957031 345.9375 18.679688 347.511719 18.679688 L 360.566406 18.679688 C 361.101563 18.679688 361.535156 19.117188 361.535156 19.652344 L 361.535156 65.785156 C 361.535156 66.3125 361.109375 66.734375 360.585938 66.734375 "/>
	<path style=" stroke:none;fill-rule:nonzero;fill:#43237a;fill-opacity:1;" d="M 291.820313 42.882813 L 291.820313 42.707031 C 291.820313 36.753906 287.46875 31.78125 281.515625 31.78125 C 275.386719 31.78125 271.480469 36.664063 271.480469 42.527344 L 271.480469 42.707031 C 271.480469 48.570313 275.742188 53.542969 281.695313 53.542969 C 287.824219 53.542969 291.820313 48.65625 291.820313 42.882813 M 255.136719 42.882813 L 255.136719 42.707031 C 255.136719 29.027344 266.328125 17.566406 281.695313 17.566406 C 297.0625 17.566406 308.164063 28.851563 308.164063 42.527344 L 308.164063 42.707031 C 308.164063 56.386719 296.972656 67.84375 281.515625 67.84375 C 266.238281 67.84375 255.136719 56.5625 255.136719 42.882813 "/>
	<path style=" stroke:none;fill-rule:nonzero;fill:#43237a;fill-opacity:1;" d="M 367.933594 59.789063 L 372.273438 52.820313 C 373.078125 51.53125 374.75 51.105469 376.074219 51.847656 C 380.902344 54.558594 385.910156 55.941406 390.195313 55.941406 C 393.125 55.941406 394.546875 55.054688 394.546875 53.363281 L 394.546875 53.1875 C 394.546875 51.234375 391.792969 50.433594 386.730469 49.011719 C 377.226563 46.527344 369.675781 43.328125 369.675781 33.734375 L 369.675781 33.558594 C 369.675781 23.34375 377.847656 17.65625 388.949219 17.65625 C 395.648438 17.65625 402.585938 19.519531 407.992188 22.777344 C 408.429688 23.039063 408.570313 23.605469 408.328125 24.050781 L 404.324219 31.441406 C 403.59375 32.789063 401.9375 33.300781 400.5625 32.632813 C 396.3125 30.570313 391.980469 29.382813 388.773438 29.382813 C 386.195313 29.382813 384.863281 30.359375 384.863281 31.78125 L 384.863281 31.957031 C 384.863281 33.824219 387.707031 34.710938 392.683594 36.222656 C 402.1875 38.886719 409.738281 42.171875 409.738281 51.5 L 409.738281 51.679688 C 409.738281 62.246094 401.832031 67.753906 390.105469 67.753906 C 382.324219 67.753906 374.625 65.53125 368.195313 61.085938 C 367.777344 60.796875 367.664063 60.222656 367.933594 59.789063 "/>
	<path style=" stroke:none;fill-rule:nonzero;fill:#43237a;fill-opacity:1;" d="M 422.597656 0.00390625 L 432.019531 0.00390625 C 432.539063 0.00390625 432.96875 0.429688 432.96875 0.953125 L 432.96875 5.3125 C 432.96875 9.25 429.777344 12.4375 425.839844 12.4375 L 416.722656 12.4375 C 416.03125 12.4375 415.46875 11.878906 415.46875 11.1875 L 415.46875 7.128906 C 415.46875 3.191406 418.660156 0.00390625 422.597656 0.00390625 "/>
	<path style=" stroke:none;fill-rule:nonzero;fill:#43237a;fill-opacity:1;" d="M 418.675781 18.632813 L 431.660156 18.632813 C 432.1875 18.632813 432.613281 19.058594 432.613281 19.585938 L 432.613281 65.738281 C 432.613281 66.261719 432.1875 66.691406 431.660156 66.691406 L 423.425781 66.691406 C 419.230469 66.691406 415.824219 63.285156 415.824219 59.085938 L 415.824219 21.484375 C 415.824219 19.910156 417.101563 18.632813 418.675781 18.632813 "/>
	<g clip-path="url(#clip1)" clip-rule="nonzero">
		<path style=" stroke:none;fill-rule:nonzero;fill:#43237a;fill-opacity:1;" d="M 531.691406 39.480469 L 531.691406 39.304688 C 531.691406 33.972656 527.515625 29.976563 521.828125 29.976563 C 516.058594 29.976563 511.972656 33.972656 511.972656 39.394531 L 511.972656 39.570313 C 511.972656 44.898438 516.058594 48.808594 521.828125 48.808594 C 527.605469 48.808594 531.691406 44.8125 531.691406 39.480469 M 497.285156 74.066406 L 501.023438 66.347656 C 501.707031 64.933594 503.398438 64.355469 504.816406 65.027344 C 509.160156 67.078125 513.652344 68.261719 519.078125 68.261719 C 527.425781 68.261719 531.601563 64.085938 531.601563 56.445313 L 531.601563 54.582031 C 528.226563 58.488281 523.785156 61.777344 516.855469 61.777344 C 505.042969 61.777344 495.449219 53.25 495.449219 39.480469 L 495.449219 39.304688 C 495.449219 25.445313 505.21875 16.917969 516.234375 16.917969 C 523.515625 16.917969 527.78125 19.851563 531.335938 23.671875 L 531.335938 18.9375 C 531.335938 18.410156 531.761719 17.984375 532.285156 17.984375 L 545.359375 17.984375 C 546.933594 17.984375 548.210938 19.261719 548.210938 20.835938 L 548.210938 54.492188 C 548.210938 63.289063 546.257813 69.503906 541.996094 73.679688 C 537.640625 78.121094 530.890625 80.429688 520.851563 80.429688 C 511.992188 80.429688 504.4375 78.632813 497.71875 75.347656 C 497.25 75.117188 497.054688 74.539063 497.285156 74.066406 "/>
	</g>
	<path style=" stroke:none;fill-rule:nonzero;fill:#43237a;fill-opacity:1;" d="M 200.828125 4.511719 L 209.5 4.511719 C 210.027344 4.511719 210.457031 4.941406 210.457031 5.46875 L 210.457031 27.785156 L 232.574219 27.785156 L 232.574219 7.363281 C 232.574219 5.789063 233.851563 4.511719 235.425781 4.511719 L 248.855469 4.511719 C 249.382813 4.511719 249.808594 4.9375 249.808594 5.460938 L 249.808594 59.085938 C 249.808594 63.285156 246.402344 66.6875 242.203125 66.6875 L 235.425781 66.6875 C 233.851563 66.6875 232.574219 65.414063 232.574219 63.839844 L 232.574219 43.0625 L 210.457031 43.0625 L 210.457031 65.738281 C 210.457031 66.265625 210.03125 66.6875 209.507813 66.6875 L 196.074219 66.6875 C 194.503906 66.6875 193.226563 65.414063 193.226563 63.839844 L 193.226563 12.113281 C 193.226563 7.914063 196.628906 4.511719 200.828125 4.511719 "/>
</g>
</svg>
