<svg width="1203" height="234" fill="none" xmlns="http://www.w3.org/2000/svg"><path fill-rule="evenodd" clip-rule="evenodd" d="M515.71 27.018v68.07H506v45.83h46.93v-45.83h-9.71v-68.07h-27.51Zm0 182.087v-68.109h27.51v68.109h-27.51Z" fill="#E5DEDE"/><path d="M511.631 101.022c0-.439.356-.794.794-.794h35.956c.439 0 .794.355.794.794v35.956a.793.793 0 0 1-.794.794h-35.956a.794.794 0 0 1-.794-.794v-35.956Z" fill="#DDA700"/><path d="M581.088 53.298h73.21v131.404h-73.21V53.298Z" fill="#E5DEDE"/><path d="M586.719 59.724c0-.439.356-.794.794-.794h64.114c.439 0 .794.355.794.794v107.289a.793.793 0 0 1-.794.794h-64.114a.794.794 0 0 1-.794-.794V59.723Z" fill="#C83F18"/><path d="M688.088 12h146.421v214H688.088V12Z" fill="#E5DEDE"/><path d="M695.597 24.057c0-.438.355-.794.793-.794h129.816c.439 0 .794.356.794.794v176.746a.794.794 0 0 1-.794.794H696.39a.794.794 0 0 1-.793-.794V24.057Z" fill="#C61440"/><path d="M864.544 34.526h337.896V199.72H864.544V34.526Z" fill="#E5DEDE"/><path d="M877.684 48.46c0-.438.355-.793.794-.793h313.782c.44 0 .79.355.79.793v141.08a.79.79 0 0 1-.79.793H878.478a.793.793 0 0 1-.794-.793V48.46Z" fill="#711F56"/><path fill-rule="evenodd" clip-rule="evenodd" d="M268.211 220.889c0-1.849.699-3.698 2.096-5.547 1.397-1.85 3.015-2.774 4.855-2.774 1.022 0 2.163.38 3.424 1.139a24.342 24.342 0 0 1 3.475 2.526c1.057.925 2.539 1.767 4.447 2.526 1.908.76 3.918 1.14 6.03 1.14 2.658 0 4.975-.545 6.951-1.635 1.976-1.09 2.964-2.724 2.964-4.904 0-2.179-1.107-4.094-3.322-5.745-2.215-1.651-4.906-3.154-8.075-4.508a131.744 131.744 0 0 1-9.557-4.557c-3.203-1.684-5.911-4.078-8.126-7.182-2.214-3.104-3.322-6.802-3.322-11.095 0-6.868 2.556-12.003 7.666-15.404 5.111-3.401 11.278-5.102 18.501-5.102 1.772 0 3.629.099 5.571.298 1.942.198 4.122.577 6.541 1.139 2.419.561 4.396 1.469 5.929 2.724 1.533 1.255 2.3 2.774 2.3 4.557 0 1.717-.563 3.5-1.687 5.349-1.124 1.849-2.674 2.774-4.651 2.774-.817 0-2.555-.627-5.213-1.882-2.657-1.255-5.587-1.882-8.79-1.882-3.407 0-5.962.578-7.666 1.733-1.704 1.156-2.555 2.559-2.555 4.21 0 1.519.8 2.906 2.402 4.161 1.601 1.255 3.594 2.328 5.979 3.22 2.385.891 4.992 2.047 7.82 3.467 2.827 1.42 5.434 2.972 7.819 4.656 2.385 1.684 4.378 4.045 5.979 7.083 1.602 3.038 2.402 6.505 2.402 10.401 0 6.935-2.35 12.334-7.052 16.197-4.702 3.864-10.869 5.795-18.501 5.795-6.61 0-12.368-1.32-17.274-3.962-4.907-2.642-7.36-5.614-7.36-8.916ZM0 165.117v63.004c0 1.255.63 2.344 1.891 3.269 1.26.924 2.947 1.387 5.06 1.387h22.691c6.27 0 11.26-1.701 14.975-5.102 3.713-3.401 5.57-8.8 5.57-16.197v-2.08c0-4.623-.886-8.107-2.657-10.451-1.772-2.345-4.396-4.144-7.87-5.399 5.791-2.444 8.687-7.628 8.687-15.553 0-11.756-6.814-17.633-20.443-17.633H6.951c-1.908 0-3.544.412-4.907 1.238C.681 162.426 0 163.598 0 165.117Zm26.063 54.187H15.842v-19.812h10.221c5.452 0 8.177 3.037 8.177 9.113v1.585c0 6.076-2.725 9.114-8.177 9.114Zm-10.221-31.7h10.732c1.84 0 3.271-.677 4.293-2.031 1.023-1.354 1.534-2.955 1.534-4.804 0-1.85-.512-3.468-1.534-4.854-1.022-1.387-2.453-2.081-4.293-2.081H15.842v13.77Zm42.625-22.586v63.004c0 1.519.784 2.691 2.35 3.516 1.568.826 3.442 1.239 5.623 1.239 2.18 0 4.054-.413 5.621-1.239 1.568-.825 2.351-1.997 2.351-3.516v-23.874h6.746l14.004 26.35c1.022 1.915 2.726 2.873 5.111 2.873s4.65-.858 6.797-2.576c2.146-1.717 3.22-3.533 3.22-5.448 0-.726-.171-1.321-.512-1.783l-12.47-21.893c8.246-3.104 12.368-9.807 12.368-20.11 0-14.133-8.381-21.199-25.144-21.199H63.373c-1.43 0-2.606.462-3.526 1.387-.92.924-1.38 2.014-1.38 3.269Zm15.946 27.242h10.119c2.998 0 5.281-.71 6.848-2.13 1.568-1.42 2.351-3.781 2.351-7.083s-.783-5.663-2.35-7.083c-1.568-1.42-3.85-2.13-6.849-2.13h-10.12v18.426Zm42.93-8.519v26.251c0 8.057 2.283 13.968 6.848 17.732 4.566 3.765 10.631 5.647 18.194 5.647 7.632 0 13.731-1.882 18.297-5.647 4.565-3.764 6.848-9.675 6.848-17.732v-26.251c0-8.058-2.283-13.968-6.848-17.733-4.566-3.764-10.665-5.646-18.297-5.646-7.563 0-13.628 1.882-18.194 5.646-4.565 3.765-6.848 9.675-6.848 17.733Zm15.945 26.251c0 6.604 3.033 9.906 9.098 9.906 6.132 0 9.199-3.302 9.199-9.906v-26.251c0-6.605-3.067-9.907-9.199-9.907-6.065 0-9.098 3.302-9.098 9.907v26.251Zm42.572-47.748c-2.215 1.255-3.322 2.675-3.322 4.26 0 .462.068.891.204 1.287l20.341 60.429c.545 1.651 1.806 2.922 3.782 3.814 1.976.891 4.225 1.337 6.746 1.337 2.521 0 4.77-.446 6.746-1.337 1.976-.892 3.169-2.163 3.578-3.814l5.315-23.478 5.315 23.478c.409 1.651 1.601 2.922 3.577 3.814 1.976.891 4.225 1.337 6.746 1.337 2.522 0 4.753-.446 6.696-1.337 1.942-.892 3.219-2.163 3.833-3.814l20.34-60.429c.136-.396.205-.825.205-1.287 0-1.585-1.108-3.005-3.322-4.26-2.215-1.255-4.549-1.882-7.002-1.882-2.862 0-4.566.957-5.111 2.873l-15.536 50.819-8.075-33.483c-.273-1.255-1.159-2.246-2.658-2.972-1.499-.727-3.168-1.09-5.008-1.09-1.84 0-3.51.363-5.009 1.09-1.499.726-2.385 1.717-2.657 2.972l-8.075 33.483-15.537-50.819c-.545-1.916-2.249-2.873-5.111-2.873-2.453 0-4.787.627-7.001 1.882Zm150.407 2.873v62.905c0 1.519.681 2.691 2.044 3.516 1.363.826 2.998 1.239 4.906 1.239h36.388c1.568 0 2.76-.661 3.578-1.982.818-1.32 1.227-2.872 1.227-4.656 0-1.915-.426-3.533-1.278-4.854-.852-1.32-2.027-1.981-3.527-1.981h-27.393v-16.841h15.332c1.568 0 2.76-.594 3.578-1.783.817-1.188 1.226-2.542 1.226-4.061 0-1.651-.426-3.071-1.277-4.26-.852-1.189-2.028-1.783-3.527-1.783h-15.332v-16.742h27.393c1.5 0 2.675-.66 3.527-1.981.852-1.321 1.278-2.939 1.278-4.854 0-1.783-.409-3.335-1.227-4.656-.818-1.321-2.01-1.981-3.578-1.981h-36.388c-1.908 0-3.543.412-4.906 1.238-1.363.826-2.044 1.998-2.044 3.517Zm55.094 62.905v-63.004c0-1.255.46-2.345 1.38-3.269.92-.925 2.095-1.387 3.526-1.387h21.159c16.763 0 25.144 7.066 25.144 21.199 0 10.303-4.122 17.006-12.368 20.11l12.471 21.893c.34.462.511 1.057.511 1.783 0 1.915-1.074 3.731-3.22 5.448-2.147 1.718-4.412 2.576-6.797 2.576s-4.089-.958-5.111-2.873l-14.003-26.35h-6.747v23.874c0 1.519-.783 2.691-2.35 3.516-1.568.826-3.442 1.239-5.622 1.239-2.181 0-4.055-.413-5.622-1.239-1.567-.825-2.351-1.997-2.351-3.516Zm26.065-35.762h-10.119v-18.426h10.119c2.998 0 5.281.71 6.848 2.13 1.567 1.42 2.351 3.781 2.351 7.083s-.784 5.663-2.351 7.083-3.85 2.13-6.848 2.13Z" fill="#711F56"/><path fill-rule="evenodd" clip-rule="evenodd" d="M38.208 72.587c-1.84 2.415-2.76 4.83-2.76 7.246 0 4.313 3.23 8.195 9.69 11.645 6.46 3.45 14.041 5.176 22.744 5.176 10.048 0 18.168-2.523 24.358-7.57 6.19-5.046 9.286-12.097 9.286-21.155 0-5.09-1.054-9.618-3.163-13.586-2.108-3.968-4.732-7.051-7.872-9.25-3.14-2.2-6.572-4.228-10.296-6.082-3.723-1.855-7.154-3.364-10.295-4.529-3.14-1.164-5.764-2.566-7.872-4.205-2.109-1.639-3.163-3.45-3.163-5.434 0-2.157 1.122-3.99 3.364-5.5 2.243-1.509 5.608-2.264 10.094-2.264 4.217 0 8.074.82 11.573 2.459 3.5 1.639 5.787 2.458 6.864 2.458 2.602 0 4.643-1.207 6.123-3.623 1.48-2.415 2.22-4.744 2.22-6.987 0-2.329-1.009-4.313-3.027-5.952-2.02-1.639-4.62-2.825-7.806-3.558-3.185-.733-6.056-1.23-8.613-1.488A72.93 72.93 0 0 0 72.323 0c-9.51 0-17.63 2.221-24.359 6.664-6.728 4.442-10.093 11.149-10.093 20.12 0 5.606 1.458 10.437 4.374 14.491 2.916 4.054 6.482 7.181 10.699 9.38 4.216 2.2 8.41 4.184 12.583 5.953 4.172 1.768 7.715 3.73 10.631 5.887 2.916 2.156 4.374 4.658 4.374 7.504 0 2.847-1.3 4.982-3.903 6.405-2.602 1.424-5.652 2.135-9.151 2.135-2.781 0-5.428-.496-7.94-1.488-2.512-.992-4.463-2.092-5.854-3.3a31.976 31.976 0 0 0-4.576-3.299c-1.66-.992-3.162-1.488-4.508-1.488-2.422 0-4.553 1.208-6.392 3.623Zm73.078-69.923c-1.082 1.776-1.623 3.876-1.623 6.302 0 2.599.563 4.786 1.691 6.562 1.127 1.776 2.683 2.664 4.667 2.664h18.669V88.75c0 1.992 1.038 3.53 3.112 4.613 2.074 1.083 4.554 1.624 7.441 1.624 2.886 0 5.366-.541 7.44-1.624 2.075-1.083 3.112-2.62 3.112-4.613V18.192h18.669c1.984 0 3.54-.888 4.668-2.664 1.127-1.776 1.691-3.963 1.691-6.562 0-2.426-.541-4.526-1.624-6.302C178.117.888 176.539 0 174.464 0h-58.443c-2.074 0-3.653.888-4.735 2.664Zm67.171 84.075c0-.258.089-.73.268-1.418l24.95-78.62c.716-2.147 2.348-3.801 4.897-4.961C211.12.58 214.049 0 217.358 0c3.309 0 6.238.58 8.787 1.74 2.548 1.16 4.18 2.814 4.896 4.962l25.085 78.619c.178.687.268 1.16.268 1.418 0 2.234-1.453 4.167-4.36 5.8-2.906 1.632-5.924 2.448-9.055 2.448-3.845 0-6.125-1.246-6.841-3.737l-4.561-16.11h-28.304l-4.561 16.11c-.715 2.491-2.996 3.737-6.841 3.737-3.13 0-6.148-.816-9.055-2.449-2.906-1.632-4.359-3.565-4.359-5.8Zm39.646-61.742 10.166 34.995h-20.332l10.166-34.995Zm35.243-16.031c0-2.426.541-4.526 1.623-6.302C256.051.888 257.63 0 259.704 0h58.443c2.075 0 3.653.888 4.735 2.664 1.083 1.776 1.624 3.876 1.624 6.302 0 2.599-.564 4.786-1.691 6.562-1.128 1.776-2.683 2.664-4.668 2.664h-18.669V88.75c0 1.992-1.037 3.53-3.111 4.613-2.075 1.083-4.555 1.624-7.441 1.624s-5.367-.541-7.441-1.624c-2.074-1.083-3.111-2.62-3.111-4.613V18.192h-18.67c-1.984 0-3.54-.888-4.667-2.664-1.128-1.776-1.691-3.963-1.691-6.562Zm84.044-2.729V88.75c0 1.992.911 3.53 2.734 4.613 1.823 1.083 4.01 1.624 6.561 1.624h48.663c2.096 0 3.691-.866 4.785-2.599 1.093-1.732 1.64-3.768 1.64-6.107 0-2.512-.57-4.635-1.709-6.367-1.139-1.733-2.711-2.599-4.716-2.599h-36.634v-22.09h20.505c2.095 0 3.69-.78 4.784-2.339 1.093-1.56 1.64-3.335 1.64-5.328 0-2.165-.569-4.028-1.709-5.587-1.139-1.56-2.711-2.339-4.715-2.339h-20.505v-21.96h36.634c2.005 0 3.577-.866 4.716-2.599 1.139-1.732 1.709-3.855 1.709-6.367 0-2.339-.547-4.375-1.64-6.107C399.039.866 397.444 0 395.348 0h-48.663c-2.551 0-4.738.541-6.561 1.624-1.823 1.083-2.734 2.62-2.734 4.613Z" fill="#DDA700"/><path fill-rule="evenodd" clip-rule="evenodd" d="M146.373 136.354v-9.708c0-2.98.833-5.166 2.498-6.558 1.665-1.392 3.877-2.088 6.636-2.088 2.784 0 5.008.696 6.674 2.088 1.665 1.392 2.497 3.578 2.497 6.558v9.708c0 2.98-.832 5.166-2.497 6.558-1.666 1.392-3.89 2.088-6.674 2.088-2.759 0-4.971-.696-6.636-2.088-1.665-1.392-2.498-3.578-2.498-6.558Zm5.818 0c0 2.443 1.106 3.664 3.318 3.664 2.237 0 3.355-1.221 3.355-3.664v-9.708c0-2.442-1.118-3.664-3.355-3.664-2.212 0-3.318 1.222-3.318 3.664v9.708Zm23.151 6.668v-23.264c0-.561.249-.995.746-1.3.497-.305 1.093-.458 1.789-.458h12.937c.572 0 1.007.244 1.305.733.298.488.447 1.062.447 1.722 0 .708-.155 1.306-.466 1.795-.31.488-.739.732-1.286.732h-9.656v6.192h5.63c.546 0 .975.219 1.286.659.311.44.466.965.466 1.575 0 .562-.149 1.063-.448 1.502-.298.44-.733.66-1.304.66h-5.63v9.452c0 .561-.286.995-.857 1.3-.572.306-1.256.458-2.051.458-.795 0-1.479-.152-2.05-.458-.572-.305-.858-.739-.858-1.3Zm38.813-22.494c0-.684.149-1.276.447-1.777.299-.501.734-.751 1.305-.751h16.106c.572 0 1.007.25 1.305.751.298.501.447 1.093.447 1.777 0 .733-.155 1.349-.466 1.85-.31.501-.739.751-1.286.751h-5.145v19.893c0 .561-.286.995-.857 1.3-.572.306-1.255.458-2.051.458-.795 0-1.479-.152-2.05-.458-.572-.305-.858-.739-.858-1.3v-19.893h-5.145c-.546 0-.975-.25-1.286-.751-.311-.501-.466-1.117-.466-1.85Zm28.859 22.494v-23.3c0-.562.286-.989.858-1.282.571-.293 1.255-.44 2.05-.44.795 0 1.479.147 2.051.44.571.293.857.72.857 1.282v8.975h7.419v-8.975c0-.562.286-.989.858-1.282.571-.293 1.255-.44 2.05-.44.796 0 1.479.147 2.051.44.571.293.857.72.857 1.282v23.3c0 .561-.286.995-.857 1.3-.572.306-1.255.458-2.051.458-.795 0-1.479-.152-2.05-.458-.572-.305-.858-.739-.858-1.3v-9.928h-7.419v9.928c0 .561-.286.995-.857 1.3-.572.306-1.256.458-2.051.458-.795 0-1.479-.152-2.05-.458-.572-.305-.858-.739-.858-1.3Zm30.012 0v-23.264c0-.561.249-.995.746-1.3.497-.305 1.093-.458 1.789-.458h13.273c.571 0 1.006.244 1.305.733.298.488.447 1.062.447 1.722 0 .708-.155 1.306-.466 1.795-.311.488-.74.732-1.286.732h-9.992v6.192h5.592c.547 0 .976.219 1.287.659.31.44.466.965.466 1.575 0 .562-.149 1.063-.448 1.502-.298.44-.733.66-1.305.66h-5.592v6.228h9.992c.546 0 .975.244 1.286.733.311.488.466 1.086.466 1.795 0 .659-.149 1.233-.447 1.721-.299.489-.734.733-1.305.733h-13.273c-.696 0-1.292-.152-1.789-.458-.497-.305-.746-.739-.746-1.3Z" fill="#C61440"/></svg>