<svg xmlns="http://www.w3.org/2000/svg" width="16" height="16" fill="none" viewBox="0 0 16 16">
  <rect width="16" height="16" fill="#095C78" rx="4.043"/>
  <g clip-path="url(#a)">
    <g clip-path="url(#b)">
      <path fill="#fff" d="M4.943 6.743a3.803 3.803 0 0 1-1.574-.861c-.864-.804-1.577-1.74-.556-3.012.709-.785 2.06-.707 2.846 0l4.887 4.28c.47.411.057 1.174-.545 1.006L4.943 6.743Zm8.232-1.094c.803-.722.611-2.075-.192-2.797-.804-.722-2.107-.722-2.91 0a1.75 1.75 0 0 0-.13 2.785l1.035.865a.857.857 0 0 0 1.075.02l1.121-.873Z"/>
    </g>
    <g clip-path="url(#c)">
      <path fill="#fff" d="M11.056 9.257a3.802 3.802 0 0 1 1.575.861c.864.804 1.577 1.74.555 3.012-.708.785-2.06.707-2.845 0L5.454 8.85c-.47-.411-.057-1.174.544-1.006l5.058 1.413Zm-8.231 1.094c-.803.722-.611 2.075.192 2.797.804.722 2.106.722 2.91 0a1.75 1.75 0 0 0 .13-2.785l-1.035-.865a.857.857 0 0 0-1.075-.02l-1.122.873Z"/>
    </g>
  </g>
  <defs>
    <clipPath id="a">
      <path fill="#fff" d="M0 0h11.379v11.379H0z" transform="translate(2.31 2.31)"/>
    </clipPath>
    <clipPath id="b">
      <path fill="#fff" d="M0 0h11.379v6.448H0z" transform="translate(2.31 2.31)"/>
    </clipPath>
    <clipPath id="c">
      <path fill="#fff" d="M0 0h11.379v6.448H0z" transform="rotate(-180 6.845 6.845)"/>
    </clipPath>
  </defs>
</svg>