<?xml version="1.0" encoding="utf-8"?>
<svg xmlns="http://www.w3.org/2000/svg" width="1495" height="340" viewBox="0 0 1495 340">
	<g clip-path="url(#squiz-darkblue_clip0_566_4211)">
		<g clip-path="url(#squiz-darkblue_clip1_566_4211)">
			<path fill="#26324b" d="M79.704 132.733c-18.157-5.072-35.213-13.921-48.965-26.816C5.333 82.095-15.13 54.395 15.015 16.829c21.131-23.4 61.473-21.074 84.924 0l143.337 125.554c14.612 12.8 1.772 36.535-16.937 31.309L79.704 132.733Zm244.495-32.964c23.975-21.546 18.248-61.925-5.727-83.47-23.975-21.546-62.847-21.546-86.822 0-28.473 19.593-30.409 60.94-3.892 83.11l30.211 25.255c9.626 8.047 23.56 8.293 33.464.59l32.766-25.486Z"/>
		</g>
		<g clip-path="url(#squiz-darkblue_clip2_566_4211)">
			<path fill="#26324b" d="M259.865 207.116c18.157 5.072 35.214 13.921 48.966 26.816 25.406 23.822 45.869 51.522 15.723 89.088-21.13 23.4-61.473 21.074-84.924 0L96.294 197.466c-14.612-12.8-1.772-36.535 16.937-31.309l146.634 40.959ZM15.371 240.081c-23.975 21.545-18.248 61.924 5.727 83.469 23.975 21.546 62.847 21.546 86.822 0 28.473-19.593 30.409-60.941 3.892-83.109l-30.211-25.256c-9.626-8.047-23.56-8.293-33.464-.59l-32.766 25.486Z"/>
		</g>
	</g>
	<path fill="#26324b" fill-rule="evenodd" d="M541.363 69.679c-16.03 0-29.025 13.082-29.025 29.22 0 16.136 12.995 29.218 29.025 29.218h36.94c51.004 0 92.35 41.624 92.35 92.97s-41.346 92.97-92.35 92.97h-84.435c-10.201 0-18.47-8.325-18.47-18.594 0-10.269 8.269-18.594 18.47-18.594h84.435c30.602 0 55.41-24.974 55.41-55.782 0-30.807-24.808-55.782-55.41-55.782h-36.94c-36.432 0-65.965-29.731-65.965-66.407 0-36.675 29.533-66.407 65.965-66.407h110.82c10.201 0 18.47 8.325 18.47 18.594 0 10.27-8.269 18.594-18.47 18.594h-110.82Zm931.707 60.685c40.79-32.016 18.3-97.873-33.42-97.873h-121.66c-10.2 0-18.47 8.325-18.47 18.594 0 10.27 8.27 18.594 18.47 18.594h121.66c16.57 0 23.77 21.1 10.7 31.357l-139.44 109.447c-43.16 33.88-19.36 103.574 35.37 103.574h129.15c10.2 0 18.47-8.325 18.47-18.594 0-10.269-8.27-18.594-18.47-18.594h-129.15c-19.58 0-28.1-24.936-12.65-37.058l139.44-109.447ZM879.511 84.199c-48.978-29.106-112.275-13.046-141.363 35.609-29.024 48.548-13.151 111.437 35.723 140.482 8.266 4.912 20.858 8.336 35.8 10.156 14.591 1.777 29.775 1.836 41.992 1.14 10.183-.579 18.905 7.263 19.484 17.515.574 10.253-7.216 19.034-17.398 19.614-13.812.786-31.247.752-48.513-1.351-16.916-2.06-35.422-6.301-50.144-15.05-66.408-39.466-88.285-125.292-48.594-191.682 39.627-66.284 125.488-87.86 191.79-48.457l-9.389 16.012 9.392-16.012c66.408 39.466 88.285 125.292 48.594 191.682-8.086 13.522-10.772 23.068-10.19 30.039.483 5.782 3.538 13.26 16.318 22.277 8.357 5.892 10.384 17.487 4.53 25.897-5.854 8.411-17.369 10.452-25.726 4.56-18.879-13.316-30.269-29.744-31.93-49.615-1.563-18.684 5.901-36.537 15.345-52.334 29.026-48.548 13.153-111.437-35.721-140.482Zm131.519-51.708c10.2 0 18.47 8.325 18.47 18.594v164.69c0 33.741 27.17 61.094 60.69 61.094 33.52 0 60.69-27.353 60.69-61.094V51.085c0-10.269 8.27-18.594 18.47-18.594s18.47 8.325 18.47 18.594v164.69c0 54.279-43.71 98.282-97.63 98.282-53.92 0-97.628-44.003-97.628-98.282V51.085c0-10.269 8.268-18.594 18.468-18.594Zm232.21 0c10.2 0 18.47 8.325 18.47 18.594v244.378c0 10.269-8.27 18.594-18.47 18.594s-18.47-8.325-18.47-18.594V51.085c0-10.269 8.27-18.594 18.47-18.594Z" clip-rule="evenodd"/>
</svg>
