<svg version="1.1" id="Layer_1" xmlns="http://www.w3.org/2000/svg" xmlns:xlink="http://www.w3.org/1999/xlink" x="0px" y="0px" viewBox="0 0 283.5 141.7" xml:space="preserve">
<g>
    <path fill="#737373" d="M176.5,60.4c-6.8,0-11.2,3.5-11.3,9.2l0,0.3h3.7l0-0.3c0.2-3.9,2.7-5.9,7.6-5.9c4.7,0,6.6,1.6,6.7,5.7
        c0,0,0,2.1,0,2.9c-0.5,0-4.8,0.4-4.8,0.4l-1.7,0.1c-3,0.2-5.9,0.5-8.3,1.6c-3,1.4-4.6,3.9-4.6,7.2c0,5,3.7,8.3,9.4,8.3
        c3.8,0,7.1-1.4,9.9-4.3c0,1,0,3.6,0,3.6h3.7V69C186.9,63.3,183.3,60.4,176.5,60.4z M173.7,86.5c-3.6,0-5.9-1.9-5.9-4.9
        c0-2.3,0.7-5.1,5.9-5.6c4.9-0.5,8.1-0.8,9.5-0.8c0,0.5,0,3.1,0,3.1C183.1,83.3,179.4,86.5,173.7,86.5z"></path>
    <path fill="#737373" d="M113.4,64.2V61c0,0-4.6,0-5.1,0c0-0.5,0-7.9,0-7.9h-3.8c0,0,0,7.4,0,7.9c-0.5,0-3.8,0-3.8,0v3.2
        c0,0,3.3,0,3.8,0c0,0.6,0,19.8,0,19.8c0,3.7,0.8,5.8,4.6,5.8c1.2,0,2.5-0.2,4-0.6l0.2-0.1v-3.2l-1,0.2c-0.9,0.2-1.7,0.4-2.4,0.4
        c-1.4,0-1.8-0.5-1.8-2.7c0,0,0-19.3,0-19.8C108.8,64.2,113.4,64.2,113.4,64.2"></path>
    <path fill="#737373" d="M8,85.5C8,85,8,71.7,8,71.1c0.6,0,19.7,0,19.7,0v-3.7c0,0-19.1,0-19.7,0c0-0.5,0-12.8,0-13.3
        c0.6,0,21.6,0,21.6,0v-3.7H3.9v38.8h26.3v-3.8C30.2,85.5,8.6,85.5,8,85.5"></path>
    <polyline fill="#737373" points="38.8,50.4 35.3,50.4 35.3,89.3 39.1,89.3 39.1,50.4 38.8,50.4   "></polyline>
    <path fill="#737373" d="M68.5,74.7c0-9-4.5-14.3-12.1-14.3c-7.8,0-12.4,5.5-12.4,14.9c0,9.3,4.6,14.7,12.3,14.7
        c6.5,0,11.1-3.7,11.8-9.5l0-0.3h-3.8l0,0.2c-0.6,3.9-3.6,6.2-7.8,6.2c-5.3,0-8.6-4-8.6-10.6c0.6,0,20.6,0,20.6,0V74.7z M48,72.9
        c0.4-5.6,3.6-9.1,8.4-9.1c4.8,0,7.8,3.4,8.2,9.1C64,72.9,48.6,72.9,48,72.9z"></path>
    <path fill="#737373" d="M93.7,79.1l0,0.2c-0.6,4.5-3.5,7.1-7.7,7.1c-5.4,0-8.7-4.4-8.7-11.4c0-7,3.3-11.3,8.7-11.3
        c4.1,0,7,2.5,7.5,6.4l0,0.2h3.7l0-0.3c-0.3-5.8-4.8-9.7-11.2-9.7c-7.7,0-12.6,5.7-12.6,14.9c0,9.1,4.7,14.6,12.4,14.6
        c6.7,0,11.2-4,11.8-10.4l0-0.3H93.7"></path>
    <path fill="#737373" d="M130.3,60.4c-8.2,0-13,5.4-13,14.8c0,9.4,4.7,14.7,13,14.7c8.3,0,13-5.3,13-14.7
        C143.3,65.7,138.6,60.4,130.3,60.4z M130.3,86.5c-5.8,0-9.1-4.1-9.1-11.3c0-7.3,3.3-11.4,9.1-11.4c5.8,0,9.1,4.2,9.1,11.4
        C139.4,82.4,136.1,86.5,130.3,86.5z"></path>
    <polyline fill="#737373" points="196.5,50.4 193,50.4 193,89.3 196.8,89.3 196.8,50.4 196.5,50.4     "></polyline>
    <path fill="#737373" d="M160.4,60.3c-3.9,0-6.5,1.5-8.3,4.7c0-1.4,0-4,0-4h-3.7v28.2h3.8V73.6c0-6.2,2.7-9.6,8.1-9.6h1.9v-3.7
        L160.4,60.3"></path>
    <path fill="#737373" d="M180.7,125.1l-1.5-0.3c-4.8-1.1-7.3-1.7-7.3-5.2c0-2.7,2.3-4.4,5.9-4.4c4.1,0,6.7,2.1,6.9,5.7l0,0.3h3.8l0-0.3
        c-0.4-5.7-4.3-9-10.6-9c-5.8,0-9.9,3.4-9.9,8.3c0,4.9,3.3,6.6,10.1,8.2c0,0,0.1,0,0.1,0c4.8,1.1,7.2,1.7,7.2,4.9
        c0,3-2.8,4.9-7.2,4.9c-4,0-6.9-2.6-7-6.3l0-0.3h-3.9l0,0.3c0.2,5.9,4.5,9.6,11,9.6c6.5,0,10.8-3.3,10.8-8.2
        C189.4,128.2,186.3,126.5,180.7,125.1"></path>
    <path fill="#737373" d="M207.2,125.1l-1.4-0.3c-4.9-1.1-7.4-1.7-7.4-5.2c0-2.7,2.3-4.4,5.9-4.4c4.1,0,6.7,2.1,6.9,5.7l0,0.3h3.9l0-0.3
        c-0.4-5.7-4.4-9-10.7-9c-5.8,0-9.8,3.4-9.8,8.3c0,4.9,3.2,6.6,10.2,8.2c0,0,0.1,0,0.1,0c4.7,1.1,7.1,1.7,7.1,4.9
        c0,3-2.7,4.9-7.1,4.9c-4.1,0-7-2.6-7.1-6.3l0-0.3h-3.8l0,0.3c0.2,5.9,4.4,9.6,11.1,9.6c6.4,0,10.8-3.3,10.8-8.2
        C215.8,128.2,212.7,126.5,207.2,125.1"></path>
    <path fill="#737373" d="M243.2,111.8c-8.2,0-13,5.4-13,14.8c0,9.4,4.8,14.8,13,14.8c8.3,0,13-5.4,13-14.8
        C256.1,117.2,251.4,111.8,243.2,111.8z M243.2,138c-5.8,0-9.1-4.2-9.1-11.4c0-7.3,3.2-11.4,9.1-11.4c5.8,0,9.1,4.2,9.1,11.4
        C252.3,133.8,248.9,138,243.2,138z"></path>
    <path fill="#737373" d="M282.3,115.8c-1.6-2.5-4.7-4-8.5-4c-3.8,0-6.8,1.5-8.9,4.5c0-1.2,0-3.8,0-3.8h-3.7v28.2h3.8v-16.6
        c0-5.5,3.1-8.9,8.1-8.9c5.5,0,6.5,2.7,6.5,8v17.5h3.8v-17.9C283.5,119.6,283.4,117.5,282.3,115.8"></path>
    <path fill="#737373" d="M52.2,111.8c-8.2,0-12.9,5.4-12.9,14.8c0,9.4,4.7,14.8,12.9,14.8c8.3,0,13-5.4,13-14.8
        C65.2,117.2,60.4,111.8,52.2,111.8z M52.2,138c-5.8,0-9.1-4.2-9.1-11.4c0-7.3,3.3-11.4,9.1-11.4c5.8,0,9.1,4.2,9.1,11.4
        C61.3,133.8,58,138,52.2,138z"></path>
    <path fill="#737373" d="M99.1,111.8c-3.8,0-6.9,1.8-8.8,5c-1.1-3.2-3.9-5-7.9-5c-3.6,0-6.6,1.6-8.5,4.6c0-1.2,0-3.9,0-3.9h-3.6v28.2
        h3.8v-17.4c0-4.9,3.2-8.2,7.9-8.2c3.8,0,5.5,2.1,5.5,6.5v19h3.8v-17.6c0-4.8,3-7.9,7.8-7.9c4,0,5.6,1.8,5.6,6.2v19.3h3.8v-19.6
        C108.4,114.9,105.3,111.8,99.1,111.8"></path>
    <path fill="#737373" d="M143.1,111.8c-3.9,0-6.9,1.8-8.8,5c-1.1-3.2-3.9-5-7.9-5c-3.6,0-6.6,1.6-8.5,4.6c0-1.2,0-3.9,0-3.9h-3.5v28.2
        h3.8v-17.4c0-4.9,3.2-8.2,7.9-8.2c3.7,0,5.5,2.1,5.5,6.5v19h3.8v-17.6c0-4.8,3-7.9,7.8-7.9c4,0,5.6,1.8,5.6,6.2v19.3h3.8v-19.6
        C152.3,114.9,149.2,111.8,143.1,111.8"></path>
    <path fill="#737373" d="M30.4,128.1l0,0.3c-0.5,6.3-4.6,9.6-11.2,9.6c-8.1,0-13-6.3-13-16.9c0-10.5,4.7-16.6,12.9-16.6
        c6.2,0,10.5,2.6,11,8l0,0.3h4.1l0-0.3c-0.4-7.6-6.3-11.7-15.1-11.7c-10.5,0-17.1,7.8-17.1,20.4c0,12.7,6.5,20.6,17,20.6
        c9.1,0,14.9-4.6,15.5-13.3l0-0.3H30.4"></path>
    <polyline fill="#737373" points="161.7,112.5 158.2,112.5 158.2,140.7 162,140.7 162,112.5 161.7,112.5   "></polyline>
    <rect fill="#737373" x="158.2" y="104.5" width="3.8" height="4.1"></rect>
    <polyline fill="#737373" points="224.6,112.5 221,112.5 221,140.7 224.8,140.7 224.8,112.5 224.6,112.5   "></polyline>
    <rect fill="#737373" x="221" y="104.5" width="3.8" height="4.1"></rect>
    <path fill="#737373" d="M27.6,0H0v3.7c0,0,11.3,0,11.9,0c0,0.6,0,35.1,0,35.1H16c0,0,0-34.6,0-35.1c0.6,0,11.9,0,11.9,0V0H27.6"></path>
    <path fill="#737373" d="M52.5,14c-1.6-2.5-4.7-4-8.5-4c-4,0-6.5,0.5-8.9,2.9c0-1.2,0-12.8,0-12.8h-3.8v38.8h3.8V19.9
        c0-5.5,3.3-6.6,8.3-6.6c5.6,0,6.5,2.6,6.5,8.5v17.1h3.8V21.7C53.6,18.3,53.6,15.9,52.5,14"></path>
    <path fill="#737373" d="M82.7,24.3c0-9-4.5-14.3-12.1-14.3c-7.8,0-12.4,5.6-12.4,14.9c0,9.2,4.6,14.7,12.3,14.7
        c6.5,0,11.1-3.7,11.8-9.5l0-0.3h-3.8l0,0.2c-0.6,3.8-3.6,6.2-7.8,6.2c-5.3,0-8.6-4.1-8.6-10.5c0.6,0,20.6,0,20.6,0V24.3z
         M62.1,22.4c0.4-5.6,3.6-9.1,8.4-9.1c4.8,0,7.9,3.4,8.2,9.1C78.1,22.4,62.7,22.4,62.1,22.4z"></path>
</g>
</svg>
