<svg preserveAspectRatio="xMidYMid meet" xmlns="http://www.w3.org/2000/svg" xmlns:xlink="http://www.w3.org/1999/xlink" width="200" height="98" x="0px" y="0px" viewBox="0 0 200 97.0725">
	<g style="transform: scale(3.225)">
		<path fill="#737373" d="M18.6,27.4h-5.2v-2.8h-0.1C11.9,26.9,9.6,28,7.2,28C1.5,28,0,24.7,0,19.8V7.6h5.5v11.2c0,3.3,1,4.9,3.5,4.9c3,0,4.2-1.6,4.2-5.7V7.6h5.5V27.4L18.6,27.4z"></path>
		<path fill="#737373" d="M22.3,13.7C22.6,8.6,27.1,7,31.6,7c4,0,8.7,0.9,8.7,5.7v10.4c0,1.8,0.2,3.6,0.7,4.4h-5.5c-0.2-0.6-0.4-1.3-0.4-1.9c-1.7,1.8-4.3,2.4-6.7,2.4c-3.8,0-6.8-1.9-6.8-6c0-4.5,3.4-5.6,6.8-6c3.3-0.5,6.5-0.4,6.5-2.6c0-2.3-1.6-2.7-3.5-2.7c-2.1,0-3.4,0.8-3.6,3H22.3z M34.8,17.7c-0.9,0.8-2.9,0.8-4.5,1.2c-1.7,0.4-3.2,0.9-3.2,2.9c0,2,1.6,2.5,3.3,2.5c4.3,0,4.4-3.4,4.4-4.6L34.8,17.7L34.8,17.7z"></path>
		<path fill="#737373" d="M44.5,0h5.5v27.4h-5.5V0z"></path>
		<path fill="#737373" d="M62,13.8h-6V7.9h6V13.8z M56,21.5h6v5.9h-6V21.5z"></path>
	</g>
</svg>
