<svg id="Layer_2_1_" xmlns="http://www.w3.org/2000/svg" viewBox="0 0 140 29"><style>.st0{fill:#bbb}</style><path class="st0" d="M107.8 4.3h5.7v19.8h-5.7zM126.6 24.1h9.6V18h-3.9V4.3h-5.7zM115.5 24.1h9.7V18h-3.9V4.3h-5.8zM100 4.3v7h-2.8v-7h-5.6v19.8h5.6v-7.8h2.8v7.8h5.7V4.3z"/><linearGradient id="SVGID_1_" gradientUnits="userSpaceOnUse" x1="67.044" y1="1906.162" x2="72.93" y2="1864.286" gradientTransform="matrix(1 0 0 -1 0 1901)"><stop offset=".014" stop-color="#bca979"/><stop offset=".708" stop-color="#dcc194"/></linearGradient><path d="M55.6 24.1c1.1 0 2.2-.6 4-2.5-.5 1.5.1 2.5 1.4 2.5 1.4 0 2.6-1.5 3.9-3.1l5.4-6.6c1.2-1.4 2-2.3 3-2.3.9 0 .7 1-.5 2.5-1 1.3-7.3 9.2-7.3 9.2H68l6.5-8.5c2-2.5 3.3-3.3 4-3.3.4 0 .5.3.5.6 0 .8-.6 1.5-2.4 3.7l-5.9 7.4h2.6l6.5-8.4c2.4-3.2 3.3-3.3 3.8-3.3.4 0 .5.3.5.6 0 1.9-5.4 5.9-5.4 9.4 0 1.1.8 2 2.3 2 4.2 0 8.5-9.1 8.5-14 0-4.1-2.4-6.1-5.1-6.1-3.9 0-5.4 2.2-5.4 3.8 0 1.4.7 2.1 2.1 2.1 1.9 0 3.2-2.2 3.2-2.8 0-.1 0-.1-.1-.2-.7 1.7-1.9 2.3-2.8 2.3-1 0-1.6-.6-1.6-1.6 0-1.1 1.2-3.1 4.4-3.1 2.9 0 4.6 1.9 4.6 5.6 0 6.4-4.3 13.1-7.4 13.1-.7 0-.9-.4-.9-.8 0-1.1 1.7-2.7 3.1-4.8 1.1-1.7 2.2-3.3 2.2-4.8 0-1.2-.5-1.8-1.4-1.8-.9 0-2 .7-3.9 2.7.3-1.2.4-2.7-1.1-2.7-.8 0-2.2.6-4.2 2.9.6-1.8 0-2.9-1.2-2.9-1.3 0-2.1.9-3.1 2.1l-4.8 5.8c-1.8 2.1-3.4 4.4-4.4 4.4-.7 0-1-1 .2-2.4l7.7-9.7h-2.8l-.8 1.1c-.1-.7-.6-1-1.2-1-2 0-4.6 1.5-6.5 3.3-1.6 1.6-3 3.9-3.6 5.6-1 1.3-2.7 3.3-3.9 3.3-.8 0-1-1 .1-2.4l7.7-9.7h-2.8s-3.2 4.4-5.3 7.3c-.6.7-2.3 3-2.9 3.5-.9.9-1.7 1.3-2.2 1.3-.8 0-1-1 .1-2.4 1-1.3 12.1-15.2 12.1-15.2h-2.8s-7.1 9.4-9.7 12.8c-.6.7-2.3 3-2.9 3.5-.9.9-1.7 1.3-2.2 1.3-.8 0-1-1 .1-2.4C40.9 19.8 52 5.9 52 5.9h-2.8s-8 10.5-10.1 13.3v.1s0 .1-.1.1c-.7 1-3 4.1-4.5 4.1-.8 0-1-1 .1-2.4l7.7-9.7h-2.8s-3.7 5-5.7 7.9-1.2 4.9.6 4.9c1.6 0 2.7-1.2 3.6-2.3-.2 1.4.6 2.3 1.8 2.3 1.6 0 2.7-1.2 3.6-2.3-.2 1.4.6 2.3 1.8 2.3 1.7 0 2.8-1.3 3.7-2.3-.2 1.4.6 2.3 1.8 2.3 1.4 0 2.7-1.3 3.6-2.3-.2.9 0 2.2 1.3 2.2zm5.4-9.9c1.8-1.8 2.8-2 3.2-2 .4 0 .5.2.5.7 0 1.4-4.8 7.5-6 8.7-.6.6-1.8 1.6-2.7 1.6-1.9 0 1.6-5.6 5-9zm-15.5-7c.3-.8-.1-1.5-.9-1.5s-1.6.7-1.9 1.5.1 1.5.9 1.5c.7 0 1.6-.6 1.9-1.5zm14.4 1.5c.8 0 1.6-.7 1.9-1.5s-.1-1.5-.9-1.5-1.6.7-1.9 1.5c-.3.9.1 1.5.9 1.5zM18 27.2c-5 0-8-3.1-8.7-7.2.3.1.5.1.8.1.6 0 1.5-.1 2.5-.6.4.3 1 .5 1.7.5 5.2 0 9.1-9.8 5.8-12.6 2.8-1.3 5.7-1.7 7.8-.5-.5.4-1 .8-1.5 1.3-4 4-5.8 12.1-8.9 15.3-.3-.1-.7-.2-1.1-.2-.6 0-1.1.3-1.2.6s.3.6.9.6c.5 0 .9-.1 1.5-.5.3 0 .6.1 1 .1 1.2 0 2.4-.5 3.7-1.9 3.5-3.5 6.5-10.8 8.5-12.2-1.9 3.2-4 10.5-6.8 13.5-.3-.1-.6-.2-1.1-.2-.6 0-1.1.3-1.2.6-.1.3.3.6.9.6.5 0 .9-.1 1.6-.5.3.1.7.2 1.1.2 1 0 2.2-.6 3.2-1.6 3.7-3.7 8.4-11.3 12.3-15.2C42.4 6 44.9 4 48.3 4c3.1 0 5.1 1.9 5.1 1.9.1-.1 0-.2-.1-.4-1.7-1.7-3.7-2.4-5.5-2.4-1.8 0-4.9.6-8.6 4.3-4 4-8.5 11.9-11.4 14.9-1.2 1.2-2 1.5-2.7 1.5-.2 0-.3 0-.5-.1.5-.4 1.1-.9 1.8-1.6 4.8-4.8 5.9-13.7 8.6-16.4-.2-.2-1.5.1-3.8 2.4-3.7 3.7-5.9 10.3-9.5 13.9-1.2 1.2-2.4 1.6-3.1 1.6-.2 0-.3 0-.5-.1.5-.4 1-.8 1.7-1.5 2.7-2.7 5.6-10.9 8.8-14.9 3.5-.2 3.5-1.9 2.4-1.9-.6 0-1.6.4-2.5 1-.9-.8-2.4-1.4-4.5-1.4-2.2 0-4.3.6-6.2 1.6-4.1 0-9.7 4.3-9.7 11.5v.6c-1-.6-1.8-1.8-1.8-3.8 0-5.8 8.9-12.9 19.3-12.9 4.2 0 8.4 1.4 11.1 3.3l.2-.2C35.3 3.3 31.3.7 24.4.7c-9 0-19 5.3-19 13.9 0 2.3 1.4 3.9 2.8 4.6.6 5.2 4.9 8.3 9.3 8.3H136v-.7l-118 .4zm1.4-19.5C23 10 19 19.4 14.5 19.4c-.5 0-.9-.1-1.2-.3 1.5-1 3-2.8 4-6.2l-.2-.1c-.7 2.3-2.3 4.7-4.2 5.9-.5-.7-.7-1.6-.7-2.6-.1-2.8 3.3-6.4 7.2-8.4zM9.1 18c0-4.6 3.9-10 7.7-10.6-3.3 2.2-5.6 5.6-5.6 8.6 0 1.2.3 2.4.9 3.2-.6.3-1.3.5-1.9.5-.3 0-.7-.1-1.1-.2V18z" fill="url(#SVGID_1_)"/></svg>
