<svg xmlns="http://www.w3.org/2000/svg" viewBox="0 0 178.85 54.4" class="logo-footer"><g id="Layer_2" data-name="Layer 2"><g id="nav"><g id="Layer_3" data-name="Layer 3"><circle fill="#737373" cx="174.34" cy="49.86" r="4.52"/><path fill="#737373" d="M170.23,36.17v.08A18.12,18.12,0,1,1,162,21.08V0h8.21Zm-8.21.08a9.92,9.92,0,1,0-9.91,9.91A9.92,9.92,0,0,0,162,36.25Z"/><path fill="#737373" d="M112.23,18.12A18.13,18.13,0,1,1,94.1,36.25,18.13,18.13,0,0,1,112.23,18.12Zm9.91,18.13a9.92,9.92,0,1,0-9.91,9.91A9.92,9.92,0,0,0,122.14,36.25Z"/><path fill="#737373" d="M72.35,18.12A18.13,18.13,0,1,1,54.22,36.25,18.13,18.13,0,0,1,72.35,18.12Zm9.91,18.13a9.91,9.91,0,1,0-9.91,9.91A9.92,9.92,0,0,0,82.26,36.25Z"/><polygon fill="#737373" points="18.83 36.58 28.4 18.95 28.4 18.95 37.97 36.58 47.54 18.12 56.8 18.12 37.97 54.4 28.4 36.78 28.4 36.78 18.83 54.4 0 18.12 9.25 18.12 18.83 36.58"/></g></g></g></svg>
