<?xml version="1.0" encoding="utf-8"?>
<!-- Generator: Adobe Illustrator 15.0.0, SVG Export Plug-In . SVG Version: 6.00 Build 0)  -->
<!DOCTYPE svg PUBLIC "-//W3C//DTD SVG 1.1//EN" "http://www.w3.org/Graphics/SVG/1.1/DTD/svg11.dtd">
<svg version="1.1" id="Layer_1" xmlns="http://www.w3.org/2000/svg" xmlns:xlink="http://www.w3.org/1999/xlink" x="0px" y="0px"
	 width="120px" height="120px" viewBox="0 0 120 120" enable-background="new 0 0 120 120" xml:space="preserve">
<g>
	<g>
		<path fill="#5F8BA7" d="M3.298,0.371c1.208-0.833,4.001,0,6.001,0C23.791,5.663,32.757,16.48,47.311,21.71
			c4.479,10.192,7.943,21.397,13.336,30.675c7.063-0.64,12.081,0.562,17.337-1.334c2.275-1.519-3.042-2.584-0.666-4.001
			c3.849,1.484,8.85,1.819,12.67,3.334c-0.263-3.074-3.527-3.141-4.001-6.002c8.333-1.443,9.555,4.228,14.672,6.002
			c-0.664-3.362-4.801-8.778-1.335-12.003c3.792,1.766,4.645,6.469,8.002,8.669c-2.969-4.991-2.142-9.599,0-15.337
			c2.895,5.998,3.089,14.695,8.003,18.672c1.095-4.241-0.104-10.773,4.668-11.336c0,0.666,0,1.333,0,2
			c-1.553,6.45-0.226,15.78-0.667,23.34c-6.088,0.16-6.628,3.727-13.337,2c-7.476,3.416-14.739,7.044-22.006,10.67
			c0.681,3.985,4.767,4.568,5.334,8.669c-5.226,3.627-2.556,14.128-4.667,19.339c-4.817-4.766-5.134-13.051-12.004-14.671
			c-9.178-2.164-15.467,5.35-23.34,7.335c0.42,9.54,8.549,17.628-2.001,22.007c-0.445,0-0.889,0-1.334,0
			c1.109-2.349,1.686-3.238,0-5.336c1.334,0,2.667,0,4.002,0c0-1.333,0-2.666,0-4c-3.751-2.474-8.674,1.552-10.003,1.334
			c-0.294-4.518,5.125-3.323,6.001-6.669c1.488-0.099-0.865-1.682,0-3.334c-2.79,0.541-1.936,4.731-5.334,4.667
			c-0.175-1.954,1.508-2.048,1.334-4.002c-1.607-0.271-1.45,1.219-3.335,0.668c0.867-2.023,4.215-1.565,3.335-5.335
			c-1.25-0.974-4.419-0.025-5.335-1.334c2.135-0.977,3.938-2.284,7.336-2.001c0-1.334,0-2.667,0-4
			c-7.083,0.214-13.897-2.654-21.531-2.67c-0.158,0-0.579-0.322-0.636-0.481c-1.263-3.462-4.185-5.263-8.673-5.498
			c-0.166-0.011-0.651-0.398-0.736-0.585c-2.345-5.197-9.665-10.24-11.026-12.79c-1.18-2.209-1.372-4.602-1.403-6.365
			c-0.006-0.345,0.576-0.488,0.886-0.264c0.314,0.231,0.641,0.458,0.98,0.681c7.635,5.04,21.339,8.309,30.136,7.3
			c0.965-2.522-1.832-1.279-1.333-3.335c4.721-1.504,9.036-3.411,12.671-6.001c-10.091-5.024-13.875-16.355-14.671-30.676
			C20.656,17.72,2.089,1.204,3.298,0.371z M47.978,94.396c0.183-1.375,2.484-0.627,2.667-2c-0.52-0.15-0.775-0.559-0.667-1.335
			c-0.889,0-1.779,0-2.668,0C47.675,92.031,46.531,94.509,47.978,94.396z"/>
	</g>
</g>
</svg>
